# File produced by Open Asset Import Library (http://www.assimp.sf.net)
# (assimp v3.1.137539927)

mtllib 3D_Door_Rex.mtl

# vertex positions
v -0.673554 2.127573 0.029344
v -0.673627 0.001443 0.029344
v -0.673627 0.001443 0.208778
v -0.673554 2.127573 0.208778
v 0.669933 2.147359 0.208778
v 0.669933 2.147359 0.029344
v 0.670006 0.001443 0.029344
v 0.670006 0.001443 0.208778
v 0.390415 1.051924 0.286677
v 0.567464 1.051924 0.286677
v 0.567464 1.056126 0.289519
v 0.390415 1.056126 0.289519
v 0.390415 1.056126 0.251462
v 0.567464 1.056126 0.251462
v 0.567464 1.051924 0.254304
v 0.390415 1.051924 0.254304
v 0.390415 1.075115 0.264308
v 0.567464 1.075115 0.264308
v 0.567464 1.072975 0.258730
v 0.390415 1.072975 0.258730
v 0.567464 1.060783 0.290498
v 0.390415 1.060783 0.290498
v 0.567464 1.048590 0.258730
v 0.390415 1.048590 0.258730
v 0.567464 1.069641 0.254304
v 0.390415 1.069641 0.254304
v 0.567464 1.065439 0.289519
v 0.390415 1.065439 0.289519
v 0.567464 1.046450 0.264308
v 0.390415 1.046450 0.264308
v 0.567464 1.065439 0.251462
v 0.390415 1.065439 0.251462
v 0.567464 1.069641 0.286677
v 0.390415 1.069641 0.286677
v 0.567464 1.045712 0.270491
v 0.390415 1.045712 0.270491
v 0.567464 1.060783 0.250483
v 0.390415 1.060783 0.250483
v 0.567464 1.072975 0.282251
v 0.390415 1.072975 0.282251
v 0.567464 1.046450 0.276673
v 0.390415 1.046450 0.276673
v 0.567464 1.075115 0.276673
v 0.390415 1.075115 0.276673
v 0.567464 1.048590 0.282251
v 0.390415 1.048590 0.282251
v 0.567464 1.075853 0.270491
v 0.390415 1.075853 0.270491
v 0.390415 1.072521 0.265115
v 0.390415 1.070719 0.272546
v 0.390415 1.067876 0.279955
v 0.390415 1.064407 0.286259
v 0.390415 1.067987 0.260406
v 0.390415 1.065323 0.268289
v 0.390415 1.062110 0.276662
v 0.390415 1.058872 0.284156
v 0.390415 1.062693 0.256825
v 0.390415 1.059455 0.264320
v 0.390415 1.056242 0.272692
v 0.390415 1.053578 0.280575
v 0.390415 1.057158 0.254723
v 0.390415 1.053689 0.261026
v 0.390415 1.050846 0.268435
v 0.390415 1.049044 0.275866
v 0.601168 0.908194 0.205552
v 0.613756 0.923675 0.205552
v 0.613756 0.923675 0.216478
v 0.601168 0.908194 0.216478
v 0.544267 0.978173 0.205552
v 0.550682 0.947789 0.205552
v 0.550682 0.947789 0.216478
v 0.544267 0.978173 0.216478
v 0.605691 1.115517 0.205552
v 0.587214 1.120851 0.205552
v 0.587214 1.120851 0.216478
v 0.605691 1.115517 0.216478
v 0.623747 0.947789 0.205552
v 0.623747 0.947789 0.216478
v 0.560672 0.923675 0.205552
v 0.560672 0.923675 0.216478
v 0.568737 1.115517 0.205552
v 0.568737 1.115517 0.216478
v 0.630161 0.978173 0.205552
v 0.630161 0.978173 0.216478
v 0.573260 0.908194 0.205552
v 0.573260 0.908194 0.216478
v 0.552068 1.100035 0.205552
v 0.552068 1.100035 0.216478
v 0.632371 1.011855 0.205552
v 0.632371 1.011855 0.216478
v 0.587214 0.902859 0.205552
v 0.587214 0.902859 0.216478
v 0.544911 1.075921 0.205552
v 0.544911 1.075921 0.216478
v 0.631410 1.045537 0.205552
v 0.631410 1.045537 0.216478
v 0.543019 1.045537 0.205552
v 0.543019 1.045537 0.216478
v 0.629517 1.075921 0.205552
v 0.629517 1.075921 0.216478
v 0.542057 1.011855 0.205552
v 0.542057 1.011855 0.216478
v 0.622360 1.100035 0.205552
v 0.622360 1.100035 0.216478
v 0.579469 1.084739 0.216478
v 0.586952 1.085924 0.216478
v 0.594436 1.084739 0.216478
v 0.601186 1.081299 0.216478
v 0.606544 1.075942 0.216478
v 0.572718 1.081299 0.216478
v 0.567361 1.075942 0.216478
v 0.563921 1.069191 0.216478
v 0.609984 1.069191 0.216478
v 0.611169 1.061707 0.216478
v 0.609984 1.054224 0.216478
v 0.606544 1.047473 0.216478
v 0.562736 1.061707 0.216478
v 0.563921 1.054224 0.216478
v 0.567361 1.047473 0.216478
v 0.572718 1.042116 0.216478
v 0.579469 1.038676 0.216478
v 0.586952 1.037491 0.216478
v 0.601186 1.042116 0.216478
v 0.594436 1.038676 0.216478
v 0.609984 1.054224 0.248511
v 0.606544 1.047473 0.248511
v 0.567361 1.047473 0.248511
v 0.563921 1.054224 0.248511
v 0.611169 1.061707 0.248511
v 0.572718 1.042116 0.248511
v 0.579469 1.084739 0.248511
v 0.586952 1.085924 0.248511
v 0.609984 1.069191 0.248511
v 0.579469 1.038676 0.248511
v 0.572718 1.081299 0.248511
v 0.606544 1.075942 0.248511
v 0.586952 1.037491 0.248511
v 0.567361 1.075942 0.248511
v 0.601186 1.081299 0.248511
v 0.594436 1.038676 0.248511
v 0.563921 1.069191 0.248511
v 0.594436 1.084739 0.248511
v 0.601186 1.042116 0.248511
v 0.562736 1.061707 0.248511
v 0.586952 1.030222 0.248511
v 0.577223 1.031763 0.248511
v 0.561480 1.080214 0.248511
v 0.568446 1.087179 0.248511
v 0.605459 1.087179 0.248511
v 0.612424 1.080214 0.248511
v 0.596682 1.031763 0.248511
v 0.557008 1.071437 0.248511
v 0.596682 1.091652 0.248511
v 0.605459 1.036235 0.248511
v 0.555467 1.061707 0.248511
v 0.586952 1.093192 0.248511
v 0.612424 1.043201 0.248511
v 0.557008 1.051978 0.248511
v 0.616896 1.051978 0.248511
v 0.561480 1.043201 0.248511
v 0.618437 1.061707 0.248511
v 0.568446 1.036235 0.248511
v 0.577223 1.091652 0.248511
v 0.616896 1.071437 0.248511
v 0.561480 1.043201 0.292665
v 0.557008 1.051978 0.292665
v 0.618437 1.061707 0.292665
v 0.616896 1.051978 0.292665
v 0.568446 1.036235 0.292665
v 0.577223 1.091652 0.292665
v 0.586952 1.093192 0.292665
v 0.616896 1.071437 0.292665
v 0.577223 1.031763 0.292665
v 0.568446 1.087179 0.292665
v 0.612424 1.080214 0.292665
v 0.586952 1.030222 0.292665
v 0.561480 1.080214 0.292665
v 0.605459 1.087179 0.292665
v 0.596682 1.031763 0.292665
v 0.557008 1.071437 0.292665
v 0.596682 1.091652 0.292665
v 0.605459 1.036235 0.292665
v 0.555467 1.061707 0.292665
v 0.612424 1.043201 0.292665
v 0.594524 1.086521 0.292665
v 0.601772 1.076601 0.292665
v 0.607712 1.064942 0.292665
v 0.611477 1.053248 0.292665
v 0.582961 1.083212 0.292665
v 0.589726 1.071418 0.292665
v 0.596439 1.058243 0.292665
v 0.602004 1.045838 0.292665
v 0.571901 1.077577 0.292665
v 0.577466 1.065171 0.292665
v 0.584179 1.051997 0.292665
v 0.590944 1.040203 0.292665
v 0.562427 1.070167 0.292665
v 0.566192 1.058473 0.292665
v 0.572133 1.046813 0.292665
v 0.579381 1.036894 0.292665

# UV coordinates
vt 0.882392 0.640334
vt 0.882392 0.003365
vt 0.936148 0.003365
vt 0.936148 0.640334
vt 0.996635 0.815175
vt 0.942878 0.815175
vt 0.942878 0.412635
vt 0.996635 0.412635
vt 0.996635 0.405905
vt 0.942878 0.405905
vt 0.942878 0.003365
vt 0.996635 0.003365
vt 0.875661 0.003365
vt 0.875661 0.646261
vt 0.821905 0.646261
vt 0.821905 0.003365
vt 0.412657 0.640333
vt 0.412635 0.003365
vt 0.815175 0.003365
vt 0.815153 0.646261
vt 0.405905 0.646261
vt 0.003365 0.646261
vt 0.003387 0.009293
vt 0.405883 0.003365
vt 0.375915 0.006866
vt 0.375915 0.527064
vt 0.357950 0.527064
vt 0.357950 0.006866
vt 0.436124 0.006866
vt 0.436124 0.527064
vt 0.418160 0.527064
vt 0.418160 0.006866
vt 0.737532 0.007374
vt 0.737532 0.520775
vt 0.719567 0.522250
vt 0.719567 0.008849
vt 0.338037 0.527064
vt 0.338037 0.006866
vt 0.403903 0.527064
vt 0.403903 0.006866
vt 0.508173 0.006866
vt 0.508173 0.527064
vt 0.493916 0.527064
vt 0.493916 0.006866
vt 0.318123 0.527064
vt 0.318123 0.006866
vt 0.933737 0.006866
vt 0.933737 0.463901
vt 0.915772 0.468273
vt 0.915772 0.011238
vt 0.475952 0.527064
vt 0.475952 0.006866
vt 0.300159 0.527064
vt 0.300159 0.006866
vt 0.895859 0.469779
vt 0.895859 0.012744
vt 0.456038 0.527064
vt 0.456038 0.006866
vt 0.285902 0.527064
vt 0.285902 0.006866
vt 0.875945 0.468273
vt 0.875945 0.011238
vt 0.795323 0.008849
vt 0.795323 0.522250
vt 0.777359 0.520775
vt 0.777359 0.007374
vt 0.857981 0.463901
vt 0.857981 0.006866
vt 0.757445 0.520267
vt 0.757445 0.006866
vt 0.390171 0.006866
vt 0.390171 0.527064
vt 0.641789 0.887806
vt 0.630054 0.904150
vt 0.631343 0.883537
vt 0.647958 0.868617
vt 0.627514 0.858710
vt 0.647958 0.848460
vt 0.619319 0.833269
vt 0.641789 0.829308
vt 0.607955 0.810937
vt 0.630053 0.813038
vt 0.594914 0.795070
vt 0.613902 0.801240
vt 0.613902 0.916048
vt 0.610030 0.895547
vt 0.602823 0.868716
vt 0.593562 0.839969
vt 0.583759 0.813998
vt 0.574949 0.795132
vt 0.594914 0.922336
vt 0.586104 0.903470
vt 0.576301 0.877499
vt 0.567040 0.848752
vt 0.559833 0.821921
vt 0.555961 0.801420
vt 0.574949 0.922398
vt 0.561907 0.906532
vt 0.550544 0.884199
vt 0.542349 0.858758
vt 0.538520 0.833931
vt 0.539809 0.813318
vt 0.555961 0.916229
vt 0.539809 0.904431
vt 0.528074 0.888160
vt 0.521905 0.869009
vt 0.521905 0.848852
vt 0.528074 0.829662
vt 0.947469 0.006866
vt 0.947469 0.077626
vt 0.982662 0.077626
vt 0.982662 0.006866
vt 0.844249 0.285649
vt 0.844249 0.161308
vt 0.809055 0.161308
vt 0.809055 0.285649
vt 0.893174 0.578906
vt 0.893174 0.520314
vt 0.857981 0.520314
vt 0.857981 0.578906
vt 0.947469 0.183848
vt 0.982662 0.183848
vt 0.844249 0.065246
vt 0.809055 0.065246
vt 0.893174 0.483511
vt 0.857981 0.483511
vt 0.947469 0.315135
vt 0.982662 0.315135
vt 0.844249 0.006866
vt 0.809055 0.006866
vt 0.844249 0.876231
vt 0.844249 0.802233
vt 0.809055 0.802233
vt 0.809055 0.876231
vt 0.947469 0.458636
vt 0.982662 0.458636
vt 0.441847 0.657699
vt 0.441847 0.701839
vt 0.477040 0.701839
vt 0.477040 0.657699
vt 0.844249 0.697017
vt 0.809055 0.697017
vt 0.947469 0.600822
vt 0.982662 0.600822
vt 0.844249 0.568241
vt 0.809055 0.568241
vt 0.947469 0.728664
vt 0.982662 0.728664
vt 0.844249 0.426099
vt 0.809055 0.426099
vt 0.947469 0.827774
vt 0.982662 0.827774
vt 0.441847 0.738627
vt 0.477040 0.738627
vt 0.893174 0.653552
vt 0.857981 0.653552
vt 0.122876 0.160811
vt 0.144958 0.156175
vt 0.148655 0.006866
vt 0.093929 0.028609
vt 0.166842 0.161673
vt 0.202486 0.030737
vt 0.186385 0.176768
vt 0.250154 0.097886
vt 0.201674 0.199981
vt 0.269157 0.201390
vt 0.102756 0.175128
vt 0.043666 0.093838
vt 0.086569 0.197724
vt 0.020620 0.196517
vt 0.075899 0.226388
vt 0.012513 0.326311
vt 0.211212 0.229041
vt 0.272170 0.331402
vt 0.214067 0.261102
vt 0.272170 0.475456
vt 0.209958 0.293027
vt 0.262854 0.619328
vt 0.199287 0.321691
vt 0.241465 0.748862
vt 0.071790 0.258313
vt 0.006866 0.470255
vt 0.074644 0.290374
vt 0.010535 0.614381
vt 0.084183 0.319434
vt 0.026830 0.744653
vt 0.099472 0.342647
vt 0.054155 0.848320
vt 0.119015 0.357742
vt 0.089837 0.915234
vt 0.140898 0.363240
vt 0.130381 0.938845
vt 0.183100 0.344287
vt 0.210097 0.851378
vt 0.162981 0.358604
vt 0.171820 0.916842
vt 0.677850 0.808528
vt 0.677850 0.838533
vt 0.781021 0.838533
vt 0.781021 0.808528
vt 0.781021 0.615922
vt 0.781021 0.589371
vt 0.677850 0.589371
vt 0.677850 0.615922
vt 0.677850 0.870704
vt 0.781021 0.870704
vt 0.781021 0.569703
vt 0.677850 0.569703
vt 0.825952 0.889963
vt 0.809055 0.889963
vt 0.809055 0.993134
vt 0.825952 0.993134
vt 0.677850 0.901891
vt 0.781021 0.901891
vt 0.441847 0.643967
vt 0.463793 0.643967
vt 0.463793 0.540796
vt 0.441847 0.540796
vt 0.781021 0.752534
vt 0.781021 0.734466
vt 0.677850 0.734466
vt 0.677850 0.752534
vt 0.677850 0.929042
vt 0.781021 0.929042
vt 0.486309 0.643967
vt 0.486309 0.540796
vt 0.781021 0.709078
vt 0.677850 0.709078
vt 0.896913 0.889963
vt 0.872142 0.889963
vt 0.872142 0.993134
vt 0.896913 0.993134
vt 0.507193 0.643967
vt 0.507193 0.540796
vt 0.781021 0.678855
vt 0.677850 0.678855
vt 0.847690 0.889963
vt 0.847690 0.993134
vt 0.677850 0.766265
vt 0.677850 0.783627
vt 0.781021 0.783627
vt 0.781021 0.766265
vt 0.781021 0.646756
vt 0.677850 0.646756
vt 0.602667 0.040424
vt 0.625073 0.037765
vt 0.628436 0.006866
vt 0.599304 0.010324
vt 0.563230 0.219469
vt 0.550060 0.194991
vt 0.530907 0.211284
vt 0.548030 0.243108
vt 0.664510 0.207446
vt 0.646383 0.228518
vt 0.656142 0.254874
vt 0.679710 0.227477
vt 0.646383 0.045182
vt 0.656142 0.016509
vt 0.543136 0.165200
vt 0.521905 0.172551
vt 0.625073 0.240994
vt 0.628436 0.271095
vt 0.664510 0.061950
vt 0.679710 0.038310
vt 0.543136 0.133011
vt 0.521905 0.130701
vt 0.602667 0.243654
vt 0.599304 0.274553
vt 0.677680 0.086428
vt 0.696833 0.070135
vt 0.550060 0.101577
vt 0.530907 0.089831
vt 0.684605 0.116219
vt 0.705835 0.108868
vt 0.563230 0.073972
vt 0.548030 0.053941
vt 0.684605 0.148407
vt 0.705835 0.150718
vt 0.581357 0.052901
vt 0.571598 0.026545
vt 0.581357 0.236237
vt 0.571598 0.264909
vt 0.677681 0.179842
vt 0.696833 0.191588
vt 0.428115 0.600886
vt 0.428115 0.566367
vt 0.285902 0.566367
vt 0.285902 0.600886
vt 0.521905 0.663662
vt 0.521905 0.705489
vt 0.664118 0.705489
vt 0.664118 0.663662
vt 0.428115 0.540796
vt 0.285902 0.540796
vt 0.378161 0.934447
vt 0.400130 0.934447
vt 0.400130 0.792234
vt 0.378161 0.792234
vt 0.521905 0.746037
vt 0.664118 0.746037
vt 0.413862 0.934447
vt 0.442394 0.934447
vt 0.442394 0.792234
vt 0.413862 0.792234
vt 0.428115 0.778502
vt 0.428115 0.755012
vt 0.285902 0.755012
vt 0.285902 0.778502
vt 0.521905 0.781338
vt 0.664118 0.781338
vt 0.471669 0.934447
vt 0.471669 0.792234
vt 0.428115 0.722004
vt 0.285902 0.722004
vt 0.285902 0.934447
vt 0.318108 0.934447
vt 0.318108 0.792234
vt 0.285902 0.792234
vt 0.498821 0.934447
vt 0.498821 0.792234
vt 0.428115 0.682710
vt 0.285902 0.682710
vt 0.349899 0.934447
vt 0.349899 0.792234
vt 0.521905 0.569703
vt 0.521905 0.592276
vt 0.664118 0.592276
vt 0.664118 0.569703
vt 0.428115 0.640975
vt 0.285902 0.640975
vt 0.521905 0.624652
vt 0.664118 0.624652
vt 0.679710 0.319729
vt 0.656142 0.297928
vt 0.628436 0.288285
vt 0.647465 0.319053
vt 0.696833 0.351554
vt 0.664046 0.363524
vt 0.705835 0.390287
vt 0.676005 0.414977
vt 0.705835 0.432136
vt 0.681592 0.465885
vt 0.696833 0.473006
vt 0.679710 0.508896
vt 0.599304 0.291743
vt 0.612159 0.329443
vt 0.626463 0.381729
vt 0.639976 0.439869
vt 0.650492 0.494374
vt 0.656142 0.536292
vt 0.571598 0.307964
vt 0.577248 0.349883
vt 0.587764 0.404387
vt 0.601277 0.462527
vt 0.615581 0.514813
vt 0.628436 0.552513
vt 0.548030 0.335360
vt 0.546148 0.378371
vt 0.551735 0.429279
vt 0.563694 0.480732
vt 0.580275 0.525203
vt 0.599304 0.555972
vt 0.530907 0.371250
vt 0.521905 0.412120
vt 0.521905 0.453969
vt 0.530907 0.492702
vt 0.548030 0.524527
vt 0.571598 0.546328

# vertex normals
vn -1.000000 -0.000000 -0.000000
vn -0.014700 0.999892 0.000000
vn -0.000000 -1.000000 -0.000000
vn 1.000000 0.000000 0.000000
vn 0.000000 0.000000 1.000000
vn -0.000000 -0.000000 -1.000000
vn 0.000000 -0.688928 0.724830
vn 0.000000 -0.390296 0.920690
vn -0.000000 -0.390296 -0.920690
vn -0.000000 -0.688928 -0.724830
vn 0.000000 0.970722 -0.240205
vn 0.000000 0.874685 -0.484692
vn -0.000000 -0.874685 -0.484692
vn 0.000000 0.688928 -0.724830
vn 0.000000 0.390296 0.920690
vn -0.000000 -0.970722 -0.240205
vn 0.000000 0.390296 -0.920690
vn 0.000000 0.688928 0.724830
vn 0.000000 0.874685 0.484692
vn 0.000000 -0.970722 0.240205
vn 0.000000 0.970722 0.240205
vn 0.000000 -0.874685 0.484692
vn 0.000000 1.000000 0.000000
vn 0.586410 -0.810014 0.000000
vn 0.858875 -0.512185 0.000000
vn -0.990655 -0.136394 -0.000000
vn -0.955217 -0.295905 -0.000000
vn 0.492311 0.870419 0.000000
vn 0.277388 0.960758 0.000000
vn 0.955217 -0.295905 0.000000
vn -0.858875 -0.512185 -0.000000
vn -0.277388 0.960758 0.000000
vn -0.492311 0.870419 0.000000
vn 0.990655 -0.136394 0.000000
vn -0.586410 -0.810014 -0.000000
vn -0.680524 0.732726 0.000000
vn 0.999829 -0.018501 0.000000
vn -0.357089 -0.934070 -0.000000
vn -0.958678 0.284493 0.000000
vn -0.984658 0.174493 0.000000
vn 0.998969 0.045399 0.000000
vn -0.998969 0.045399 0.000000
vn 0.984658 0.174493 0.000000
vn -0.999829 -0.018501 -0.000000
vn 0.958678 0.284493 0.000000
vn 0.357089 -0.934070 0.000000
vn 0.680524 0.732726 0.000000
vn 0.809004 -0.587803 0.000000
vn 0.951066 -0.308989 0.000000
vn -0.951066 -0.308989 -0.000000
vn -0.809004 -0.587803 -0.000000
vn -0.587803 -0.809004 -0.000000
vn -0.308989 0.951066 0.000000
vn 0.951066 0.308989 0.000000
vn -0.308989 -0.951066 -0.000000
vn -0.587803 0.809004 0.000000
vn 0.809004 0.587803 0.000000
vn -0.809004 0.587803 0.000000
vn 0.587803 0.809004 0.000000
vn 0.308989 -0.951066 0.000000
vn -0.951066 0.308989 0.000000
vn 0.308989 0.951066 0.000000
vn 0.587803 -0.809004 0.000000

# Mesh
g Cube.002
usemtl Material
f 4/4/1 1/1/1 2/2/1 3/3/1
f 5/5/2 6/6/2 1/7/2 4/8/2
f 7/11/3 8/12/3 3/9/3 2/10/3
f 8/16/4 7/13/4 6/14/4 5/15/4
f 8/19/5 5/20/5 4/17/5 3/18/5
f 6/24/6 7/21/6 2/22/6 1/23/6

# Mesh
g Circle
usemtl Material.001
f 10/26/7 11/27/8 12/28/8 9/25/7
f 14/30/9 15/31/10 16/32/10 13/29/9
f 18/34/11 19/35/12 20/36/12 17/33/11
f 11/27/8 21/37/5 22/38/5 12/28/8
f 15/31/10 23/39/13 24/40/13 16/32/10
f 19/42/12 25/43/14 26/44/14 20/41/12
f 21/37/5 27/45/15 28/46/15 22/38/5
f 23/48/13 29/49/16 30/50/16 24/47/13
f 25/43/14 31/51/17 32/52/17 26/44/14
f 27/45/15 33/53/18 34/54/18 28/46/15
f 29/49/16 35/55/3 36/56/3 30/50/16
f 31/51/17 37/57/6 38/58/6 32/52/17
f 33/53/18 39/59/19 40/60/19 34/54/18
f 35/55/3 41/61/20 42/62/20 36/56/3
f 39/64/19 43/65/21 44/66/21 40/63/19
f 41/61/20 45/67/22 46/68/22 42/62/20
f 43/65/21 47/69/23 48/70/23 44/66/21
f 45/72/22 10/26/7 9/25/7 46/71/22
f 37/57/6 14/30/9 13/29/9 38/58/6
f 47/69/23 18/34/11 17/33/11 48/70/23
f 48/76/1 17/73/1 20/74/1 49/75/1
f 44/78/1 48/76/1 49/75/1 50/77/1
f 40/80/1 44/78/1 50/77/1 51/79/1
f 34/82/1 40/80/1 51/79/1 52/81/1
f 28/84/1 34/82/1 52/81/1 22/83/1
f 49/75/1 20/74/1 26/85/1 53/86/1
f 50/77/1 49/75/1 53/86/1 54/87/1
f 51/79/1 50/77/1 54/87/1 55/88/1
f 52/81/1 51/79/1 55/88/1 56/89/1
f 22/83/1 52/81/1 56/89/1 12/90/1
f 53/86/1 26/85/1 32/91/1 57/92/1
f 54/87/1 53/86/1 57/92/1 58/93/1
f 55/88/1 54/87/1 58/93/1 59/94/1
f 56/89/1 55/88/1 59/94/1 60/95/1
f 12/90/1 56/89/1 60/95/1 9/96/1
f 57/92/1 32/91/1 38/97/1 61/98/1
f 58/93/1 57/92/1 61/98/1 62/99/1
f 59/94/1 58/93/1 62/99/1 63/100/1
f 60/95/1 59/94/1 63/100/1 64/101/1
f 9/96/1 60/95/1 64/101/1 46/102/1
f 61/98/1 38/97/1 13/103/1 16/104/1
f 62/99/1 61/98/1 16/104/1 24/105/1
f 63/100/1 62/99/1 24/105/1 30/106/1
f 64/101/1 63/100/1 30/106/1 36/107/1
f 46/102/1 64/101/1 36/107/1 42/108/1
f 66/110/25 67/111/25 68/112/24 65/109/24
f 70/114/27 71/115/27 72/116/26 69/113/26
f 76/120/28 73/117/28 74/118/29 75/119/29
f 77/121/30 78/122/30 67/111/25 66/110/25
f 79/123/31 80/124/31 71/115/27 70/114/27
f 75/119/32 74/118/32 81/125/33 82/126/33
f 83/127/34 84/128/34 78/122/30 77/121/30
f 85/129/35 86/130/35 80/124/31 79/123/31
f 82/134/33 81/131/33 87/132/36 88/133/36
f 89/135/37 90/136/37 84/128/34 83/127/34
f 91/138/38 92/139/38 86/140/35 85/137/35
f 88/133/39 87/132/39 93/141/40 94/142/40
f 90/136/37 89/135/37 95/143/41 96/144/41
f 94/142/40 93/141/40 97/145/42 98/146/42
f 96/144/41 95/143/41 99/147/43 100/148/43
f 98/146/42 97/145/42 101/149/44 102/150/44
f 100/148/43 99/147/43 103/151/45 104/152/45
f 65/153/24 68/154/24 92/139/46 91/138/46
f 69/113/26 72/116/26 102/150/44 101/149/44
f 104/156/47 103/155/47 73/117/28 76/120/28
f 106/158/5 75/159/5 82/160/5 105/157/5
f 107/161/5 76/162/5 75/159/5 106/158/5
f 104/164/5 76/162/5 107/161/5 108/163/5
f 100/166/5 104/164/5 108/163/5 109/165/5
f 110/167/5 105/157/5 82/160/5 88/168/5
f 111/169/5 110/167/5 88/168/5 94/170/5
f 112/171/5 111/169/5 94/170/5 98/172/5
f 96/174/5 100/166/5 109/165/5 113/173/5
f 90/176/5 96/174/5 113/173/5 114/175/5
f 84/178/5 90/176/5 114/175/5 115/177/5
f 78/180/5 84/178/5 115/177/5 116/179/5
f 117/181/5 112/171/5 98/172/5 102/182/5
f 118/183/5 117/181/5 102/182/5 72/184/5
f 119/185/5 118/183/5 72/184/5 71/186/5
f 120/187/5 119/185/5 71/186/5 80/188/5
f 86/190/5 121/189/5 120/187/5 80/188/5
f 92/192/5 122/191/5 121/189/5 86/190/5
f 67/194/5 78/180/5 116/179/5 123/193/5
f 67/194/5 123/193/5 124/195/5 68/196/5
f 68/196/5 124/195/5 122/191/5 92/192/5
f 115/198/49 125/199/49 126/200/48 116/197/48
f 119/202/51 127/203/51 128/204/50 118/201/50
f 114/205/4 129/206/4 125/199/49 115/198/49
f 120/207/52 130/208/52 127/203/51 119/202/51
f 132/212/23 106/209/23 105/210/53 131/211/53
f 129/206/4 114/205/4 113/213/54 133/214/54
f 121/216/55 134/217/55 130/218/52 120/215/52
f 131/222/53 105/219/53 110/220/56 135/221/56
f 133/214/54 113/213/54 109/223/57 136/224/57
f 122/225/3 137/226/3 134/217/55 121/216/55
f 135/221/56 110/220/56 111/227/58 138/228/58
f 136/232/57 109/229/57 108/230/59 139/231/59
f 124/233/60 140/234/60 137/226/3 122/225/3
f 138/228/58 111/227/58 112/235/61 141/236/61
f 139/231/59 108/230/59 107/237/62 142/238/62
f 123/240/63 143/241/63 140/242/60 124/239/60
f 141/236/61 112/235/61 117/243/1 144/244/1
f 142/238/62 107/237/62 106/209/23 132/212/23
f 116/197/48 126/200/48 143/241/63 123/240/63
f 118/201/50 128/204/50 144/244/1 117/243/1
f 137/246/6 145/247/6 146/248/6 134/245/6
f 148/252/6 135/249/6 138/250/6 147/251/6
f 150/256/6 136/253/6 139/254/6 149/255/6
f 140/257/6 151/258/6 145/247/6 137/246/6
f 138/250/6 141/259/6 152/260/6 147/251/6
f 149/255/6 139/254/6 142/261/6 153/262/6
f 143/263/6 154/264/6 151/258/6 140/257/6
f 141/259/6 144/265/6 155/266/6 152/260/6
f 153/262/6 142/261/6 132/267/6 156/268/6
f 126/269/6 157/270/6 154/264/6 143/263/6
f 144/265/6 128/271/6 158/272/6 155/266/6
f 159/274/6 157/270/6 126/269/6 125/273/6
f 128/271/6 127/275/6 160/276/6 158/272/6
f 161/278/6 159/274/6 125/273/6 129/277/6
f 130/279/6 162/280/6 160/276/6 127/275/6
f 156/268/6 132/267/6 131/281/6 163/282/6
f 164/284/6 161/278/6 129/277/6 133/283/6
f 134/245/6 146/248/6 162/280/6 130/279/6
f 163/282/6 131/281/6 135/249/6 148/252/6
f 150/256/6 164/284/6 133/283/6 136/253/6
f 160/286/51 165/287/51 166/288/50 158/285/50
f 161/290/4 167/291/4 168/292/49 159/289/49
f 162/293/52 169/294/52 165/287/51 160/286/51
f 171/298/23 156/295/23 163/296/53 170/297/53
f 167/291/4 161/290/4 164/299/54 172/300/54
f 146/302/55 173/303/55 169/304/52 162/301/52
f 170/308/53 163/305/53 148/306/56 174/307/56
f 172/300/54 164/299/54 150/309/57 175/310/57
f 145/311/3 176/312/3 173/303/55 146/302/55
f 174/307/56 148/306/56 147/313/58 177/314/58
f 175/318/57 150/315/57 149/316/59 178/317/59
f 151/319/60 179/320/60 176/312/3 145/311/3
f 177/314/58 147/313/58 152/321/61 180/322/61
f 178/317/59 149/316/59 153/323/62 181/324/62
f 154/326/63 182/327/63 179/328/60 151/325/60
f 180/322/61 152/321/61 155/329/1 183/330/1
f 181/324/62 153/323/62 156/295/23 171/298/23
f 157/331/48 184/332/48 182/327/63 154/326/63
f 158/285/50 166/288/50 183/330/1 155/329/1
f 159/289/49 168/292/49 184/332/48 157/331/48
f 178/333/5 181/334/5 171/335/5 185/336/5
f 175/337/5 178/333/5 185/336/5 186/338/5
f 172/339/5 175/337/5 186/338/5 187/340/5
f 167/341/5 172/339/5 187/340/5 188/342/5
f 168/343/5 167/341/5 188/342/5 184/344/5
f 185/336/5 171/335/5 170/345/5 189/346/5
f 186/338/5 185/336/5 189/346/5 190/347/5
f 187/340/5 186/338/5 190/347/5 191/348/5
f 188/342/5 187/340/5 191/348/5 192/349/5
f 184/344/5 188/342/5 192/349/5 182/350/5
f 189/346/5 170/345/5 174/351/5 193/352/5
f 190/347/5 189/346/5 193/352/5 194/353/5
f 191/348/5 190/347/5 194/353/5 195/354/5
f 192/349/5 191/348/5 195/354/5 196/355/5
f 182/350/5 192/349/5 196/355/5 179/356/5
f 193/352/5 174/351/5 177/357/5 197/358/5
f 194/353/5 193/352/5 197/358/5 198/359/5
f 195/354/5 194/353/5 198/359/5 199/360/5
f 196/355/5 195/354/5 199/360/5 200/361/5
f 179/356/5 196/355/5 200/361/5 176/362/5
f 197/358/5 177/357/5 180/363/5 183/364/5
f 198/359/5 197/358/5 183/364/5 166/365/5
f 199/360/5 198/359/5 166/365/5 165/366/5
f 200/361/5 199/360/5 165/366/5 169/367/5
f 176/362/5 200/361/5 169/367/5 173/368/5
