# Blender 5.0.1
# www.blender.org
mtllib 3D_Chair_v2.mtl
o Cylinder.002
v -0.261400 -0.025234 0.239426
v -0.248783 -0.025234 0.242807
v -0.239546 -0.025234 0.252043
v -0.236165 -0.025234 0.264660
v -0.239546 -0.025234 0.277277
v -0.248783 -0.025234 0.286514
v -0.261400 -0.025234 0.289894
v -0.274017 -0.025234 0.286514
v -0.283253 -0.025234 0.277277
v -0.286634 -0.025234 0.264660
v -0.283253 -0.025234 0.252043
v -0.274017 -0.025234 0.242807
v -0.297440 0.513435 0.301569
v 0.000000 0.513435 0.301569
v -0.298148 0.513435 0.000000
v 0.000000 0.513435 0.000000
v -0.297971 0.513435 0.248991
v -0.297815 0.513435 0.261559
v -0.297569 0.513435 0.284108
v 0.000000 0.513435 0.277585
v 0.000000 0.513435 0.263288
v 0.000000 0.513435 0.248991
v -0.273850 0.513435 0.301569
v -0.248727 0.513435 0.301569
v -0.240256 0.513435 0.301569
v -0.249343 0.513435 0.000000
v -0.261640 0.513435 0.000000
v -0.273937 0.513435 0.000000
v -0.239321 0.513435 0.274224
v -0.248887 0.513435 0.283637
v -0.274098 0.513435 0.283789
v -0.236064 0.513435 0.261872
v -0.286733 0.513435 0.261909
v -0.248746 0.513435 0.240367
v -0.261217 0.513435 0.236327
v -0.283175 0.513435 0.248991
v -0.267789 0.513435 0.000000
v -0.273807 0.513435 0.239459
v -0.261502 0.513435 0.301569
v -0.261303 0.513435 0.287306
v 0.000000 0.513435 0.256140
v -0.239396 0.513435 0.249213
v -0.297669 0.513435 0.274053
v -0.283317 0.513435 0.274515
v -0.297440 0.559475 0.301569
v 0.000000 0.559475 0.301569
v -0.298148 0.559475 0.000000
v -0.297971 0.559475 0.248991
v -0.297815 0.559475 0.261559
v -0.297569 0.559475 0.284108
v -0.273850 0.559475 0.301569
v -0.248727 0.559475 0.301569
v -0.240256 0.559475 0.301569
v -0.261502 0.559475 0.301569
v -0.297669 0.559475 0.274053
v 0.000000 0.559475 0.000000
v -0.248595 0.559475 0.000000
v -0.256817 0.559475 0.000000
v -0.265039 0.559475 0.000000
v -0.273262 0.559475 0.000000
v -0.273262 0.559475 0.248991
v -0.273106 0.559475 0.261559
v -0.272859 0.559475 0.284108
v -0.272960 0.559475 0.274053
v -0.248750 0.559475 0.248991
v -0.248595 0.559475 0.261559
v -0.248348 0.559475 0.284108
v -0.248448 0.559475 0.274053
v 0.000000 0.559475 0.248991
v 0.000000 0.559475 0.261559
v 0.000000 0.559475 0.284108
v 0.000000 0.559475 0.274053
v -0.256518 0.559475 0.284108
v -0.264689 0.559475 0.284108
v -0.265091 0.559475 0.248991
v -0.256921 0.559475 0.248991
v 0.261400 -0.025234 0.239426
v 0.248783 -0.025234 0.242807
v 0.239546 -0.025234 0.252043
v 0.236165 -0.025234 0.264660
v 0.239546 -0.025234 0.277277
v 0.248783 -0.025234 0.286514
v 0.261400 -0.025234 0.289894
v 0.274017 -0.025234 0.286514
v 0.283253 -0.025234 0.277277
v 0.286634 -0.025234 0.264660
v 0.283253 -0.025234 0.252043
v 0.274017 -0.025234 0.242807
v 0.297440 0.513435 0.301569
v 0.298148 0.513435 0.000000
v 0.297971 0.513435 0.248991
v 0.297815 0.513435 0.261559
v 0.297569 0.513435 0.284108
v 0.273850 0.513435 0.301569
v 0.248727 0.513435 0.301569
v 0.240256 0.513435 0.301569
v 0.249343 0.513435 0.000000
v 0.261640 0.513435 0.000000
v 0.273937 0.513435 0.000000
v 0.239321 0.513435 0.274224
v 0.248887 0.513435 0.283637
v 0.274098 0.513435 0.283789
v 0.236064 0.513435 0.261872
v 0.286733 0.513435 0.261909
v 0.248746 0.513435 0.240367
v 0.261217 0.513435 0.236327
v 0.283175 0.513435 0.248991
v 0.267789 0.513435 0.000000
v 0.273807 0.513435 0.239459
v 0.261502 0.513435 0.301569
v 0.261303 0.513435 0.287306
v 0.239396 0.513435 0.249213
v 0.297669 0.513435 0.274053
v 0.283317 0.513435 0.274515
v 0.297440 0.559475 0.301569
v 0.298148 0.559475 0.000000
v 0.297971 0.559475 0.248991
v 0.297815 0.559475 0.261559
v 0.297569 0.559475 0.284108
v 0.273850 0.559475 0.301569
v 0.248727 0.559475 0.301569
v 0.240256 0.559475 0.301569
v 0.261502 0.559475 0.301569
v 0.297669 0.559475 0.274053
v 0.248595 0.559475 0.000000
v 0.256817 0.559475 0.000000
v 0.265039 0.559475 0.000000
v 0.273262 0.559475 0.000000
v 0.273262 0.559475 0.248991
v 0.273106 0.559475 0.261559
v 0.272859 0.559475 0.284108
v 0.272960 0.559475 0.274053
v 0.248750 0.559475 0.248991
v 0.248595 0.559475 0.261559
v 0.248348 0.559475 0.284108
v 0.248448 0.559475 0.274053
v 0.256518 0.559475 0.284108
v 0.264689 0.559475 0.284108
v 0.265091 0.559475 0.248991
v 0.256921 0.559475 0.248991
v -0.261400 -0.025234 -0.239426
v -0.248783 -0.025234 -0.242807
v -0.239546 -0.025234 -0.252043
v -0.236165 -0.025234 -0.264660
v -0.239546 -0.025234 -0.277277
v -0.248783 -0.025234 -0.286514
v -0.261400 -0.025234 -0.289894
v -0.274017 -0.025234 -0.286514
v -0.283253 -0.025234 -0.277277
v -0.286634 -0.025234 -0.264660
v -0.283253 -0.025234 -0.252043
v -0.274017 -0.025234 -0.242807
v -0.297440 0.513435 -0.301569
v 0.000000 0.513435 -0.301569
v -0.297971 0.513435 -0.248991
v -0.297815 0.513435 -0.261559
v -0.297569 0.513435 -0.284108
v 0.000000 0.513435 -0.277585
v 0.000000 0.513435 -0.263288
v 0.000000 0.513435 -0.248991
v -0.273850 0.513435 -0.301569
v -0.248727 0.513435 -0.301569
v -0.240256 0.513435 -0.301569
v -0.239321 0.513435 -0.274224
v -0.248887 0.513435 -0.283637
v -0.274098 0.513435 -0.283789
v -0.236064 0.513435 -0.261872
v -0.286733 0.513435 -0.261909
v -0.248746 0.513435 -0.240367
v -0.261217 0.513435 -0.236327
v -0.283175 0.513435 -0.248991
v -0.273807 0.513435 -0.239459
v -0.261502 0.513435 -0.301569
v -0.261303 0.513435 -0.287306
v 0.000000 0.513435 -0.256140
v -0.239396 0.513435 -0.249213
v -0.297669 0.513435 -0.274053
v -0.283317 0.513435 -0.274515
v -0.297440 0.559475 -0.301569
v 0.000000 0.559475 -0.301569
v -0.297971 0.559475 -0.248991
v -0.297815 0.559475 -0.261559
v -0.297569 0.559475 -0.284108
v -0.273850 0.559475 -0.301569
v -0.248727 0.559475 -0.301569
v -0.240256 0.559475 -0.301569
v -0.261502 0.559475 -0.301569
v -0.297669 0.559475 -0.274053
v -0.273262 0.559475 -0.248991
v -0.273106 0.559475 -0.261559
v -0.272859 0.559475 -0.284108
v -0.272960 0.559475 -0.274053
v -0.248750 0.559475 -0.248991
v -0.248595 0.559475 -0.261559
v -0.248348 0.559475 -0.284108
v -0.248448 0.559475 -0.274053
v 0.000000 0.559475 -0.248991
v 0.000000 0.559475 -0.261559
v 0.000000 0.559475 -0.284108
v 0.000000 0.559475 -0.274053
v -0.256619 0.559475 -0.274053
v -0.264789 0.559475 -0.274053
v -0.264935 0.559475 -0.261559
v -0.256765 0.559475 -0.261559
v -0.256518 0.559475 -0.284108
v -0.264689 0.559475 -0.284108
v -0.265091 0.559475 -0.248991
v -0.256921 0.559475 -0.248991
v 0.261400 -0.025234 -0.239426
v 0.248783 -0.025234 -0.242807
v 0.239546 -0.025234 -0.252043
v 0.236165 -0.025234 -0.264660
v 0.239546 -0.025234 -0.277277
v 0.248783 -0.025234 -0.286514
v 0.261400 -0.025234 -0.289894
v 0.274017 -0.025234 -0.286514
v 0.283253 -0.025234 -0.277277
v 0.286634 -0.025234 -0.264660
v 0.283253 -0.025234 -0.252043
v 0.274017 -0.025234 -0.242807
v 0.297440 0.513435 -0.301569
v 0.297971 0.513435 -0.248991
v 0.297815 0.513435 -0.261559
v 0.297569 0.513435 -0.284108
v 0.273850 0.513435 -0.301569
v 0.248727 0.513435 -0.301569
v 0.240256 0.513435 -0.301569
v 0.239321 0.513435 -0.274224
v 0.248887 0.513435 -0.283637
v 0.274098 0.513435 -0.283789
v 0.236064 0.513435 -0.261872
v 0.286733 0.513435 -0.261909
v 0.248746 0.513435 -0.240367
v 0.261217 0.513435 -0.236327
v 0.283175 0.513435 -0.248991
v 0.273807 0.513435 -0.239459
v 0.261502 0.513435 -0.301569
v 0.261303 0.513435 -0.287306
v 0.239396 0.513435 -0.249213
v 0.297669 0.513435 -0.274053
v 0.283317 0.513435 -0.274515
v 0.297440 0.559475 -0.301569
v 0.297971 0.559475 -0.248991
v 0.297815 0.559475 -0.261559
v 0.297569 0.559475 -0.284108
v 0.273850 0.559475 -0.301569
v 0.248727 0.559475 -0.301569
v 0.240256 0.559475 -0.301569
v 0.261502 0.559475 -0.301569
v 0.297669 0.559475 -0.274053
v 0.273262 0.559475 -0.248991
v 0.273106 0.559475 -0.261559
v 0.272859 0.559475 -0.284108
v 0.272960 0.559475 -0.274053
v 0.248750 0.559475 -0.248991
v 0.248595 0.559475 -0.261559
v 0.248348 0.559475 -0.284108
v 0.248448 0.559475 -0.274053
v 0.256619 0.559475 -0.274053
v 0.264789 0.559475 -0.274053
v 0.264935 0.559475 -0.261559
v 0.256765 0.559475 -0.261559
v 0.256518 0.559475 -0.284108
v 0.264689 0.559475 -0.284108
v 0.265091 0.559475 -0.248991
v 0.256921 0.559475 -0.248991
v -0.239321 1.125385 0.316279
v -0.248887 1.125385 0.325692
v -0.274098 1.125385 0.325843
v -0.236064 1.125385 0.303927
v -0.286733 1.125385 0.303964
v -0.248746 1.125385 0.282421
v -0.261217 1.125385 0.278382
v -0.283175 1.125385 0.291046
v -0.273807 1.125385 0.281514
v -0.261303 1.125385 0.329361
v -0.239396 1.125385 0.291268
v -0.283317 1.125385 0.316569
v 0.239321 1.125385 0.316279
v 0.248887 1.125385 0.325692
v 0.274098 1.125385 0.325843
v 0.236064 1.125385 0.303927
v 0.286733 1.125385 0.303964
v 0.248746 1.125385 0.282421
v 0.261217 1.125385 0.278382
v 0.283175 1.125385 0.291046
v 0.273807 1.125385 0.281514
v 0.261303 1.125385 0.329361
v 0.239396 1.125385 0.291268
v 0.283317 1.125385 0.316569
v 0.268994 1.125385 0.316758
v 0.261466 1.125385 0.304116
v 0.254163 1.125385 0.291593
v -0.268994 1.125385 0.316758
v -0.261466 1.125385 0.304116
v -0.254163 1.125385 0.291593
v 0.128869 1.114533 0.277937
v 0.000000 1.114052 0.277903
v 0.230207 1.112731 0.277807
v 0.262666 1.090927 0.276233
v 0.278368 1.021987 0.271255
v 0.287839 0.909892 0.263161
v 0.279227 0.869588 0.260251
v 0.238819 0.849767 0.258820
v 0.124218 0.845142 0.258486
v 0.000000 0.845142 0.258486
v 0.129324 1.117396 0.249526
v 0.000000 1.116914 0.249492
v 0.230207 1.115593 0.249396
v 0.262666 1.093789 0.247822
v 0.278406 1.024393 0.242811
v 0.287839 0.912753 0.234750
v 0.279227 0.872450 0.231840
v 0.238819 0.852628 0.230409
v 0.124218 0.848003 0.230075
v 0.000000 0.848003 0.230075
v 0.125985 1.022957 0.242707
v 0.000000 1.022617 0.242683
v 0.233227 1.023380 0.242738
v 0.124875 0.908010 0.234408
v 0.000000 0.907875 0.234398
v 0.236901 0.911176 0.234636
v 0.125324 0.909207 0.263112
v 0.000000 0.909092 0.263104
v 0.236771 0.912303 0.263335
v 0.127285 1.022822 0.271315
v 0.000000 1.022505 0.271293
v 0.233139 1.023208 0.271343
v -0.128869 1.114533 0.277937
v -0.230207 1.112731 0.277807
v -0.262666 1.090927 0.276233
v -0.278368 1.021987 0.271255
v -0.287839 0.909892 0.263161
v -0.279227 0.869588 0.260251
v -0.238819 0.849767 0.258820
v -0.124218 0.845142 0.258486
v -0.129324 1.117396 0.249526
v -0.230207 1.115593 0.249396
v -0.262666 1.093789 0.247822
v -0.278406 1.024393 0.242811
v -0.287839 0.912753 0.234750
v -0.279227 0.872450 0.231840
v -0.238819 0.852628 0.230409
v -0.124218 0.848003 0.230075
v -0.125985 1.022957 0.242707
v -0.233227 1.023380 0.242738
v -0.124875 0.908010 0.234408
v -0.236901 0.911176 0.234636
v -0.125324 0.909207 0.263112
v -0.236771 0.912303 0.263335
v -0.127285 1.022822 0.271315
v -0.233139 1.023208 0.271343
v -0.283175 0.556851 0.251975
v -0.273807 0.556851 0.242443
v -0.248887 0.556851 0.286621
v -0.261303 0.556851 0.290290
v -0.286733 0.556851 0.264893
v -0.248746 0.556851 0.243350
v -0.239396 0.556851 0.252197
v -0.239321 0.556851 0.277207
v -0.283317 0.556851 0.277498
v -0.236064 0.556851 0.264856
v -0.274098 0.556851 0.286772
v -0.261217 0.556851 0.239311
v 0.283175 0.553309 0.251731
v 0.286733 0.553309 0.264649
v 0.239396 0.553309 0.251953
v 0.248746 0.553309 0.243107
v 0.236064 0.553309 0.264612
v 0.248887 0.553309 0.286378
v 0.239321 0.553309 0.276964
v 0.283317 0.553309 0.277255
v 0.274098 0.553309 0.286529
v 0.261303 0.553309 0.290047
v 0.261217 0.553309 0.239067
v 0.273807 0.553309 0.242199
v -0.272477 -0.025234 0.257788
v -0.255242 -0.025234 0.253170
v -0.267557 -0.025234 0.276150
v -0.250322 -0.025234 0.271532
v 0.272477 -0.025234 0.257788
v 0.255242 -0.025234 0.253170
v 0.267557 -0.025234 0.276150
v 0.250322 -0.025234 0.271532
v 0.272477 -0.025234 -0.257788
v 0.255242 -0.025234 -0.253170
v 0.267557 -0.025234 -0.276150
v 0.250322 -0.025234 -0.271532
v -0.272477 -0.025234 -0.257788
v -0.255242 -0.025234 -0.253170
v -0.267557 -0.025234 -0.276150
v -0.250322 -0.025234 -0.271532
vn 0.0131 -0.6561 -0.7545
vn 0.0110 -0.7755 -0.6312
vn 0.3263 -0.7631 -0.5578
vn 0.3828 -0.6530 -0.6535
vn 0.5458 -0.7745 -0.3199
vn 0.6525 -0.6550 -0.3811
vn 0.6387 -0.7695 -0.0005
vn 0.7573 -0.6531 0.0007
vn 0.5517 -0.7707 0.3187
vn 0.6555 -0.6526 0.3801
vn 0.3245 -0.7652 0.5560
vn 0.3822 -0.6507 0.6561
vn 0.0030 -0.7721 0.6355
vn 0.0035 -0.6522 0.7581
vn -0.3215 -0.7686 0.5532
vn -0.3806 -0.6515 0.6562
vn -0.5540 -0.7689 0.3193
vn -0.6562 -0.6522 0.3795
vn -0.6364 -0.7714 -0.0012
vn -0.7569 -0.6535 -0.0002
vn -0.5530 -0.7694 -0.3196
vn -0.6557 -0.6539 -0.3775
vn -0.3146 -0.7746 -0.5486
vn -0.3764 -0.6558 -0.6545
vn -0.0000 -1.0000 -0.0000
vn -1.0000 -0.0000 0.0087
vn -0.9999 -0.0000 0.0108
vn -0.0000 -0.0000 1.0000
vn -0.7045 -0.0000 0.7097
vn -1.0000 -0.0000 0.0065
vn -1.0000 -0.0000 -0.0000
vn -0.9999 -0.0000 0.0120
vn -0.0000 1.0000 -0.0000
vn -0.0131 -0.6561 -0.7545
vn -0.3828 -0.6530 -0.6535
vn -0.3263 -0.7631 -0.5578
vn -0.0110 -0.7755 -0.6312
vn -0.6525 -0.6550 -0.3811
vn -0.5458 -0.7745 -0.3199
vn -0.7573 -0.6531 0.0007
vn -0.6387 -0.7695 -0.0005
vn -0.6555 -0.6526 0.3801
vn -0.5517 -0.7707 0.3187
vn -0.3822 -0.6507 0.6561
vn -0.3245 -0.7652 0.5560
vn -0.0035 -0.6522 0.7581
vn -0.0030 -0.7721 0.6355
vn 0.3806 -0.6515 0.6562
vn 0.3215 -0.7686 0.5532
vn 0.6562 -0.6522 0.3795
vn 0.5540 -0.7689 0.3193
vn 0.7569 -0.6535 -0.0002
vn 0.6364 -0.7714 -0.0012
vn 0.6557 -0.6539 -0.3775
vn 0.5530 -0.7694 -0.3196
vn 0.3764 -0.6558 -0.6545
vn 0.3146 -0.7746 -0.5486
vn 1.0000 -0.0000 0.0087
vn 0.9999 -0.0000 0.0108
vn 0.7045 -0.0000 0.7097
vn 1.0000 -0.0000 0.0065
vn 1.0000 -0.0000 -0.0000
vn 0.9999 -0.0000 0.0120
vn 0.0131 -0.6561 0.7545
vn 0.3828 -0.6530 0.6535
vn 0.3263 -0.7631 0.5578
vn 0.0110 -0.7755 0.6312
vn 0.6525 -0.6550 0.3811
vn 0.5458 -0.7745 0.3199
vn 0.7573 -0.6531 -0.0007
vn 0.6387 -0.7695 0.0005
vn 0.6555 -0.6526 -0.3801
vn 0.5517 -0.7707 -0.3187
vn 0.3822 -0.6507 -0.6561
vn 0.3245 -0.7652 -0.5560
vn 0.0035 -0.6522 -0.7581
vn 0.0030 -0.7721 -0.6355
vn -0.3806 -0.6515 -0.6562
vn -0.3215 -0.7686 -0.5532
vn -0.6562 -0.6522 -0.3795
vn -0.5540 -0.7689 -0.3193
vn -0.7569 -0.6535 0.0002
vn -0.6364 -0.7714 0.0012
vn -0.6557 -0.6539 0.3775
vn -0.5530 -0.7694 0.3196
vn -0.3764 -0.6558 0.6545
vn -0.3146 -0.7746 0.5486
vn -1.0000 -0.0000 -0.0087
vn -0.9999 -0.0000 -0.0108
vn -0.0000 -0.0000 -1.0000
vn -0.7045 -0.0000 -0.7097
vn -1.0000 -0.0000 -0.0065
vn -0.9999 -0.0000 -0.0120
vn -0.0131 -0.6561 0.7545
vn -0.0110 -0.7755 0.6312
vn -0.3263 -0.7631 0.5578
vn -0.3828 -0.6530 0.6535
vn -0.5458 -0.7745 0.3199
vn -0.6525 -0.6550 0.3811
vn -0.6387 -0.7695 0.0005
vn -0.7573 -0.6531 -0.0007
vn -0.5517 -0.7707 -0.3187
vn -0.6555 -0.6526 -0.3801
vn -0.3245 -0.7652 -0.5560
vn -0.3822 -0.6507 -0.6561
vn -0.0030 -0.7721 -0.6355
vn -0.0035 -0.6522 -0.7581
vn 0.3215 -0.7686 -0.5532
vn 0.3806 -0.6515 -0.6562
vn 0.5540 -0.7689 -0.3193
vn 0.6562 -0.6522 -0.3795
vn 0.6364 -0.7714 0.0012
vn 0.7569 -0.6535 0.0002
vn 0.5530 -0.7694 0.3196
vn 0.6557 -0.6539 0.3775
vn 0.3146 -0.7746 0.5486
vn 0.3764 -0.6558 0.6545
vn 1.0000 -0.0000 -0.0087
vn 0.9999 -0.0000 -0.0108
vn 0.7045 -0.0000 -0.7097
vn 1.0000 -0.0000 -0.0065
vn 0.9999 -0.0000 -0.0120
vn 0.8612 0.0348 -0.5071
vn 0.6490 0.6672 -0.3657
vn 0.7581 0.6521 0.0072
vn 0.9999 0.0009 -0.0136
vn -0.8612 0.0348 -0.5071
vn -0.6490 0.6672 -0.3657
vn -0.3708 0.6727 -0.6403
vn -0.4901 0.0598 -0.8696
vn 0.5114 -0.0589 0.8573
vn 0.3889 0.6341 0.6683
vn 0.0073 0.6244 0.7810
vn 0.0096 -0.0686 0.9976
vn -0.8544 0.0356 -0.5185
vn -0.6478 0.6630 -0.3751
vn -0.3762 0.6823 -0.6269
vn -0.5052 0.0592 -0.8610
vn -0.9999 0.0007 -0.0109
vn -0.7567 0.6537 0.0086
vn -0.5114 -0.0589 0.8573
vn -0.3889 0.6341 0.6683
vn -0.6615 0.6390 0.3925
vn -0.8695 -0.0339 0.4927
vn -0.9999 0.0009 -0.0136
vn -0.7581 0.6521 0.0072
vn 0.6612 0.6407 0.3902
vn 0.8704 -0.0338 0.4912
vn 0.5082 -0.0590 0.8592
vn 0.3873 0.6312 0.6720
vn -0.0073 0.6244 0.7810
vn -0.0096 -0.0686 0.9976
vn 0.5052 0.0592 -0.8610
vn 0.3762 0.6823 -0.6269
vn 0.6478 0.6630 -0.3751
vn 0.8544 0.0356 -0.5185
vn 0.8695 -0.0339 0.4927
vn 0.6615 0.6390 0.3925
vn -0.0342 0.0685 -0.9971
vn -0.0259 0.6755 -0.7369
vn 0.3708 0.6727 -0.6403
vn 0.4901 0.0598 -0.8696
vn -0.8704 -0.0338 0.4912
vn -0.6612 0.6407 0.3902
vn 0.7567 0.6537 0.0086
vn 0.9999 0.0007 -0.0109
vn -0.3873 0.6312 0.6720
vn -0.5082 -0.0590 0.8592
vn 0.0259 0.6755 -0.7369
vn 0.0342 0.0685 -0.9971
vn 0.8280 0.5579 0.0556
vn 0.8219 0.5669 0.0565
vn 0.2990 0.9494 0.0957
vn 0.3019 0.9485 0.0956
vn 0.2452 -0.9646 -0.0972
vn 0.2470 -0.9641 -0.0971
vn 0.7926 -0.6067 -0.0611
vn 0.7849 -0.6165 -0.0621
vn 0.9883 0.1517 0.0147
vn 0.9882 0.1527 0.0148
vn 0.0070 0.9949 0.1003
vn 0.0072 0.9949 0.1003
vn -0.0000 0.9950 0.1002
vn 0.0202 -0.9948 -0.1002
vn 0.9978 -0.0652 -0.0066
vn 0.9982 -0.0600 -0.0060
vn -0.0000 -0.9950 -0.1002
vn -0.0000 0.0720 -0.9974
vn -0.0000 -0.0720 0.9974
vn -0.8280 0.5579 0.0556
vn -0.3019 0.9485 0.0956
vn -0.2990 0.9494 0.0957
vn -0.8219 0.5669 0.0565
vn -0.2452 -0.9646 -0.0972
vn -0.7849 -0.6165 -0.0621
vn -0.7926 -0.6067 -0.0611
vn -0.2470 -0.9641 -0.0971
vn -0.9883 0.1517 0.0147
vn -0.9882 0.1527 0.0148
vn -0.0070 0.9949 0.1003
vn -0.0072 0.9949 0.1003
vn -0.0202 -0.9948 -0.1002
vn -0.9978 -0.0652 -0.0066
vn -0.9982 -0.0600 -0.0060
vt 0.882438 0.022512
vt 0.882068 0.458676
vt 0.871454 0.458651
vt 0.871862 0.022491
vt 0.861032 0.458609
vt 0.861286 0.022447
vt 0.850433 0.458550
vt 0.850709 0.022388
vt 0.977625 0.022388
vt 0.977843 0.458550
vt 0.967500 0.458503
vt 0.967049 0.022340
vt 0.956633 0.458468
vt 0.956472 0.022306
vt 0.946150 0.458458
vt 0.945896 0.022297
vt 0.935406 0.458476
vt 0.935320 0.022314
vt 0.924818 0.458517
vt 0.924744 0.022355
vt 0.914243 0.458572
vt 0.914167 0.022410
vt 0.903394 0.458626
vt 0.903591 0.022464
vt 0.892573 0.458666
vt 0.893015 0.022502
vt 0.069040 0.499763
vt 0.245234 0.499325
vt 0.245234 0.682098
vt 0.062719 0.682098
vt 0.024178 0.505986
vt 0.044223 0.506671
vt 0.041759 0.682098
vt 0.024178 0.682098
vt 0.053277 0.509059
vt 0.052239 0.682098
vt 0.062556 0.506616
vt 0.057479 0.682098
vt 0.053506 0.463794
vt 0.062719 0.463680
vt 0.062719 0.474526
vt 0.053250 0.471918
vt 0.044348 0.463901
vt 0.044009 0.474422
vt 0.024178 0.464070
vt 0.036977 0.463975
vt 0.037211 0.481179
vt 0.024178 0.481362
vt 0.024178 0.490413
vt 0.034633 0.490558
vt 0.037322 0.499660
vt 0.024178 0.499777
vt 0.245234 0.463550
vt 0.245234 0.481297
vt 0.069706 0.481392
vt 0.245234 0.485804
vt 0.245234 0.490311
vt 0.072002 0.490621
vt 0.972714 0.966814
vt 0.972714 0.985509
vt 0.968631 0.985509
vt 0.968631 0.966814
vt 0.016436 0.966814
vt 0.016436 0.985509
vt 0.006857 0.985509
vt 0.006857 0.966814
vt 0.979805 0.966814
vt 0.979805 0.985509
vt 0.026637 0.966814
vt 0.026637 0.985509
vt 0.021450 0.985509
vt 0.021450 0.966814
vt 0.958454 0.966814
vt 0.958454 0.985509
vt 0.857347 0.985509
vt 0.857348 0.966814
vt 0.963557 0.985509
vt 0.963557 0.966814
vt 0.127636 0.966814
vt 0.127636 0.985509
vt 0.030077 0.985509
vt 0.030077 0.966814
vt 0.245234 0.050081
vt 0.245234 0.044054
vt 0.427749 0.044054
vt 0.427749 0.050043
vt 0.245234 0.056108
vt 0.427749 0.056032
vt 0.245234 0.062135
vt 0.427749 0.062021
vt 0.446120 0.026163
vt 0.446120 0.044275
vt 0.436961 0.044168
vt 0.436961 0.026056
vt 0.453490 0.026237
vt 0.453490 0.044349
vt 0.427749 0.025942
vt 0.446120 0.062243
vt 0.446120 0.244360
vt 0.436961 0.244360
vt 0.436961 0.062135
vt 0.453490 0.062316
vt 0.453490 0.244360
vt 0.427749 0.244360
vt 0.466290 0.043623
vt 0.466290 0.052674
vt 0.453490 0.050338
vt 0.466290 0.062038
vt 0.453490 0.056327
vt 0.466290 0.068248
vt 0.466290 0.026331
vt 0.245234 0.025812
vt 0.466290 0.244360
vt 0.245234 0.244360
vt 0.069040 0.864434
vt 0.245234 0.864872
vt 0.024178 0.858210
vt 0.044223 0.857525
vt 0.053277 0.855137
vt 0.062556 0.857580
vt 0.053506 0.900403
vt 0.053250 0.892279
vt 0.062719 0.889671
vt 0.062719 0.900517
vt 0.044348 0.900295
vt 0.044009 0.889775
vt 0.024178 0.900127
vt 0.024178 0.882835
vt 0.037211 0.883018
vt 0.036977 0.900222
vt 0.024178 0.873784
vt 0.024178 0.864420
vt 0.037322 0.864537
vt 0.034633 0.873639
vt 0.245234 0.882899
vt 0.245234 0.900647
vt 0.069706 0.882804
vt 0.072002 0.873575
vt 0.245234 0.873886
vt 0.245234 0.878392
vt 0.255507 0.966814
vt 0.259590 0.966814
vt 0.259590 0.985509
vt 0.255507 0.985509
vt 0.238837 0.966814
vt 0.248416 0.966814
vt 0.248416 0.985509
vt 0.238837 0.985509
vt 0.228635 0.966814
vt 0.233823 0.966814
vt 0.233823 0.985509
vt 0.228635 0.985509
vt 0.269767 0.966814
vt 0.370873 0.966814
vt 0.370873 0.985509
vt 0.269767 0.985509
vt 0.264664 0.966814
vt 0.264663 0.985509
vt 0.225195 0.966814
vt 0.225195 0.985509
vt 0.245234 0.438639
vt 0.427749 0.438677
vt 0.427749 0.444666
vt 0.245234 0.444666
vt 0.245234 0.432611
vt 0.427749 0.432688
vt 0.245234 0.426584
vt 0.427749 0.426698
vt 0.446120 0.462557
vt 0.436961 0.462664
vt 0.436961 0.444552
vt 0.446120 0.444445
vt 0.453490 0.462483
vt 0.453490 0.444371
vt 0.427749 0.462778
vt 0.446120 0.426477
vt 0.436961 0.426584
vt 0.453490 0.426403
vt 0.466290 0.445097
vt 0.453490 0.438382
vt 0.466290 0.436046
vt 0.453490 0.432393
vt 0.466290 0.426681
vt 0.466290 0.420472
vt 0.466290 0.462389
vt 0.245234 0.462908
vt 0.421427 0.499763
vt 0.427749 0.682098
vt 0.466290 0.505986
vt 0.466290 0.682098
vt 0.448709 0.682098
vt 0.446245 0.506671
vt 0.438229 0.682098
vt 0.437191 0.509059
vt 0.427911 0.506616
vt 0.432989 0.682098
vt 0.436961 0.463794
vt 0.437218 0.471918
vt 0.427749 0.474526
vt 0.427749 0.463680
vt 0.446120 0.463901
vt 0.446458 0.474422
vt 0.466290 0.464070
vt 0.466290 0.481362
vt 0.453256 0.481179
vt 0.453490 0.463975
vt 0.466290 0.490413
vt 0.466290 0.499777
vt 0.453145 0.499660
vt 0.455835 0.490558
vt 0.420762 0.481392
vt 0.418466 0.490621
vt 0.741981 0.966814
vt 0.746064 0.966814
vt 0.746064 0.985509
vt 0.741981 0.985509
vt 0.725311 0.966814
vt 0.734890 0.966814
vt 0.734890 0.985509
vt 0.725311 0.985509
vt 0.715109 0.966814
vt 0.720297 0.966814
vt 0.720297 0.985509
vt 0.715109 0.985509
vt 0.756241 0.966814
vt 0.756241 0.985509
vt 0.751138 0.966814
vt 0.751138 0.985509
vt 0.614110 0.966814
vt 0.711670 0.966814
vt 0.711670 0.985509
vt 0.614110 0.985509
vt 0.062719 0.050043
vt 0.062719 0.044054
vt 0.062719 0.056032
vt 0.062719 0.062021
vt 0.044348 0.026163
vt 0.053506 0.026056
vt 0.053506 0.044168
vt 0.044348 0.044275
vt 0.036977 0.026237
vt 0.036977 0.044349
vt 0.062719 0.025942
vt 0.044348 0.056254
vt 0.053507 0.056146
vt 0.053506 0.062135
vt 0.044348 0.062243
vt 0.036977 0.056327
vt 0.036977 0.062316
vt 0.053507 0.244360
vt 0.044348 0.244360
vt 0.036977 0.244360
vt 0.062719 0.244360
vt 0.053507 0.050157
vt 0.044348 0.050264
vt 0.036977 0.050338
vt 0.024178 0.043623
vt 0.024178 0.052674
vt 0.024178 0.062038
vt 0.024178 0.068248
vt 0.024178 0.026331
vt 0.024178 0.244360
vt 0.421427 0.864434
vt 0.466290 0.858210
vt 0.446245 0.857525
vt 0.437191 0.855137
vt 0.427911 0.857580
vt 0.436961 0.900403
vt 0.427749 0.900517
vt 0.427749 0.889671
vt 0.437218 0.892279
vt 0.446120 0.900295
vt 0.446458 0.889775
vt 0.466290 0.900127
vt 0.453490 0.900222
vt 0.453256 0.883018
vt 0.466290 0.882835
vt 0.466290 0.873784
vt 0.455835 0.873639
vt 0.453145 0.864537
vt 0.466290 0.864420
vt 0.420762 0.882804
vt 0.418466 0.873575
vt 0.486240 0.966814
vt 0.486240 0.985509
vt 0.482157 0.985509
vt 0.482157 0.966814
vt 0.502910 0.966814
vt 0.502910 0.985509
vt 0.493331 0.985509
vt 0.493331 0.966814
vt 0.513111 0.966814
vt 0.513111 0.985509
vt 0.507924 0.985509
vt 0.507924 0.966814
vt 0.471980 0.966814
vt 0.471980 0.985509
vt 0.477083 0.985509
vt 0.477083 0.966814
vt 0.516551 0.985509
vt 0.516551 0.966814
vt 0.062719 0.444666
vt 0.062719 0.438677
vt 0.062719 0.432688
vt 0.062719 0.426699
vt 0.044348 0.462557
vt 0.044348 0.444445
vt 0.053507 0.444552
vt 0.053507 0.462664
vt 0.036977 0.462483
vt 0.036977 0.444371
vt 0.062719 0.462778
vt 0.044348 0.432466
vt 0.044348 0.426477
vt 0.053507 0.426584
vt 0.053507 0.432573
vt 0.036977 0.432393
vt 0.036977 0.426403
vt 0.053507 0.438563
vt 0.036977 0.438382
vt 0.044348 0.438455
vt 0.024178 0.445097
vt 0.024178 0.436046
vt 0.024178 0.426681
vt 0.024178 0.420472
vt 0.024178 0.462389
vt 0.644627 0.228387
vt 0.627850 0.198278
vt 0.653975 0.191194
vt 0.674031 0.244711
vt 0.628248 0.164315
vt 0.645382 0.135035
vt 0.691104 0.182124
vt 0.708886 0.245294
vt 0.675793 0.118109
vt 0.727599 0.172854
vt 0.737701 0.228841
vt 0.710508 0.118109
vt 0.754454 0.166192
vt 0.755087 0.199620
vt 0.739232 0.135732
vt 0.667880 0.929476
vt 0.667881 0.947272
vt 0.643496 0.947272
vt 0.643495 0.929476
vt 0.836130 0.929476
vt 0.836130 0.947272
vt 0.808070 0.947272
vt 0.808071 0.929476
vt 0.712047 0.929476
vt 0.712332 0.947272
vt 0.580339 0.929476
vt 0.580624 0.947272
vt 0.500038 0.947272
vt 0.500038 0.929476
vt 0.907599 0.929476
vt 0.907598 0.947272
vt 0.782326 0.929476
vt 0.782325 0.947272
vt 0.985001 0.929476
vt 0.985001 0.947272
vt 0.632267 0.663440
vt 0.632835 0.611463
vt 0.740150 0.611463
vt 0.740150 0.663323
vt 0.535485 0.666183
vt 0.533828 0.615470
vt 0.541268 0.843243
vt 0.538659 0.763371
vt 0.631308 0.763004
vt 0.628424 0.844805
vt 0.740150 0.762709
vt 0.740150 0.844387
vt 0.513226 0.824357
vt 0.499627 0.764248
vt 0.498918 0.632638
vt 0.491478 0.667548
vt 0.848992 0.763004
vt 0.851877 0.844805
vt 0.941641 0.763371
vt 0.939032 0.843243
vt 0.944816 0.666182
vt 0.848033 0.663440
vt 0.847465 0.611463
vt 0.946472 0.615469
vt 0.988822 0.667548
vt 0.981382 0.632638
vt 0.967075 0.824357
vt 0.980673 0.764248
vt 0.332197 0.929476
vt 0.356582 0.929476
vt 0.356581 0.947272
vt 0.332195 0.947272
vt 0.163947 0.929476
vt 0.192006 0.929476
vt 0.192007 0.947272
vt 0.163947 0.947272
vt 0.288030 0.929476
vt 0.287745 0.947272
vt 0.419737 0.929476
vt 0.419453 0.947272
vt 0.092478 0.929476
vt 0.092478 0.947272
vt 0.217751 0.929476
vt 0.217752 0.947272
vt 0.015076 0.929476
vt 0.015076 0.947272
vt 0.627407 0.295665
vt 0.658419 0.319510
vt 0.646106 0.358487
vt 0.628340 0.329581
vt 0.701845 0.343014
vt 0.675946 0.374637
vt 0.738768 0.355938
vt 0.709862 0.373704
vt 0.643558 0.265826
vt 0.680481 0.278749
vt 0.723907 0.302254
vt 0.754918 0.326099
vt 0.672463 0.248060
vt 0.706380 0.247126
vt 0.736219 0.263277
vt 0.753985 0.292183
s 1
g Cylinder.002_3D_Chair_v2_Chair.1001
usemtl 3D_Chair_v2_Chair.1001
f 34/27/3 26/28/25 16/29/25 22/30/25
f 25/31/25 29/32/9 20/33/25 14/34/25
f 29/32/9 32/35/7 21/36/25 20/33/25
f 42/37/5 34/27/3 22/30/25 41/38/25
f 18/39/25 17/40/25 36/41/21 33/42/19
f 43/43/25 18/39/25 33/42/19 44/44/17
f 13/45/25 19/46/25 31/47/15 23/48/25
f 39/49/25 40/50/13 30/51/11 24/52/25
f 24/52/25 30/51/11 29/32/9 25/31/25
f 17/40/25 15/53/25 28/54/25 36/41/21
f 38/55/23 37/56/25 27/57/25 35/58/2
f 35/58/2 27/57/25 26/28/25 34/27/3
f 36/41/21 28/54/25 37/56/25 38/55/23
f 23/48/25 31/47/15 40/50/13 39/49/25
f 32/35/7 42/37/5 41/38/25 21/36/25
f 19/46/25 43/43/25 44/44/17 31/47/15
f 19/59/26 50/60/26 55/61/27 43/62/27
f 23/63/28 51/64/28 45/65/29 13/66/29
f 13/67/29 45/68/29 50/60/26 19/59/26
f 24/69/28 52/70/28 54/71/28 39/72/28
f 17/73/30 48/74/30 47/75/31 15/76/31
f 43/62/27 55/61/27 49/77/32 18/78/32
f 14/79/28 46/80/28 53/81/28 25/82/28
f 25/82/28 53/81/28 52/70/28 24/69/28
f 18/78/32 49/77/32 48/74/30 17/73/30
f 39/72/28 54/71/28 51/64/28 23/63/28
f 59/83/33 60/84/33 61/85/33 75/86/33
f 58/87/33 59/83/33 75/86/33 76/88/33
f 57/89/33 58/87/33 76/88/33 65/90/33
f 55/91/33 64/92/33 62/93/33 49/94/33
f 50/95/33 63/96/33 64/92/33 55/91/33
f 49/94/33 62/93/33 61/85/33 48/97/33
f 68/98/33 72/99/33 70/100/33 66/101/33
f 67/102/33 71/103/33 72/99/33 68/98/33
f 66/101/33 70/100/33 69/104/33 65/90/33
f 51/105/33 54/106/33 74/107/33 63/96/33
f 54/106/33 52/108/33 73/109/33 74/107/33
f 52/108/33 53/110/33 67/102/33 73/109/33
f 50/95/33 45/111/33 51/105/33 63/96/33
f 48/97/33 61/85/33 60/84/33 47/112/33
f 53/110/33 46/113/33 71/103/33 67/102/33
f 56/114/33 57/89/33 65/90/33 69/104/33
f 105/115/36 22/30/25 16/29/25 97/116/25
f 96/117/25 14/34/25 20/33/25 100/118/43
f 100/118/43 20/33/25 21/36/25 103/119/41
f 112/120/39 41/38/25 22/30/25 105/115/36
f 92/121/25 104/122/53 107/123/55 91/124/25
f 113/125/25 114/126/51 104/122/53 92/121/25
f 89/127/25 94/128/25 102/129/49 93/130/25
f 110/131/25 95/132/25 101/133/45 111/134/47
f 95/132/25 96/117/25 100/118/43 101/133/45
f 91/124/25 107/123/55 99/135/25 90/136/25
f 109/137/57 106/138/37 98/139/25 108/140/25
f 106/138/37 105/115/36 97/116/25 98/139/25
f 107/123/55 109/137/57 108/140/25 99/135/25
f 94/128/25 110/131/25 111/134/47 102/129/49
f 103/119/41 21/36/25 41/38/25 112/120/39
f 93/130/25 102/129/49 114/126/51 113/125/25
f 93/141/58 113/142/59 124/143/59 119/144/58
f 94/145/28 89/146/60 115/147/60 120/148/28
f 89/146/60 93/141/58 119/144/58 115/147/60
f 95/149/28 110/150/28 123/151/28 121/152/28
f 91/153/61 90/154/62 116/155/62 117/156/61
f 113/142/59 92/157/63 118/158/63 124/143/59
f 14/79/28 96/159/28 122/160/28 46/80/28
f 96/159/28 95/149/28 121/152/28 122/160/28
f 92/157/63 91/153/61 117/156/61 118/158/63
f 110/150/28 94/145/28 120/148/28 123/151/28
f 127/161/33 139/162/33 129/163/33 128/164/33
f 126/165/33 140/166/33 139/162/33 127/161/33
f 125/167/33 133/168/33 140/166/33 126/165/33
f 124/169/33 118/170/33 130/171/33 132/172/33
f 119/173/33 124/169/33 132/172/33 131/174/33
f 118/170/33 117/175/33 129/163/33 130/171/33
f 136/176/33 134/177/33 70/100/33 72/99/33
f 135/178/33 136/176/33 72/99/33 71/103/33
f 134/177/33 133/168/33 69/104/33 70/100/33
f 120/179/33 131/174/33 138/180/33 123/181/33
f 123/181/33 138/180/33 137/182/33 121/183/33
f 121/183/33 137/182/33 135/178/33 122/184/33
f 119/173/33 131/174/33 120/179/33 115/185/33
f 117/175/33 116/186/33 128/164/33 129/163/33
f 122/184/33 135/178/33 71/103/33 46/113/33
f 56/114/33 69/104/33 133/168/33 125/167/33
f 169/187/66 160/188/25 16/29/25 26/28/25
f 163/189/25 154/190/25 158/191/25 164/192/73
f 164/192/73 158/191/25 159/193/25 167/194/71
f 176/195/69 175/196/25 160/188/25 169/187/66
f 156/197/25 168/198/83 171/199/85 155/200/25
f 177/201/25 178/202/81 168/198/83 156/197/25
f 153/203/25 161/204/25 166/205/79 157/206/25
f 173/207/25 162/208/25 165/209/75 174/210/77
f 162/208/25 163/189/25 164/192/73 165/209/75
f 155/200/25 171/199/85 28/54/25 15/53/25
f 172/211/87 170/212/67 27/57/25 37/56/25
f 170/212/67 169/187/66 26/28/25 27/57/25
f 171/199/85 172/211/87 37/56/25 28/54/25
f 161/204/25 173/207/25 174/210/77 166/205/79
f 167/194/71 159/193/25 175/196/25 176/195/69
f 157/206/25 166/205/79 178/202/81 177/201/25
f 157/213/88 177/214/89 188/215/89 183/216/88
f 161/217/90 153/218/91 179/219/91 184/220/90
f 153/218/91 157/213/88 183/216/88 179/219/91
f 162/221/90 173/222/90 187/223/90 185/224/90
f 155/225/92 15/76/31 47/75/31 181/226/92
f 177/214/89 156/227/93 182/228/93 188/215/89
f 154/229/90 163/230/90 186/231/90 180/232/90
f 163/230/90 162/221/90 185/224/90 186/231/90
f 156/227/93 155/225/92 181/226/92 182/228/93
f 173/222/90 161/217/90 184/220/90 187/223/90
f 59/83/33 207/233/33 189/234/33 60/84/33
f 58/87/33 208/235/33 207/233/33 59/83/33
f 57/89/33 193/236/33 208/235/33 58/87/33
f 188/237/33 182/238/33 190/239/33 192/240/33
f 183/241/33 188/237/33 192/240/33 191/242/33
f 182/238/33 181/243/33 189/234/33 190/239/33
f 201/244/33 204/245/33 194/246/33 196/247/33
f 205/248/33 201/244/33 196/247/33 195/249/33
f 204/245/33 208/235/33 193/236/33 194/246/33
f 196/247/33 194/246/33 198/250/33 200/251/33
f 195/249/33 196/247/33 200/251/33 199/252/33
f 194/246/33 193/236/33 197/253/33 198/250/33
f 190/239/33 189/234/33 207/233/33 203/254/33
f 203/254/33 207/233/33 208/235/33 204/245/33
f 191/242/33 192/240/33 202/255/33 206/256/33
f 206/256/33 202/255/33 201/244/33 205/248/33
f 192/240/33 190/239/33 203/254/33 202/255/33
f 202/255/33 203/254/33 204/245/33 201/244/33
f 184/257/33 191/242/33 206/256/33 187/258/33
f 187/258/33 206/256/33 205/248/33 185/259/33
f 185/259/33 205/248/33 195/249/33 186/260/33
f 183/241/33 191/242/33 184/257/33 179/261/33
f 181/243/33 47/112/33 60/84/33 189/234/33
f 186/260/33 195/249/33 199/252/33 180/262/33
f 56/114/33 197/253/33 193/236/33 57/89/33
f 233/263/96 97/116/25 16/29/25 160/188/25
f 227/264/25 228/265/102 158/191/25 154/190/25
f 228/265/102 231/266/100 159/193/25 158/191/25
f 239/267/98 233/263/96 160/188/25 175/196/25
f 223/268/25 222/269/25 235/270/114 232/271/112
f 240/272/25 223/268/25 232/271/112 241/273/110
f 221/274/25 224/275/25 230/276/108 225/277/25
f 237/278/25 238/279/106 229/280/104 226/281/25
f 226/281/25 229/280/104 228/265/102 227/264/25
f 222/269/25 90/136/25 99/135/25 235/270/114
f 236/282/116 108/140/25 98/139/25 234/283/95
f 234/283/95 98/139/25 97/116/25 233/263/96
f 235/270/114 99/135/25 108/140/25 236/282/116
f 225/277/25 230/276/108 238/279/106 237/278/25
f 231/266/100 239/267/98 175/196/25 159/193/25
f 224/275/25 240/272/25 241/273/110 230/276/108
f 224/284/118 245/285/118 250/286/119 240/287/119
f 225/288/90 246/289/90 242/290/120 221/291/120
f 221/291/120 242/290/120 245/285/118 224/284/118
f 226/292/90 247/293/90 249/294/90 237/295/90
f 222/296/121 243/297/121 116/155/62 90/154/62
f 240/287/119 250/286/119 244/298/122 223/299/122
f 154/229/90 180/232/90 248/300/90 227/301/90
f 227/301/90 248/300/90 247/293/90 226/292/90
f 223/299/122 244/298/122 243/297/121 222/296/121
f 237/295/90 249/294/90 246/289/90 225/288/90
f 127/161/33 128/164/33 251/302/33 265/303/33
f 126/165/33 127/161/33 265/303/33 266/304/33
f 125/167/33 126/165/33 266/304/33 255/305/33
f 250/306/33 254/307/33 252/308/33 244/309/33
f 245/310/33 253/311/33 254/307/33 250/306/33
f 244/309/33 252/308/33 251/302/33 243/312/33
f 259/313/33 258/314/33 256/315/33 262/316/33
f 263/317/33 257/318/33 258/314/33 259/313/33
f 262/316/33 256/315/33 255/305/33 266/304/33
f 258/314/33 200/251/33 198/250/33 256/315/33
f 257/318/33 199/252/33 200/251/33 258/314/33
f 256/315/33 198/250/33 197/253/33 255/305/33
f 252/308/33 261/319/33 265/303/33 251/302/33
f 261/319/33 262/316/33 266/304/33 265/303/33
f 253/311/33 264/320/33 260/321/33 254/307/33
f 264/320/33 263/317/33 259/313/33 260/321/33
f 254/307/33 260/321/33 261/319/33 252/308/33
f 260/321/33 259/313/33 262/316/33 261/319/33
f 246/322/33 249/323/33 264/320/33 253/311/33
f 249/323/33 247/324/33 263/317/33 264/320/33
f 247/324/33 248/325/33 257/318/33 263/317/33
f 245/310/33 242/326/33 246/322/33 253/311/33
f 243/312/33 251/302/33 128/164/33 116/186/33
f 248/325/33 180/262/33 199/252/33 257/318/33
f 56/114/33 125/167/33 255/305/33 197/253/33
f 300/342/171 310/343/172 309/344/173 299/345/174
f 304/346/175 314/347/176 313/348/177 303/349/178
f 301/350/179 311/351/180 310/343/172 300/342/171
f 297/352/181 307/353/182 308/354/183 298/355/183
f 305/356/184 315/357/184 314/347/176 304/346/175
f 302/358/185 312/359/186 311/351/180 301/350/179
f 299/345/174 309/344/173 307/353/182 297/352/181
f 306/360/187 316/361/187 315/357/184 305/356/184
f 303/349/178 313/348/177 312/359/186 302/358/185
f 320/362/188 315/363/188 316/364/188 321/365/188
f 322/366/188 314/367/188 315/363/188 320/362/188
f 309/368/188 319/369/188 317/370/188 307/371/188
f 307/371/188 317/370/188 318/372/188 308/373/188
f 319/369/188 322/366/188 320/362/188 317/370/188
f 317/370/188 320/362/188 321/365/188 318/372/188
f 309/368/188 310/374/188 311/375/188 319/369/188
f 313/376/188 314/367/188 322/366/188 312/377/188
f 312/377/188 322/366/188 319/369/188 311/375/188
f 323/378/189 324/372/189 306/373/189 305/379/189
f 325/380/189 323/378/189 305/379/189 304/381/189
f 328/382/189 326/383/189 323/378/189 325/380/189
f 326/383/189 327/365/189 324/372/189 323/378/189
f 297/384/189 298/364/189 327/365/189 326/383/189
f 299/385/189 297/384/189 326/383/189 328/382/189
f 299/385/189 328/382/189 301/386/189 300/387/189
f 303/388/189 302/389/189 325/380/189 304/381/189
f 302/389/189 301/386/189 328/382/189 325/380/189
f 331/390/190 330/391/191 338/392/192 339/393/193
f 335/394/194 334/395/195 342/396/196 343/397/197
f 332/398/198 331/390/190 339/393/193 340/399/199
f 329/400/200 298/355/183 308/354/183 337/401/201
f 336/402/202 335/394/194 343/397/197 344/403/202
f 333/404/203 332/398/198 340/399/199 341/405/204
f 330/391/191 329/400/200 337/401/201 338/392/192
f 306/406/187 336/402/202 344/403/202 316/407/187
f 334/395/195 333/404/203 341/405/204 342/396/196
f 347/383/188 321/365/188 316/364/188 344/384/188
f 348/382/188 347/383/188 344/384/188 343/385/188
f 338/381/188 337/379/188 345/378/188 346/380/188
f 337/379/188 308/373/188 318/372/188 345/378/188
f 346/380/188 345/378/188 347/383/188 348/382/188
f 345/378/188 318/372/188 321/365/188 347/383/188
f 338/381/188 346/380/188 340/389/188 339/388/188
f 342/387/188 341/386/188 348/382/188 343/385/188
f 341/386/188 340/389/188 346/380/188 348/382/188
f 349/370/189 336/371/189 306/373/189 324/372/189
f 350/369/189 335/368/189 336/371/189 349/370/189
f 352/366/189 350/369/189 349/370/189 351/362/189
f 351/362/189 349/370/189 324/372/189 327/365/189
f 329/363/189 351/362/189 327/365/189 298/364/189
f 330/367/189 352/366/189 351/362/189 329/363/189
f 330/367/189 331/376/189 332/377/189 352/366/189
f 334/374/189 335/368/189 350/369/189 333/375/189
f 333/375/189 350/369/189 352/366/189 332/377/189
g Cylinder.002_3D_Chair_v2_Metal.1001
usemtl 3D_Chair_v2_Metal.1001
f 1/1/1 35/2/2 34/3/3 2/4/4
f 2/4/4 34/3/3 42/5/5 3/6/6
f 3/6/6 42/5/5 32/7/7 4/8/8
f 4/9/8 32/10/7 29/11/9 5/12/10
f 5/12/10 29/11/9 30/13/11 6/14/12
f 6/14/12 30/13/11 40/15/13 7/16/14
f 7/16/14 40/15/13 31/17/15 8/18/16
f 8/18/16 31/17/15 44/19/17 9/20/18
f 9/20/18 44/19/17 33/21/19 10/22/20
f 10/22/20 33/21/19 36/23/21 11/24/22
f 11/24/22 36/23/21 38/25/23 12/26/24
f 12/26/24 38/25/23 35/2/2 1/1/1
f 77/2/34 78/3/35 105/4/36 106/1/37
f 78/3/35 79/5/38 112/6/39 105/4/36
f 79/5/38 80/7/40 103/8/41 112/6/39
f 80/10/40 81/11/42 100/12/43 103/9/41
f 81/11/42 82/13/44 101/14/45 100/12/43
f 82/13/44 83/15/46 111/16/47 101/14/45
f 83/15/46 84/17/48 102/18/49 111/16/47
f 84/17/48 85/19/50 114/20/51 102/18/49
f 85/19/50 86/21/52 104/22/53 114/20/51
f 86/21/52 87/23/54 107/24/55 104/22/53
f 87/23/54 88/25/56 109/26/57 107/24/55
f 88/25/56 77/2/34 106/1/37 109/26/57
f 141/5/64 142/7/65 169/8/66 170/6/67
f 142/10/65 143/11/68 176/12/69 169/9/66
f 143/11/68 144/13/70 167/14/71 176/12/69
f 144/13/70 145/15/72 164/16/73 167/14/71
f 145/15/72 146/17/74 165/18/75 164/16/73
f 146/17/74 147/19/76 174/20/77 165/18/75
f 147/19/76 148/21/78 166/22/79 174/20/77
f 148/21/78 149/23/80 178/24/81 166/22/79
f 149/23/80 150/25/82 168/26/83 178/24/81
f 150/25/82 151/2/84 171/1/85 168/26/83
f 151/2/84 152/3/86 172/4/87 171/1/85
f 152/3/86 141/5/64 170/6/67 172/4/87
f 209/4/94 234/3/95 233/5/96 210/6/97
f 210/6/97 233/5/96 239/7/98 211/8/99
f 211/9/99 239/10/98 231/11/100 212/12/101
f 212/12/101 231/11/100 228/13/102 213/14/103
f 213/14/103 228/13/102 229/15/104 214/16/105
f 214/16/105 229/15/104 238/17/106 215/18/107
f 215/18/107 238/17/106 230/19/108 216/20/109
f 216/20/109 230/19/108 241/21/110 217/22/111
f 217/22/111 241/21/110 232/23/112 218/24/113
f 218/24/113 232/23/112 235/25/114 219/26/115
f 219/26/115 235/25/114 236/2/116 220/1/117
f 220/1/117 236/2/116 234/3/95 209/4/94
f 365/20/123 286/19/124 283/21/125 366/22/126
f 353/24/127 274/23/128 275/25/129 354/26/130
f 355/14/131 268/13/132 276/15/133 356/16/134
f 367/12/135 289/11/136 284/13/137 368/14/138
f 369/9/139 282/10/140 289/11/136 367/12/135
f 370/4/141 280/3/142 279/5/143 371/6/144
f 357/22/145 271/21/146 274/23/128 353/24/127
f 366/22/126 283/21/125 290/23/147 372/24/148
f 373/26/149 281/25/150 288/2/151 374/1/152
f 358/4/153 272/3/154 277/5/155 359/6/156
f 371/6/144 279/5/143 282/7/140 369/8/139
f 360/12/157 267/11/158 268/13/132 355/14/131
f 375/16/159 285/15/160 287/17/161 376/18/162
f 361/20/163 278/19/164 271/21/146 357/22/145
f 359/6/156 277/5/155 270/7/165 362/8/166
f 356/16/134 276/15/133 269/17/167 363/18/168
f 372/24/148 290/23/147 281/25/150 373/26/149
f 362/9/166 270/10/165 267/11/158 360/12/157
f 354/26/130 275/25/129 273/2/169 364/1/170
f 368/14/138 284/13/137 285/15/160 375/16/159
f 376/18/162 287/17/161 286/19/124 365/20/123
f 374/1/152 288/2/151 280/3/142 370/4/141
f 363/18/168 269/17/167 278/19/164 361/20/163
f 364/1/170 273/2/169 272/3/154 358/4/153
f 288/327/151 281/328/150 291/329/33 280/330/142
f 281/328/150 290/331/147 283/332/125 291/329/33
f 280/330/142 291/329/33 292/333/33 279/334/143
f 291/329/33 283/332/125 286/335/124 292/333/33
f 279/334/143 292/333/33 293/336/33 282/337/140
f 292/333/33 286/335/124 287/338/161 293/336/33
f 282/337/140 293/336/33 284/339/137 289/340/136
f 293/336/33 287/338/161 285/341/160 284/339/137
f 268/330/132 294/329/33 269/328/167 276/327/133
f 294/329/33 271/332/146 278/331/164 269/328/167
f 267/334/158 295/333/33 294/329/33 268/330/132
f 295/333/33 274/335/128 271/332/146 294/329/33
f 270/337/165 296/336/33 295/333/33 267/334/158
f 296/336/33 275/338/129 274/335/128 295/333/33
f 277/340/155 272/339/154 296/336/33 270/337/165
f 272/339/154 273/341/169 275/338/129 296/336/33
f 12/408/24 377/409/25 10/410/20 11/411/22
f 377/409/25 379/412/25 9/413/18 10/410/20
f 379/412/25 7/414/14 8/415/16 9/413/18
f 1/416/1 378/417/25 377/409/25 12/408/24
f 378/417/25 380/418/25 379/412/25 377/409/25
f 380/418/25 6/419/12 7/414/14 379/412/25
f 2/420/4 3/421/6 378/417/25 1/416/1
f 3/421/6 4/422/8 380/418/25 378/417/25
f 4/422/8 5/423/10 6/419/12 380/418/25
f 87/411/54 86/408/52 381/409/25 88/410/56
f 86/408/52 85/416/50 383/417/25 381/409/25
f 85/416/50 84/420/48 83/421/46 383/417/25
f 88/410/56 381/409/25 382/412/25 77/413/34
f 381/409/25 383/417/25 384/418/25 382/412/25
f 383/417/25 83/421/46 82/422/44 384/418/25
f 77/413/34 382/412/25 79/414/38 78/415/35
f 382/412/25 384/418/25 80/419/40 79/414/38
f 384/418/25 82/422/44 81/423/42 80/419/40
f 220/408/117 385/409/25 218/410/113 219/411/115
f 385/409/25 387/412/25 217/413/111 218/410/113
f 387/412/25 215/414/107 216/415/109 217/413/111
f 209/416/94 386/417/25 385/409/25 220/408/117
f 386/417/25 388/418/25 387/412/25 385/409/25
f 388/418/25 214/419/105 215/414/107 387/412/25
f 210/420/97 211/421/99 386/417/25 209/416/94
f 211/421/99 212/422/101 388/418/25 386/417/25
f 212/422/101 213/423/103 214/419/105 388/418/25
f 151/411/84 150/408/82 389/409/25 152/410/86
f 150/408/82 149/416/80 391/417/25 389/409/25
f 149/416/80 148/420/78 147/421/76 391/417/25
f 152/410/86 389/409/25 390/412/25 141/413/64
f 389/409/25 391/417/25 392/418/25 390/412/25
f 391/417/25 147/421/76 146/422/74 392/418/25
f 141/413/64 390/412/25 143/414/68 142/415/65
f 390/412/25 392/418/25 144/419/70 143/414/68
f 392/418/25 146/422/74 145/423/72 144/419/70
