# Blender 5.0.1
# www.blender.org
mtllib 3D_Door_v2.mtl
o DoorV2Bis
v -0.673623 1.126715 0.029344
v -0.673623 1.126715 0.208778
v -0.673554 2.127573 0.208778
v -0.673554 2.127573 0.029344
v 0.670001 1.127907 0.208778
v 0.670001 1.127907 0.029344
v 0.669933 2.147359 0.029344
v 0.669933 2.147359 0.208778
v -0.610659 1.123518 0.223514
v -0.610659 2.074498 0.223514
v 0.526197 1.131710 0.208778
v 0.061089 1.125460 0.207868
v 0.061089 0.999660 0.207868
v 0.526197 0.993410 0.208778
v 0.670006 0.001443 0.208778
v 0.607037 0.050622 0.223514
v 0.068224 0.050622 0.223514
v 0.068763 0.001443 0.208778
v -0.071005 2.074498 0.223514
v -0.071040 2.136447 0.208778
v -0.074336 1.127247 0.029344
v -0.073678 2.136408 0.029344
v -0.673627 0.001443 0.208778
v -0.673627 0.001443 0.029344
v -0.075070 0.001443 0.029344
v -0.071672 0.001443 0.208778
v 0.068011 2.138495 0.029344
v 0.065084 2.138452 0.208778
v -0.673623 0.995651 0.029344
v -0.074423 0.993404 0.029344
v 0.607037 2.074498 0.223514
v 0.607037 1.123518 0.223514
v -0.610659 0.050622 0.223514
v -0.610659 0.993934 0.223514
v -0.673623 0.994342 0.208778
v 0.670006 0.001443 0.029344
v 0.670002 0.990612 0.029344
v 0.670002 0.991100 0.208778
v -0.457964 1.188035 0.207426
v -0.128089 1.202552 0.208739
v -0.140045 1.925662 0.207337
v -0.463344 1.923269 0.207520
v 0.127185 1.191999 0.208739
v 0.451707 1.197657 0.207426
v 0.451707 1.893454 0.207520
v 0.133718 1.893454 0.207337
v 0.139172 0.207913 0.207389
v 0.450676 0.197856 0.207520
v 0.440404 0.888625 0.207468
v 0.144705 0.898829 0.208646
v -0.450008 0.200633 0.207520
v -0.137340 0.200633 0.207337
v -0.130806 0.894818 0.208739
v -0.450008 0.889159 0.207426
v -0.515929 1.143591 0.200758
v -0.513780 1.145429 0.192739
v -0.513780 1.977619 0.192739
v -0.515929 1.979768 0.200758
v -0.521799 1.138569 0.206629
v -0.521799 1.985638 0.206629
v -0.529819 1.131710 0.208778
v -0.529819 1.993658 0.208778
v -0.077820 1.985638 0.206629
v -0.070960 1.993658 0.208778
v -0.082842 1.979768 0.200758
v -0.084680 1.977619 0.192739
v -0.077190 1.137939 0.193279
v -0.075518 1.136267 0.200573
v -0.070950 1.131699 0.205913
v -0.064710 1.125460 0.207868
v 0.518178 1.985638 0.206629
v 0.526197 1.993658 0.208778
v 0.067339 1.993658 0.208778
v 0.074199 1.985638 0.206629
v 0.512307 1.979768 0.200758
v 0.079220 1.979768 0.200758
v 0.510159 1.977619 0.192739
v 0.081058 1.977619 0.192739
v 0.510159 1.145429 0.192739
v 0.512307 1.143591 0.200758
v 0.518178 1.138569 0.206629
v 0.067329 1.131699 0.205913
v 0.071896 1.136267 0.200573
v 0.073568 1.137939 0.193279
v -0.521799 0.139482 0.206629
v -0.529819 0.131462 0.208778
v -0.070960 0.131462 0.208778
v -0.077820 0.139482 0.206629
v -0.515929 0.145352 0.200758
v -0.082842 0.145352 0.200758
v -0.513780 0.147501 0.192739
v -0.084680 0.147501 0.192739
v -0.075518 0.988853 0.200573
v -0.077190 0.987181 0.193279
v -0.070950 0.993421 0.205913
v -0.064710 0.999660 0.207868
v -0.513780 0.979691 0.192739
v -0.515929 0.981529 0.200758
v -0.521799 0.986551 0.206629
v -0.529819 0.993410 0.208778
v 0.512307 0.981529 0.200758
v 0.510159 0.979691 0.192739
v 0.510159 0.147501 0.192739
v 0.512307 0.145352 0.200758
v 0.518178 0.986551 0.206629
v 0.518178 0.139482 0.206629
v 0.526197 0.131462 0.208778
v 0.074199 0.139482 0.206629
v 0.067339 0.131462 0.208778
v 0.079220 0.145352 0.200758
v 0.081058 0.147501 0.192739
v 0.067329 0.993421 0.205913
v 0.071896 0.988853 0.200573
v 0.073568 0.987181 0.193279
v 0.510159 1.145429 0.182125
v 0.510159 1.977619 0.182125
v 0.081058 1.977619 0.182125
v 0.510159 0.147501 0.182125
v 0.510159 0.979691 0.182125
v 0.081058 0.147501 0.182125
v -0.084680 1.977619 0.182125
v -0.513780 1.977619 0.182125
v -0.513780 1.145429 0.182125
v -0.513780 0.147501 0.182125
v -0.084680 0.147501 0.182125
v -0.513780 0.979691 0.182125
v -0.077190 1.137939 0.183624
v -0.077190 0.987181 0.183624
v 0.073568 1.137939 0.183624
v 0.073568 0.987181 0.183624
v 0.607037 0.992112 0.223514
v 0.066080 2.074498 0.223514
v -0.071403 0.050622 0.223514
v 0.069892 1.127375 0.029344
v 0.071987 0.001443 0.029344
v 0.070143 0.992862 0.029344
v 0.597949 1.085630 0.214605
v 0.586839 1.088166 0.214605
v 0.586839 1.088166 0.246016
v 0.597949 1.085630 0.246016
v 0.606859 1.078525 0.214605
v 0.606859 1.078525 0.246016
v 0.611803 1.068258 0.214605
v 0.611803 1.068258 0.246016
v 0.611803 1.056862 0.214605
v 0.611803 1.056862 0.246016
v 0.606859 1.046595 0.214605
v 0.606859 1.046595 0.246016
v 0.597949 1.039490 0.214605
v 0.597949 1.039490 0.246016
v 0.586839 1.036954 0.214605
v 0.586839 1.036954 0.246016
v 0.575729 1.039490 0.214605
v 0.575729 1.039490 0.246016
v 0.566820 1.046595 0.214605
v 0.566820 1.046595 0.246016
v 0.561875 1.056862 0.214605
v 0.561875 1.056862 0.246016
v 0.561875 1.068258 0.214605
v 0.561875 1.068258 0.246016
v 0.566820 1.078525 0.214605
v 0.566820 1.078525 0.246016
v 0.575729 1.085630 0.214605
v 0.575729 1.085630 0.246016
v 0.599701 1.033228 0.244394
v 0.586552 1.033228 0.242662
v 0.586552 1.047377 0.236802
v 0.601218 1.047377 0.238733
v 0.601218 1.077743 0.238733
v 0.586552 1.077743 0.236802
v 0.586552 1.091892 0.242662
v 0.599701 1.091892 0.244394
v 0.586552 1.003896 0.293467
v 0.586552 1.005895 0.278284
v 0.590482 1.005895 0.278801
v 0.594144 1.113364 0.265134
v 0.586552 1.113364 0.264135
v 0.586552 1.119225 0.278284
v 0.590482 1.119225 0.278801
v 0.597288 1.021078 0.253399
v 0.586552 1.021078 0.251985
v 0.601736 1.062560 0.236802
v 0.586552 1.062560 0.234803
v 0.597288 1.104042 0.253399
v 0.586552 1.104042 0.251985
v 0.594144 1.011756 0.265134
v 0.586552 1.011756 0.264135
v 0.586552 1.121224 0.293467
v 0.607293 1.104042 0.257543
v 0.601218 1.113364 0.268065
v 0.601218 1.011756 0.268065
v 0.607293 1.021078 0.257543
v 0.614885 1.047377 0.244394
v 0.615884 1.062560 0.242662
v 0.611954 1.091892 0.249469
v 0.594144 1.005895 0.280318
v 0.594144 1.119225 0.280318
v 0.611954 1.033228 0.249469
v 0.614885 1.077743 0.244394
v 0.626620 1.077743 0.253399
v 0.622476 1.091892 0.257543
v 0.597288 1.005895 0.282731
v 0.607293 1.113364 0.272726
v 0.597288 1.119225 0.282731
v 0.615884 1.021078 0.264135
v 0.622476 1.033228 0.257543
v 0.628034 1.062560 0.251985
v 0.615884 1.104042 0.264135
v 0.607293 1.011756 0.272726
v 0.626620 1.047377 0.253399
v 0.630550 1.091892 0.268065
v 0.622476 1.104042 0.272726
v 0.599701 1.005895 0.285875
v 0.611954 1.011756 0.278801
v 0.599701 1.119225 0.285875
v 0.630550 1.033228 0.268065
v 0.635626 1.047377 0.265134
v 0.635626 1.077743 0.265134
v 0.611954 1.113364 0.278801
v 0.622476 1.021078 0.272726
v 0.637357 1.062560 0.264135
v 0.643217 1.062560 0.278284
v 0.641286 1.077743 0.278801
v 0.626620 1.104042 0.282731
v 0.614885 1.113364 0.285875
v 0.614885 1.011756 0.285875
v 0.626620 1.021078 0.282731
v 0.641286 1.047377 0.278801
v 0.635626 1.091892 0.280318
v 0.601218 1.005895 0.289537
v 0.601218 1.119225 0.289537
v 0.635626 1.033228 0.280318
v 0.643217 1.077743 0.293467
v 0.637357 1.091892 0.293467
v 0.601736 1.005895 0.293467
v 0.615884 1.113364 0.293467
v 0.601736 1.119225 0.293467
v 0.628034 1.021078 0.293467
v 0.637357 1.033228 0.293467
v 0.645216 1.062560 0.293467
v 0.628034 1.104042 0.293467
v 0.615884 1.011756 0.293467
v 0.643217 1.047377 0.293467
v 0.641286 1.047377 0.308133
v 0.643217 1.062560 0.308650
v 0.635626 1.091892 0.306616
v 0.626620 1.104042 0.304203
v 0.601218 1.005895 0.297397
v 0.614885 1.011756 0.301059
v 0.601218 1.119225 0.297397
v 0.635626 1.033228 0.306616
v 0.641286 1.077743 0.308133
v 0.614885 1.113364 0.301059
v 0.626620 1.021078 0.304203
v 0.637357 1.062560 0.322799
v 0.635626 1.077743 0.321799
v 0.622476 1.104042 0.314208
v 0.611954 1.113364 0.308133
v 0.611954 1.011756 0.308133
v 0.622476 1.021078 0.314208
v 0.635626 1.047377 0.321799
v 0.630550 1.091892 0.318869
v 0.599701 1.005895 0.301059
v 0.599701 1.119225 0.301059
v 0.630550 1.033228 0.318869
v 0.622476 1.033228 0.329391
v 0.626620 1.047377 0.333535
v 0.626620 1.077743 0.333535
v 0.622476 1.091892 0.329391
v 0.597288 1.005895 0.304203
v 0.607293 1.113364 0.314208
v 0.597288 1.119225 0.304203
v 0.615884 1.021078 0.322799
v 0.628034 1.062560 0.334949
v 0.615884 1.104042 0.322799
v 0.607293 1.011756 0.314208
v 0.614885 1.047377 0.342540
v 0.615884 1.062560 0.344271
v 0.611954 1.091892 0.337465
v 0.607293 1.104042 0.329391
v 0.594144 1.005895 0.306616
v 0.601218 1.011756 0.318869
v 0.594144 1.119225 0.306616
v 0.611954 1.033228 0.337465
v 0.614885 1.077743 0.342540
v 0.601218 1.113364 0.318869
v 0.607293 1.021078 0.329391
v 0.597288 1.021078 0.333535
v 0.599701 1.033228 0.342540
v 0.601736 1.062560 0.350132
v 0.601218 1.077743 0.348201
v 0.597288 1.104042 0.333535
v 0.594144 1.113364 0.321799
v 0.594144 1.011756 0.321799
v 0.601218 1.047377 0.348201
v 0.599701 1.091892 0.342540
v 0.590482 1.005895 0.308133
v 0.590482 1.119225 0.308133
v 0.586552 1.119225 0.308650
v 0.586552 1.033228 0.344271
v 0.586552 1.047377 0.350132
v 0.586552 1.077743 0.350132
v 0.586552 1.091892 0.344271
v 0.586552 1.005895 0.308650
v 0.586552 1.113364 0.322799
v 0.586552 1.021078 0.334949
v 0.586552 1.062560 0.352131
v 0.586552 1.104042 0.334949
v 0.586552 1.011756 0.322799
v 0.578961 1.011756 0.321799
v 0.575816 1.021078 0.333535
v 0.571886 1.047377 0.348201
v 0.571369 1.062560 0.350132
v 0.573403 1.091892 0.342540
v 0.575816 1.104042 0.333535
v 0.582623 1.005895 0.308133
v 0.582623 1.119225 0.308133
v 0.573403 1.033228 0.342540
v 0.571886 1.077743 0.348201
v 0.578961 1.113364 0.321799
v 0.571886 1.113364 0.318869
v 0.578961 1.119225 0.306616
v 0.565811 1.021078 0.329391
v 0.561150 1.033228 0.337465
v 0.557220 1.062560 0.344271
v 0.558220 1.077743 0.342540
v 0.565811 1.104042 0.329391
v 0.571886 1.011756 0.318869
v 0.558220 1.047377 0.342540
v 0.561150 1.091892 0.337465
v 0.578961 1.005895 0.306616
v 0.575816 1.005895 0.304203
v 0.565811 1.011756 0.314208
v 0.575816 1.119225 0.304203
v 0.550628 1.033228 0.329391
v 0.546484 1.047377 0.333535
v 0.546484 1.077743 0.333535
v 0.550628 1.091892 0.329391
v 0.565811 1.113364 0.314208
v 0.557220 1.021078 0.322799
v 0.545071 1.062560 0.334949
v 0.557220 1.104042 0.322799
v 0.550628 1.104042 0.314208
v 0.561150 1.113364 0.308133
v 0.561150 1.011756 0.308133
v 0.550628 1.021078 0.314208
v 0.537479 1.047377 0.321799
v 0.535748 1.062560 0.322799
v 0.542554 1.091892 0.318869
v 0.573403 1.005895 0.301059
v 0.573403 1.119225 0.301059
v 0.542554 1.033228 0.318869
v 0.537479 1.077743 0.321799
v 0.571886 1.005895 0.297397
v 0.558220 1.113364 0.301059
v 0.571886 1.119225 0.297397
v 0.546484 1.021078 0.304203
v 0.537479 1.033228 0.306616
v 0.529887 1.062560 0.308650
v 0.531818 1.077743 0.308133
v 0.546484 1.104042 0.304203
v 0.558220 1.011756 0.301059
v 0.531818 1.047377 0.308133
v 0.537479 1.091892 0.306616
v 0.535748 1.091892 0.293467
v 0.545071 1.104042 0.293467
v 0.571369 1.005895 0.293467
v 0.557220 1.011756 0.293467
v 0.571369 1.119225 0.293467
v 0.535748 1.033228 0.293467
v 0.529887 1.047377 0.293467
v 0.529887 1.077743 0.293467
v 0.557220 1.113364 0.293467
v 0.545071 1.021078 0.293467
v 0.527888 1.062560 0.293467
v 0.546484 1.104042 0.282731
v 0.558220 1.113364 0.285875
v 0.558220 1.011756 0.285875
v 0.546484 1.021078 0.282731
v 0.531818 1.047377 0.278801
v 0.529887 1.062560 0.278284
v 0.537479 1.091892 0.280318
v 0.571886 1.005895 0.289537
v 0.571886 1.119225 0.289537
v 0.537479 1.033228 0.280318
v 0.531818 1.077743 0.278801
v 0.537479 1.077743 0.265134
v 0.542554 1.091892 0.268065
v 0.573403 1.005895 0.285875
v 0.561150 1.113364 0.278801
v 0.573403 1.119225 0.285875
v 0.550628 1.021078 0.272726
v 0.542554 1.033228 0.268065
v 0.535748 1.062560 0.264135
v 0.550628 1.104042 0.272726
v 0.561150 1.011756 0.278801
v 0.537479 1.047377 0.265134
v 0.550628 1.091892 0.257543
v 0.557220 1.104042 0.264135
v 0.575816 1.005895 0.282731
v 0.565811 1.011756 0.272726
v 0.575816 1.119225 0.282731
v 0.550628 1.033228 0.257543
v 0.546484 1.047377 0.253399
v 0.546484 1.077743 0.253399
v 0.565811 1.113364 0.272726
v 0.557220 1.021078 0.264135
v 0.545071 1.062560 0.251985
v 0.557220 1.062560 0.242662
v 0.558220 1.077743 0.244394
v 0.565811 1.104042 0.257543
v 0.571886 1.113364 0.268065
v 0.571886 1.011756 0.268065
v 0.565811 1.021078 0.257543
v 0.558220 1.047377 0.244394
v 0.561150 1.091892 0.249469
v 0.578961 1.005895 0.280318
v 0.578961 1.119225 0.280318
v 0.561150 1.033228 0.249469
v 0.571886 1.077743 0.238733
v 0.573403 1.091892 0.244394
v 0.582623 1.005895 0.278801
v 0.578961 1.113364 0.265134
v 0.582623 1.119225 0.278801
v 0.575816 1.021078 0.253399
v 0.573403 1.033228 0.244394
v 0.571369 1.062560 0.236802
v 0.575816 1.104042 0.253399
v 0.578961 1.011756 0.265134
v 0.571886 1.047377 0.238733
vn -1.0000 0.0001 -0.0000
vn -1.0000 -0.0000 -0.0000
vn 1.0000 -0.0000 -0.0000
vn 1.0000 0.0001 -0.0000
vn -0.2279 -0.0000 0.9737
vn -0.2280 -0.0000 0.9737
vn -0.0020 -0.0000 1.0000
vn -0.0007 -0.0003 1.0000
vn -0.0007 0.0003 1.0000
vn -0.0000 -0.2870 0.9579
vn -0.0019 0.2472 0.9690
vn -0.0000 -0.0000 -1.0000
vn -0.0000 -1.0000 -0.0000
vn -0.0147 0.9999 -0.0000
vn 0.2279 -0.0000 0.9737
vn 0.2280 -0.0000 0.9737
vn -0.0018 0.0009 1.0000
vn 0.0018 0.0009 1.0000
vn 0.0017 -0.0009 1.0000
vn -0.0018 -0.0009 1.0000
vn 0.9659 -0.0000 0.2589
vn 0.7072 -0.0000 0.7070
vn 0.2588 -0.0000 0.9659
vn -0.0000 -0.2588 0.9659
vn -0.0000 -0.7072 0.7070
vn -0.0000 -0.9659 0.2589
vn -0.9746 -0.0085 0.2237
vn -0.7595 -0.0067 0.6505
vn -0.2986 -0.0032 0.9544
vn 0.0164 0.9745 0.2239
vn 0.0127 0.7591 0.6508
vn 0.0060 0.2983 0.9545
vn -0.9659 -0.0000 0.2587
vn -0.7071 -0.0000 0.7071
vn -0.2589 -0.0000 0.9659
vn 0.2986 -0.0032 0.9544
vn 0.7596 -0.0067 0.6504
vn 0.9746 -0.0085 0.2237
vn -0.0164 0.9745 0.2239
vn -0.0127 0.7591 0.6508
vn -0.0060 0.2983 0.9545
vn -0.0000 0.2588 0.9659
vn -0.0000 0.7072 0.7070
vn -0.0000 0.9659 0.2589
vn -0.9746 0.0085 0.2237
vn -0.7595 0.0067 0.6505
vn -0.2986 0.0032 0.9544
vn 0.0060 -0.2982 0.9545
vn 0.0127 -0.7591 0.6508
vn 0.0164 -0.9745 0.2239
vn 0.2986 0.0032 0.9544
vn 0.7596 0.0067 0.6504
vn 0.9746 0.0085 0.2237
vn -0.0060 -0.2983 0.9545
vn -0.0127 -0.7591 0.6508
vn -0.0164 -0.9745 0.2239
vn -0.1793 -0.0000 0.9838
vn -0.0000 0.1793 0.9838
vn 0.0007 0.0003 1.0000
vn 0.0007 -0.0003 1.0000
vn 0.0020 -0.0000 1.0000
vn -0.0000 1.0000 -0.0000
vn 0.1793 -0.0000 0.9838
vn -0.0000 -0.1793 0.9838
vn -0.0000 -0.0010 1.0000
vn -1.0000 -0.0089 -0.0000
vn -1.0000 0.0089 -0.0000
vn 0.0172 0.9999 -0.0000
vn -0.0172 0.9999 -0.0000
vn 0.0172 -0.9999 -0.0000
vn 1.0000 -0.0089 -0.0000
vn -0.0172 -0.9999 -0.0000
vn 1.0000 0.0089 -0.0000
vn -0.4308 -0.0015 0.9025
vn -0.0011 0.4299 0.9029
vn 0.4287 0.0070 0.9034
vn 0.0006 -0.4255 0.9049
vn -0.0002 0.2879 0.9577
vn 0.3979 -0.0001 0.9174
vn -0.4267 0.0056 0.9044
vn 0.0107 -0.4281 0.9036
vn 0.0002 -0.4300 0.9028
vn 0.4297 -0.0056 0.9030
vn -0.3694 0.0001 0.9293
vn -0.0082 0.2653 0.9641
vn 0.3648 0.0025 0.9311
vn -0.0058 -0.4160 0.9094
vn -0.3630 -0.0021 0.9318
vn 0.0101 0.2703 0.9627
vn -0.0017 0.2279 0.9737
vn -0.0016 0.2113 0.9774
vn -0.0000 0.0010 1.0000
vn 0.4339 0.9010 -0.0000
vn 0.7818 0.6235 -0.0000
vn 0.9749 0.2225 -0.0000
vn 0.9749 -0.2225 -0.0000
vn 0.7818 -0.6235 -0.0000
vn 0.4339 -0.9010 -0.0000
vn -0.4339 -0.9010 -0.0000
vn -0.7818 -0.6235 -0.0000
vn -0.9749 -0.2225 -0.0000
vn -0.9749 0.2225 -0.0000
vn -0.7818 0.6235 -0.0000
vn -0.4339 0.9010 -0.0000
vn 0.2502 -0.2562 -0.9337
vn 0.2248 -0.4953 -0.8391
vn -0.0000 -0.4953 -0.8687
vn -0.0000 -0.2561 -0.9666
vn 0.2248 0.4954 -0.8391
vn 0.2502 0.2562 -0.9337
vn -0.0000 0.2561 -0.9666
vn -0.0000 0.4953 -0.8687
vn -0.0000 -0.9632 -0.2689
vn 0.0696 -0.9632 -0.2598
vn 0.0696 0.9632 -0.2598
vn 0.1315 0.8613 -0.4907
vn -0.0000 0.8613 -0.5081
vn -0.0000 0.9632 -0.2689
vn 0.1844 -0.7017 -0.6882
vn -0.0000 -0.7017 -0.7124
vn 0.2588 -0.0000 -0.9659
vn 0.1844 0.7017 -0.6882
vn -0.0000 0.7017 -0.7124
vn 0.1315 -0.8613 -0.4907
vn -0.0000 -0.8613 -0.5081
vn 0.2540 0.8613 -0.4400
vn 0.3562 0.7017 -0.6170
vn 0.3562 -0.7017 -0.6170
vn 0.2540 -0.8613 -0.4400
vn 0.5000 -0.0000 -0.8660
vn 0.4833 -0.2562 -0.8371
vn 0.4343 0.4953 -0.7523
vn 0.1345 -0.9632 -0.2329
vn 0.1345 0.9632 -0.2329
vn 0.4343 -0.4953 -0.7523
vn 0.4833 0.2562 -0.8371
vn 0.6143 0.4954 -0.6143
vn 0.6835 0.2562 -0.6835
vn 0.1901 -0.9632 -0.1902
vn 0.3592 0.8613 -0.3592
vn 0.1902 0.9632 -0.1901
vn 0.6143 -0.4954 -0.6143
vn 0.5038 -0.7017 -0.5038
vn 0.7071 -0.0000 -0.7071
vn 0.5038 0.7017 -0.5038
vn 0.3593 -0.8613 -0.3592
vn 0.6835 -0.2562 -0.6835
vn 0.6170 0.7017 -0.3562
vn 0.7523 0.4954 -0.4344
vn 0.4400 -0.8613 -0.2540
vn 0.2329 -0.9632 -0.1345
vn 0.2329 0.9632 -0.1345
vn 0.8371 -0.2562 -0.4833
vn 0.7523 -0.4954 -0.4344
vn 0.8371 0.2562 -0.4833
vn 0.4400 0.8613 -0.2540
vn 0.6170 -0.7017 -0.3562
vn 0.8660 -0.0000 -0.5000
vn 0.9337 0.2561 -0.2502
vn 0.9659 -0.0000 -0.2588
vn 0.6882 0.7017 -0.1844
vn 0.4907 0.8613 -0.1315
vn 0.6882 -0.7017 -0.1844
vn 0.4907 -0.8613 -0.1315
vn 0.9337 -0.2561 -0.2502
vn 0.8391 0.4954 -0.2248
vn 0.2597 -0.9632 -0.0696
vn 0.2597 0.9632 -0.0696
vn 0.8391 -0.4954 -0.2248
vn 0.9666 0.2561 -0.0000
vn 0.8687 0.4953 -0.0000
vn 0.2689 -0.9632 -0.0000
vn 0.5081 0.8613 -0.0000
vn 0.2689 0.9632 -0.0000
vn 0.8687 -0.4953 -0.0000
vn 0.7124 -0.7017 -0.0000
vn 0.7124 0.7017 -0.0000
vn 0.5081 -0.8613 -0.0000
vn 0.9666 -0.2561 -0.0000
vn 0.9659 -0.0000 0.2588
vn 0.9337 -0.2561 0.2502
vn 0.8391 0.4953 0.2248
vn 0.6882 0.7017 0.1844
vn 0.4907 -0.8613 0.1315
vn 0.2597 -0.9632 0.0696
vn 0.2597 0.9632 0.0696
vn 0.8391 -0.4953 0.2248
vn 0.9337 0.2561 0.2502
vn 0.4907 0.8613 0.1315
vn 0.6882 -0.7017 0.1844
vn 0.8371 0.2562 0.4833
vn 0.8660 -0.0000 0.5000
vn 0.6170 0.7017 0.3562
vn 0.4400 0.8613 0.2540
vn 0.6170 -0.7017 0.3562
vn 0.4400 -0.8613 0.2540
vn 0.8371 -0.2562 0.4833
vn 0.7523 0.4954 0.4344
vn 0.2329 -0.9632 0.1345
vn 0.2329 0.9632 0.1345
vn 0.7523 -0.4954 0.4344
vn 0.6835 -0.2562 0.6835
vn 0.6143 -0.4953 0.6143
vn 0.6143 0.4953 0.6143
vn 0.6835 0.2562 0.6835
vn 0.1901 -0.9632 0.1901
vn 0.3592 0.8613 0.3593
vn 0.1902 0.9632 0.1901
vn 0.5038 -0.7017 0.5038
vn 0.7071 -0.0000 0.7071
vn 0.5038 0.7017 0.5038
vn 0.3592 -0.8613 0.3592
vn 0.5000 -0.0000 0.8660
vn 0.4833 -0.2562 0.8371
vn 0.3562 0.7017 0.6170
vn 0.4343 0.4954 0.7523
vn 0.2540 -0.8613 0.4400
vn 0.1345 -0.9632 0.2329
vn 0.1345 0.9632 0.2329
vn 0.4343 -0.4953 0.7523
vn 0.4833 0.2562 0.8371
vn 0.2540 0.8613 0.4400
vn 0.3562 -0.7017 0.6170
vn 0.2248 -0.4954 0.8391
vn 0.1844 -0.7017 0.6882
vn 0.2502 0.2562 0.9337
vn 0.1315 0.8613 0.4907
vn 0.1844 0.7017 0.6882
vn 0.1315 -0.8613 0.4907
vn 0.2502 -0.2562 0.9337
vn 0.2248 0.4954 0.8391
vn 0.0696 -0.9632 0.2598
vn 0.0696 0.9632 0.2598
vn -0.0000 0.9632 0.2689
vn -0.0000 -0.2562 0.9666
vn -0.0000 -0.4954 0.8687
vn -0.0000 0.4954 0.8687
vn -0.0000 0.2562 0.9666
vn -0.0000 -0.9632 0.2689
vn -0.0000 0.8613 0.5081
vn -0.0000 -0.7017 0.7125
vn -0.0000 -0.0000 1.0000
vn -0.0000 0.7017 0.7124
vn -0.0000 -0.8613 0.5080
vn -0.1844 -0.7017 0.6882
vn -0.1315 -0.8613 0.4907
vn -0.2588 -0.0000 0.9659
vn -0.2502 -0.2562 0.9337
vn -0.1844 0.7017 0.6882
vn -0.2248 0.4953 0.8391
vn -0.0696 -0.9632 0.2598
vn -0.0696 0.9632 0.2598
vn -0.2248 -0.4953 0.8391
vn -0.2502 0.2562 0.9337
vn -0.1315 0.8613 0.4907
vn -0.1345 0.9632 0.2329
vn -0.2540 0.8613 0.4400
vn -0.4343 -0.4953 0.7523
vn -0.3562 -0.7017 0.6170
vn -0.4833 0.2561 0.8371
vn -0.5000 -0.0000 0.8660
vn -0.3562 0.7017 0.6170
vn -0.2540 -0.8613 0.4400
vn -0.4833 -0.2561 0.8371
vn -0.4343 0.4953 0.7523
vn -0.1344 -0.9632 0.2329
vn -0.1901 -0.9632 0.1902
vn -0.3592 -0.8613 0.3592
vn -0.1901 0.9632 0.1902
vn -0.6835 -0.2561 0.6835
vn -0.6143 -0.4953 0.6143
vn -0.6143 0.4953 0.6143
vn -0.6835 0.2561 0.6835
vn -0.3592 0.8613 0.3592
vn -0.5038 -0.7017 0.5038
vn -0.5038 0.7017 0.5038
vn -0.4400 0.8613 0.2540
vn -0.6170 0.7017 0.3562
vn -0.4400 -0.8613 0.2540
vn -0.6170 -0.7017 0.3562
vn -0.8660 -0.0000 0.5000
vn -0.8371 -0.2561 0.4833
vn -0.7523 0.4953 0.4343
vn -0.2329 -0.9632 0.1345
vn -0.2329 0.9632 0.1345
vn -0.7523 -0.4953 0.4343
vn -0.8371 0.2561 0.4833
vn -0.2598 -0.9632 0.0696
vn -0.2598 0.9632 0.0696
vn -0.4907 0.8613 0.1315
vn -0.6882 -0.7017 0.1844
vn -0.8391 -0.4954 0.2248
vn -0.9337 0.2562 0.2502
vn -0.9659 -0.0000 0.2588
vn -0.6882 0.7017 0.1844
vn -0.4907 -0.8613 0.1315
vn -0.9337 -0.2562 0.2502
vn -0.8391 0.4954 0.2248
vn -0.7124 0.7017 -0.0000
vn -0.8687 0.4954 -0.0000
vn -0.2689 -0.9632 -0.0000
vn -0.5081 -0.8613 -0.0000
vn -0.2689 0.9632 -0.0000
vn -0.8687 -0.4954 -0.0000
vn -0.9666 -0.2562 -0.0000
vn -0.9666 0.2562 -0.0000
vn -0.5081 0.8613 -0.0000
vn -0.7124 -0.7017 -0.0000
vn -0.4907 0.8613 -0.1315
vn -0.6882 0.7017 -0.1844
vn -0.4907 -0.8613 -0.1315
vn -0.6882 -0.7017 -0.1844
vn -0.9659 -0.0000 -0.2588
vn -0.9337 -0.2562 -0.2502
vn -0.8391 0.4954 -0.2248
vn -0.2598 -0.9632 -0.0696
vn -0.2598 0.9632 -0.0696
vn -0.8391 -0.4954 -0.2248
vn -0.9337 0.2562 -0.2502
vn -0.7523 0.4954 -0.4343
vn -0.8371 0.2561 -0.4833
vn -0.2329 -0.9632 -0.1345
vn -0.2329 0.9632 -0.1345
vn -0.4400 0.8613 -0.2540
vn -0.6170 -0.7017 -0.3562
vn -0.7523 -0.4954 -0.4343
vn -0.8660 -0.0000 -0.5000
vn -0.6170 0.7017 -0.3562
vn -0.4400 -0.8613 -0.2540
vn -0.8371 -0.2561 -0.4833
vn -0.5038 0.7017 -0.5038
vn -0.6143 0.4953 -0.6143
vn -0.1901 -0.9632 -0.1902
vn -0.3592 -0.8613 -0.3592
vn -0.1901 0.9632 -0.1902
vn -0.6835 -0.2561 -0.6835
vn -0.6143 -0.4953 -0.6143
vn -0.6835 0.2561 -0.6835
vn -0.3592 0.8613 -0.3593
vn -0.5038 -0.7017 -0.5038
vn -0.7071 -0.0000 -0.7071
vn -0.4833 0.2562 -0.8371
vn -0.5000 -0.0000 -0.8660
vn -0.2540 0.8613 -0.4400
vn -0.3562 0.7017 -0.6170
vn -0.3562 -0.7017 -0.6170
vn -0.2540 -0.8613 -0.4400
vn -0.4833 -0.2562 -0.8371
vn -0.4343 0.4953 -0.7523
vn -0.1345 -0.9632 -0.2329
vn -0.1345 0.9632 -0.2329
vn -0.4343 -0.4953 -0.7523
vn -0.2249 0.4953 -0.8391
vn -0.2502 0.2562 -0.9337
vn -0.0696 -0.9632 -0.2598
vn -0.0696 0.9632 -0.2598
vn -0.1315 0.8613 -0.4907
vn -0.2249 -0.4953 -0.8391
vn -0.1844 -0.7017 -0.6882
vn -0.2588 -0.0000 -0.9659
vn -0.1844 0.7017 -0.6882
vn -0.1315 -0.8613 -0.4907
vn -0.2502 -0.2562 -0.9337
vt 0.018160 0.027241
vt 0.041842 0.027241
vt 0.041842 0.169098
vt 0.018160 0.169098
vt 0.018160 0.668141
vt 0.041842 0.668141
vt 0.041842 0.809998
vt 0.018160 0.809998
vt 0.162245 0.714677
vt 0.162469 0.965616
vt 0.145616 0.979863
vt 0.145161 0.715529
vt 0.462596 0.680359
vt 0.462592 0.716863
vt 0.339870 0.715196
vt 0.339874 0.681999
vt 0.500948 0.418337
vt 0.484077 0.431573
vt 0.341816 0.431185
vt 0.341981 0.417595
vt 0.304950 0.966000
vt 0.304914 0.982849
vt 0.740390 0.981230
vt 0.740565 0.713249
vt 0.899705 0.713107
vt 0.899687 0.978884
vt 0.041842 0.407379
vt 0.018160 0.407379
vt 0.018160 0.331591
vt 0.041842 0.331591
vt 0.041842 0.885633
vt 0.018160 0.885633
vt 0.740588 0.677707
vt 0.740760 0.414293
vt 0.899706 0.414293
vt 0.899705 0.678304
vt 0.501384 0.715882
vt 0.500868 0.985079
vt 0.484020 0.965666
vt 0.484300 0.714712
vt 0.162525 0.431543
vt 0.162248 0.680457
vt 0.145164 0.680553
vt 0.145657 0.418304
vt 0.018160 0.505648
vt 0.041842 0.505648
vt 0.041842 0.646379
vt 0.018160 0.646379
vt 0.018160 0.190860
vt 0.041842 0.190860
vt 0.937216 0.061605
vt 0.933231 0.351164
vt 0.803467 0.350411
vt 0.805156 0.055745
vt 0.707669 0.059410
vt 0.707394 0.340460
vt 0.577958 0.340349
vt 0.575884 0.057326
vt 0.481227 0.062286
vt 0.477356 0.339488
vt 0.358677 0.343344
vt 0.355949 0.066381
vt 0.262902 0.061747
vt 0.264877 0.340686
vt 0.136019 0.338586
vt 0.136318 0.061612
vt 0.779276 0.034751
vt 0.779502 0.375597
vt 0.777192 0.377780
vt 0.777021 0.032483
vt 0.774060 0.380760
vt 0.773967 0.029630
vt 0.770459 0.384195
vt 0.770459 0.026489
vt 0.964501 0.380726
vt 0.967726 0.384195
vt 0.961574 0.377707
vt 0.959254 0.375475
vt 0.960760 0.033052
vt 0.962629 0.031289
vt 0.965047 0.029009
vt 0.967726 0.026489
vt 0.741693 0.382243
vt 0.745736 0.385523
vt 0.542125 0.385523
vt 0.545797 0.382206
vt 0.738138 0.379421
vt 0.549157 0.379342
vt 0.735430 0.377401
vt 0.551889 0.377269
vt 0.738301 0.032682
vt 0.735643 0.034806
vt 0.741783 0.029971
vt 0.745736 0.026972
vt 0.542125 0.026972
vt 0.545222 0.029307
vt 0.548043 0.031404
vt 0.550297 0.032982
vt 0.298023 0.028781
vt 0.294484 0.032127
vt 0.100482 0.032090
vt 0.096574 0.028781
vt 0.291254 0.035022
vt 0.103907 0.034942
vt 0.288644 0.037129
vt 0.106495 0.036998
vt 0.292310 0.381685
vt 0.290151 0.380070
vt 0.295031 0.383818
vt 0.298023 0.386189
vt 0.106352 0.378259
vt 0.103792 0.380416
vt 0.100416 0.383158
vt 0.096574 0.386189
vt 0.511114 0.036546
vt 0.511194 0.381616
vt 0.508854 0.379365
vt 0.508765 0.038685
vt 0.514286 0.033611
vt 0.514334 0.384453
vt 0.517931 0.030221
vt 0.517931 0.387578
vt 0.323306 0.033666
vt 0.320022 0.030221
vt 0.326291 0.036661
vt 0.328666 0.038870
vt 0.322772 0.385112
vt 0.320022 0.387578
vt 0.325258 0.382885
vt 0.327195 0.381176
vt 0.732774 0.375392
vt 0.733015 0.036993
vt 0.554650 0.375201
vt 0.462520 0.944205
vt 0.506535 0.377053
vt 0.506459 0.040809
vt 0.462574 0.453024
vt 0.341556 0.452923
vt 0.306677 0.681995
vt 0.306674 0.715192
vt 0.183953 0.716832
vt 0.183956 0.680330
vt 0.331080 0.041072
vt 0.183972 0.944165
vt 0.956895 0.373250
vt 0.781773 0.373429
vt 0.781511 0.037078
vt 0.304988 0.944265
vt 0.286002 0.039231
vt 0.109033 0.039040
vt 0.184023 0.452997
vt 0.341500 0.944271
vt 0.108886 0.376039
vt 0.958857 0.034872
vt 0.287965 0.378395
vt 0.552574 0.034621
vt 0.329163 0.379410
vt 0.484304 0.680010
vt 0.501389 0.679735
vt 0.341187 0.966004
vt 0.304808 0.417593
vt 0.304900 0.431183
vt 0.305040 0.452920
vt 0.340947 0.983368
vt 0.041842 0.908267
vt 0.018160 0.908267
vt 0.702765 0.981784
vt 0.702265 0.713283
vt 0.018160 0.430013
vt 0.041842 0.430013
vt 0.702199 0.677563
vt 0.701709 0.414293
vt 0.041842 0.984054
vt 0.018160 0.984054
vt 0.542907 0.676965
vt 0.542906 0.414293
vt 0.542925 0.984138
vt 0.542907 0.713424
vt 0.030137 0.958428
vt 0.031033 0.956425
vt 0.032522 0.956963
vt 0.030510 0.958653
vt 0.029658 0.958414
vt 0.029585 0.956425
vt 0.029167 0.958590
vt 0.028289 0.956897
vt 0.028762 0.958927
vt 0.027249 0.957771
vt 0.028505 0.959371
vt 0.026563 0.958967
vt 0.028445 0.959849
vt 0.026317 0.960394
vt 0.028607 0.960264
vt 0.026594 0.961954
vt 0.028977 0.960488
vt 0.028083 0.962492
vt 0.029461 0.960503
vt 0.029532 0.962492
vt 0.029949 0.960326
vt 0.030828 0.962020
vt 0.030355 0.959990
vt 0.031867 0.961146
vt 0.030612 0.959545
vt 0.032554 0.959950
vt 0.030672 0.959068
vt 0.032800 0.958523
vt 0.070449 0.893017
vt 0.070449 0.905626
vt 0.064144 0.905626
vt 0.064144 0.893017
vt 0.070449 0.855189
vt 0.070449 0.867798
vt 0.064144 0.867798
vt 0.064144 0.855189
vt 0.067297 0.956063
vt 0.064144 0.943454
vt 0.070449 0.943454
vt 0.070449 0.817361
vt 0.070449 0.829971
vt 0.064144 0.829971
vt 0.064144 0.817361
vt 0.070449 0.918235
vt 0.064144 0.918235
vt 0.070449 0.880408
vt 0.064144 0.880408
vt 0.070449 0.842580
vt 0.064144 0.842580
vt 0.070449 0.930845
vt 0.064144 0.930845
vt 0.067297 0.804752
vt 0.076754 0.829971
vt 0.076754 0.842580
vt 0.076754 0.918235
vt 0.076754 0.930845
vt 0.076754 0.880408
vt 0.076754 0.893017
vt 0.076754 0.855189
vt 0.076754 0.943454
vt 0.073601 0.804752
vt 0.076754 0.817361
vt 0.076754 0.905626
vt 0.076754 0.867798
vt 0.073601 0.956063
vt 0.083058 0.855189
vt 0.083058 0.867798
vt 0.079906 0.956063
vt 0.083058 0.943454
vt 0.083058 0.829971
vt 0.083058 0.817361
vt 0.083058 0.905626
vt 0.083058 0.918235
vt 0.083058 0.880408
vt 0.083058 0.842580
vt 0.083058 0.930845
vt 0.083058 0.893017
vt 0.079906 0.804752
vt 0.089363 0.842580
vt 0.089363 0.855189
vt 0.089363 0.930845
vt 0.089363 0.943454
vt 0.086211 0.804752
vt 0.089363 0.817361
vt 0.089363 0.893017
vt 0.089363 0.905626
vt 0.089363 0.867798
vt 0.086211 0.956063
vt 0.089363 0.829971
vt 0.089363 0.918235
vt 0.089363 0.880408
vt 0.095668 0.867798
vt 0.095668 0.880408
vt 0.095668 0.842580
vt 0.095668 0.829971
vt 0.095668 0.918235
vt 0.095668 0.930845
vt 0.095668 0.893017
vt 0.095668 0.855189
vt 0.095668 0.943454
vt 0.092515 0.804752
vt 0.095668 0.817361
vt 0.095668 0.905626
vt 0.092515 0.956063
vt 0.101972 0.867798
vt 0.101972 0.855189
vt 0.098820 0.956063
vt 0.101972 0.943454
vt 0.101972 0.829971
vt 0.101972 0.817361
vt 0.101972 0.905626
vt 0.101972 0.918235
vt 0.101972 0.880408
vt 0.101972 0.842580
vt 0.101972 0.930845
vt 0.101972 0.893017
vt 0.098820 0.804752
vt 0.108277 0.880408
vt 0.108277 0.893017
vt 0.108277 0.855189
vt 0.108277 0.842580
vt 0.108277 0.930845
vt 0.108277 0.943454
vt 0.105125 0.804752
vt 0.108277 0.817361
vt 0.108277 0.905626
vt 0.108277 0.867798
vt 0.105125 0.956063
vt 0.108277 0.829971
vt 0.108277 0.918235
vt 0.114582 0.867798
vt 0.114582 0.880408
vt 0.114582 0.842580
vt 0.114582 0.829971
vt 0.114582 0.918235
vt 0.114582 0.930845
vt 0.114582 0.893017
vt 0.114582 0.855189
vt 0.114582 0.943454
vt 0.111429 0.804752
vt 0.114582 0.817361
vt 0.114582 0.905626
vt 0.111429 0.956063
vt 0.120886 0.893017
vt 0.120886 0.905626
vt 0.120886 0.855189
vt 0.120886 0.867798
vt 0.117734 0.956063
vt 0.120886 0.943454
vt 0.120886 0.829971
vt 0.120886 0.817361
vt 0.120886 0.918235
vt 0.120886 0.880408
vt 0.120886 0.842580
vt 0.120886 0.930845
vt 0.117734 0.804752
vt 0.127191 0.880408
vt 0.127191 0.893017
vt 0.127191 0.842580
vt 0.127191 0.855189
vt 0.127191 0.930845
vt 0.127191 0.943454
vt 0.124038 0.804752
vt 0.127191 0.817361
vt 0.127191 0.905626
vt 0.127191 0.867798
vt 0.124038 0.956063
vt 0.127191 0.829971
vt 0.127191 0.918235
vt 0.133495 0.905626
vt 0.133495 0.918235
vt 0.133495 0.867798
vt 0.133495 0.880408
vt 0.133495 0.829971
vt 0.133495 0.842580
vt 0.133495 0.930845
vt 0.133495 0.893017
vt 0.133495 0.855189
vt 0.133495 0.943454
vt 0.130343 0.804752
vt 0.133495 0.817361
vt 0.130343 0.956063
vt 0.136648 0.804752
vt 0.139800 0.817361
vt 0.139800 0.893017
vt 0.139800 0.905626
vt 0.139800 0.855189
vt 0.139800 0.867798
vt 0.136648 0.956063
vt 0.139800 0.943454
vt 0.139800 0.829971
vt 0.139800 0.918235
vt 0.139800 0.880408
vt 0.139800 0.842580
vt 0.139800 0.930845
vt 0.146105 0.918235
vt 0.146105 0.930845
vt 0.146105 0.880408
vt 0.146105 0.893017
vt 0.146105 0.842580
vt 0.146105 0.855189
vt 0.146105 0.943454
vt 0.142952 0.804752
vt 0.146105 0.817361
vt 0.146105 0.905626
vt 0.146105 0.867798
vt 0.142952 0.956063
vt 0.146105 0.829971
vt 0.152409 0.817361
vt 0.152409 0.829971
vt 0.152409 0.905626
vt 0.152409 0.918235
vt 0.152409 0.867798
vt 0.152409 0.880408
vt 0.152409 0.842580
vt 0.152409 0.930845
vt 0.152409 0.893017
vt 0.152409 0.855189
vt 0.152409 0.943454
vt 0.149257 0.804752
vt 0.149257 0.956063
vt 0.158714 0.943454
vt 0.158714 0.930845
vt 0.155562 0.804752
vt 0.158714 0.817361
vt 0.158714 0.893017
vt 0.158714 0.905626
vt 0.158714 0.855189
vt 0.158714 0.867798
vt 0.155562 0.956063
vt 0.158714 0.829971
vt 0.158714 0.918235
vt 0.158714 0.880408
vt 0.158714 0.842580
vt 0.165019 0.829971
vt 0.165019 0.842580
vt 0.165019 0.930845
vt 0.165019 0.918235
vt 0.165019 0.880408
vt 0.165019 0.893017
vt 0.165019 0.855189
vt 0.165019 0.943454
vt 0.161866 0.804752
vt 0.165019 0.817361
vt 0.165019 0.905626
vt 0.165019 0.867798
vt 0.161866 0.956063
vt 0.168171 0.956063
vt 0.171323 0.943454
vt 0.171323 0.817361
vt 0.171323 0.829971
vt 0.171323 0.918235
vt 0.171323 0.905626
vt 0.171323 0.867798
vt 0.171323 0.880408
vt 0.171323 0.842580
vt 0.171323 0.930845
vt 0.171323 0.893017
vt 0.171323 0.855189
vt 0.168171 0.804752
vt 0.177628 0.842580
vt 0.177628 0.855189
vt 0.177628 0.943454
vt 0.177628 0.930845
vt 0.174475 0.804752
vt 0.177628 0.817361
vt 0.177628 0.905626
vt 0.177628 0.893017
vt 0.177628 0.867798
vt 0.174476 0.956063
vt 0.177628 0.829971
vt 0.177628 0.918235
vt 0.177628 0.880408
vt 0.026317 0.829971
vt 0.032621 0.829971
vt 0.032621 0.842580
vt 0.026317 0.842580
vt 0.032621 0.930845
vt 0.026317 0.930845
vt 0.026317 0.918235
vt 0.032621 0.918235
vt 0.032621 0.880408
vt 0.032621 0.893017
vt 0.026317 0.893017
vt 0.026317 0.880408
vt 0.032621 0.855189
vt 0.026317 0.855189
vt 0.032621 0.943454
vt 0.026317 0.943454
vt 0.026317 0.817361
vt 0.029469 0.804752
vt 0.032621 0.817361
vt 0.032621 0.905626
vt 0.026317 0.905626
vt 0.032621 0.867798
vt 0.026317 0.867798
vt 0.029469 0.956063
vt 0.038926 0.855189
vt 0.038926 0.867798
vt 0.035774 0.956063
vt 0.038926 0.943454
vt 0.038926 0.817361
vt 0.038926 0.829971
vt 0.038926 0.918235
vt 0.038926 0.905626
vt 0.038926 0.880408
vt 0.038926 0.842580
vt 0.038926 0.930845
vt 0.038926 0.893017
vt 0.035774 0.804752
vt 0.045231 0.842580
vt 0.045231 0.855189
vt 0.045231 0.943454
vt 0.045231 0.930845
vt 0.042078 0.804752
vt 0.045231 0.817361
vt 0.045231 0.893017
vt 0.045231 0.905626
vt 0.045231 0.867798
vt 0.042078 0.956063
vt 0.045231 0.829971
vt 0.045231 0.918235
vt 0.045231 0.880408
vt 0.051535 0.867798
vt 0.051535 0.880408
vt 0.051535 0.829971
vt 0.051535 0.842580
vt 0.051535 0.918235
vt 0.051535 0.930845
vt 0.051535 0.893017
vt 0.051535 0.855189
vt 0.051535 0.943454
vt 0.048383 0.804752
vt 0.051535 0.817361
vt 0.051535 0.905626
vt 0.048383 0.956063
vt 0.057840 0.855189
vt 0.057840 0.867798
vt 0.054688 0.956063
vt 0.057840 0.943454
vt 0.057840 0.817361
vt 0.057840 0.829971
vt 0.057840 0.905626
vt 0.057840 0.918235
vt 0.057840 0.880408
vt 0.057840 0.842580
vt 0.057840 0.930845
vt 0.057840 0.893017
vt 0.054688 0.804752
vt 0.060992 0.804752
vt 0.060992 0.956063
s 1
g DoorV2Bis_3D_Door_v2_Material.1001
usemtl 3D_Door_v2_Material.1001
f 3/1/1 4/2/1 1/3/2 2/4/2
f 5/5/3 6/6/3 7/7/4 8/8/4
f 9/9/5 10/10/6 3/11/6 2/12/5
f 14/13/7 11/14/7 12/15/8 13/16/9
f 15/17/10 16/18/10 17/19/10 18/20/10
f 19/21/11 20/22/11 3/11/11 10/10/11
f 22/23/12 21/24/12 1/25/12 4/26/12
f 25/27/13 26/28/13 23/29/13 24/30/13
f 8/8/14 7/7/14 27/31/14 28/32/14
f 30/33/12 25/34/12 24/35/12 29/36/12
f 5/37/15 8/38/16 31/39/16 32/40/15
f 33/41/5 34/42/5 35/43/5 23/44/5
f 15/45/3 36/46/3 37/47/3 38/48/3
f 35/49/2 29/50/2 24/30/2 23/29/2
f 40/51/17 41/52/17 42/53/17 39/54/17
f 44/55/18 45/56/18 46/57/18 43/58/18
f 48/59/19 49/60/19 50/61/19 47/62/19
f 52/63/20 53/64/20 54/65/20 51/66/20
f 56/67/21 57/68/21 58/69/21 55/70/21
f 55/70/22 58/69/22 60/71/22 59/72/22
f 59/72/23 60/71/23 62/73/23 61/74/23
f 63/75/24 64/76/24 62/73/24 60/71/24
f 65/77/25 63/75/25 60/71/25 58/69/25
f 66/78/26 65/77/26 58/69/26 57/68/26
f 67/79/27 68/80/27 65/77/27 66/78/27
f 68/80/28 69/81/28 63/75/28 65/77/28
f 69/81/29 70/82/29 64/76/29 63/75/29
f 68/80/30 67/79/30 56/67/30 55/70/30
f 69/81/31 68/80/31 55/70/31 59/72/31
f 70/82/32 69/81/32 59/72/32 61/74/32
f 71/83/24 72/84/24 73/85/24 74/86/24
f 75/87/25 71/83/25 74/86/25 76/88/25
f 77/89/26 75/87/26 76/88/26 78/90/26
f 80/91/33 75/87/33 77/89/33 79/92/33
f 81/93/34 71/83/34 75/87/34 80/91/34
f 11/94/35 72/84/35 71/83/35 81/93/35
f 74/86/36 73/85/36 12/95/36 82/96/36
f 76/88/37 74/86/37 82/96/37 83/97/37
f 78/90/38 76/88/38 83/97/38 84/98/38
f 80/91/39 79/92/39 84/98/39 83/97/39
f 81/93/40 80/91/40 83/97/40 82/96/40
f 11/94/41 81/93/41 82/96/41 12/95/41
f 87/99/42 88/100/42 85/101/42 86/102/42
f 88/100/43 90/103/43 89/104/43 85/101/43
f 90/103/44 92/105/44 91/106/44 89/104/44
f 93/107/45 94/108/45 92/105/45 90/103/45
f 95/109/46 93/107/46 90/103/46 88/100/46
f 96/110/47 95/109/47 88/100/47 87/99/47
f 91/106/21 97/111/21 98/112/21 89/104/21
f 89/104/22 98/112/22 99/113/22 85/101/22
f 85/101/23 99/113/23 100/114/23 86/102/23
f 95/109/48 96/110/48 100/114/48 99/113/48
f 93/107/49 95/109/49 99/113/49 98/112/49
f 94/108/50 93/107/50 98/112/50 97/111/50
f 104/115/33 101/116/33 102/117/33 103/118/33
f 106/119/34 105/120/34 101/116/34 104/115/34
f 107/121/35 14/122/35 105/120/35 106/119/35
f 107/121/42 106/119/42 108/123/42 109/124/42
f 106/119/43 104/115/43 110/125/43 108/123/43
f 104/115/44 103/118/44 111/126/44 110/125/44
f 109/124/51 108/123/51 112/127/51 13/128/51
f 108/123/52 110/125/52 113/129/52 112/127/52
f 110/125/53 111/126/53 114/130/53 113/129/53
f 105/120/54 14/122/54 13/128/54 112/127/54
f 101/116/55 105/120/55 112/127/55 113/129/55
f 102/117/56 101/116/56 113/129/56 114/130/56
f 77/89/2 116/131/2 115/132/2 79/92/2
f 116/131/13 77/89/13 78/90/13 117/133/13
f 32/40/57 31/39/57 72/134/57 11/14/57
f 102/117/2 119/135/2 118/136/2 103/118/2
f 16/18/58 107/137/58 109/138/58 17/19/58
f 96/139/59 70/140/60 61/141/61 100/142/61
f 103/118/62 118/136/62 120/143/62 111/126/62
f 61/141/63 62/144/63 10/10/63 9/9/63
f 121/145/13 66/78/13 57/68/13 122/146/13
f 122/146/3 57/68/3 56/67/3 123/147/3
f 64/148/64 19/21/64 10/10/64 62/144/64
f 92/105/62 125/149/62 124/150/62 91/106/62
f 86/151/63 100/142/63 34/42/63 33/41/63
f 12/15/8 73/152/65 64/148/65 70/140/60
f 126/153/3 97/111/3 91/106/3 124/150/3
f 127/154/66 67/79/66 66/78/66 121/145/66
f 94/108/67 128/155/67 125/149/67 92/105/67
f 67/79/68 127/154/68 123/147/68 56/67/68
f 13/16/9 12/15/8 70/140/60 96/139/59
f 79/92/69 115/132/69 129/156/69 84/98/69
f 128/155/70 94/108/70 97/111/70 126/153/70
f 117/133/71 78/90/71 84/98/71 129/156/71
f 119/135/72 102/117/72 114/130/72 130/157/72
f 111/126/73 120/143/73 130/157/73 114/130/73
f 39/54/74 42/53/74 122/146/74 123/147/74
f 41/52/75 121/145/75 122/146/75 42/53/75
f 127/154/76 121/145/76 41/52/76 40/51/76
f 127/154/77 40/51/77 39/54/77 123/147/77
f 45/56/78 116/131/78 117/133/78 46/57/78
f 115/132/79 116/131/79 45/56/79 44/55/79
f 43/58/80 46/57/80 117/133/80 129/156/80
f 115/132/81 44/55/81 43/58/81 129/156/81
f 125/149/82 52/63/82 51/66/82 124/150/82
f 125/149/83 128/155/83 53/64/83 52/63/83
f 51/66/84 54/65/84 126/153/84 124/150/84
f 53/64/85 128/155/85 126/153/85 54/65/85
f 118/136/86 119/135/86 49/60/86 48/59/86
f 118/136/87 48/59/87 47/62/87 120/143/87
f 47/62/88 50/61/88 130/157/88 120/143/88
f 49/60/89 119/135/89 130/157/89 50/61/89
f 131/158/57 32/40/57 11/14/57 14/13/57
f 2/4/2 1/3/2 29/50/2 35/49/2
f 100/142/63 61/141/63 9/9/63 34/42/63
f 16/18/57 131/158/57 14/13/57 107/137/57
f 15/17/15 38/159/15 131/158/15 16/18/15
f 34/42/5 9/9/5 2/12/5 35/43/5
f 38/48/3 37/47/3 6/6/3 5/5/3
f 21/24/12 30/33/12 29/36/12 1/25/12
f 38/159/15 5/37/15 32/40/15 131/158/15
f 73/152/64 132/160/64 19/21/64 64/148/64
f 26/161/10 133/162/10 33/41/10 23/44/10
f 133/162/58 87/163/58 86/151/58 33/41/58
f 132/160/90 28/164/90 20/22/90 19/21/90
f 28/32/14 27/31/14 22/165/14 20/166/14
f 27/167/12 134/168/12 21/24/12 22/23/12
f 36/46/13 15/45/13 18/169/13 135/170/13
f 134/168/12 136/171/12 30/33/12 21/24/12
f 136/171/12 135/172/12 25/34/12 30/33/12
f 72/134/64 31/39/64 132/160/64 73/152/64
f 31/39/91 8/38/91 28/164/91 132/160/91
f 20/166/14 22/165/14 4/173/14 3/174/14
f 135/170/13 18/169/13 26/28/13 25/27/13
f 37/175/12 36/176/12 135/172/12 136/171/12
f 7/177/12 6/178/12 134/168/12 27/167/12
f 6/178/12 37/175/12 136/171/12 134/168/12
f 18/20/10 17/19/10 133/162/10 26/161/10
f 17/19/58 109/138/58 87/163/58 133/162/58
f 109/138/92 13/16/9 96/139/59 87/163/92
g DoorV2Bis_3D_Door_v2_Material.001.1001
usemtl 3D_Door_v2_Material.001.1001
f 140/179/93 137/180/93 138/181/62 139/182/62
f 142/183/94 141/184/94 137/180/93 140/179/93
f 144/185/95 143/186/95 141/184/94 142/183/94
f 143/186/95 144/185/95 146/187/96 145/188/96
f 145/188/96 146/187/96 148/189/97 147/190/97
f 147/190/97 148/189/97 150/191/98 149/192/98
f 149/192/98 150/191/98 152/193/13 151/194/13
f 151/194/13 152/193/13 154/195/99 153/196/99
f 153/196/99 154/195/99 156/197/100 155/198/100
f 155/198/100 156/197/100 158/199/101 157/200/101
f 160/201/102 159/202/102 157/200/101 158/199/101
f 162/203/103 161/204/103 159/202/102 160/201/102
f 164/205/104 163/206/104 161/204/103 162/203/103
f 139/182/62 138/181/62 163/206/104 164/205/104
f 168/207/105 165/208/106 166/209/107 167/210/108
f 172/211/109 169/212/110 170/213/111 171/214/112
f 173/215/13 174/216/113 175/217/114
f 179/218/115 176/219/116 177/220/117 178/221/118
f 165/208/106 180/222/119 181/223/120 166/209/107
f 169/212/110 182/224/121 183/225/12 170/213/111
f 176/219/116 184/226/122 185/227/123 177/220/117
f 180/222/119 186/228/124 187/229/125 181/223/120
f 182/224/121 168/207/105 167/210/108 183/225/12
f 184/226/122 172/211/109 171/214/112 185/227/123
f 186/228/124 175/217/114 174/216/113 187/229/125
f 178/221/118 188/230/62 179/218/115
f 190/231/126 189/232/127 184/226/122 176/219/116
f 192/233/128 191/234/129 186/228/124 180/222/119
f 194/235/130 193/236/131 168/207/105 182/224/121
f 189/232/127 195/237/132 172/211/109 184/226/122
f 186/228/124 191/234/129 196/238/133 175/217/114
f 179/218/115 188/239/62 197/240/134
f 193/236/131 198/241/135 165/208/106 168/207/105
f 195/237/132 199/242/136 169/212/110 172/211/109
f 173/243/13 175/217/114 196/238/133
f 197/240/134 190/231/126 176/219/116 179/218/115
f 198/241/135 192/233/128 180/222/119 165/208/106
f 199/242/136 194/235/130 182/224/121 169/212/110
f 201/244/137 200/245/138 199/242/136 195/237/132
f 173/246/13 196/238/133 202/247/139
f 203/248/140 190/231/126 197/240/134 204/249/141
f 206/250/142 205/251/143 192/233/128 198/241/135
f 200/245/138 207/252/144 194/235/130 199/242/136
f 203/248/140 208/253/145 189/232/127 190/231/126
f 192/233/128 205/251/143 209/254/146 191/234/129
f 207/252/144 210/255/147 193/236/131 194/235/130
f 208/253/145 201/244/137 195/237/132 189/232/127
f 191/234/129 209/254/146 202/247/139 196/238/133
f 197/240/134 188/256/62 204/249/141
f 210/255/147 206/250/142 198/241/135 193/236/131
f 212/257/148 211/258/149 201/244/137 208/253/145
f 209/254/146 214/259/150 213/260/151 202/247/139
f 204/249/141 188/261/62 215/262/152
f 217/263/153 216/264/154 206/250/142 210/255/147
f 211/258/149 218/265/155 200/245/138 201/244/137
f 173/266/13 202/247/139 213/260/151
f 219/267/156 203/248/140 204/249/141 215/262/152
f 206/250/142 216/264/154 220/268/157 205/251/143
f 218/265/155 221/269/158 207/252/144 200/245/138
f 212/257/148 208/253/145 203/248/140 219/267/156
f 205/251/143 220/268/157 214/259/150 209/254/146
f 221/269/158 217/263/153 210/255/147 207/252/144
f 223/270/159 222/271/160 221/269/158 218/265/155
f 224/272/161 212/257/148 219/267/156 225/273/162
f 220/268/157 227/274/163 226/275/164 214/259/150
f 222/271/160 228/276/165 217/263/153 221/269/158
f 229/277/166 211/258/149 212/257/148 224/272/161
f 214/259/150 226/275/164 230/278/167 213/260/151
f 215/262/152 188/279/62 231/280/168
f 217/263/153 228/276/165 232/281/169 216/264/154
f 229/277/166 223/270/159 218/265/155 211/258/149
f 173/282/13 213/260/151 230/278/167
f 225/273/162 219/267/156 215/262/152 231/280/168
f 216/264/154 232/281/169 227/274/163 220/268/157
f 233/283/170 223/270/159 229/277/166 234/284/171
f 173/285/13 230/278/167 235/286/172
f 236/287/173 225/273/162 231/280/168 237/288/174
f 232/281/169 239/289/175 238/290/176 227/274/163
f 233/283/170 240/291/3 222/271/160 223/270/159
f 241/292/177 224/272/161 225/273/162 236/287/173
f 227/274/163 238/290/176 242/293/178 226/275/164
f 222/271/160 240/291/3 243/294/179 228/276/165
f 234/284/171 229/277/166 224/272/161 241/292/177
f 226/275/164 242/293/178 235/286/172 230/278/167
f 231/280/168 188/295/62 237/288/174
f 228/276/165 243/294/179 239/289/175 232/281/169
f 240/291/3 245/296/180 244/297/181 243/294/179
f 246/298/182 234/284/171 241/292/177 247/299/183
f 242/293/178 249/300/184 248/301/185 235/286/172
f 237/288/174 188/302/62 250/303/186
f 243/294/179 244/297/181 251/304/187 239/289/175
f 252/305/188 233/283/170 234/284/171 246/298/182
f 173/306/13 235/286/172 248/301/185
f 253/307/189 236/287/173 237/288/174 250/303/186
f 239/289/175 251/304/187 254/308/190 238/290/176
f 240/291/3 233/283/170 252/305/188 245/296/180
f 247/299/183 241/292/177 236/287/173 253/307/189
f 238/290/176 254/308/190 249/300/184 242/293/178
f 245/296/180 252/305/188 256/309/191 255/310/192
f 257/311/193 247/299/183 253/307/189 258/312/194
f 254/308/190 260/313/195 259/314/196 249/300/184
f 244/297/181 245/296/180 255/310/192 261/315/197
f 262/316/198 246/298/182 247/299/183 257/311/193
f 249/300/184 259/314/196 263/317/199 248/301/185
f 250/303/186 188/318/62 264/319/200
f 244/297/181 261/315/197 265/320/201 251/304/187
f 252/305/188 246/298/182 262/316/198 256/309/191
f 173/321/13 248/301/185 263/317/199
f 258/312/194 253/307/189 250/303/186 264/319/200
f 251/304/187 265/320/201 260/313/195 254/308/190
f 265/320/201 261/315/197 267/322/202 266/323/203
f 256/309/191 262/316/198 269/324/204 268/325/205
f 173/326/13 263/317/199 270/327/206
f 271/328/207 258/312/194 264/319/200 272/329/208
f 265/320/201 266/323/203 273/330/209 260/313/195
f 255/310/192 256/309/191 268/325/205 274/331/210
f 275/332/211 257/311/193 258/312/194 271/328/207
f 260/313/195 273/330/209 276/333/212 259/314/196
f 261/315/197 255/310/192 274/331/210 267/322/202
f 262/316/198 257/311/193 275/332/211 269/324/204
f 259/314/196 276/333/212 270/327/206 263/317/199
f 264/319/200 188/334/62 272/329/208
f 267/322/202 274/331/210 278/335/213 277/336/214
f 269/324/204 275/332/211 280/337/215 279/338/216
f 276/333/212 282/339/217 281/340/218 270/327/206
f 272/329/208 188/341/62 283/342/219
f 266/323/203 267/322/202 277/336/214 284/343/220
f 268/325/205 269/324/204 279/338/216 285/344/221
f 173/345/13 270/327/206 281/340/218
f 286/346/222 271/328/207 272/329/208 283/342/219
f 273/330/209 266/323/203 284/343/220 287/347/223
f 274/331/210 268/325/205 285/344/221 278/335/213
f 275/332/211 271/328/207 286/346/222 280/337/215
f 273/330/209 287/347/223 282/339/217 276/333/212
f 287/347/223 284/343/220 289/348/224 288/349/225
f 278/335/213 285/344/221 291/350/226 290/351/23
f 280/337/215 286/346/222 293/352/227 292/353/228
f 282/339/217 287/347/223 288/349/225 294/354/229
f 277/336/214 278/335/213 290/351/23 295/355/230
f 279/338/216 280/337/215 292/353/228 296/356/231
f 282/339/217 294/354/229 297/357/232 281/340/218
f 283/342/219 188/358/62 298/359/233
f 284/343/220 277/336/214 295/355/230 289/348/224
f 285/344/221 279/338/216 296/356/231 291/350/226
f 173/360/13 281/340/218 297/357/232
f 286/346/222 283/342/219 298/359/233 293/352/227
f 298/359/233 188/361/62 299/362/234
f 289/348/224 295/355/230 301/363/235 300/364/236
f 291/350/226 296/356/231 303/365/237 302/366/238
f 173/367/13 297/357/232 304/368/239
f 293/352/227 298/359/233 299/362/234 305/369/240
f 288/349/225 289/348/224 300/364/236 306/370/241
f 290/351/23 291/350/226 302/366/238 307/371/242
f 292/353/228 293/352/227 305/369/240 308/372/243
f 294/354/229 288/349/225 306/370/241 309/373/244
f 295/355/230 290/351/23 307/371/242 301/363/235
f 296/356/231 292/353/228 308/372/243 303/365/237
f 297/357/232 294/354/229 309/373/244 304/368/239
f 309/373/244 306/370/241 311/374/245 310/375/246
f 301/363/235 307/371/242 313/376/247 312/377/248
f 303/365/237 308/372/243 315/378/249 314/379/250
f 304/368/239 309/373/244 310/375/246 316/380/251
f 299/362/234 188/381/62 317/382/252
f 300/364/236 301/363/235 312/377/248 318/383/253
f 302/366/238 303/365/237 314/379/250 319/384/254
f 173/385/13 304/368/239 316/380/251
f 305/369/240 299/362/234 317/382/252 320/386/255
f 306/370/241 300/364/236 318/383/253 311/374/245
f 307/371/242 302/366/238 319/384/254 313/376/247
f 308/372/243 305/369/240 320/386/255 315/378/249
f 317/382/252 322/387/256 321/388/257 320/386/255
f 311/374/245 318/383/253 324/389/258 323/390/259
f 313/376/247 319/384/254 326/391/260 325/392/261
f 315/378/249 320/386/255 321/388/257 327/393/262
f 310/375/246 311/374/245 323/390/259 328/394/263
f 312/377/248 313/376/247 325/392/261 329/395/264
f 314/379/250 315/378/249 327/393/262 330/396/265
f 316/380/251 310/375/246 328/394/263 331/397/266
f 317/382/252 188/398/62 322/387/256
f 318/383/253 312/377/248 329/395/264 324/389/258
f 319/384/254 314/379/250 330/396/265 326/391/260
f 173/399/13 316/380/251 331/397/266
f 332/400/267 331/397/266 328/394/263 333/401/268
f 322/387/256 188/402/62 334/403/269
f 324/389/258 329/395/264 336/404/270 335/405/271
f 326/391/260 330/396/265 338/406/272 337/407/273
f 173/408/13 331/397/266 332/400/267
f 322/387/256 334/403/269 339/409/274 321/388/257
f 323/390/259 324/389/258 335/405/271 340/410/275
f 325/392/261 326/391/260 337/407/273 341/411/34
f 321/388/257 339/409/274 342/412/276 327/393/262
f 328/394/263 323/390/259 340/410/275 333/401/268
f 329/395/264 325/392/261 341/411/34 336/404/270
f 330/396/265 327/393/262 342/412/276 338/406/272
f 339/409/274 344/413/277 343/414/278 342/412/276
f 345/415/279 333/401/268 340/410/275 346/416/280
f 336/404/270 341/411/34 348/417/281 347/418/282
f 342/412/276 343/414/278 349/419/283 338/406/272
f 350/420/284 332/400/267 333/401/268 345/415/279
f 334/403/269 188/421/62 351/422/285
f 335/405/271 336/404/270 347/418/282 352/423/286
f 337/407/273 338/406/272 349/419/283 353/424/287
f 173/425/13 332/400/267 350/420/284
f 334/403/269 351/422/285 344/413/277 339/409/274
f 340/410/275 335/405/271 352/423/286 346/416/280
f 341/411/34 337/407/273 353/424/287 348/417/281
f 173/426/13 350/420/284 354/427/288
f 351/422/285 356/428/289 355/429/290 344/413/277
f 357/430/291 346/416/280 352/423/286 358/431/292
f 348/417/281 353/424/287 360/432/293 359/433/294
f 344/413/277 355/429/290 361/434/295 343/414/278
f 362/435/296 345/415/279 346/416/280 357/430/291
f 347/418/282 348/417/281 359/433/294 363/436/297
f 343/414/278 361/434/295 364/437/298 349/419/283
f 354/427/288 350/420/284 345/415/279 362/435/296
f 351/422/285 188/438/62 356/428/289
f 352/423/286 347/418/282 363/436/297 358/431/292
f 349/419/283 364/437/298 360/432/293 353/424/287
f 361/434/295 366/439/299 365/440/300 364/437/298
f 367/441/301 354/427/288 362/435/296 368/442/302
f 356/428/289 188/443/62 369/444/303
f 370/445/304 358/431/292 363/436/297 371/446/305
f 364/437/298 365/440/300 372/447/306 360/432/293
f 173/448/13 354/427/288 367/441/301
f 356/428/289 369/444/303 373/449/307 355/429/290
f 374/450/308 357/430/291 358/431/292 370/445/304
f 360/432/293 372/447/306 375/451/2 359/433/294
f 355/429/290 373/449/307 366/439/299 361/434/295
f 368/442/302 362/435/296 357/430/291 374/450/308
f 363/436/297 359/433/294 375/451/2 371/446/305
f 373/452/307 377/453/309 376/454/310 366/455/299
f 378/456/311 368/457/302 374/458/308 379/459/312
f 381/460/313 380/461/314 371/462/305 375/463/2
f 366/455/299 376/454/310 382/464/315 365/465/300
f 383/466/316 367/467/301 368/457/302 378/456/311
f 369/468/303 188/469/62 384/470/317
f 385/471/318 370/472/304 371/462/305 380/461/314
f 365/465/300 382/464/315 386/473/319 372/474/306
f 173/475/13 367/467/301 383/466/316
f 369/468/303 384/470/317 377/453/309 373/452/307
f 379/459/312 374/458/308 370/472/304 385/471/318
f 372/474/306 386/473/319 381/460/313 375/463/2
f 382/464/315 388/476/320 387/477/321 386/473/319
f 173/478/13 383/466/316 389/479/322
f 384/470/317 391/480/323 390/481/324 377/453/309
f 392/482/325 379/459/312 385/471/318 393/483/326
f 387/477/321 394/484/327 381/460/313 386/473/319
f 377/453/309 390/481/324 395/485/328 376/454/310
f 396/486/329 378/456/311 379/459/312 392/482/325
f 394/484/327 397/487/330 380/461/314 381/460/313
f 376/454/310 395/485/328 388/476/320 382/464/315
f 389/479/322 383/466/316 378/456/311 396/486/329
f 384/470/317 188/488/62 391/480/323
f 397/487/330 393/483/326 385/471/318 380/461/314
f 395/485/328 399/489/331 398/490/332 388/476/320
f 400/491/333 389/479/322 396/486/329 401/492/334
f 391/480/323 188/493/62 402/494/335
f 404/495/336 403/496/337 393/483/326 397/487/330
f 398/490/332 405/497/338 387/477/321 388/476/320
f 173/498/13 389/479/322 400/491/333
f 391/480/323 402/494/335 406/499/339 390/481/324
f 403/496/337 407/500/340 392/482/325 393/483/326
f 405/497/338 408/501/341 394/484/327 387/477/321
f 390/481/324 406/499/339 399/489/331 395/485/328
f 401/492/334 396/486/329 392/482/325 407/500/340
f 408/501/341 404/495/336 397/487/330 394/484/327
f 410/502/342 409/503/343 408/501/341 405/497/338
f 406/499/339 412/504/344 411/505/345 399/489/331
f 414/506/346 413/507/347 401/492/334 407/500/340
f 409/503/343 415/508/348 404/495/336 408/501/341
f 411/505/345 416/509/349 398/490/332 399/489/331
f 417/510/350 400/491/333 401/492/334 413/507/347
f 402/494/335 188/511/62 418/512/351
f 415/508/348 419/513/352 403/496/337 404/495/336
f 416/509/349 410/502/342 405/497/338 398/490/332
f 173/514/13 400/491/333 417/510/350
f 402/494/335 418/512/351 412/504/344 406/499/339
f 419/513/352 414/506/346 407/500/340 403/496/337
f 421/515/353 420/516/354 410/502/342 416/509/349
f 173/517/13 417/510/350 422/518/355
f 418/512/351 424/519/356 423/520/357 412/504/344
f 426/521/358 425/522/359 414/506/346 419/513/352
f 420/516/354 427/523/360 409/503/343 410/502/342
f 423/520/357 428/524/361 411/505/345 412/504/344
f 425/522/359 429/525/362 413/507/347 414/506/346
f 427/523/360 430/526/363 415/508/348 409/503/343
f 428/524/361 421/515/353 416/509/349 411/505/345
f 429/525/362 422/518/355 417/510/350 413/507/347
f 418/512/351 188/527/62 424/519/356
f 430/526/363 426/521/358 419/513/352 415/508/348
f 183/225/12 167/210/108 430/526/363 427/523/360
f 185/227/123 171/214/112 421/515/353 428/524/361
f 187/229/125 174/216/113 422/518/355 429/525/362
f 424/519/356 188/528/62 178/221/118
f 167/210/108 166/209/107 426/521/358 430/526/363
f 171/214/112 170/213/111 420/516/354 421/515/353
f 173/529/13 422/518/355 174/216/113
f 178/221/118 177/220/117 423/520/357 424/519/356
f 166/209/107 181/223/120 425/522/359 426/521/358
f 170/213/111 183/225/12 427/523/360 420/516/354
f 177/220/117 185/227/123 428/524/361 423/520/357
f 181/223/120 187/229/125 429/525/362 425/522/359
