# Blender 5.0.1
# www.blender.org
mtllib 3D_FireDoor_v2.mtl
o Cube
v -0.626692 0.033308 0.050000
v -0.660000 0.000000 0.016692
v -0.643346 0.016654 0.045538
v -0.655538 0.004462 0.033346
v -0.626692 2.066692 0.050000
v -0.660000 2.100000 0.016692
v -0.643346 2.083346 0.045538
v -0.655538 2.095537 0.033346
v -0.626692 0.033308 -0.050000
v -0.660000 0.000000 -0.016692
v -0.643346 0.016654 -0.045538
v -0.655538 0.004462 -0.033346
v -0.626692 2.066692 -0.050000
v -0.660000 2.100000 -0.016692
v -0.643346 2.083346 -0.045538
v -0.655538 2.095537 -0.033346
v 0.626692 0.033308 0.050000
v 0.660000 0.000000 0.016692
v 0.643346 0.016654 0.045538
v 0.655538 0.004462 0.033346
v 0.626692 2.066692 0.050000
v 0.660000 2.100000 0.016692
v 0.643346 2.083346 0.045538
v 0.655538 2.095537 0.033346
v 0.626692 0.033308 -0.050000
v 0.660000 0.000000 -0.016692
v 0.643346 0.016654 -0.045538
v 0.655538 0.004462 -0.033346
v 0.660000 2.100000 -0.016692
v 0.626692 2.066692 -0.050000
v 0.655538 2.095537 -0.033346
v 0.643346 2.083346 -0.045538
v -0.000000 1.342999 0.050000
v -0.049909 1.347915 0.050000
v -0.097899 1.362473 0.050000
v -0.142128 1.386113 0.050000
v -0.180894 1.417928 0.050000
v -0.212709 1.456695 0.050000
v -0.236350 1.500923 0.050000
v -0.250908 1.548914 0.050000
v -0.255823 1.598823 0.050000
v -0.250908 1.648731 0.050000
v -0.236350 1.696722 0.050000
v -0.212709 1.740951 0.050000
v -0.180894 1.779717 0.050000
v -0.142128 1.811532 0.050000
v -0.097899 1.835173 0.050000
v -0.049909 1.849731 0.050000
v -0.000000 1.854646 0.050000
v 0.049909 1.849731 0.050000
v 0.097899 1.835173 0.050000
v 0.142128 1.811532 0.050000
v 0.180894 1.779717 0.050000
v 0.212709 1.740951 0.050000
v 0.236350 1.696722 0.050000
v 0.250908 1.648731 0.050000
v 0.255823 1.598823 0.050000
v 0.250908 1.548914 0.050000
v 0.236350 1.500923 0.050000
v 0.212709 1.456695 0.050000
v 0.180894 1.417928 0.050000
v 0.142128 1.386113 0.050000
v 0.097899 1.362473 0.050000
v 0.049909 1.347915 0.050000
v -0.000000 1.342999 -0.050000
v -0.049909 1.347915 -0.050000
v -0.097899 1.362473 -0.050000
v -0.142128 1.386113 -0.050000
v -0.180894 1.417928 -0.050000
v -0.212709 1.456695 -0.050000
v -0.236350 1.500923 -0.050000
v -0.250908 1.548914 -0.050000
v -0.255823 1.598823 -0.050000
v -0.250908 1.648731 -0.050000
v -0.236350 1.696722 -0.050000
v -0.212709 1.740951 -0.050000
v -0.180894 1.779717 -0.050000
v -0.142128 1.811532 -0.050000
v -0.097899 1.835173 -0.050000
v -0.049909 1.849731 -0.050000
v -0.000000 1.854646 -0.050000
v 0.049909 1.849731 -0.050000
v 0.097899 1.835173 -0.050000
v 0.142128 1.811532 -0.050000
v 0.180894 1.779717 -0.050000
v 0.212709 1.740951 -0.050000
v 0.236350 1.696722 -0.050000
v 0.250908 1.648731 -0.050000
v 0.255823 1.598823 -0.050000
v 0.250908 1.548914 -0.050000
v 0.236350 1.500923 -0.050000
v 0.212709 1.456695 -0.050000
v 0.180894 1.417928 -0.050000
v 0.142128 1.386113 -0.050000
v 0.097899 1.362473 -0.050000
v 0.049909 1.347915 -0.050000
v -0.049909 1.347915 0.068382
v -0.000000 1.342999 0.068382
v -0.097899 1.362473 0.068382
v -0.142128 1.386113 0.068382
v -0.180894 1.417928 0.068382
v -0.212709 1.456695 0.068382
v -0.236350 1.500923 0.068382
v -0.250908 1.548914 0.068382
v -0.255823 1.598823 0.068382
v -0.250908 1.648731 0.068382
v -0.236350 1.696722 0.068382
v -0.212709 1.740951 0.068382
v -0.180894 1.779717 0.068382
v -0.142128 1.811532 0.068382
v -0.097899 1.835173 0.068382
v -0.049909 1.849731 0.068382
v -0.000000 1.854646 0.068382
v 0.049909 1.849731 0.068382
v 0.097899 1.835173 0.068382
v 0.142128 1.811532 0.068382
v 0.180894 1.779717 0.068382
v 0.212709 1.740951 0.068382
v 0.236350 1.696722 0.068382
v 0.250908 1.648731 0.068382
v 0.255823 1.598823 0.068382
v 0.250908 1.548914 0.068382
v 0.236350 1.500923 0.068382
v 0.212709 1.456695 0.068382
v 0.180894 1.417928 0.068382
v 0.142128 1.386113 0.068382
v 0.097899 1.362473 0.068382
v 0.049909 1.347915 0.068382
v -0.049909 1.347915 -0.068382
v -0.000000 1.342999 -0.068382
v -0.097899 1.362473 -0.068382
v -0.142128 1.386113 -0.068382
v -0.180894 1.417928 -0.068382
v -0.212709 1.456695 -0.068382
v -0.236350 1.500923 -0.068382
v -0.250908 1.548914 -0.068382
v -0.255823 1.598823 -0.068382
v -0.250908 1.648731 -0.068382
v -0.236350 1.696722 -0.068382
v -0.212709 1.740951 -0.068382
v -0.180894 1.779717 -0.068382
v -0.142128 1.811532 -0.068382
v -0.097899 1.835173 -0.068382
v -0.049909 1.849731 -0.068382
v -0.000000 1.854646 -0.068382
v 0.049909 1.849731 -0.068382
v 0.097899 1.835173 -0.068382
v 0.142128 1.811532 -0.068382
v 0.180894 1.779717 -0.068382
v 0.212709 1.740951 -0.068382
v 0.236350 1.696722 -0.068382
v 0.250908 1.648731 -0.068382
v 0.255823 1.598823 -0.068382
v 0.250908 1.548914 -0.068382
v 0.236350 1.500923 -0.068382
v 0.212709 1.456695 -0.068382
v 0.180894 1.417928 -0.068382
v 0.142128 1.386113 -0.068382
v 0.097899 1.362473 -0.068382
v 0.049909 1.347915 -0.068382
v -0.178246 1.717923 -0.068382
v 0.198056 1.516785 0.068382
v -0.198056 1.680860 -0.068382
v 0.210255 1.557000 0.068382
v -0.210255 1.640645 -0.068382
v 0.214374 1.598823 0.068382
v -0.214374 1.598823 -0.068382
v 0.210255 1.640645 0.068382
v -0.210255 1.557000 -0.068382
v 0.198056 1.680860 0.068382
v -0.198056 1.516785 -0.068382
v 0.178246 1.717923 0.068382
v -0.178246 1.479723 -0.068382
v 0.041822 1.388568 -0.068382
v 0.151585 1.750408 0.068382
v -0.151585 1.447237 -0.068382
v 0.082037 1.400767 -0.068382
v 0.119100 1.777068 0.068382
v -0.119100 1.420577 -0.068382
v 0.119100 1.420577 -0.068382
v 0.082037 1.796879 0.068382
v -0.082037 1.400767 -0.068382
v 0.151585 1.447237 -0.068382
v 0.041822 1.809078 0.068382
v -0.000000 1.384449 -0.068382
v -0.041822 1.388568 -0.068382
v 0.178246 1.479723 -0.068382
v -0.000000 1.813197 0.068382
v 0.210255 1.557000 -0.068382
v 0.198056 1.516785 -0.068382
v -0.041822 1.809078 0.068382
v -0.082037 1.796879 0.068382
v -0.041822 1.388568 0.068382
v -0.000000 1.384449 0.068382
v -0.082037 1.400767 0.068382
v -0.119100 1.420577 0.068382
v -0.151585 1.447237 0.068382
v -0.178246 1.479723 0.068382
v -0.198056 1.516785 0.068382
v -0.210255 1.557000 0.068382
v -0.214374 1.598823 0.068382
v -0.210255 1.640645 0.068382
v -0.198056 1.680860 0.068382
v -0.178246 1.717923 0.068382
v -0.151585 1.750408 0.068382
v -0.119100 1.777068 0.068382
v 0.178246 1.479723 0.068382
v 0.151585 1.447237 0.068382
v 0.119100 1.420577 0.068382
v 0.082037 1.400767 0.068382
v 0.041822 1.388568 0.068382
v -0.151585 1.750408 -0.068382
v -0.119100 1.777068 -0.068382
v -0.082037 1.796879 -0.068382
v -0.041822 1.809078 -0.068382
v -0.000000 1.813197 -0.068382
v 0.041822 1.809078 -0.068382
v 0.082037 1.796879 -0.068382
v 0.119100 1.777068 -0.068382
v 0.151585 1.750408 -0.068382
v 0.178246 1.717923 -0.068382
v 0.198056 1.680860 -0.068382
v 0.210255 1.640645 -0.068382
v 0.214374 1.598823 -0.068382
v -0.440000 2.100000 -0.016692
v -0.220000 2.100000 -0.016692
v 0.000000 2.100000 -0.016692
v 0.220000 2.100000 -0.016692
v 0.440000 2.100000 -0.016692
v 0.437025 2.095537 -0.033346
v 0.218513 2.095537 -0.033346
v 0.000000 2.095537 -0.033346
v -0.218513 2.095537 -0.033346
v -0.437025 2.095537 -0.033346
v 0.428897 2.083346 -0.045538
v 0.214449 2.083346 -0.045538
v 0.000000 2.083346 -0.045538
v -0.214449 2.083346 -0.045538
v -0.428897 2.083346 -0.045538
v 0.417795 2.066692 -0.050000
v 0.208897 2.066692 -0.050000
v 0.000000 2.066692 -0.050000
v -0.208897 2.066692 -0.050000
v -0.417795 2.066692 -0.050000
v 0.440000 2.100000 0.016692
v 0.220000 2.100000 0.016692
v -0.000000 2.100000 0.016692
v -0.220000 2.100000 0.016692
v -0.440000 2.100000 0.016692
v -0.437025 2.095537 0.033346
v -0.218513 2.095537 0.033346
v 0.000000 2.095537 0.033346
v 0.218513 2.095537 0.033346
v 0.437025 2.095537 0.033346
v -0.428897 2.083346 0.045538
v -0.214449 2.083346 0.045538
v 0.000000 2.083346 0.045538
v 0.214449 2.083346 0.045538
v 0.428897 2.083346 0.045538
v -0.417795 2.066692 0.050000
v -0.208897 2.066692 0.050000
v 0.000000 2.066692 0.050000
v 0.208897 2.066692 0.050000
v 0.417795 2.066692 0.050000
v 0.440000 0.000000 -0.016692
v 0.220000 0.000000 -0.016692
v -0.000000 0.000000 -0.016692
v -0.220000 0.000000 -0.016692
v -0.440000 0.000000 -0.016692
v -0.437025 0.004462 -0.033346
v -0.218512 0.004462 -0.033346
v 0.000000 0.004462 -0.033346
v 0.218513 0.004462 -0.033346
v 0.437025 0.004462 -0.033346
v -0.428897 0.016654 -0.045538
v -0.214449 0.016654 -0.045538
v 0.000000 0.016654 -0.045538
v 0.214449 0.016654 -0.045538
v 0.428897 0.016654 -0.045538
v -0.417795 0.033308 -0.050000
v -0.208897 0.033308 -0.050000
v 0.000000 0.033308 -0.050000
v 0.208897 0.033308 -0.050000
v 0.417795 0.033308 -0.050000
v -0.440000 0.000000 0.016692
v -0.220000 0.000000 0.016692
v 0.000000 0.000000 0.016692
v 0.220000 0.000000 0.016692
v 0.440000 0.000000 0.016692
v 0.437025 0.004462 0.033346
v 0.218512 0.004462 0.033346
v -0.000000 0.004462 0.033346
v -0.218513 0.004462 0.033346
v -0.437025 0.004462 0.033346
v 0.428897 0.016654 0.045538
v 0.214449 0.016654 0.045538
v 0.000000 0.016654 0.045538
v -0.214449 0.016654 0.045538
v -0.428897 0.016654 0.045538
v 0.417795 0.033308 0.050000
v 0.208897 0.033308 0.050000
v 0.000000 0.033308 0.050000
v -0.208897 0.033308 0.050000
v -0.417795 0.033308 0.050000
v 0.660000 1.890000 -0.016692
v 0.660000 1.680000 -0.016692
v 0.660000 1.470000 -0.016692
v 0.660000 1.260000 -0.016692
v 0.660000 1.050000 -0.016692
v 0.660000 0.840000 -0.016692
v 0.660000 0.630000 -0.016692
v 0.660000 0.420000 -0.016692
v 0.660000 0.210000 -0.016692
v 0.655538 0.213570 -0.033346
v 0.655538 0.422678 -0.033346
v 0.655538 0.631785 -0.033346
v 0.655538 0.840892 -0.033346
v 0.655538 1.050000 -0.033346
v 0.655538 1.259107 -0.033346
v 0.655538 1.468215 -0.033346
v 0.655538 1.677322 -0.033346
v 0.655538 1.886430 -0.033346
v 0.643346 0.223323 -0.045538
v 0.643346 0.429992 -0.045538
v 0.643346 0.636662 -0.045538
v 0.643346 0.843331 -0.045538
v 0.643346 1.050000 -0.045538
v 0.643346 1.256669 -0.045538
v 0.643346 1.463338 -0.045538
v 0.643346 1.670007 -0.045538
v 0.643346 1.876677 -0.045538
v 0.626692 0.236647 -0.050000
v 0.626692 0.439985 -0.050000
v 0.626692 0.643323 -0.050000
v 0.626692 0.846662 -0.050000
v 0.626692 1.050000 -0.050000
v 0.626692 1.253338 -0.050000
v 0.626692 1.456677 -0.050000
v 0.626692 1.660015 -0.050000
v 0.626692 1.863353 -0.050000
v 0.626692 1.863353 0.050000
v 0.626692 1.660015 0.050000
v 0.626692 1.456677 0.050000
v 0.626692 1.253338 0.050000
v 0.626692 1.050000 0.050000
v 0.626692 0.846662 0.050000
v 0.626692 0.643323 0.050000
v 0.626692 0.439985 0.050000
v 0.626692 0.236647 0.050000
v 0.643346 0.223323 0.045538
v 0.643346 0.429992 0.045538
v 0.643346 0.636662 0.045538
v 0.643346 0.843331 0.045538
v 0.643346 1.050000 0.045538
v 0.643346 1.256669 0.045538
v 0.643346 1.463338 0.045538
v 0.643346 1.670007 0.045538
v 0.643346 1.876677 0.045538
v 0.655538 0.213570 0.033346
v 0.655538 0.422678 0.033346
v 0.655538 0.631785 0.033346
v 0.655538 0.840892 0.033346
v 0.655538 1.050000 0.033346
v 0.655538 1.259107 0.033346
v 0.655538 1.468215 0.033346
v 0.655538 1.677322 0.033346
v 0.655538 1.886430 0.033346
v 0.660000 0.210000 0.016692
v 0.660000 0.420000 0.016692
v 0.660000 0.630000 0.016692
v 0.660000 0.840000 0.016692
v 0.660000 1.050000 0.016692
v 0.660000 1.260000 0.016692
v 0.660000 1.470000 0.016692
v 0.660000 1.680000 0.016692
v 0.660000 1.890000 0.016692
v -0.626692 0.236647 0.050000
v -0.626692 0.439985 0.050000
v -0.626692 0.643323 0.050000
v -0.626692 0.846662 0.050000
v -0.626692 1.050000 0.050000
v -0.626692 1.253338 0.050000
v -0.626692 1.456677 0.050000
v -0.626692 1.660015 0.050000
v -0.626692 1.863353 0.050000
v -0.643346 1.876677 0.045538
v -0.643346 1.670007 0.045538
v -0.643346 1.463338 0.045538
v -0.643346 1.256669 0.045538
v -0.643346 1.050000 0.045538
v -0.643346 0.843331 0.045538
v -0.643346 0.636662 0.045538
v -0.643346 0.429992 0.045538
v -0.643346 0.223323 0.045538
v -0.655538 1.886430 0.033346
v -0.655538 1.677322 0.033346
v -0.655538 1.468215 0.033346
v -0.655538 1.259107 0.033346
v -0.655538 1.050000 0.033346
v -0.655538 0.840892 0.033346
v -0.655538 0.631785 0.033346
v -0.655538 0.422677 0.033346
v -0.655538 0.213570 0.033346
v -0.660000 1.890000 0.016692
v -0.660000 1.680000 0.016692
v -0.660000 1.470000 0.016692
v -0.660000 1.260000 0.016692
v -0.660000 1.050000 0.016692
v -0.660000 0.840000 0.016692
v -0.660000 0.630000 0.016692
v -0.660000 0.420000 0.016692
v -0.660000 0.210000 0.016692
v -0.626692 1.863353 -0.050000
v -0.626692 1.660015 -0.050000
v -0.626692 1.456677 -0.050000
v -0.626692 1.253338 -0.050000
v -0.626692 1.050000 -0.050000
v -0.626692 0.846662 -0.050000
v -0.626692 0.643323 -0.050000
v -0.626692 0.439985 -0.050000
v -0.626692 0.236647 -0.050000
v -0.643346 0.223323 -0.045538
v -0.643346 0.429992 -0.045538
v -0.643346 0.636662 -0.045538
v -0.643346 0.843331 -0.045538
v -0.643346 1.050000 -0.045538
v -0.643346 1.256669 -0.045538
v -0.643346 1.463338 -0.045538
v -0.643346 1.670007 -0.045538
v -0.643346 1.876677 -0.045538
v -0.655538 0.213570 -0.033346
v -0.655538 0.422678 -0.033346
v -0.655538 0.631785 -0.033346
v -0.655538 0.840892 -0.033346
v -0.655538 1.050000 -0.033346
v -0.655538 1.259107 -0.033346
v -0.655538 1.468215 -0.033346
v -0.655538 1.677322 -0.033346
v -0.655538 1.886430 -0.033346
v -0.660000 0.210000 -0.016692
v -0.660000 0.420000 -0.016692
v -0.660000 0.630000 -0.016692
v -0.660000 0.840000 -0.016692
v -0.660000 1.050000 -0.016692
v -0.660000 1.260000 -0.016692
v -0.660000 1.470000 -0.016692
v -0.660000 1.680000 -0.016692
v -0.660000 1.890000 -0.016692
vn -0.1305 -0.0000 0.9914
vn -0.0984 0.0984 0.9903
vn -0.4919 0.0583 0.8687
vn -0.5000 -0.0000 0.8660
vn -0.7071 -0.0000 0.7071
vn -0.9659 -0.0000 0.2588
vn -0.9929 -0.0000 0.1191
vn -0.9914 -0.0000 0.1305
vn -0.1305 -0.0000 -0.9914
vn -0.0984 -0.0984 -0.9903
vn -0.0583 -0.4919 -0.8687
vn -0.2588 -0.0000 -0.9659
vn -0.7071 -0.0000 -0.7071
vn -0.9047 -0.0000 -0.4260
vn -0.8660 -0.0000 -0.5000
vn -0.9929 -0.0000 -0.1191
vn -0.9914 -0.0000 -0.1305
vn -0.0000 -0.9914 -0.1305
vn -0.0000 -0.9929 -0.1191
vn -0.0000 -0.9047 -0.4260
vn -0.0000 -0.8660 -0.5000
vn -0.0000 -0.5000 -0.8660
vn -0.0000 -0.1305 -0.9914
vn -0.0000 0.9914 -0.1305
vn -0.0000 0.9929 -0.1191
vn -0.0000 0.9047 -0.4260
vn -0.0000 0.8660 -0.5000
vn -0.0000 0.7071 -0.7071
vn -0.0000 0.2588 -0.9659
vn 0.4919 0.0583 -0.8687
vn 0.0984 0.0984 -0.9903
vn -0.0000 0.1305 -0.9914
vn 0.9914 -0.0000 -0.1305
vn 0.9929 -0.0000 -0.1191
vn 0.9047 -0.0000 -0.4260
vn 0.8660 -0.0000 -0.5000
vn 0.7071 -0.0000 -0.7071
vn 0.2588 -0.0000 -0.9659
vn 0.0583 -0.4919 -0.8687
vn 0.0984 -0.0984 -0.9903
vn 0.1305 -0.0000 -0.9914
vn 0.1305 -0.0000 0.9914
vn 0.0984 -0.0984 0.9903
vn 0.0583 -0.4919 0.8687
vn 0.2588 -0.0000 0.9659
vn 0.7071 -0.0000 0.7071
vn 0.9047 -0.0000 0.4260
vn 0.8660 -0.0000 0.5000
vn 0.9929 -0.0000 0.1191
vn 0.9914 -0.0000 0.1305
vn -0.0000 -0.9914 0.1305
vn -0.0000 -0.9929 0.1191
vn -0.0000 -0.9047 0.4260
vn -0.0000 -0.8660 0.5000
vn -0.0000 -0.5000 0.8660
vn -0.0000 -0.1305 0.9914
vn -0.0000 0.9914 0.1305
vn -0.0000 0.9929 0.1191
vn -0.0000 0.9047 0.4260
vn -0.0000 0.8660 0.5000
vn -0.0000 0.7071 0.7071
vn -0.0000 0.2588 0.9659
vn -0.0000 0.1305 0.9914
vn 0.9239 0.3827 -0.0000
vn 0.9808 0.1951 -0.0000
vn 0.8315 0.5556 -0.0000
vn 0.7071 0.7071 -0.0000
vn -0.5556 -0.8315 -0.0000
vn -0.7071 -0.7071 -0.0000
vn 0.5556 0.8315 -0.0000
vn -0.3827 -0.9239 -0.0000
vn 0.3827 0.9239 -0.0000
vn -0.1951 -0.9808 -0.0000
vn 0.1951 0.9808 -0.0000
vn -0.0000 -1.0000 -0.0000
vn -0.0000 1.0000 -0.0000
vn -0.1951 0.9808 -0.0000
vn -0.3827 0.9239 -0.0000
vn -0.5556 0.8315 -0.0000
vn 1.0000 -0.0000 -0.0000
vn -0.7071 0.7071 -0.0000
vn 0.9808 -0.1951 -0.0000
vn -0.8315 0.5556 -0.0000
vn 0.9239 -0.3827 -0.0000
vn -0.9239 0.3827 -0.0000
vn 0.8315 -0.5556 -0.0000
vn -0.9808 0.1951 -0.0000
vn 0.7071 -0.7071 -0.0000
vn -1.0000 -0.0000 -0.0000
vn 0.5556 -0.8315 -0.0000
vn -0.9808 -0.1951 -0.0000
vn 0.3827 -0.9239 -0.0000
vn -0.9239 -0.3827 -0.0000
vn 0.1951 -0.9808 -0.0000
vn -0.8315 -0.5556 -0.0000
vn -0.0000 -0.0000 1.0000
vn -0.0000 -0.0000 -1.0000
vn 0.4919 0.0583 0.8687
vn 0.0984 0.0984 0.9903
vn -0.4919 0.0583 -0.8687
vn -0.0984 0.0984 -0.9903
vn -0.0583 -0.4919 0.8687
vn -0.0984 -0.0984 0.9903
vn 0.9659 -0.0000 0.2588
vn 0.5000 -0.0000 0.8660
vn 0.5000 -0.0000 -0.8660
vn 0.9659 -0.0000 -0.2588
vn -0.9659 -0.0000 -0.2588
vn -0.5000 -0.0000 -0.8660
vn -0.9047 -0.0000 0.4260
vn -0.8660 -0.0000 0.5000
vt 0.413695 0.828498
vt 0.414170 0.915058
vt 0.407291 0.921941
vt 0.406172 0.834361
vt 0.401271 0.927969
vt 0.398667 0.838693
vt 0.396559 0.932689
vt 0.391176 0.840419
vt 0.946575 0.131342
vt 0.945078 0.052077
vt 0.952698 0.043387
vt 0.953452 0.124866
vt 0.960198 0.034861
vt 0.960534 0.119578
vt 0.967921 0.026130
vt 0.967921 0.116767
vt 0.872640 0.026129
vt 0.870285 0.032789
vt 0.865792 0.039022
vt 0.860228 0.044876
vt 0.491513 0.932504
vt 0.396232 0.932503
vt 0.404518 0.924628
vt 0.493775 0.925507
vt 0.412566 0.916957
vt 0.498127 0.918852
vt 0.420738 0.909148
vt 0.503495 0.912456
vt 0.396234 0.116766
vt 0.396234 0.026128
vt 0.403957 0.034859
vt 0.403621 0.119577
vt 0.411458 0.043385
vt 0.410703 0.124864
vt 0.419077 0.052074
vt 0.417580 0.131341
vt 0.951171 0.130799
vt 0.950827 0.043854
vt 0.957741 0.036945
vt 0.958730 0.124930
vt 0.963791 0.030893
vt 0.966270 0.120598
vt 0.968525 0.026155
vt 0.973791 0.118882
vt 0.871564 0.020805
vt 0.870094 0.028318
vt 0.866448 0.035846
vt 0.861519 0.043392
vt 0.493036 0.938062
vt 0.494504 0.930575
vt 0.498140 0.923074
vt 0.503051 0.915555
vt 0.648577 0.965555
vt 0.677946 0.965555
vt 0.677946 0.970072
vt 0.648577 0.970072
vt 0.246019 0.970072
vt 0.217606 0.970072
vt 0.217606 0.965555
vt 0.246019 0.965555
vt 0.188237 0.965555
vt 0.188237 0.970072
vt 0.933655 0.965555
vt 0.962067 0.965555
vt 0.962067 0.970072
vt 0.933655 0.970072
vt 0.240187 0.200449
vt 0.240015 0.227969
vt 0.152954 0.227780
vt 0.153109 0.200286
vt 0.118883 0.613588
vt 0.118883 0.586051
vt 0.128640 0.585923
vt 0.128643 0.613445
vt 0.274228 0.117932
vt 0.274228 0.145469
vt 0.264483 0.145620
vt 0.264543 0.118051
vt 0.240146 0.173039
vt 0.153107 0.172723
vt 0.118883 0.558515
vt 0.128750 0.558440
vt 0.274228 0.090396
vt 0.264206 0.090554
vt 0.240013 0.145606
vt 0.153183 0.145224
vt 0.118883 0.530978
vt 0.128634 0.530961
vt 0.274228 0.062860
vt 0.263957 0.063002
vt 0.239639 0.118094
vt 0.153497 0.117718
vt 0.118883 0.503442
vt 0.128546 0.503403
vt 0.274228 0.035323
vt 0.263092 0.035323
vt 0.240229 0.090645
vt 0.152851 0.090156
vt 0.118883 0.475905
vt 0.128774 0.475816
vt 0.239306 0.063173
vt 0.153719 0.062766
vt 0.118883 0.448369
vt 0.128563 0.448267
vt 0.237982 0.035323
vt 0.155129 0.035323
vt 0.118883 0.420833
vt 0.128657 0.420667
vt 0.239398 0.889046
vt 0.237982 0.916488
vt 0.155129 0.916488
vt 0.153816 0.888646
vt 0.118883 0.393296
vt 0.128645 0.393099
vt 0.240038 0.255549
vt 0.152989 0.255291
vt 0.118883 0.365760
vt 0.128630 0.365576
vt 0.240080 0.283118
vt 0.152975 0.282865
vt 0.118883 0.338224
vt 0.128736 0.338094
vt 0.240201 0.310690
vt 0.152826 0.310460
vt 0.118883 0.310687
vt 0.128621 0.310640
vt 0.240555 0.338245
vt 0.152321 0.337988
vt 0.118883 0.283151
vt 0.128623 0.283119
vt 0.239729 0.365811
vt 0.152840 0.365567
vt 0.118883 0.255615
vt 0.128626 0.255576
vt 0.240522 0.393460
vt 0.153054 0.393128
vt 0.118883 0.228078
vt 0.128628 0.228037
vt 0.240062 0.420943
vt 0.153208 0.420663
vt 0.118883 0.200542
vt 0.128653 0.200518
vt 0.239605 0.448501
vt 0.153556 0.448262
vt 0.118883 0.173005
vt 0.128659 0.172968
vt 0.240316 0.476079
vt 0.152785 0.475764
vt 0.118883 0.145469
vt 0.128654 0.145412
vt 0.239546 0.503572
vt 0.153490 0.503361
vt 0.118883 0.117932
vt 0.128580 0.117841
vt 0.239888 0.531165
vt 0.152985 0.530946
vt 0.118883 0.090396
vt 0.128908 0.090323
vt 0.240034 0.558697
vt 0.152386 0.558447
vt 0.118883 0.062859
vt 0.129210 0.062824
vt 0.240244 0.586254
vt 0.152876 0.586013
vt 0.118883 0.035323
vt 0.130018 0.035323
vt 0.240784 0.613828
vt 0.153044 0.613596
vt 0.240293 0.641363
vt 0.153072 0.641170
vt 0.240121 0.668951
vt 0.153061 0.668726
vt 0.240065 0.696535
vt 0.153041 0.696264
vt 0.274228 0.888952
vt 0.274228 0.916488
vt 0.263092 0.916488
vt 0.263903 0.888988
vt 0.240051 0.724105
vt 0.153022 0.723785
vt 0.274228 0.861415
vt 0.264207 0.861489
vt 0.240103 0.751643
vt 0.153010 0.751285
vt 0.274228 0.833879
vt 0.264540 0.833972
vt 0.274228 0.806342
vt 0.264471 0.806403
vt 0.128624 0.778662
vt 0.128631 0.751131
vt 0.153020 0.778753
vt 0.264462 0.310808
vt 0.264351 0.338312
vt 0.128635 0.723605
vt 0.264466 0.283282
vt 0.128641 0.696073
vt 0.264460 0.255738
vt 0.128647 0.668535
vt 0.264465 0.228198
vt 0.128649 0.640990
vt 0.264495 0.200656
vt 0.264495 0.173151
vt 0.240272 0.861656
vt 0.239636 0.834097
vt 0.239967 0.806596
vt 0.264483 0.778851
vt 0.240073 0.779122
vt 0.264559 0.751314
vt 0.264375 0.723770
vt 0.264563 0.365816
vt 0.128548 0.806214
vt 0.153116 0.806192
vt 0.264342 0.393359
vt 0.128681 0.833769
vt 0.153520 0.833706
vt 0.264459 0.420870
vt 0.128927 0.861271
vt 0.152912 0.861175
vt 0.264556 0.448428
vt 0.129160 0.888815
vt 0.264333 0.476008
vt 0.130018 0.916488
vt 0.264544 0.503553
vt 0.264450 0.531150
vt 0.264460 0.558718
vt 0.264475 0.586242
vt 0.264371 0.613722
vt 0.264488 0.641177
vt 0.264479 0.668695
vt 0.264457 0.696234
vt 0.274228 0.173005
vt 0.118883 0.641124
vt 0.274228 0.200542
vt 0.118883 0.668661
vt 0.274228 0.228078
vt 0.118883 0.696197
vt 0.274228 0.255615
vt 0.118883 0.723734
vt 0.274228 0.283151
vt 0.118883 0.751270
vt 0.274228 0.310687
vt 0.118883 0.778806
vt 0.274228 0.338224
vt 0.118883 0.806342
vt 0.274228 0.365760
vt 0.118883 0.833879
vt 0.274228 0.393296
vt 0.118883 0.861415
vt 0.274228 0.420833
vt 0.118883 0.888952
vt 0.274228 0.448369
vt 0.118883 0.916488
vt 0.274228 0.475905
vt 0.274228 0.503442
vt 0.274228 0.530978
vt 0.274228 0.558515
vt 0.274228 0.586051
vt 0.274228 0.613588
vt 0.274228 0.641124
vt 0.274228 0.668661
vt 0.274228 0.696197
vt 0.274228 0.723734
vt 0.274228 0.751270
vt 0.274228 0.778806
vt 0.041388 0.965555
vt 0.070758 0.965555
vt 0.070758 0.970072
vt 0.041388 0.970072
vt 0.100127 0.965555
vt 0.100127 0.970072
vt 0.129497 0.965555
vt 0.129497 0.970072
vt 0.158867 0.965555
vt 0.158867 0.970072
vt 0.956600 0.921586
vt 0.865864 0.922710
vt 0.860966 0.915205
vt 0.949731 0.914713
vt 0.773995 0.922773
vt 0.771622 0.915385
vt 0.682187 0.922938
vt 0.682168 0.915549
vt 0.590203 0.923166
vt 0.592578 0.915698
vt 0.962611 0.927606
vt 0.869487 0.930199
vt 0.775736 0.930166
vt 0.682208 0.930327
vt 0.588460 0.930642
vt 0.967315 0.932319
vt 0.870945 0.937674
vt 0.776375 0.937560
vt 0.682229 0.937716
vt 0.587821 0.938120
vt 0.951584 0.916962
vt 0.866024 0.918856
vt 0.860656 0.912461
vt 0.943412 0.909154
vt 0.774283 0.919600
vt 0.771584 0.913129
vt 0.682077 0.919756
vt 0.682078 0.913350
vt 0.589869 0.919598
vt 0.592569 0.913127
vt 0.959632 0.924631
vt 0.870375 0.925509
vt 0.776366 0.926051
vt 0.682076 0.926139
vt 0.587786 0.926050
vt 0.967919 0.932505
vt 0.872638 0.932504
vt 0.777357 0.932504
vt 0.682075 0.932504
vt 0.586794 0.932504
vt 0.682083 0.823626
vt 0.660799 0.821588
vt 0.703368 0.821592
vt 0.723632 0.815761
vt 0.640536 0.815750
vt 0.622043 0.806554
vt 0.742126 0.806575
vt 0.501728 0.965555
vt 0.531097 0.965555
vt 0.531097 0.970072
vt 0.501728 0.970072
vt 0.560467 0.965555
vt 0.560467 0.970072
vt 0.589837 0.965555
vt 0.589837 0.970072
vt 0.619207 0.965555
vt 0.619207 0.970072
vt 0.406682 0.036902
vt 0.497979 0.035868
vt 0.502894 0.043416
vt 0.413590 0.043816
vt 0.590172 0.035921
vt 0.592542 0.043332
vt 0.682168 0.035888
vt 0.682178 0.043287
vt 0.774227 0.035776
vt 0.771846 0.043253
vt 0.400637 0.030845
vt 0.494346 0.028338
vt 0.588438 0.028505
vt 0.682157 0.028489
vt 0.775975 0.028291
vt 0.395907 0.026103
vt 0.492889 0.020824
vt 0.587808 0.021088
vt 0.682146 0.021090
vt 0.776617 0.020804
vt 0.498364 0.039021
vt 0.503928 0.044875
vt 0.589978 0.037239
vt 0.592729 0.042802
vt 0.682078 0.037062
vt 0.682078 0.042591
vt 0.774178 0.037239
vt 0.771428 0.042803
vt 0.493870 0.032788
vt 0.587841 0.031689
vt 0.682078 0.031579
vt 0.776315 0.031690
vt 0.491515 0.026129
vt 0.586797 0.026129
vt 0.682078 0.026129
vt 0.777359 0.026129
vt 0.660436 0.609911
vt 0.682065 0.607805
vt 0.703694 0.609912
vt 0.724382 0.616121
vt 0.639749 0.616118
vt 0.621056 0.626139
vt 0.743075 0.626143
vt 0.706358 0.965555
vt 0.706358 0.970072
vt 0.734771 0.965555
vt 0.734771 0.970072
vt 0.763183 0.965555
vt 0.763183 0.970072
vt 0.791595 0.965555
vt 0.791595 0.970072
vt 0.820007 0.965555
vt 0.820007 0.970072
vt 0.848419 0.965555
vt 0.848419 0.970072
vt 0.876831 0.965555
vt 0.876831 0.970072
vt 0.905243 0.965555
vt 0.905243 0.970072
vt 0.965194 0.838473
vt 0.972674 0.840196
vt 0.965171 0.748697
vt 0.972570 0.749846
vt 0.965325 0.659159
vt 0.972711 0.659936
vt 0.965500 0.569509
vt 0.972893 0.569905
vt 0.965636 0.479810
vt 0.973033 0.479820
vt 0.965744 0.390099
vt 0.973141 0.389724
vt 0.965836 0.300393
vt 0.973232 0.299638
vt 0.965970 0.210702
vt 0.973393 0.209574
vt 0.957701 0.834148
vt 0.957776 0.745563
vt 0.957942 0.657057
vt 0.958108 0.568451
vt 0.958240 0.479800
vt 0.958346 0.391137
vt 0.958438 0.302475
vt 0.958545 0.213821
vt 0.950189 0.828294
vt 0.950390 0.741289
vt 0.950561 0.654190
vt 0.950716 0.567010
vt 0.950843 0.479790
vt 0.950948 0.392557
vt 0.951040 0.305323
vt 0.951127 0.218083
vt 0.409561 0.834045
vt 0.415693 0.827606
vt 0.408862 0.746328
vt 0.415207 0.741798
vt 0.409661 0.657787
vt 0.416431 0.654970
vt 0.410337 0.568740
vt 0.417414 0.567415
vt 0.410653 0.479510
vt 0.417871 0.479605
vt 0.410740 0.390307
vt 0.417998 0.391835
vt 0.410697 0.301252
vt 0.417938 0.304272
vt 0.410545 0.212550
vt 0.417723 0.217206
vt 0.403095 0.839225
vt 0.402550 0.749757
vt 0.402933 0.659850
vt 0.403278 0.569680
vt 0.403441 0.479413
vt 0.403486 0.389160
vt 0.403463 0.298986
vt 0.403390 0.209000
vt 0.396232 0.841866
vt 0.396232 0.751228
vt 0.396233 0.660591
vt 0.396233 0.569953
vt 0.396233 0.479316
vt 0.396233 0.388678
vt 0.396233 0.298041
vt 0.396234 0.207403
vt 0.473316 0.970072
vt 0.473316 0.965555
vt 0.444903 0.970072
vt 0.444903 0.965555
vt 0.416491 0.970072
vt 0.416491 0.965555
vt 0.388079 0.970072
vt 0.388079 0.965555
vt 0.359667 0.970072
vt 0.359667 0.965555
vt 0.331255 0.970072
vt 0.331255 0.965555
vt 0.302843 0.970072
vt 0.302843 0.965555
vt 0.274431 0.970072
vt 0.274431 0.965555
vt 0.961056 0.839228
vt 0.967919 0.841867
vt 0.961601 0.749759
vt 0.967919 0.751230
vt 0.961218 0.659850
vt 0.967920 0.660592
vt 0.960874 0.569680
vt 0.967920 0.569955
vt 0.960713 0.479414
vt 0.967920 0.479317
vt 0.960669 0.389161
vt 0.967920 0.388680
vt 0.960690 0.298986
vt 0.967920 0.298042
vt 0.960764 0.209001
vt 0.967921 0.207405
vt 0.954589 0.834049
vt 0.955288 0.746331
vt 0.954490 0.657786
vt 0.953816 0.568738
vt 0.953503 0.479509
vt 0.953415 0.390306
vt 0.953455 0.301252
vt 0.953609 0.212551
vt 0.948457 0.827612
vt 0.948942 0.741800
vt 0.947719 0.654969
vt 0.946738 0.567412
vt 0.946286 0.479602
vt 0.946158 0.391833
vt 0.946212 0.304271
vt 0.946430 0.217205
vt 0.398097 0.120533
vt 0.390578 0.118813
vt 0.398333 0.210621
vt 0.390912 0.209487
vt 0.398400 0.300301
vt 0.391005 0.299540
vt 0.398422 0.390004
vt 0.391025 0.389623
vt 0.398455 0.479723
vt 0.391057 0.479727
vt 0.398513 0.569446
vt 0.391116 0.569836
vt 0.398610 0.659151
vt 0.391217 0.659924
vt 0.398707 0.748786
vt 0.391298 0.749934
vt 0.405632 0.124869
vt 0.405754 0.213745
vt 0.405796 0.302389
vt 0.405819 0.391048
vt 0.405853 0.479719
vt 0.405909 0.568394
vt 0.406001 0.657053
vt 0.406113 0.745651
vt 0.413187 0.130742
vt 0.413168 0.218011
vt 0.413191 0.305242
vt 0.413216 0.392475
vt 0.413251 0.479715
vt 0.413305 0.566959
vt 0.413390 0.654189
vt 0.413509 0.741375
vt 0.606063 0.794357
vt 0.758101 0.794392
vt 0.605174 0.639632
vt 0.592143 0.656160
vt 0.582524 0.675086
vt 0.758956 0.639638
vt 0.771988 0.656166
vt 0.781665 0.675069
vt 0.576628 0.695672
vt 0.574637 0.717127
vt 0.576674 0.738605
vt 0.582710 0.759295
vt 0.592666 0.778304
vt 0.787539 0.695662
vt 0.789509 0.717124
vt 0.787475 0.738617
vt 0.781449 0.759322
vt 0.771496 0.778340
vt 0.682052 0.824700
vt 0.660641 0.822610
vt 0.703456 0.822582
vt 0.724053 0.816333
vt 0.743046 0.806184
vt 0.759658 0.792462
vt 0.773230 0.775815
vt 0.640052 0.816406
vt 0.621049 0.806282
vt 0.604424 0.792570
vt 0.590835 0.775927
vt 0.580730 0.756965
vt 0.783316 0.756856
vt 0.789535 0.736297
vt 0.791643 0.714911
vt 0.789550 0.693514
vt 0.783329 0.672928
vt 0.773211 0.653949
vt 0.759587 0.637306
vt 0.742977 0.623635
vt 0.724014 0.613502
vt 0.703442 0.607262
vt 0.682043 0.605155
vt 0.660643 0.607265
vt 0.640062 0.613509
vt 0.621088 0.623648
vt 0.604468 0.637326
vt 0.590833 0.653979
vt 0.580708 0.672972
vt 0.574479 0.693572
vt 0.572383 0.714987
vt 0.574496 0.736391
s 1
g Cube_3D_FireDoor_v2_Material.001.1001
usemtl 3D_FireDoor_v2_Material.001.1001
f 385/1/1 5/2/2 7/3/3 386/4/4
f 386/4/4 7/3/3 8/5/5 395/6/5
f 395/6/6 8/5/6 6/7/7 404/8/8
f 421/9/9 9/10/10 11/11/11 422/12/12
f 422/12/13 11/11/13 12/13/14 431/14/15
f 431/14/15 12/13/14 10/15/16 440/16/17
f 269/17/18 10/15/19 12/13/20 270/18/21
f 270/18/21 12/13/20 11/11/11 275/19/22
f 275/19/22 11/11/11 9/10/10 280/20/23
f 229/21/24 29/22/25 31/23/26 230/24/27
f 230/24/27 31/23/26 32/25/28 235/26/28
f 235/26/29 32/25/30 30/27/31 240/28/32
f 313/29/33 26/30/34 28/31/35 314/32/36
f 314/32/36 28/31/35 27/33/37 323/34/37
f 323/34/38 27/33/39 25/35/40 332/36/41
f 349/37/42 17/38/43 19/39/44 350/40/45
f 350/40/46 19/39/46 20/41/47 359/42/48
f 359/42/48 20/41/47 18/43/49 368/44/50
f 289/45/51 18/43/52 20/41/53 290/46/54
f 290/46/54 20/41/53 19/39/44 295/47/55
f 295/47/55 19/39/44 17/38/43 300/48/56
f 249/49/57 6/7/58 8/5/59 250/50/60
f 250/50/60 8/5/59 7/3/61 255/51/61
f 255/51/62 7/3/3 5/2/2 260/52/63
f 23/275/98 259/276/62 264/277/63 21/278/99
f 259/276/62 258/279/62 263/280/63 264/277/63
f 258/279/62 257/281/62 262/282/63 263/280/63
f 257/281/62 256/283/62 261/284/63 262/282/63
f 256/283/62 255/51/62 260/52/63 261/284/63
f 24/285/59 254/286/60 259/276/61 23/275/61
f 254/286/60 253/287/60 258/279/61 259/276/61
f 253/287/60 252/288/60 257/281/61 258/279/61
f 252/288/60 251/289/60 256/283/61 257/281/61
f 251/289/60 250/50/60 255/51/61 256/283/61
f 22/290/58 245/291/57 254/286/60 24/285/59
f 245/291/57 246/292/57 253/287/60 254/286/60
f 246/292/57 247/293/57 252/288/60 253/287/60
f 247/293/57 248/294/57 251/289/60 252/288/60
f 248/294/57 249/49/57 250/50/60 251/289/60
f 15/295/100 239/296/29 244/297/32 13/298/101
f 239/296/29 238/299/29 243/300/32 244/297/32
f 238/299/29 237/301/29 242/302/32 243/300/32
f 237/301/29 236/303/29 241/304/32 242/302/32
f 236/303/29 235/26/29 240/28/32 241/304/32
f 16/305/26 234/306/27 239/296/28 15/295/28
f 234/306/27 233/307/27 238/299/28 239/296/28
f 233/307/27 232/308/27 237/301/28 238/299/28
f 232/308/27 231/309/27 236/303/28 237/301/28
f 231/309/27 230/24/27 235/26/28 236/303/28
f 14/310/25 225/311/24 234/306/27 16/305/26
f 225/311/24 226/312/24 233/307/27 234/306/27
f 226/312/24 227/313/24 232/308/27 233/307/27
f 227/313/24 228/314/24 231/309/27 232/308/27
f 228/314/24 229/21/24 230/24/27 231/309/27
f 81/315/97 242/302/32 241/304/32 82/316/97
f 80/317/97 243/300/32 242/302/32 81/315/97
f 79/318/97 244/297/32 243/300/32 80/317/97
f 82/316/97 241/304/32 240/28/32 83/319/97
f 83/319/97 240/28/32 30/27/31 84/320/97
f 13/298/101 244/297/32 79/318/97 78/321/97
f 3/332/102 299/333/55 304/334/56 1/335/103
f 299/333/55 298/336/55 303/337/56 304/334/56
f 298/336/55 297/338/55 302/339/56 303/337/56
f 297/338/55 296/340/55 301/341/56 302/339/56
f 296/340/55 295/47/55 300/48/56 301/341/56
f 4/342/53 294/343/54 299/333/55 3/332/102
f 294/343/54 293/344/54 298/336/55 299/333/55
f 293/344/54 292/345/54 297/338/55 298/336/55
f 292/345/54 291/346/54 296/340/55 297/338/55
f 291/346/54 290/46/54 295/47/55 296/340/55
f 2/347/52 285/348/51 294/343/54 4/342/53
f 285/348/51 286/349/51 293/344/54 294/343/54
f 286/349/51 287/350/51 292/345/54 293/344/54
f 287/350/51 288/351/51 291/346/54 292/345/54
f 288/351/51 289/45/51 290/46/54 291/346/54
f 27/33/39 279/352/22 284/353/23 25/35/40
f 279/352/22 278/354/22 283/355/23 284/353/23
f 278/354/22 277/356/22 282/357/23 283/355/23
f 277/356/22 276/358/22 281/359/23 282/357/23
f 276/358/22 275/19/22 280/20/23 281/359/23
f 28/31/20 274/360/21 279/352/22 27/33/39
f 274/360/21 273/361/21 278/354/22 279/352/22
f 273/361/21 272/362/21 277/356/22 278/354/22
f 272/362/21 271/363/21 276/358/22 277/356/22
f 271/363/21 270/18/21 275/19/22 276/358/22
f 26/30/19 265/364/18 274/360/21 28/31/20
f 265/364/18 266/365/18 273/361/21 274/360/21
f 266/365/18 267/366/18 272/362/21 273/361/21
f 267/366/18 268/367/18 271/363/21 272/362/21
f 268/367/18 269/17/18 270/18/21 271/363/21
f 96/368/97 283/355/23 282/357/23 65/369/97
f 65/369/97 282/357/23 281/359/23 66/370/97
f 66/370/97 281/359/23 280/20/23 67/371/97
f 95/372/97 284/353/23 283/355/23 96/368/97
f 25/35/40 284/353/23 95/372/97 94/373/97
f 67/371/97 280/20/23 9/10/10 68/374/97
f 24/285/104 367/391/48 376/392/50 22/290/49
f 367/391/48 366/393/48 375/394/50 376/392/50
f 366/393/48 365/395/48 374/396/50 375/394/50
f 365/395/48 364/397/48 373/398/50 374/396/50
f 364/397/48 363/399/48 372/400/50 373/398/50
f 363/399/48 362/401/48 371/402/50 372/400/50
f 362/401/48 361/403/48 370/404/50 371/402/50
f 361/403/48 360/405/48 369/406/50 370/404/50
f 360/405/48 359/42/48 368/44/50 369/406/50
f 23/275/98 358/407/105 367/391/48 24/285/46
f 358/407/105 357/408/46 366/393/48 367/391/48
f 357/408/46 356/409/46 365/395/48 366/393/48
f 356/409/46 355/410/46 364/397/48 365/395/48
f 355/410/46 354/411/46 363/399/48 364/397/48
f 354/411/46 353/412/46 362/401/48 363/399/48
f 353/412/46 352/413/46 361/403/48 362/401/48
f 352/413/46 351/414/46 360/405/48 361/403/48
f 351/414/46 350/40/46 359/42/48 360/405/48
f 21/278/99 341/415/42 358/407/105 23/275/98
f 341/415/42 342/416/42 357/408/45 358/407/105
f 342/416/42 343/417/42 356/409/45 357/408/45
f 343/417/42 344/418/42 355/410/45 356/409/45
f 344/418/42 345/419/42 354/411/45 355/410/45
f 345/419/42 346/420/42 353/412/45 354/411/45
f 346/420/42 347/421/42 352/413/45 353/412/45
f 347/421/42 348/422/42 351/414/45 352/413/45
f 348/422/42 349/37/42 350/40/45 351/414/45
f 32/25/30 331/423/106 340/424/41 30/27/31
f 331/423/106 330/425/38 339/426/41 340/424/41
f 330/425/38 329/427/38 338/428/41 339/426/41
f 329/427/38 328/429/38 337/430/41 338/428/41
f 328/429/38 327/431/38 336/432/41 337/430/41
f 327/431/38 326/433/38 335/434/41 336/432/41
f 326/433/38 325/435/38 334/436/41 335/434/41
f 325/435/38 324/437/38 333/438/41 334/436/41
f 324/437/38 323/34/38 332/36/41 333/438/41
f 31/23/37 322/439/36 331/423/106 32/25/30
f 322/439/36 321/440/36 330/425/37 331/423/106
f 321/440/36 320/441/36 329/427/37 330/425/37
f 320/441/36 319/442/36 328/429/37 329/427/37
f 319/442/36 318/443/36 327/431/37 328/429/37
f 318/443/36 317/444/36 326/433/37 327/431/37
f 317/444/36 316/445/36 325/435/37 326/433/37
f 316/445/36 315/446/36 324/437/37 325/435/37
f 315/446/36 314/32/36 323/34/37 324/437/37
f 29/22/34 305/447/33 322/439/36 31/23/107
f 305/447/33 306/448/33 321/440/36 322/439/36
f 306/448/33 307/449/33 320/441/36 321/440/36
f 307/449/33 308/450/33 319/442/36 320/441/36
f 308/450/33 309/451/33 318/443/36 319/442/36
f 309/451/33 310/452/33 317/444/36 318/443/36
f 310/452/33 311/453/33 316/445/36 317/444/36
f 311/453/33 312/454/33 315/446/36 316/445/36
f 312/454/33 313/29/33 314/32/36 315/446/36
f 16/305/108 439/471/15 448/472/17 14/310/16
f 439/471/15 438/473/15 447/474/17 448/472/17
f 438/473/15 437/475/15 446/476/17 447/474/17
f 437/475/15 436/477/15 445/478/17 446/476/17
f 436/477/15 435/479/15 444/480/17 445/478/17
f 435/479/15 434/481/15 443/482/17 444/480/17
f 434/481/15 433/483/15 442/484/17 443/482/17
f 433/483/15 432/485/15 441/486/17 442/484/17
f 432/485/15 431/14/15 440/16/17 441/486/17
f 15/295/100 430/487/109 439/471/15 16/305/13
f 430/487/109 429/488/13 438/473/15 439/471/15
f 429/488/13 428/489/13 437/475/15 438/473/15
f 428/489/13 427/490/13 436/477/15 437/475/15
f 427/490/13 426/491/13 435/479/15 436/477/15
f 426/491/13 425/492/13 434/481/15 435/479/15
f 425/492/13 424/493/13 433/483/15 434/481/15
f 424/493/13 423/494/13 432/485/15 433/483/15
f 423/494/13 422/12/13 431/14/15 432/485/15
f 13/298/101 413/495/9 430/487/109 15/295/100
f 413/495/9 414/496/9 429/488/12 430/487/109
f 414/496/9 415/497/9 428/489/12 429/488/12
f 415/497/9 416/498/9 427/490/12 428/489/12
f 416/498/9 417/499/9 426/491/12 427/490/12
f 417/499/9 418/500/9 425/492/12 426/491/12
f 418/500/9 419/501/9 424/493/12 425/492/12
f 419/501/9 420/502/9 423/494/12 424/493/12
f 420/502/9 421/9/9 422/12/12 423/494/12
f 4/342/110 403/503/111 412/504/8 2/347/7
f 403/503/111 402/505/6 411/506/8 412/504/8
f 402/505/6 401/507/6 410/508/8 411/506/8
f 401/507/6 400/509/6 409/510/8 410/508/8
f 400/509/6 399/511/6 408/512/8 409/510/8
f 399/511/6 398/513/6 407/514/8 408/512/8
f 398/513/6 397/515/6 406/516/8 407/514/8
f 397/515/6 396/517/6 405/518/8 406/516/8
f 396/517/6 395/6/6 404/8/8 405/518/8
f 3/332/5 394/519/4 403/503/111 4/342/110
f 394/519/4 393/520/4 402/505/5 403/503/111
f 393/520/4 392/521/4 401/507/5 402/505/5
f 392/521/4 391/522/4 400/509/5 401/507/5
f 391/522/4 390/523/4 399/511/5 400/509/5
f 390/523/4 389/524/4 398/513/5 399/511/5
f 389/524/4 388/525/4 397/515/5 398/513/5
f 388/525/4 387/526/4 396/517/5 397/515/5
f 387/526/4 386/4/4 395/6/5 396/517/5
f 1/335/103 377/527/1 394/519/4 3/332/102
f 377/527/1 378/528/1 393/520/4 394/519/4
f 378/528/1 379/529/1 392/521/4 393/520/4
f 379/529/1 380/530/1 391/522/4 392/521/4
f 380/530/1 381/531/1 390/523/4 391/522/4
f 381/531/1 382/532/1 389/524/4 390/523/4
f 382/532/1 383/533/1 388/525/4 389/524/4
f 383/533/1 384/534/1 387/526/4 388/525/4
f 384/534/1 385/1/1 386/4/4 387/526/4
f 30/27/31 340/424/41 85/535/97 84/320/97
f 77/536/97 413/495/9 13/298/101 78/321/97
f 93/537/97 332/36/41 25/35/40 94/373/97
f 92/538/97 333/438/41 332/36/41 93/537/97
f 91/539/97 334/436/41 333/438/41 92/538/97
f 9/10/10 421/9/9 69/540/97 68/374/97
f 69/540/97 421/9/9 420/502/9 70/541/97
f 70/541/97 420/502/9 419/501/9 71/542/97
f 90/543/97 335/434/41 334/436/41 91/539/97
f 89/544/97 336/432/41 335/434/41 90/543/97
f 88/545/97 337/430/41 336/432/41 89/544/97
f 87/546/97 338/428/41 337/430/41 88/545/97
f 86/547/97 339/426/41 338/428/41 87/546/97
f 71/542/97 419/501/9 418/500/9 72/548/97
f 72/548/97 418/500/9 417/499/9 73/549/97
f 73/549/97 417/499/9 416/498/9 74/550/97
f 74/550/97 416/498/9 415/497/9 75/551/97
f 75/551/97 415/497/9 414/496/9 76/552/97
f 85/535/97 340/424/41 339/426/41 86/547/97
f 76/552/97 414/496/9 413/495/9 77/536/97
f 49/553/96 262/282/63 261/284/63 48/554/96
f 50/555/96 263/280/63 262/282/63 49/553/96
f 51/556/96 264/277/63 263/280/63 50/555/96
f 264/277/63 51/556/96 52/557/96 21/278/99
f 53/558/96 341/415/42 21/278/99 52/557/96
f 54/559/96 342/416/42 341/415/42 53/558/96
f 48/554/96 261/284/63 260/52/63 47/560/96
f 47/560/96 260/52/63 5/2/2 46/561/96
f 385/1/1 45/562/96 46/561/96 5/2/2
f 45/562/96 385/1/1 384/534/1 44/563/96
f 44/563/96 384/534/1 383/533/1 43/564/96
f 55/565/96 343/417/42 342/416/42 54/559/96
f 56/566/96 344/418/42 343/417/42 55/565/96
f 57/567/96 345/419/42 344/418/42 56/566/96
f 58/568/96 346/420/42 345/419/42 57/567/96
f 59/569/96 347/421/42 346/420/42 58/568/96
f 60/570/96 348/422/42 347/421/42 59/569/96
f 61/571/96 349/37/42 348/422/42 60/570/96
f 349/37/42 61/571/96 62/572/96 17/38/43
f 63/573/96 300/48/56 17/38/43 62/572/96
f 64/574/96 301/341/56 300/48/56 63/573/96
f 33/575/96 302/339/56 301/341/56 64/574/96
f 34/576/96 303/337/56 302/339/56 33/575/96
f 35/577/96 304/334/56 303/337/56 34/576/96
f 304/334/56 35/577/96 36/578/96 1/335/103
f 37/579/96 377/527/1 1/335/103 36/578/96
f 38/580/96 378/528/1 377/527/1 37/579/96
f 39/581/96 379/529/1 378/528/1 38/580/96
f 40/582/96 380/530/1 379/529/1 39/581/96
f 41/583/96 381/531/1 380/530/1 40/582/96
f 42/584/96 382/532/1 381/531/1 41/583/96
f 43/564/96 383/533/1 382/532/1 42/584/96
g Cube_3D_FireDoor_v2_Material.002.1001
usemtl 3D_FireDoor_v2_Material.002.1001
f 171/67/64 169/68/65 200/69/65 199/70/64
f 54/71/66 53/72/67 117/73/67 118/74/66
f 68/75/68 69/76/69 133/77/69 132/78/68
f 173/79/66 171/67/64 199/70/64 198/80/66
f 53/72/67 52/81/70 116/82/70 117/73/67
f 67/83/71 68/75/68 132/78/68 131/84/71
f 176/85/67 173/79/66 198/80/66 197/86/67
f 52/81/70 51/87/72 115/88/72 116/82/70
f 66/89/73 67/83/71 131/84/71 129/90/73
f 179/91/70 176/85/67 197/86/67 196/92/70
f 51/87/72 50/93/74 114/94/74 115/88/72
f 65/95/75 66/89/73 129/90/73 130/96/75
f 182/97/72 179/91/70 196/92/70 195/98/72
f 50/93/74 49/99/76 113/100/76 114/94/74
f 186/101/74 182/97/72 195/98/72 193/102/74
f 49/99/76 48/103/77 112/104/77 113/100/76
f 185/105/76 186/101/74 193/102/74 194/106/76
f 48/103/77 47/107/78 111/108/78 112/104/77
f 174/109/77 185/110/76 194/111/76 211/112/77
f 47/107/78 46/113/79 110/114/79 111/108/78
f 169/68/65 167/115/80 201/116/80 200/69/65
f 46/113/79 45/117/81 109/118/81 110/114/79
f 167/115/80 165/119/82 202/120/82 201/116/80
f 45/117/81 44/121/83 108/122/83 109/118/81
f 165/119/82 163/123/84 203/124/84 202/120/82
f 44/121/83 43/125/85 107/126/85 108/122/83
f 163/123/84 161/127/86 204/128/86 203/124/84
f 43/125/85 42/129/87 106/130/87 107/126/85
f 161/127/86 212/131/88 205/132/88 204/128/86
f 42/129/87 41/133/89 105/134/89 106/130/87
f 212/131/88 213/135/90 206/136/90 205/132/88
f 41/133/89 40/137/91 104/138/91 105/134/89
f 213/135/90 214/139/92 192/140/92 206/136/90
f 40/137/91 39/141/93 103/142/93 104/138/91
f 214/139/92 215/143/94 191/144/94 192/140/92
f 39/141/93 38/145/95 102/146/95 103/142/93
f 215/143/94 216/147/75 188/148/75 191/144/94
f 38/145/95 37/149/69 101/150/69 102/146/95
f 216/147/75 217/151/73 184/152/73 188/148/75
f 37/149/69 36/153/68 100/154/68 101/150/69
f 217/151/73 218/155/71 181/156/71 184/152/73
f 36/153/68 35/157/71 99/158/71 100/154/68
f 218/155/71 219/159/68 178/160/68 181/156/71
f 35/157/71 34/161/73 97/162/73 99/158/71
f 219/159/68 220/163/69 175/164/69 178/160/68
f 34/161/73 33/165/75 98/166/75 97/162/73
f 220/163/69 221/167/95 172/168/95 175/164/69
f 221/167/95 222/169/93 170/170/93 172/168/95
f 222/169/93 223/171/91 168/172/91 170/170/93
f 223/171/91 224/173/89 166/174/89 168/172/91
f 96/175/94 65/176/75 130/177/75 160/178/94
f 224/173/89 189/179/87 164/180/87 166/174/89
f 95/181/92 96/175/94 160/178/94 159/182/92
f 189/179/87 190/183/85 162/184/85 164/180/87
f 94/185/90 95/181/92 159/182/92 158/186/90
f 93/187/88 94/185/90 158/186/90 157/188/88
f 97/162/96 98/166/96 194/106/96 193/102/96
f 124/189/96 123/190/96 162/184/96 207/191/96
f 139/192/97 140/193/97 161/127/97 163/123/97
f 123/190/96 122/194/96 164/180/96 162/184/96
f 138/195/97 139/192/97 163/123/97 165/119/97
f 122/194/96 121/196/96 166/174/96 164/180/96
f 137/197/97 138/195/97 165/119/97 167/115/97
f 121/196/96 120/198/96 168/172/96 166/174/96
f 136/199/97 137/197/97 167/115/97 169/68/97
f 120/198/96 119/200/96 170/170/96 168/172/96
f 135/201/97 136/199/97 169/68/97 171/67/97
f 119/200/96 118/74/96 172/168/96 170/170/96
f 134/202/97 135/201/97 171/67/97 173/79/97
f 160/178/97 130/177/97 185/110/97 174/109/97
f 118/74/96 117/73/96 175/164/96 172/168/96
f 133/77/97 134/202/97 173/79/97 176/85/97
f 159/182/97 160/178/97 174/109/97 177/203/97
f 117/73/96 116/82/96 178/160/96 175/164/96
f 132/78/97 133/77/97 176/85/97 179/91/97
f 158/186/97 159/182/97 177/203/97 180/204/97
f 116/82/96 115/88/96 181/156/96 178/160/96
f 131/84/97 132/78/97 179/91/97 182/97/97
f 157/188/97 158/186/97 180/204/97 183/205/97
f 115/88/96 114/94/96 184/152/96 181/156/96
f 129/90/97 131/84/97 182/97/97 186/101/97
f 156/206/97 157/188/97 183/205/97 187/207/97
f 114/94/96 113/100/96 188/148/96 184/152/96
f 130/96/97 129/90/97 186/101/97 185/105/97
f 155/208/97 156/206/97 187/207/97 190/183/97
f 113/100/96 112/104/96 191/144/96 188/148/96
f 154/209/97 155/208/97 190/183/97 189/179/97
f 112/104/96 111/108/96 192/140/96 191/144/96
f 140/193/97 141/210/97 212/131/97 161/127/97
f 125/211/96 124/189/96 207/191/96 208/212/96
f 99/158/96 97/162/96 193/102/96 195/98/96
f 141/210/97 142/213/97 213/135/97 212/131/97
f 126/214/96 125/211/96 208/212/96 209/215/96
f 100/154/96 99/158/96 195/98/96 196/92/96
f 142/213/97 143/216/97 214/139/97 213/135/97
f 127/217/96 126/214/96 209/215/96 210/218/96
f 101/150/96 100/154/96 196/92/96 197/86/96
f 143/216/97 144/219/97 215/143/97 214/139/97
f 128/220/96 127/217/96 210/218/96 211/112/96
f 102/146/96 101/150/96 197/86/96 198/80/96
f 144/219/97 145/221/97 216/147/97 215/143/97
f 98/222/96 128/220/96 211/112/96 194/111/96
f 103/142/96 102/146/96 198/80/96 199/70/96
f 145/221/97 146/223/97 217/151/97 216/147/97
f 104/138/96 103/142/96 199/70/96 200/69/96
f 146/223/97 147/224/97 218/155/97 217/151/97
f 105/134/96 104/138/96 200/69/96 201/116/96
f 147/224/97 148/225/97 219/159/97 218/155/97
f 106/130/96 105/134/96 201/116/96 202/120/96
f 148/225/97 149/226/97 220/163/97 219/159/97
f 107/126/96 106/130/96 202/120/96 203/124/96
f 149/226/97 150/227/97 221/167/97 220/163/97
f 108/122/96 107/126/96 203/124/96 204/128/96
f 150/227/97 151/228/97 222/169/97 221/167/97
f 109/118/96 108/122/96 204/128/96 205/132/96
f 151/228/97 152/229/97 223/171/97 222/169/97
f 110/114/96 109/118/96 205/132/96 206/136/96
f 152/229/97 153/230/97 224/173/97 223/171/97
f 111/108/96 110/114/96 206/136/96 192/140/96
f 153/230/97 154/209/97 189/179/97 224/173/97
f 69/76/69 70/231/95 134/202/95 133/77/69
f 55/232/64 54/71/66 118/74/66 119/200/64
f 190/183/85 187/207/83 207/191/83 162/184/85
f 70/231/95 71/233/93 135/201/93 134/202/95
f 56/234/65 55/232/64 119/200/64 120/198/65
f 187/207/83 183/205/81 208/212/81 207/191/83
f 71/233/93 72/235/91 136/199/91 135/201/93
f 57/236/80 56/234/65 120/198/65 121/196/80
f 183/205/81 180/204/79 209/215/79 208/212/81
f 72/235/91 73/237/89 137/197/89 136/199/91
f 58/238/82 57/236/80 121/196/80 122/194/82
f 180/204/79 177/203/78 210/218/78 209/215/79
f 73/237/89 74/239/87 138/195/87 137/197/89
f 59/240/84 58/238/82 122/194/82 123/190/84
f 177/203/78 174/109/77 211/112/77 210/218/78
f 74/239/87 75/241/85 139/192/85 138/195/87
f 60/242/86 59/240/84 123/190/84 124/189/86
f 75/241/85 76/243/83 140/193/83 139/192/85
f 61/244/88 60/242/86 124/189/86 125/211/88
f 76/243/83 77/245/81 141/210/81 140/193/83
f 62/246/90 61/244/88 125/211/88 126/214/90
f 77/245/81 78/247/79 142/213/79 141/210/81
f 63/248/92 62/246/90 126/214/90 127/217/92
f 78/247/79 79/249/78 143/216/78 142/213/79
f 64/250/94 63/248/92 127/217/92 128/220/94
f 79/249/78 80/251/77 144/219/77 143/216/78
f 33/252/75 64/250/94 128/220/94 98/222/75
f 80/251/77 81/253/76 145/221/76 144/219/77
f 81/253/76 82/254/74 146/223/74 145/221/76
f 82/254/74 83/255/72 147/224/72 146/223/74
f 83/255/72 84/256/70 148/225/70 147/224/72
f 84/256/70 85/257/67 149/226/67 148/225/70
f 85/257/67 86/258/66 150/227/66 149/226/67
f 86/258/66 87/259/64 151/228/64 150/227/66
f 87/259/64 88/260/65 152/229/65 151/228/64
f 88/260/65 89/261/80 153/230/80 152/229/65
f 89/261/80 90/262/82 154/209/82 153/230/80
f 90/262/82 91/263/84 155/208/84 154/209/82
f 91/263/84 92/264/86 156/206/86 155/208/84
f 92/264/86 93/187/88 157/188/88 156/206/86
g Cube_3D_FireDoor_v2_Material.003.1001
usemtl 3D_FireDoor_v2_Material.003.1001
f 265/53/18 26/54/19 18/55/52 289/56/51
f 404/57/8 6/58/7 14/59/16 448/60/17
f 225/61/24 14/59/25 6/58/58 249/62/57
f 305/63/33 29/64/34 22/65/49 376/66/50
f 29/265/25 229/266/24 245/267/57 22/268/58
f 229/266/24 228/269/24 246/270/57 245/267/57
f 228/269/24 227/271/24 247/272/57 246/270/57
f 227/271/24 226/273/24 248/274/57 247/272/57
f 226/273/24 225/61/24 249/62/57 248/274/57
f 10/322/19 269/323/18 285/324/51 2/325/52
f 269/323/18 268/326/18 286/327/51 285/324/51
f 268/326/18 267/328/18 287/329/51 286/327/51
f 267/328/18 266/330/18 288/331/51 287/329/51
f 266/330/18 265/53/18 289/56/51 288/331/51
f 26/54/34 313/375/33 368/376/50 18/55/49
f 313/375/33 312/377/33 369/378/50 368/376/50
f 312/377/33 311/379/33 370/380/50 369/378/50
f 311/379/33 310/381/33 371/382/50 370/380/50
f 310/381/33 309/383/33 372/384/50 371/382/50
f 309/383/33 308/385/33 373/386/50 372/384/50
f 308/385/33 307/387/33 374/388/50 373/386/50
f 307/387/33 306/389/33 375/390/50 374/388/50
f 306/389/33 305/63/33 376/66/50 375/390/50
f 2/325/7 412/455/8 440/456/17 10/322/16
f 412/455/8 411/457/8 441/458/17 440/456/17
f 411/457/8 410/459/8 442/460/17 441/458/17
f 410/459/8 409/461/8 443/462/17 442/460/17
f 409/461/8 408/463/8 444/464/17 443/462/17
f 408/463/8 407/465/8 445/466/17 444/464/17
f 407/465/8 406/467/8 446/468/17 445/466/17
f 406/467/8 405/469/8 447/470/17 446/468/17
f 405/469/8 404/57/8 448/60/17 447/470/17
