# File produced by Open Asset Import Library (http://www.assimp.sf.net)
# (assimp v3.1.137539927)

mtllib 3D_Light_v2.mtl

# vertex positions
v -1.000000 0.077665 0.000000
v -0.980785 0.077665 0.195090
v -1.078864 0.052665 0.214599
v -1.100000 0.052665 0.000000
v 0.923880 0.077665 0.382683
v 0.980785 0.077665 0.195090
v 1.078864 0.052665 0.214599
v 1.016267 0.052665 0.420952
v -0.923880 0.077665 0.382683
v -1.016267 0.052665 0.420952
v 1.000000 0.077665 0.000000
v 1.100000 0.052665 0.000000
v -0.831470 0.077665 0.555570
v -0.914617 0.052665 0.611127
v 0.980785 0.077665 -0.195090
v 1.078864 0.052665 -0.214599
v -0.707107 0.077665 0.707107
v -0.777817 0.052665 0.777817
v 0.923880 0.077665 -0.382683
v 1.016267 0.052665 -0.420952
v -0.555570 0.077665 0.831470
v -0.611127 0.052665 0.914617
v 0.831470 0.077665 -0.555570
v 0.914617 0.052665 -0.611127
v -0.382683 0.077665 0.923880
v -0.420952 0.052665 1.016267
v 0.000000 0.077665 -1.000000
v -0.195090 0.077665 -0.980785
v -0.214599 0.052665 -1.078864
v 0.000000 0.052665 -1.100000
v 0.707107 0.077665 -0.707107
v 0.777817 0.052665 -0.777817
v 0.195090 0.156218 0.980785
v 0.382683 0.156218 0.923880
v 0.382683 0.077665 0.923880
v 0.195090 0.077665 0.980785
v 0.382683 0.156218 -0.923880
v 0.195090 0.156218 -0.980785
v 0.195090 0.077665 -0.980785
v 0.382683 0.077665 -0.923880
v -0.555570 0.156218 -0.831470
v -0.707107 0.156218 -0.707107
v -0.707107 0.077665 -0.707107
v -0.555570 0.077665 -0.831470
v 0.000000 0.156218 1.000000
v 0.000000 0.077665 1.000000
v 0.555570 0.156218 -0.831470
v 0.555570 0.077665 -0.831470
v -0.382683 0.156218 -0.923880
v -0.382683 0.077665 -0.923880
v -0.195090 0.156218 0.980785
v -0.195090 0.077665 0.980785
v 0.707107 0.156218 -0.707107
v -0.195090 0.156218 -0.980785
v -0.382683 0.156218 0.923880
v 0.831470 0.156218 -0.555570
v 0.000000 0.156218 -1.000000
v -0.555570 0.156218 0.831470
v 0.923880 0.156218 -0.382683
v -0.707107 0.156218 0.707107
v 0.980785 0.156218 -0.195090
v -0.831470 0.156218 0.555570
v 1.000000 0.156218 0.000000
v -0.923880 0.156218 0.382683
v 0.980785 0.156218 0.195090
v -0.980785 0.156218 0.195090
v 0.923880 0.156218 0.382683
v -1.000000 0.156218 0.000000
v 0.831470 0.156218 0.555570
v 0.831470 0.077665 0.555570
v -0.980785 0.156218 -0.195090
v -0.980785 0.077665 -0.195090
v 0.707107 0.156218 0.707107
v 0.707107 0.077665 0.707107
v -0.923880 0.156218 -0.382683
v -0.923880 0.077665 -0.382683
v 0.555570 0.156218 0.831470
v 0.555570 0.077665 0.831470
v -0.831470 0.156218 -0.555570
v -0.831470 0.077665 -0.555570
v -0.777817 0.052665 -0.777817
v -0.914617 0.052665 -0.611127
v -0.914617 0.602665 -0.611127
v -0.777817 0.602665 -0.777817
v 0.214599 0.052665 -1.078864
v 0.000000 0.602665 -1.100000
v 0.214599 0.602665 -1.078864
v 0.420952 0.052665 1.016267
v 0.611127 0.052665 0.914617
v 0.611127 0.602665 0.914617
v 0.420952 0.602665 1.016267
v -1.016267 0.052665 -0.420952
v -1.016267 0.602665 -0.420952
v 0.777817 0.052665 0.777817
v 0.777817 0.602665 0.777817
v -1.078864 0.052665 -0.214599
v -1.078864 0.602665 -0.214599
v 0.914617 0.052665 0.611127
v 0.914617 0.602665 0.611127
v -1.100000 0.602665 0.000000
v 1.016267 0.602665 0.420952
v -1.078864 0.602665 0.214599
v 1.078864 0.602665 0.214599
v -1.016267 0.602665 0.420952
v 1.100000 0.602665 0.000000
v -0.914617 0.602665 0.611127
v 1.078864 0.602665 -0.214599
v -0.777817 0.602665 0.777817
v 1.016267 0.602665 -0.420952
v -0.611127 0.602665 0.914617
v 0.914617 0.602665 -0.611127
v -0.420952 0.602665 1.016267
v -0.214599 0.602665 -1.078864
v 0.777817 0.602665 -0.777817
v -0.214599 0.052665 1.078864
v -0.214599 0.602665 1.078864
v -0.420952 0.052665 -1.016267
v -0.420952 0.602665 -1.016267
v 0.611127 0.052665 -0.914617
v 0.611127 0.602665 -0.914617
v 0.000000 0.052665 1.100000
v 0.000000 0.602665 1.100000
v -0.611127 0.052665 -0.914617
v -0.611127 0.602665 -0.914617
v 0.420952 0.052665 -1.016267
v 0.420952 0.602665 -1.016267
v 0.214599 0.052665 1.078864
v 0.214599 0.602665 1.078864
v -0.008461 0.156218 -0.932340
v 0.185234 0.156218 -0.841326
v 0.376452 0.156218 -0.713338
v 0.555570 0.156218 -0.555570
v 0.713338 0.156218 -0.376452
v 0.841326 0.156218 -0.185234
v 0.932340 0.156218 0.008461
v -0.209838 0.156218 -0.846217
v -0.017181 0.156218 -0.724287
v 0.184229 0.156218 -0.566432
v 0.382683 0.156218 -0.382683
v 0.566432 0.156218 -0.184229
v 0.724287 0.156218 0.017181
v 0.846217 0.156218 0.209838
v -0.401302 0.156218 -0.725726
v -0.216781 0.156218 -0.577261
v -0.013713 0.156218 -0.396396
v 0.195090 0.156218 -0.195090
v 0.396396 0.156218 0.013713
v 0.577261 0.156218 0.216781
v 0.725726 0.156218 0.401302
v -0.575496 0.156218 -0.575496
v -0.405897 0.156218 -0.405897
v -0.209766 0.156218 -0.209766
v 0.000000 0.156218 0.000000
v 0.209766 0.156218 0.209766
v 0.405897 0.156218 0.405897
v 0.575496 0.156218 0.575496
v -0.725726 0.156218 -0.401302
v -0.577261 0.156218 -0.216781
v -0.396396 0.156218 -0.013713
v -0.195090 0.156218 0.195090
v 0.013713 0.156218 0.396396
v 0.216781 0.156218 0.577261
v 0.401302 0.156218 0.725726
v -0.846217 0.156218 -0.209838
v -0.724287 0.156218 -0.017181
v -0.566432 0.156218 0.184229
v -0.382683 0.156218 0.382683
v -0.184229 0.156218 0.566432
v 0.017181 0.156218 0.724287
v 0.209838 0.156218 0.846217
v -0.932340 0.156218 -0.008461
v -0.841326 0.156218 0.185234
v -0.713338 0.156218 0.376452
v -0.555570 0.156218 0.555570
v -0.376452 0.156218 0.713338
v -0.185234 0.156218 0.841326
v 0.008461 0.156218 0.932340

# UV coordinates
vt 0.395666 0.585131
vt 0.447139 0.563811
vt 0.460536 0.588875
vt 0.403916 0.612328
vt 0.341023 0.030333
vt 0.285310 0.030333
vt 0.282524 0.002049
vt 0.343809 0.002049
vt 0.493463 0.532858
vt 0.511492 0.554827
vt 0.230667 0.041202
vt 0.222417 0.014005
vt 0.532858 0.493463
vt 0.554827 0.511492
vt 0.179194 0.062522
vt 0.165797 0.037458
vt 0.563811 0.447139
vt 0.588875 0.460536
vt 0.132870 0.093475
vt 0.114841 0.071506
vt 0.585131 0.395666
vt 0.612328 0.403916
vt 0.093475 0.132870
vt 0.071506 0.114841
vt 0.596001 0.341023
vt 0.624284 0.343809
vt 0.041202 0.395666
vt 0.062522 0.447139
vt 0.037458 0.460536
vt 0.014005 0.403916
vt 0.062522 0.179194
vt 0.037458 0.165797
vt 0.949202 0.210202
vt 0.949202 0.154489
vt 0.971527 0.154489
vt 0.971527 0.210202
vt 0.949202 0.766728
vt 0.949202 0.720404
vt 0.971527 0.720404
vt 0.971527 0.766728
vt 0.949202 0.503932
vt 0.949202 0.452459
vt 0.971527 0.452459
vt 0.971527 0.503932
vt 0.949202 0.264845
vt 0.971527 0.264845
vt 0.949202 0.806123
vt 0.971527 0.806123
vt 0.949202 0.558575
vt 0.971527 0.558575
vt 0.949202 0.316317
vt 0.971527 0.316317
vt 0.975626 0.048373
vt 0.975626 0.002049
vt 0.997951 0.002049
vt 0.997951 0.048373
vt 0.949202 0.614288
vt 0.971527 0.614288
vt 0.949202 0.362642
vt 0.971527 0.362642
vt 0.975626 0.099846
vt 0.997951 0.099846
vt 0.949202 0.668931
vt 0.971527 0.668931
vt 0.949202 0.402037
vt 0.971527 0.402037
vt 0.975626 0.154489
vt 0.997951 0.154489
vt 0.975626 0.452459
vt 0.975626 0.406135
vt 0.997951 0.406135
vt 0.997951 0.452459
vt 0.975626 0.210202
vt 0.997951 0.210202
vt 0.975626 0.503932
vt 0.997951 0.503932
vt 0.975626 0.264845
vt 0.997951 0.264845
vt 0.975626 0.558575
vt 0.997951 0.558575
vt 0.975626 0.316317
vt 0.997951 0.316317
vt 0.975626 0.614288
vt 0.997951 0.614288
vt 0.975626 0.362642
vt 0.997951 0.362642
vt 0.975626 0.668931
vt 0.997951 0.668931
vt 0.975626 0.402037
vt 0.997951 0.402037
vt 0.975626 0.720404
vt 0.997951 0.720404
vt 0.949202 0.048373
vt 0.949202 0.002049
vt 0.971527 0.002049
vt 0.971527 0.048373
vt 0.975626 0.766728
vt 0.997951 0.766728
vt 0.949202 0.099846
vt 0.971527 0.099846
vt 0.975626 0.806123
vt 0.997951 0.806123
vt 0.949202 0.406135
vt 0.971527 0.406135
vt 0.784694 0.835164
vt 0.784694 0.886121
vt 0.628382 0.886121
vt 0.628382 0.835164
vt 0.784694 0.540425
vt 0.784694 0.597045
vt 0.628383 0.597045
vt 0.628383 0.540425
vt 0.945104 0.274352
vt 0.945104 0.334459
vt 0.788792 0.334459
vt 0.788792 0.274352
vt 0.945104 0.446134
vt 0.945104 0.489469
vt 0.788792 0.489469
vt 0.788792 0.446134
vt 0.945104 0.391079
vt 0.788792 0.391079
vt 0.945104 0.540426
vt 0.788792 0.540425
vt 0.945104 0.442036
vt 0.788792 0.442036
vt 0.945104 0.597045
vt 0.788792 0.597045
vt 0.784694 0.002049
vt 0.784694 0.045384
vt 0.628382 0.045384
vt 0.628382 0.002049
vt 0.945104 0.657152
vt 0.788792 0.657152
vt 0.784694 0.096341
vt 0.628382 0.096341
vt 0.945104 0.718437
vt 0.788792 0.718437
vt 0.784694 0.152960
vt 0.628382 0.152960
vt 0.945104 0.778544
vt 0.788792 0.778544
vt 0.784694 0.213068
vt 0.628382 0.213068
vt 0.945104 0.835164
vt 0.788792 0.835164
vt 0.784694 0.274352
vt 0.628382 0.274352
vt 0.945104 0.886121
vt 0.788792 0.886121
vt 0.784694 0.334459
vt 0.628382 0.334459
vt 0.945104 0.002049
vt 0.945104 0.045384
vt 0.788792 0.045384
vt 0.788792 0.002049
vt 0.784694 0.657152
vt 0.628383 0.657152
vt 0.784694 0.391079
vt 0.628382 0.391079
vt 0.945104 0.096341
vt 0.788792 0.096341
vt 0.784694 0.718437
vt 0.628383 0.718437
vt 0.784694 0.442036
vt 0.628382 0.442036
vt 0.945104 0.152960
vt 0.788792 0.152960
vt 0.784694 0.778544
vt 0.628382 0.778544
vt 0.784694 0.446134
vt 0.784694 0.489469
vt 0.628383 0.489469
vt 0.628383 0.446134
vt 0.945104 0.213068
vt 0.788792 0.213068
vt 0.395666 0.041202
vt 0.403916 0.014005
vt 0.341023 0.596001
vt 0.343809 0.624284
vt 0.447139 0.062522
vt 0.460536 0.037458
vt 0.285310 0.596001
vt 0.282524 0.624284
vt 0.563811 0.179195
vt 0.532858 0.132870
vt 0.554827 0.114841
vt 0.588875 0.165797
vt 0.493463 0.093475
vt 0.511492 0.071506
vt 0.030333 0.285310
vt 0.030333 0.341023
vt 0.002049 0.343809
vt 0.002049 0.282524
vt 0.230667 0.585131
vt 0.222417 0.612328
vt 0.132870 0.532858
vt 0.179194 0.563811
vt 0.165797 0.588875
vt 0.114841 0.554827
vt 0.585131 0.230667
vt 0.612328 0.222417
vt 0.041202 0.230667
vt 0.014005 0.222417
vt 0.093475 0.493463
vt 0.071506 0.511492
vt 0.596001 0.285310
vt 0.624284 0.282524
vt 0.631646 0.051408
vt 0.549147 0.000998
vt 0.645553 0.020174
vt 0.736366 0.057790
vt 0.711338 0.123272
vt 0.818095 0.112400
vt 0.784460 0.212516
vt 0.887600 0.181905
vt 0.847442 0.314288
vt 0.942210 0.263634
vt 0.897072 0.423197
vt 0.979826 0.354447
vt 0.930651 0.533578
vt 0.999002 0.450853
vt 0.946129 0.639765
vt 0.999002 0.549147
vt 0.942210 0.736366
vt 0.979826 0.645554
vt 0.522484 0.063421
vt 0.450853 0.000998
vt 0.597179 0.149968
vt 0.670844 0.255027
vt 0.739322 0.372080
vt 0.798604 0.494049
vt 0.845031 0.613666
vt 0.875494 0.723855
vt 0.887600 0.818095
vt 0.413077 0.093367
vt 0.354447 0.020174
vt 0.480005 0.191462
vt 0.551117 0.307803
vt 0.622005 0.434787
vt 0.688205 0.564277
vt 0.745431 0.688039
vt 0.789811 0.798187
vt 0.818095 0.887600
vt 0.307628 0.140097
vt 0.263634 0.057790
vt 0.364320 0.246160
vt 0.429881 0.368817
vt 0.500000 0.500000
vt 0.570119 0.631183
vt 0.635680 0.753839
vt 0.692372 0.859903
vt 0.736366 0.942210
vt 0.210189 0.201813
vt 0.181905 0.112400
vt 0.254569 0.311960
vt 0.311795 0.435723
vt 0.377995 0.565213
vt 0.448883 0.692197
vt 0.519995 0.808538
vt 0.586923 0.906633
vt 0.645553 0.979826
vt 0.124506 0.276145
vt 0.112400 0.181905
vt 0.154969 0.386334
vt 0.201396 0.505951
vt 0.260678 0.627920
vt 0.329156 0.744973
vt 0.402821 0.850032
vt 0.477516 0.936579
vt 0.549147 0.999002
vt 0.053871 0.360235
vt 0.057790 0.263634
vt 0.069349 0.466422
vt 0.102928 0.576802
vt 0.152558 0.685712
vt 0.215540 0.787484
vt 0.288662 0.876728
vt 0.368354 0.948592
vt 0.450853 0.999002
vt 0.000998 0.450853
vt 0.020174 0.354446
vt 0.000998 0.549147
vt 0.020174 0.645553
vt 0.057790 0.736366
vt 0.112400 0.818095
vt 0.181905 0.887600
vt 0.263634 0.942210
vt 0.354446 0.979826

# vertex normals
vn 0.242512 -0.970148 0.000000
vn 0.237909 -0.970135 -0.047302
vn -0.224108 -0.970136 -0.092803
vn -0.237909 -0.970135 -0.047302
vn 0.224108 -0.970136 -0.092803
vn -0.242512 -0.970148 -0.000000
vn 0.201708 -0.970138 -0.134705
vn -0.237909 -0.970135 0.047302
vn 0.171507 -0.970140 -0.171507
vn -0.224108 -0.970136 0.092803
vn 0.134705 -0.970138 -0.201708
vn -0.201708 -0.970138 0.134705
vn 0.092803 -0.970136 -0.224108
vn 0.000000 -0.970148 0.242512
vn 0.047302 -0.970135 0.237909
vn -0.171507 -0.970140 0.171507
vn -0.195097 -0.000000 -0.980784
vn -0.382690 -0.000000 -0.923877
vn -0.382690 0.000000 0.923877
vn -0.195097 0.000000 0.980784
vn 0.555577 0.000000 0.831465
vn 0.707107 0.000000 0.707107
vn -0.000000 -0.000000 -1.000000
vn -0.555577 0.000000 0.831465
vn 0.382690 0.000000 0.923877
vn 0.195097 0.000000 -0.980784
vn -0.707107 0.000000 0.707107
vn 0.195097 0.000000 0.980784
vn 0.382690 0.000000 -0.923877
vn -0.831465 0.000000 0.555577
vn 0.000000 0.000000 1.000000
vn 0.555577 0.000000 -0.831465
vn -0.923877 0.000000 0.382690
vn 0.707107 0.000000 -0.707107
vn -0.980784 0.000000 0.195097
vn 0.831465 0.000000 -0.555577
vn -1.000000 -0.000000 -0.000000
vn 0.923877 0.000000 -0.382690
vn -0.980784 -0.000000 -0.195097
vn 0.980784 0.000000 -0.195097
vn -0.923877 -0.000000 -0.382690
vn 1.000000 0.000000 0.000000
vn -0.831465 -0.000000 -0.555577
vn 0.980784 0.000000 0.195097
vn -0.707107 -0.000000 -0.707107
vn 0.923877 0.000000 0.382690
vn -0.555577 -0.000000 -0.831465
vn 0.831465 0.000000 0.555577
vn -0.201708 -0.970138 -0.134705
vn 0.237909 -0.970135 0.047302
vn -0.171507 -0.970140 -0.171507
vn 0.224108 -0.970136 0.092803
vn -0.047302 -0.970135 -0.237909
vn -0.092803 -0.970136 -0.224108
vn -0.134705 -0.970138 -0.201708
vn -0.092803 -0.970136 0.224108
vn -0.047302 -0.970135 0.237909
vn 0.201708 -0.970138 0.134705
vn 0.134705 -0.970138 0.201708
vn 0.171507 -0.970140 0.171507
vn -0.000000 -0.970148 -0.242512
vn -0.134705 -0.970138 0.201708
vn 0.092803 -0.970136 0.224108
vn 0.047302 -0.970135 -0.237909
vn -0.000000 -1.000000 -0.000000

# Mesh
g Circle
usemtl DFE
f 1/1/1 2/2/2 3/3/2 4/4/1
f 7/7/4 8/8/3 5/5/3 6/6/4
f 2/2/2 9/9/5 10/10/5 3/3/2
f 12/12/6 7/7/4 6/6/4 11/11/6
f 13/13/7 14/14/7 10/10/5 9/9/5
f 16/16/8 12/12/6 11/11/6 15/15/8
f 17/17/9 18/18/9 14/14/7 13/13/7
f 20/20/10 16/16/8 15/15/8 19/19/10
f 21/21/11 22/22/11 18/18/9 17/17/9
f 20/20/10 19/19/10 23/23/12 24/24/12
f 25/25/13 26/26/13 22/22/11 21/21/11
f 30/30/14 27/27/14 28/28/15 29/29/15
f 24/24/12 23/23/12 31/31/16 32/32/16
f 34/34/18 35/35/18 36/36/17 33/33/17
f 40/40/19 37/37/19 38/38/20 39/39/20
f 44/44/21 41/41/21 42/42/22 43/43/22
f 33/33/17 36/36/17 46/46/23 45/45/23
f 48/48/24 47/47/24 37/37/19 40/40/19
f 50/50/25 49/49/25 41/41/21 44/44/21
f 45/45/23 46/46/23 52/52/26 51/51/26
f 31/56/27 53/53/27 47/54/24 48/55/24
f 28/58/28 54/57/28 49/49/25 50/50/25
f 51/51/26 52/52/26 25/60/29 55/59/29
f 23/62/30 56/61/30 53/53/27 31/56/27
f 27/64/31 57/63/31 54/57/28 28/58/28
f 55/59/29 25/60/29 21/66/32 58/65/32
f 19/68/33 59/67/33 56/61/30 23/62/30
f 58/70/32 21/71/32 17/72/34 60/69/34
f 15/74/35 61/73/35 59/67/33 19/68/33
f 60/69/34 17/72/34 13/76/36 62/75/36
f 11/78/37 63/77/37 61/73/35 15/74/35
f 62/75/36 13/76/36 9/80/38 64/79/38
f 63/77/37 11/78/37 6/82/39 65/81/39
f 64/79/38 9/80/38 2/84/40 66/83/40
f 65/81/39 6/82/39 5/86/41 67/85/41
f 66/83/40 2/84/40 1/88/42 68/87/42
f 67/85/41 5/86/41 70/90/43 69/89/43
f 72/92/44 71/91/44 68/87/42 1/88/42
f 69/94/43 70/95/43 74/96/45 73/93/45
f 76/98/46 75/97/46 71/91/44 72/92/44
f 73/93/45 74/96/45 78/100/47 77/99/47
f 80/102/48 79/101/48 75/97/46 76/98/46
f 77/99/47 78/100/47 35/35/18 34/34/18
f 39/39/20 38/38/20 57/63/31 27/64/31
f 43/43/22 42/42/22 79/103/48 80/104/48
f 84/108/45 81/105/45 82/106/43 83/107/43
f 87/112/26 85/109/26 30/110/23 86/111/23
f 89/114/21 90/115/21 91/116/25 88/113/25
f 83/120/43 82/117/43 92/118/41 93/119/41
f 94/121/22 95/122/22 90/115/21 89/114/21
f 93/119/41 92/118/41 96/123/39 97/124/39
f 98/125/48 99/126/48 95/122/22 94/121/22
f 97/124/39 96/123/39 4/127/37 100/128/37
f 8/130/46 101/131/46 99/132/48 98/129/48
f 3/133/35 102/134/35 100/128/37 4/127/37
f 7/135/44 103/136/44 101/131/46 8/130/46
f 10/137/33 104/138/33 102/134/35 3/133/35
f 12/139/42 105/140/42 103/136/44 7/135/44
f 14/141/30 106/142/30 104/138/33 10/137/33
f 105/140/42 12/139/42 16/143/40 107/144/40
f 18/145/27 108/146/27 106/142/30 14/141/30
f 107/144/40 16/143/40 20/147/38 109/148/38
f 22/149/24 110/150/24 108/146/27 18/145/27
f 109/148/38 20/147/38 24/151/36 111/152/36
f 26/154/19 112/155/19 110/156/24 22/153/24
f 86/111/23 30/110/23 29/157/17 113/158/17
f 111/152/36 24/151/36 32/159/34 114/160/34
f 115/161/20 116/162/20 112/155/19 26/154/19
f 113/158/17 29/157/17 117/163/18 118/164/18
f 114/160/34 32/159/34 119/165/32 120/166/32
f 121/167/31 122/168/31 116/162/20 115/161/20
f 118/164/18 117/163/18 123/169/47 124/170/47
f 120/174/32 119/171/32 125/172/29 126/173/29
f 127/175/28 128/176/28 122/168/31 121/167/31
f 124/170/47 123/169/47 81/105/45 84/108/45
f 126/173/29 125/172/29 85/109/26 87/112/26
f 88/113/25 91/116/25 128/176/28 127/175/28
f 5/5/3 8/8/3 98/178/49 70/177/49
f 72/179/50 1/1/1 4/4/1 96/180/50
f 70/177/49 98/178/49 94/182/51 74/181/51
f 76/183/52 72/179/50 96/180/50 92/184/52
f 35/186/54 88/187/54 127/188/53 36/185/53
f 74/181/51 94/182/51 89/190/55 78/189/55
f 125/194/56 40/191/56 39/192/57 85/193/57
f 82/196/58 80/195/58 76/183/52 92/184/52
f 123/200/59 44/197/59 43/198/60 81/199/60
f 78/189/55 89/190/55 88/187/54 35/186/54
f 36/185/53 127/188/53 121/202/61 46/201/61
f 85/193/57 39/192/57 27/27/14 30/30/14
f 119/204/62 48/203/62 40/191/56 125/194/56
f 81/199/60 43/198/60 80/195/58 82/196/58
f 117/206/63 50/205/63 44/197/59 123/200/59
f 46/201/61 121/202/61 115/208/64 52/207/64
f 32/32/16 31/31/16 48/203/62 119/204/62
f 29/29/15 28/28/15 50/205/63 117/206/63
f 52/207/64 115/208/64 26/26/13 25/25/13

# Mesh
g Circle.001
usemtl gLASS
f 57/211/65 38/212/65 129/209/65 54/210/65
f 38/212/65 37/214/65 130/213/65 129/209/65
f 37/214/65 47/216/65 131/215/65 130/213/65
f 53/218/65 132/217/65 131/215/65 47/216/65
f 56/220/65 133/219/65 132/217/65 53/218/65
f 59/222/65 134/221/65 133/219/65 56/220/65
f 61/224/65 135/223/65 134/221/65 59/222/65
f 63/226/65 65/225/65 135/223/65 61/224/65
f 54/210/65 129/209/65 136/227/65 49/228/65
f 129/209/65 130/213/65 137/229/65 136/227/65
f 130/213/65 131/215/65 138/230/65 137/229/65
f 132/217/65 139/231/65 138/230/65 131/215/65
f 133/219/65 140/232/65 139/231/65 132/217/65
f 134/221/65 141/233/65 140/232/65 133/219/65
f 135/223/65 142/234/65 141/233/65 134/221/65
f 135/223/65 65/225/65 67/235/65 142/234/65
f 49/228/65 136/227/65 143/236/65 41/237/65
f 136/227/65 137/229/65 144/238/65 143/236/65
f 138/230/65 145/239/65 144/238/65 137/229/65
f 139/231/65 146/240/65 145/239/65 138/230/65
f 140/232/65 147/241/65 146/240/65 139/231/65
f 141/233/65 148/242/65 147/241/65 140/232/65
f 142/234/65 149/243/65 148/242/65 141/233/65
f 142/234/65 67/235/65 69/244/65 149/243/65
f 41/237/65 143/236/65 150/245/65 42/246/65
f 143/236/65 144/238/65 151/247/65 150/245/65
f 145/239/65 152/248/65 151/247/65 144/238/65
f 146/240/65 153/249/65 152/248/65 145/239/65
f 147/241/65 154/250/65 153/249/65 146/240/65
f 148/242/65 155/251/65 154/250/65 147/241/65
f 148/242/65 149/243/65 156/252/65 155/251/65
f 149/243/65 69/244/65 73/253/65 156/252/65
f 42/246/65 150/245/65 157/254/65 79/255/65
f 150/245/65 151/247/65 158/256/65 157/254/65
f 152/248/65 159/257/65 158/256/65 151/247/65
f 153/249/65 160/258/65 159/257/65 152/248/65
f 154/250/65 161/259/65 160/258/65 153/249/65
f 155/251/65 162/260/65 161/259/65 154/250/65
f 155/251/65 156/252/65 163/261/65 162/260/65
f 156/252/65 73/253/65 77/262/65 163/261/65
f 79/255/65 157/254/65 164/263/65 75/264/65
f 158/256/65 165/265/65 164/263/65 157/254/65
f 159/257/65 166/266/65 165/265/65 158/256/65
f 160/258/65 167/267/65 166/266/65 159/257/65
f 161/259/65 168/268/65 167/267/65 160/258/65
f 162/260/65 169/269/65 168/268/65 161/259/65
f 162/260/65 163/261/65 170/270/65 169/269/65
f 163/261/65 77/262/65 34/271/65 170/270/65
f 75/264/65 164/263/65 171/272/65 71/273/65
f 165/265/65 172/274/65 171/272/65 164/263/65
f 166/266/65 173/275/65 172/274/65 165/265/65
f 167/267/65 174/276/65 173/275/65 166/266/65
f 168/268/65 175/277/65 174/276/65 167/267/65
f 168/268/65 169/269/65 176/278/65 175/277/65
f 169/269/65 170/270/65 177/279/65 176/278/65
f 170/270/65 34/271/65 33/280/65 177/279/65
f 171/272/65 66/281/65 68/282/65 71/273/65
f 172/274/65 64/283/65 66/281/65 171/272/65
f 173/275/65 62/284/65 64/283/65 172/274/65
f 174/276/65 60/285/65 62/284/65 173/275/65
f 175/277/65 58/286/65 60/285/65 174/276/65
f 175/277/65 176/278/65 55/287/65 58/286/65
f 176/278/65 177/279/65 51/288/65 55/287/65
f 177/279/65 33/280/65 45/289/65 51/288/65
