# Blender 5.0.1
# www.blender.org
mtllib 3D_Medical-Device2_v2.mtl
o Cylinder.005
v -0.001600 0.208686 0.024701
v -0.001600 1.973940 0.024701
v -0.012015 0.208686 0.022629
v -0.012015 1.973940 0.022629
v -0.020845 0.208686 0.016729
v -0.020845 1.973940 0.016729
v -0.026744 0.208686 0.007900
v -0.026744 1.973940 0.007900
v -0.028816 0.208686 -0.002515
v -0.028816 1.973940 -0.002515
v -0.001600 2.063936 0.024701
v -0.012015 2.063936 0.022629
v -0.020845 2.063936 0.016729
v -0.026744 2.063936 0.007900
v -0.028816 2.063936 -0.002515
v -0.001600 2.077935 0.024701
v -0.012015 2.077935 0.022629
v -0.020845 2.077935 0.016729
v -0.026744 2.077935 0.007900
v -0.028816 2.077935 -0.002515
v -0.001600 2.079703 0.021506
v -0.010792 2.079703 0.019677
v -0.018586 2.079703 0.014470
v -0.023793 2.079703 0.006677
v -0.025621 2.079703 -0.002515
v -0.001600 2.079703 -0.002515
v -0.014600 2.079703 -0.002515
v -0.001600 2.079703 0.011273
v -0.013611 2.079703 0.010079
v -0.028816 2.005560 -0.002515
v -0.028616 2.006988 0.004194
v -0.026744 2.011056 0.010281
v -0.023717 2.017144 0.014349
v -0.020518 2.024325 0.015777
v -0.020845 2.031506 0.014349
v -0.023717 2.037593 0.010281
v -0.026744 2.041661 0.004194
v -0.028816 2.043089 -0.002515
v -0.012015 2.022978 0.022629
v -0.001600 2.022978 0.024701
v -0.116389 2.012705 -0.002515
v -0.108763 2.031480 -0.002515
v -0.090706 2.041527 -0.002515
v -0.090344 2.040145 0.004194
v -0.107689 2.030538 0.004194
v -0.114983 2.012454 0.004194
v -0.089314 2.036211 0.010281
v -0.104630 2.027857 0.010281
v -0.110979 2.011739 0.010281
v -0.087771 2.030321 0.014349
v -0.100053 2.023844 0.014349
v -0.104986 2.010670 0.014349
v -0.085952 2.023375 0.015777
v -0.094653 2.019110 0.015777
v -0.097916 2.009408 0.015777
v -0.084133 2.016428 0.014349
v -0.089253 2.014376 0.014349
v -0.090847 2.008147 0.014349
v -0.082591 2.010539 0.010281
v -0.084675 2.010363 0.010281
v -0.084854 2.007077 0.010281
v -0.080850 2.006362 0.004194
v -0.079444 2.004830 -0.002515
v -0.080434 1.969999 -0.002515
v -0.088060 1.951224 -0.002515
v -0.106117 1.941176 -0.002515
v -0.106479 1.942558 0.004194
v -0.089134 1.952165 0.004194
v -0.081840 1.970250 0.004194
v -0.107509 1.946493 0.010281
v -0.092193 1.954847 0.010281
v -0.085844 1.970964 0.010281
v -0.109052 1.952382 0.014349
v -0.096770 1.958860 0.014349
v -0.091837 1.972034 0.014349
v -0.110871 1.959329 0.015777
v -0.102170 1.963594 0.015777
v -0.098907 1.973295 0.015777
v -0.112690 1.966276 0.014349
v -0.107570 1.968328 0.014349
v -0.105976 1.974557 0.014349
v -0.114232 1.972165 0.010281
v -0.112148 1.972341 0.010281
v -0.111969 1.975626 0.010281
v -0.115973 1.976341 0.004194
v -0.117379 1.977873 -0.002515
v -0.262303 2.005497 -0.002515
v -0.262303 2.006988 0.004194
v -0.262303 2.011056 0.010281
v -0.262303 2.017144 0.014349
v -0.262303 2.024325 0.015777
v -0.262303 2.031506 0.014349
v -0.262303 2.037593 0.010281
v -0.262303 2.041661 0.004194
v -0.262303 2.043089 -0.002515
v -0.203834 2.012705 -0.002515
v -0.211461 2.031480 -0.002515
v -0.229518 2.041527 -0.002515
v -0.229880 2.040145 0.004194
v -0.212535 2.030538 0.004194
v -0.205241 2.012454 0.004194
v -0.230910 2.036211 0.010281
v -0.215594 2.027857 0.010281
v -0.209245 2.011739 0.010281
v -0.232452 2.030321 0.014349
v -0.220171 2.023844 0.014349
v -0.215238 2.010670 0.014349
v -0.234272 2.023375 0.015777
v -0.225571 2.019110 0.015777
v -0.222307 2.009408 0.015777
v -0.236091 2.016428 0.014349
v -0.230971 2.014376 0.014349
v -0.229377 2.008147 0.014349
v -0.237633 2.010539 0.010281
v -0.235549 2.010363 0.010281
v -0.235370 2.007077 0.010281
v -0.239374 2.006362 0.004194
v -0.240780 2.004830 -0.002515
v -0.239790 1.969999 -0.002515
v -0.232164 1.951224 -0.002515
v -0.214107 1.941176 -0.002515
v -0.213745 1.942558 0.004194
v -0.231090 1.952165 0.004194
v -0.238384 1.970250 0.004194
v -0.212715 1.946493 0.010281
v -0.228031 1.954847 0.010281
v -0.234380 1.970964 0.010281
v -0.211172 1.952382 0.014349
v -0.223454 1.958860 0.014349
v -0.228387 1.972034 0.014349
v -0.209353 1.959329 0.015777
v -0.218054 1.963594 0.015777
v -0.221317 1.973295 0.015777
v -0.207534 1.966276 0.014349
v -0.212654 1.968328 0.014349
v -0.214248 1.974557 0.014349
v -0.205992 1.972165 0.010281
v -0.208076 1.972341 0.010281
v -0.208255 1.975626 0.010281
v -0.204251 1.976341 0.004194
v -0.202845 1.977873 -0.002515
v 0.008815 0.208686 0.022629
v 0.008815 1.973940 0.022629
v 0.017645 0.208686 0.016729
v 0.017645 1.973940 0.016729
v 0.023545 0.208686 0.007900
v 0.023545 1.973940 0.007900
v 0.025616 0.208686 -0.002515
v 0.025616 1.973940 -0.002515
v 0.008815 2.063936 0.022629
v 0.017645 2.063936 0.016729
v 0.023545 2.063936 0.007900
v 0.025616 2.063936 -0.002515
v 0.008815 2.077935 0.022629
v 0.017645 2.077935 0.016729
v 0.023545 2.077935 0.007900
v 0.025616 2.077935 -0.002515
v 0.007593 2.079703 0.019677
v 0.015386 2.079703 0.014470
v 0.020593 2.079703 0.006677
v 0.022421 2.079703 -0.002515
v 0.011400 2.079703 -0.002515
v 0.010411 2.079703 0.010079
v 0.025616 2.005560 -0.002515
v 0.025416 2.006988 0.004194
v 0.023545 2.011056 0.010281
v 0.020517 2.017144 0.014349
v 0.017318 2.024325 0.015777
v 0.017645 2.031506 0.014349
v 0.020517 2.037593 0.010281
v 0.023545 2.041661 0.004194
v 0.025616 2.043089 -0.002515
v 0.008815 2.022978 0.022629
v 0.113190 2.012705 -0.002515
v 0.105563 2.031480 -0.002515
v 0.087506 2.041527 -0.002515
v 0.087144 2.040145 0.004194
v 0.104489 2.030538 0.004194
v 0.111784 2.012454 0.004194
v 0.086114 2.036211 0.010281
v 0.101430 2.027857 0.010281
v 0.107779 2.011739 0.010281
v 0.084572 2.030321 0.014349
v 0.096853 2.023844 0.014349
v 0.101786 2.010670 0.014349
v 0.082752 2.023375 0.015777
v 0.091453 2.019110 0.015777
v 0.094717 2.009408 0.015777
v 0.080933 2.016428 0.014349
v 0.086053 2.014376 0.014349
v 0.087647 2.008147 0.014349
v 0.079391 2.010539 0.010281
v 0.081476 2.010363 0.010281
v 0.081654 2.007077 0.010281
v 0.077650 2.006362 0.004194
v 0.076244 2.004830 -0.002515
v 0.077234 1.969999 -0.002515
v 0.084860 1.951224 -0.002515
v 0.102917 1.941176 -0.002515
v 0.103279 1.942558 0.004194
v 0.085934 1.952165 0.004194
v 0.078640 1.970250 0.004194
v 0.104310 1.946493 0.010281
v 0.088993 1.954847 0.010281
v 0.082644 1.970964 0.010281
v 0.105852 1.952382 0.014349
v 0.093571 1.958860 0.014349
v 0.088637 1.972034 0.014349
v 0.107671 1.959329 0.015777
v 0.098970 1.963594 0.015777
v 0.095707 1.973295 0.015777
v 0.109490 1.966276 0.014349
v 0.104370 1.968328 0.014349
v 0.102776 1.974557 0.014349
v 0.111032 1.972165 0.010281
v 0.108948 1.972341 0.010281
v 0.108769 1.975626 0.010281
v 0.112773 1.976341 0.004194
v 0.114179 1.977873 -0.002515
v 0.259104 2.005497 -0.002515
v 0.259104 2.006988 0.004194
v 0.259104 2.011056 0.010281
v 0.259104 2.017144 0.014349
v 0.259104 2.024325 0.015777
v 0.259104 2.031506 0.014349
v 0.259104 2.037593 0.010281
v 0.259104 2.041661 0.004194
v 0.259104 2.043089 -0.002515
v 0.200635 2.012705 -0.002515
v 0.208261 2.031480 -0.002515
v 0.226318 2.041527 -0.002515
v 0.226680 2.040145 0.004194
v 0.209335 2.030538 0.004194
v 0.202041 2.012454 0.004194
v 0.227710 2.036211 0.010281
v 0.212394 2.027857 0.010281
v 0.206045 2.011739 0.010281
v 0.229253 2.030321 0.014349
v 0.216972 2.023844 0.014349
v 0.212038 2.010670 0.014349
v 0.231072 2.023375 0.015777
v 0.222371 2.019110 0.015777
v 0.219108 2.009408 0.015777
v 0.232891 2.016428 0.014349
v 0.227771 2.014376 0.014349
v 0.226177 2.008147 0.014349
v 0.234433 2.010539 0.010281
v 0.232349 2.010363 0.010281
v 0.232170 2.007077 0.010281
v 0.236174 2.006362 0.004194
v 0.237580 2.004830 -0.002515
v 0.236591 1.969999 -0.002515
v 0.228964 1.951224 -0.002515
v 0.210907 1.941176 -0.002515
v 0.210545 1.942558 0.004194
v 0.227890 1.952165 0.004194
v 0.235185 1.970250 0.004194
v 0.209515 1.946493 0.010281
v 0.224831 1.954847 0.010281
v 0.231180 1.970964 0.010281
v 0.207973 1.952382 0.014349
v 0.220254 1.958860 0.014349
v 0.225187 1.972034 0.014349
v 0.206153 1.959329 0.015777
v 0.214854 1.963594 0.015777
v 0.218118 1.973295 0.015777
v 0.204334 1.966276 0.014349
v 0.209454 1.968328 0.014349
v 0.211048 1.974557 0.014349
v 0.202792 1.972165 0.010281
v 0.204876 1.972341 0.010281
v 0.205055 1.975626 0.010281
v 0.201051 1.976341 0.004194
v 0.199645 1.977873 -0.002515
v -0.001600 0.208686 -0.029732
v -0.001600 1.973940 -0.029732
v -0.012015 0.208686 -0.027660
v -0.012015 1.973940 -0.027660
v -0.020845 0.208686 -0.021760
v -0.020845 1.973940 -0.021760
v -0.026744 0.208686 -0.012931
v -0.026744 1.973940 -0.012931
v -0.001600 2.063936 -0.029732
v -0.012015 2.063936 -0.027660
v -0.020845 2.063936 -0.021760
v -0.026744 2.063936 -0.012931
v -0.001600 2.077935 -0.029732
v -0.012015 2.077935 -0.027660
v -0.020845 2.077935 -0.021760
v -0.026744 2.077935 -0.012931
v -0.001600 2.079703 -0.026537
v -0.010792 2.079703 -0.024708
v -0.018586 2.079703 -0.019501
v -0.023793 2.079703 -0.011708
v -0.001600 2.079703 -0.016304
v -0.013611 2.079703 -0.015110
v -0.028616 2.006988 -0.009224
v -0.026744 2.011056 -0.015312
v -0.023717 2.017144 -0.019380
v -0.020518 2.024325 -0.020808
v -0.020845 2.031506 -0.019380
v -0.023717 2.037593 -0.015312
v -0.026744 2.041661 -0.009224
v -0.012015 2.022978 -0.027660
v -0.001600 2.022978 -0.029732
v -0.090344 2.040145 -0.009224
v -0.107689 2.030538 -0.009224
v -0.114983 2.012454 -0.009224
v -0.089314 2.036211 -0.015312
v -0.104630 2.027857 -0.015312
v -0.110979 2.011739 -0.015312
v -0.087771 2.030321 -0.019380
v -0.100053 2.023844 -0.019380
v -0.104986 2.010670 -0.019380
v -0.085952 2.023375 -0.020808
v -0.094653 2.019110 -0.020808
v -0.097916 2.009408 -0.020808
v -0.084133 2.016428 -0.019380
v -0.089253 2.014376 -0.019380
v -0.090847 2.008147 -0.019380
v -0.082591 2.010539 -0.015312
v -0.084675 2.010363 -0.015312
v -0.084854 2.007077 -0.015312
v -0.080850 2.006362 -0.009224
v -0.106479 1.942558 -0.009224
v -0.089134 1.952165 -0.009224
v -0.081840 1.970250 -0.009224
v -0.107509 1.946493 -0.015312
v -0.092193 1.954847 -0.015312
v -0.085844 1.970964 -0.015312
v -0.109052 1.952382 -0.019380
v -0.096770 1.958860 -0.019380
v -0.091837 1.972034 -0.019380
v -0.110871 1.959329 -0.020808
v -0.102170 1.963594 -0.020808
v -0.098907 1.973295 -0.020808
v -0.112690 1.966276 -0.019380
v -0.107570 1.968328 -0.019380
v -0.105976 1.974557 -0.019380
v -0.114232 1.972165 -0.015312
v -0.112148 1.972341 -0.015312
v -0.111969 1.975626 -0.015312
v -0.115973 1.976341 -0.009224
v -0.262303 2.006988 -0.009224
v -0.262303 2.011056 -0.015312
v -0.262303 2.017144 -0.019380
v -0.262303 2.024325 -0.020808
v -0.262303 2.031506 -0.019380
v -0.262303 2.037593 -0.015312
v -0.262303 2.041661 -0.009224
v -0.229880 2.040145 -0.009224
v -0.212535 2.030538 -0.009224
v -0.205241 2.012454 -0.009224
v -0.230910 2.036211 -0.015312
v -0.215594 2.027857 -0.015312
v -0.209245 2.011739 -0.015312
v -0.232452 2.030321 -0.019380
v -0.220171 2.023844 -0.019380
v -0.215238 2.010670 -0.019380
v -0.234272 2.023375 -0.020808
v -0.225571 2.019110 -0.020808
v -0.222307 2.009408 -0.020808
v -0.236091 2.016428 -0.019380
v -0.230971 2.014376 -0.019380
v -0.229377 2.008147 -0.019380
v -0.237633 2.010539 -0.015312
v -0.235549 2.010363 -0.015312
v -0.235370 2.007077 -0.015312
v -0.239374 2.006362 -0.009224
v -0.213745 1.942558 -0.009224
v -0.231090 1.952165 -0.009224
v -0.238384 1.970250 -0.009224
v -0.212715 1.946493 -0.015312
v -0.228031 1.954847 -0.015312
v -0.234380 1.970964 -0.015312
v -0.211172 1.952382 -0.019380
v -0.223454 1.958860 -0.019380
v -0.228387 1.972034 -0.019380
v -0.209353 1.959329 -0.020808
v -0.218054 1.963594 -0.020808
v -0.221317 1.973295 -0.020808
v -0.207534 1.966276 -0.019380
v -0.212654 1.968328 -0.019380
v -0.214248 1.974557 -0.019380
v -0.205992 1.972165 -0.015312
v -0.208076 1.972341 -0.015312
v -0.208255 1.975626 -0.015312
v -0.204251 1.976341 -0.009224
v 0.008815 0.208686 -0.027660
v 0.008815 1.973940 -0.027660
v 0.017645 0.208686 -0.021760
v 0.017645 1.973940 -0.021760
v 0.023545 0.208686 -0.012931
v 0.023545 1.973940 -0.012931
v 0.008815 2.063936 -0.027660
v 0.017645 2.063936 -0.021760
v 0.023545 2.063936 -0.012931
v 0.008815 2.077935 -0.027660
v 0.017645 2.077935 -0.021760
v 0.023545 2.077935 -0.012931
v 0.007593 2.079703 -0.024708
v 0.015386 2.079703 -0.019501
v 0.020593 2.079703 -0.011708
v 0.010411 2.079703 -0.015110
v 0.025416 2.006988 -0.009224
v 0.023545 2.011056 -0.015312
v 0.020517 2.017144 -0.019380
v 0.017318 2.024325 -0.020808
v 0.017645 2.031506 -0.019380
v 0.020517 2.037593 -0.015312
v 0.023545 2.041661 -0.009224
v 0.008815 2.022978 -0.027660
v 0.087144 2.040145 -0.009224
v 0.104489 2.030538 -0.009224
v 0.111784 2.012454 -0.009224
v 0.086114 2.036211 -0.015312
v 0.101430 2.027857 -0.015312
v 0.107779 2.011739 -0.015312
v 0.084572 2.030321 -0.019380
v 0.096853 2.023844 -0.019380
v 0.101786 2.010670 -0.019380
v 0.082752 2.023375 -0.020808
v 0.091453 2.019110 -0.020808
v 0.094717 2.009408 -0.020808
v 0.080933 2.016428 -0.019380
v 0.086053 2.014376 -0.019380
v 0.087647 2.008147 -0.019380
v 0.079391 2.010539 -0.015312
v 0.081476 2.010363 -0.015312
v 0.081654 2.007077 -0.015312
v 0.077650 2.006362 -0.009224
v 0.103279 1.942558 -0.009224
v 0.085934 1.952165 -0.009224
v 0.078640 1.970250 -0.009224
v 0.104310 1.946493 -0.015312
v 0.088993 1.954847 -0.015312
v 0.082644 1.970964 -0.015312
v 0.105852 1.952382 -0.019380
v 0.093571 1.958860 -0.019380
v 0.088637 1.972034 -0.019380
v 0.107671 1.959329 -0.020808
v 0.098970 1.963594 -0.020808
v 0.095707 1.973295 -0.020808
v 0.109490 1.966276 -0.019380
v 0.104370 1.968328 -0.019380
v 0.102776 1.974557 -0.019380
v 0.111032 1.972165 -0.015312
v 0.108948 1.972341 -0.015312
v 0.108769 1.975626 -0.015312
v 0.112773 1.976341 -0.009224
v 0.259104 2.006988 -0.009224
v 0.259104 2.011056 -0.015312
v 0.259104 2.017144 -0.019380
v 0.259104 2.024325 -0.020808
v 0.259104 2.031506 -0.019380
v 0.259104 2.037593 -0.015312
v 0.259104 2.041661 -0.009224
v 0.226680 2.040145 -0.009224
v 0.209335 2.030538 -0.009224
v 0.202041 2.012454 -0.009224
v 0.227710 2.036211 -0.015312
v 0.212394 2.027857 -0.015312
v 0.206045 2.011739 -0.015312
v 0.229253 2.030321 -0.019380
v 0.216972 2.023844 -0.019380
v 0.212038 2.010670 -0.019380
v 0.231072 2.023375 -0.020808
v 0.222371 2.019110 -0.020808
v 0.219108 2.009408 -0.020808
v 0.232891 2.016428 -0.019380
v 0.227771 2.014376 -0.019380
v 0.226177 2.008147 -0.019380
v 0.234433 2.010539 -0.015312
v 0.232349 2.010363 -0.015312
v 0.232170 2.007077 -0.015312
v 0.236174 2.006362 -0.009224
v 0.210545 1.942558 -0.009224
v 0.227890 1.952165 -0.009224
v 0.235185 1.970250 -0.009224
v 0.209515 1.946493 -0.015312
v 0.224831 1.954847 -0.015312
v 0.231180 1.970964 -0.015312
v 0.207973 1.952382 -0.019380
v 0.220254 1.958860 -0.019380
v 0.225187 1.972034 -0.019380
v 0.206153 1.959329 -0.020808
v 0.214854 1.963594 -0.020808
v 0.218118 1.973295 -0.020808
v 0.204334 1.966276 -0.019380
v 0.209454 1.968328 -0.019380
v 0.211048 1.974557 -0.019380
v 0.202792 1.972165 -0.015312
v 0.204876 1.972341 -0.015312
v 0.205055 1.975626 -0.015312
v 0.201051 1.976341 -0.009224
v -0.262303 2.032039 0.008973
v -0.262303 2.038122 -0.000053
v -0.262303 2.024632 0.005338
v -0.262303 2.031799 -0.005370
v -0.262303 2.016929 0.000327
v -0.262303 2.024088 -0.010382
v -0.262303 2.010598 -0.004984
v -0.262303 2.016660 -0.014010
v 0.259104 2.032039 0.008973
v 0.259104 2.038122 -0.000053
v 0.259104 2.024632 0.005338
v 0.259104 2.031799 -0.005370
v 0.259104 2.016929 0.000327
v 0.259104 2.024088 -0.010382
v 0.259104 2.010598 -0.004984
v 0.259104 2.016660 -0.014010
v -0.294857 0.077386 -0.027085
v -0.294857 0.013569 -0.006014
v -0.001450 -0.002326 -0.297538
v -0.001450 -0.002326 -0.247312
v 0.020612 0.002062 -0.297538
v 0.020612 0.002062 -0.247312
v 0.039315 0.014559 -0.297538
v 0.039315 0.014559 -0.247312
v 0.051812 0.033262 -0.297538
v 0.051812 0.033262 -0.247312
v 0.056200 0.055324 -0.297538
v 0.056200 0.055324 -0.247312
v 0.051812 0.077386 -0.297538
v 0.051812 0.077386 -0.247312
v 0.039315 0.096089 -0.297538
v 0.039315 0.096089 -0.247312
v 0.020612 0.108586 -0.297538
v 0.020612 0.108586 -0.247312
v -0.001450 0.112974 -0.297538
v -0.001450 0.112974 -0.247312
v -0.023512 0.108586 -0.297538
v -0.023512 0.108586 -0.247312
v -0.042215 0.096089 -0.297538
v -0.042215 0.096089 -0.247312
v -0.054712 0.077386 -0.297538
v -0.054712 0.077386 -0.247312
v -0.059100 0.055324 -0.297538
v -0.059100 0.055324 -0.247312
v -0.054712 0.033262 -0.297538
v -0.054712 0.033262 -0.247312
v -0.042215 0.014559 -0.297538
v -0.042215 0.014559 -0.247312
v -0.023512 0.002062 -0.297538
v -0.023512 0.002062 -0.247312
v -0.294857 0.097079 -0.004033
v -0.294857 0.078724 0.018377
v -0.001450 -0.002326 0.241392
v -0.001450 -0.002326 0.291617
v 0.020612 0.002062 0.241392
v 0.020612 0.002062 0.291617
v 0.039315 0.014559 0.241392
v 0.039315 0.014559 0.291617
v 0.051812 0.033262 0.241392
v 0.051812 0.033262 0.291617
v 0.056200 0.055324 0.241392
v 0.056200 0.055324 0.291617
v 0.051812 0.077386 0.241392
v 0.051812 0.077386 0.291617
v 0.039315 0.096089 0.241392
v 0.039315 0.096089 0.291617
v 0.020612 0.108586 0.241392
v 0.020612 0.108586 0.291617
v -0.001450 0.112974 0.241392
v -0.001450 0.112974 0.291617
v -0.023512 0.108586 0.241392
v -0.023512 0.108586 0.291617
v -0.042215 0.096089 0.241392
v -0.042215 0.096089 0.291617
v -0.054712 0.077386 0.241392
v -0.054712 0.077386 0.291617
v -0.059100 0.055324 0.241392
v -0.059100 0.055324 0.291617
v -0.054712 0.033262 0.241392
v -0.054712 0.033262 0.291617
v -0.042215 0.014559 0.241392
v -0.042215 0.014559 0.291617
v -0.023512 0.002062 0.241392
v -0.023512 0.002062 0.291617
v -0.294857 0.031924 -0.028423
v -0.294857 0.054333 -0.046778
v -0.294857 -0.002326 -0.005023
v -0.244631 -0.002326 -0.005023
v -0.294857 0.002062 -0.027085
v -0.244631 0.002062 -0.027085
v -0.294857 0.014559 -0.045788
v -0.244631 0.014559 -0.045788
v -0.294857 0.033262 -0.058285
v -0.244631 0.033262 -0.058285
v -0.294857 0.055324 -0.062673
v -0.244631 0.055324 -0.062673
v -0.294857 0.077386 -0.058285
v -0.244631 0.077386 -0.058285
v -0.294857 0.096089 -0.045788
v -0.244631 0.096089 -0.045788
v -0.294857 0.108586 -0.027085
v -0.244631 0.108586 -0.027085
v -0.294857 0.112974 -0.005023
v -0.244631 0.112974 -0.005023
v -0.294857 0.108586 0.017039
v -0.244631 0.108586 0.017039
v -0.294857 0.096089 0.035742
v -0.244631 0.096089 0.035742
v -0.294857 0.077386 0.048239
v -0.244631 0.077386 0.048239
v -0.294857 0.055324 0.052627
v -0.244631 0.055324 0.052627
v -0.294857 0.033262 0.048239
v -0.244631 0.033262 0.048239
v -0.294857 0.014559 0.035742
v -0.244631 0.014559 0.035742
v -0.294857 0.002062 0.017039
v -0.244631 0.002062 0.017039
v -0.294857 0.033262 0.017039
v -0.294857 0.055324 -0.005023
v 0.239243 -0.002326 -0.005023
v 0.289468 -0.002326 -0.005023
v 0.239243 0.002062 -0.027085
v 0.289468 0.002062 -0.027085
v 0.239243 0.014559 -0.045788
v 0.289468 0.014559 -0.045788
v 0.239243 0.033262 -0.058285
v 0.289468 0.033262 -0.058285
v 0.239243 0.055324 -0.062673
v 0.289468 0.055324 -0.062673
v 0.239243 0.077386 -0.058285
v 0.289468 0.077386 -0.058285
v 0.239243 0.096089 -0.045788
v 0.289468 0.096089 -0.045788
v 0.239243 0.108586 -0.027085
v 0.289468 0.108586 -0.027085
v 0.239243 0.112974 -0.005023
v 0.289468 0.112974 -0.005023
v 0.239243 0.108586 0.017039
v 0.289468 0.108586 0.017039
v 0.239243 0.096089 0.035742
v 0.289468 0.096089 0.035742
v 0.239243 0.077386 0.048239
v 0.289468 0.077386 0.048239
v 0.239243 0.055324 0.052627
v 0.289468 0.055324 0.052627
v 0.239243 0.033262 0.048239
v 0.289468 0.033262 0.048239
v 0.239243 0.014559 0.035742
v 0.289468 0.014559 0.035742
v 0.239243 0.002062 0.017039
v 0.289468 0.002062 0.017039
v -0.049994 0.111597 0.045751
v -0.049994 0.208686 0.045751
v -0.049994 0.111597 -0.051337
v -0.049994 0.208686 -0.051338
v 0.047095 0.111597 0.045751
v 0.047095 0.208686 0.045751
v 0.047095 0.111597 -0.051337
v 0.047095 0.208686 -0.051338
v -0.305278 0.111597 -0.051337
v -0.305278 0.111597 0.045751
v -0.305278 0.147492 0.045751
v -0.305278 0.147492 -0.051338
v 0.302379 0.147492 -0.051338
v 0.302379 0.111597 -0.051337
v 0.302379 0.111597 0.045751
v 0.302379 0.147492 0.045751
v -0.049994 0.111597 0.301035
v -0.049994 0.147492 0.301035
v 0.047095 0.147492 0.301035
v 0.047095 0.111597 0.301035
v -0.049994 0.147492 -0.306622
v -0.049994 0.111597 -0.306622
v 0.047095 0.111597 -0.306622
v 0.047095 0.147492 -0.306622
v -0.294857 0.056314 0.036732
v -0.244631 0.056314 -0.046778
v -0.244631 0.078724 -0.028423
v -0.244631 0.097079 -0.006013
v -0.244631 0.033262 -0.027085
v -0.244631 0.055324 -0.005023
v -0.244631 0.077386 0.017039
v -0.244631 0.013569 -0.004033
v -0.244631 0.031924 0.018377
v -0.244631 0.054333 0.036732
v 0.040306 0.054333 -0.297538
v 0.021950 0.031924 -0.297538
v -0.000459 0.013569 -0.297538
v 0.020612 0.077386 -0.297538
v -0.001450 0.055324 -0.297538
v -0.023512 0.033262 -0.297538
v -0.002440 0.097079 -0.297538
v -0.024850 0.078724 -0.297538
v -0.043205 0.056314 -0.297538
v 0.040306 0.056314 -0.247312
v 0.021950 0.078724 -0.247312
v -0.000459 0.097079 -0.247312
v 0.020612 0.033262 -0.247312
v -0.001450 0.055324 -0.247312
v -0.023512 0.077386 -0.247312
v -0.002440 0.013569 -0.247312
v -0.024850 0.031924 -0.247312
v -0.043205 0.054333 -0.247312
v 0.289468 0.056314 -0.046778
v 0.289468 0.078724 -0.028423
v 0.289468 0.097079 -0.006013
v 0.289468 0.033262 -0.027085
v 0.289468 0.055324 -0.005023
v 0.289468 0.077386 0.017039
v 0.289468 0.013569 -0.004033
v 0.289468 0.031924 0.018377
v 0.289468 0.054333 0.036732
v 0.239243 0.054333 -0.046778
v 0.239243 0.031924 -0.028423
v 0.239243 0.013569 -0.006014
v 0.239243 0.077386 -0.027085
v 0.239243 0.055324 -0.005023
v 0.239243 0.033262 0.017039
v 0.239243 0.097079 -0.004033
v 0.239243 0.078724 0.018377
v 0.239243 0.056314 0.036732
v 0.040306 0.056314 0.291617
v 0.021950 0.078724 0.291617
v -0.000459 0.097079 0.291617
v 0.020612 0.033262 0.291617
v -0.001450 0.055324 0.291617
v -0.023512 0.077386 0.291617
v -0.002440 0.013569 0.291617
v -0.024850 0.031924 0.291617
v -0.043205 0.054333 0.291617
v 0.040306 0.054333 0.241392
v 0.021950 0.031924 0.241392
v -0.000459 0.013569 0.241392
v 0.020612 0.077386 0.241392
v -0.001450 0.055324 0.241392
v -0.023512 0.033262 0.241392
v -0.002440 0.097079 0.241392
v -0.024850 0.078724 0.241392
v -0.043205 0.056314 0.241392
vn -0.0000 -0.0000 1.0000
vn -0.4041 0.0005 0.9147
vn -0.3827 -0.0000 0.9239
vn -0.7339 -0.0067 0.6792
vn -0.7071 -0.0000 0.7071
vn -0.9363 -0.0132 0.3508
vn -0.9239 -0.0000 0.3827
vn -0.9999 -0.0107 -0.0000
vn -1.0000 -0.0000 -0.0000
vn -0.4224 0.0076 0.9064
vn -0.4149 -0.0099 0.9098
vn -0.7330 -0.0275 0.6797
vn -0.9232 -0.0195 0.3837
vn -0.9999 -0.0103 -0.0000
vn -0.1853 0.8749 0.4474
vn -0.0000 0.8749 0.4842
vn -0.0000 0.9603 0.2789
vn -0.1067 0.9603 0.2576
vn -0.3424 0.8750 0.3424
vn -0.1972 0.9603 0.1972
vn -0.4473 0.8750 0.1853
vn -0.2576 0.9603 0.1067
vn -0.4842 0.8750 -0.0000
vn -0.2789 0.9603 -0.0000
vn -0.0000 1.0000 -0.0000
vn -0.9998 -0.0206 -0.0000
vn -0.9206 -0.0395 0.3885
vn -0.7464 -0.0550 0.6632
vn -0.9430 -0.0266 0.3318
vn -0.9998 -0.0212 -0.0000
vn -0.7407 -0.0112 0.6718
vn -0.6722 -0.0032 0.7404
vn -0.6290 0.0149 0.7772
vn -0.6004 0.0086 0.7997
vn -0.0066 0.3604 0.9328
vn -0.0141 0.6757 0.7370
vn -0.1869 0.6960 0.6933
vn -0.1034 0.3938 0.9133
vn 0.0039 -0.3391 0.9407
vn -0.0007 0.0294 0.9996
vn -0.0080 0.0256 0.9996
vn 0.0663 -0.3656 0.9284
vn 0.0108 -0.9118 0.4105
vn 0.0072 -0.6804 0.7328
vn 0.0630 -0.7012 0.7102
vn 0.0151 -0.9021 0.4313
vn -0.0211 0.9054 0.4240
vn -0.2422 0.8925 0.3806
vn 0.0132 -0.9999 -0.0000
vn -0.0245 0.9997 -0.0000
vn -0.2625 0.9649 -0.0000
vn -0.9789 0.2042 -0.0000
vn -0.9059 0.1884 0.3792
vn -0.8647 0.3479 0.3623
vn -0.9269 0.3752 -0.0000
vn -0.4854 0.8743 -0.0000
vn -0.4515 0.8164 0.3600
vn -0.7062 0.1449 0.6930
vn -0.5405 0.4778 0.6925
vn -0.3959 0.0792 0.9149
vn -0.3095 0.2732 0.9108
vn -0.0174 0.0056 0.9998
vn -0.0365 0.0323 0.9988
vn 0.3778 -0.0470 0.9247
vn 0.2343 -0.2076 0.9497
vn 0.7122 -0.0472 0.7004
vn 0.6723 -0.0872 0.7351
vn 0.1393 -0.6557 0.7420
vn 0.9059 -0.0278 0.4226
vn 0.9996 -0.0279 -0.0000
vn 0.9059 -0.1884 0.3792
vn 0.9789 -0.2042 -0.0000
vn 0.7062 -0.1449 0.6931
vn 0.3959 -0.0792 0.9149
vn 0.0174 -0.0056 0.9998
vn -0.3778 0.0470 0.9247
vn -0.7122 0.0472 0.7004
vn -0.9059 0.0278 0.4226
vn -0.9996 0.0279 -0.0000
vn 0.8647 -0.3479 0.3623
vn 0.9269 -0.3752 -0.0000
vn 0.4854 -0.8743 -0.0000
vn 0.4515 -0.8164 0.3600
vn 0.2318 -0.8971 0.3763
vn 0.2508 -0.9680 -0.0000
vn 0.5405 -0.4778 0.6925
vn 0.1795 -0.7019 0.6892
vn 0.3095 -0.2732 0.9108
vn 0.0997 -0.3986 0.9117
vn 0.0365 -0.0323 0.9988
vn 0.0077 -0.0269 0.9996
vn -0.2343 0.2076 0.9497
vn -0.0643 0.3673 0.9279
vn -0.6723 0.0872 0.7351
vn -0.1393 0.6557 0.7420
vn -0.0593 0.7016 0.7101
vn -0.0052 0.8995 0.4370
vn -0.2318 -0.8971 0.3763
vn -0.2508 -0.9680 -0.0000
vn -0.0077 -0.0269 0.9996
vn -0.0997 -0.3986 0.9117
vn 0.0052 0.8995 0.4370
vn 0.0593 0.7016 0.7101
vn -0.1795 -0.7019 0.6892
vn 0.0643 0.3673 0.9279
vn 0.9789 0.2042 -0.0000
vn 0.9269 0.3752 -0.0000
vn 0.8647 0.3479 0.3623
vn 0.9059 0.1884 0.3792
vn 0.4854 0.8743 -0.0000
vn 0.2730 0.9620 -0.0000
vn 0.2521 0.8905 0.3788
vn 0.4515 0.8164 0.3600
vn 0.0471 0.9989 -0.0000
vn 0.0428 0.9226 0.3833
vn 0.5405 0.4778 0.6925
vn 0.7062 0.1449 0.6930
vn 0.1949 0.6948 0.6923
vn 0.0314 0.7130 0.7005
vn 0.3095 0.2732 0.9108
vn 0.3959 0.0792 0.9149
vn 0.1078 0.3926 0.9134
vn 0.0159 0.3902 0.9206
vn 0.0365 0.0323 0.9988
vn 0.0174 0.0056 0.9998
vn 0.0084 0.0244 0.9997
vn 0.0008 0.0042 1.0000
vn -0.2343 -0.2076 0.9497
vn -0.3778 -0.0470 0.9247
vn -0.0690 -0.3656 0.9282
vn -0.0100 -0.3837 0.9234
vn -0.6723 -0.0872 0.7351
vn -0.7122 -0.0472 0.7004
vn -0.0676 -0.7006 0.7104
vn -0.1393 -0.6557 0.7420
vn -0.0170 -0.7049 0.7091
vn -0.9059 -0.0278 0.4226
vn -0.0273 -0.9005 0.4341
vn -0.0245 -0.9159 0.4006
vn -0.0291 -0.9996 -0.0000
vn -0.9996 -0.0279 -0.0000
vn -0.9789 -0.2042 -0.0000
vn -0.9059 -0.1884 0.3792
vn -0.7062 -0.1449 0.6931
vn -0.3959 -0.0792 0.9149
vn -0.0174 -0.0056 0.9998
vn 0.3778 0.0470 0.9247
vn 0.7122 0.0472 0.7004
vn 0.9059 0.0278 0.4226
vn 0.9996 0.0279 -0.0000
vn -0.9269 -0.3752 -0.0000
vn -0.8647 -0.3479 0.3623
vn -0.4854 -0.8743 -0.0000
vn -0.4515 -0.8164 0.3600
vn -0.5405 -0.4778 0.6925
vn -0.3095 -0.2732 0.9108
vn -0.0365 -0.0323 0.9988
vn 0.2343 0.2076 0.9497
vn 0.6723 0.0872 0.7351
vn 0.1393 0.6557 0.7420
vn 0.3827 -0.0000 0.9239
vn 0.4041 0.0005 0.9147
vn 0.7071 -0.0000 0.7071
vn 0.7339 -0.0067 0.6792
vn 0.9239 -0.0000 0.3827
vn 0.9363 -0.0132 0.3508
vn 1.0000 -0.0000 -0.0000
vn 0.9999 -0.0107 -0.0000
vn 0.4224 0.0076 0.9064
vn 0.4149 -0.0099 0.9098
vn 0.7330 -0.0275 0.6797
vn 0.9232 -0.0195 0.3837
vn 0.9999 -0.0103 -0.0000
vn 0.1853 0.8749 0.4474
vn 0.1067 0.9603 0.2576
vn 0.3424 0.8750 0.3424
vn 0.1972 0.9603 0.1972
vn 0.4473 0.8750 0.1853
vn 0.2576 0.9603 0.1067
vn 0.4842 0.8750 -0.0000
vn 0.2789 0.9603 -0.0000
vn 0.9998 -0.0206 -0.0000
vn 0.9206 -0.0395 0.3885
vn 0.7464 -0.0550 0.6632
vn 0.9998 -0.0212 -0.0000
vn 0.9430 -0.0266 0.3318
vn 0.7407 -0.0112 0.6718
vn 0.6290 0.0149 0.7772
vn 0.6722 -0.0032 0.7404
vn 0.6004 0.0086 0.7997
vn 0.0066 0.3604 0.9328
vn 0.1034 0.3938 0.9133
vn 0.1869 0.6960 0.6933
vn 0.0141 0.6757 0.7370
vn -0.0039 -0.3391 0.9407
vn -0.0663 -0.3656 0.9284
vn 0.0080 0.0256 0.9996
vn 0.0007 0.0294 0.9996
vn -0.0108 -0.9118 0.4105
vn -0.0151 -0.9021 0.4313
vn -0.0630 -0.7012 0.7102
vn -0.0072 -0.6804 0.7328
vn 0.2421 0.8925 0.3806
vn 0.0211 0.9054 0.4240
vn -0.0132 -0.9999 -0.0000
vn 0.2625 0.9649 -0.0000
vn 0.0245 0.9997 -0.0000
vn -0.2521 0.8905 0.3788
vn -0.2730 0.9620 -0.0000
vn -0.0428 0.9226 0.3833
vn -0.0471 0.9989 -0.0000
vn -0.1949 0.6948 0.6923
vn -0.0314 0.7130 0.7005
vn -0.1078 0.3926 0.9134
vn -0.0159 0.3902 0.9206
vn -0.0084 0.0244 0.9997
vn -0.0008 0.0042 1.0000
vn 0.0690 -0.3656 0.9282
vn 0.0100 -0.3837 0.9234
vn 0.0676 -0.7006 0.7104
vn 0.0170 -0.7049 0.7091
vn 0.0273 -0.9005 0.4341
vn 0.0245 -0.9159 0.4006
vn 0.0291 -0.9996 -0.0000
vn -0.0000 -0.0000 -1.0000
vn -0.3827 -0.0000 -0.9239
vn -0.4041 0.0005 -0.9147
vn -0.7071 -0.0000 -0.7071
vn -0.7339 -0.0067 -0.6792
vn -0.9239 -0.0000 -0.3827
vn -0.9363 -0.0132 -0.3508
vn -0.4224 0.0076 -0.9064
vn -0.4149 -0.0099 -0.9098
vn -0.7330 -0.0275 -0.6797
vn -0.9232 -0.0195 -0.3837
vn -0.1853 0.8749 -0.4474
vn -0.1067 0.9603 -0.2576
vn -0.0000 0.9603 -0.2789
vn -0.0000 0.8749 -0.4842
vn -0.3424 0.8749 -0.3424
vn -0.1972 0.9603 -0.1972
vn -0.4474 0.8749 -0.1853
vn -0.2576 0.9603 -0.1067
vn -0.9206 -0.0395 -0.3885
vn -0.7464 -0.0550 -0.6632
vn -0.9430 -0.0266 -0.3318
vn -0.7407 -0.0112 -0.6718
vn -0.6290 0.0149 -0.7772
vn -0.6722 -0.0032 -0.7404
vn -0.6004 0.0086 -0.7997
vn -0.0066 0.3604 -0.9328
vn -0.1034 0.3938 -0.9133
vn -0.1869 0.6960 -0.6933
vn -0.0141 0.6757 -0.7370
vn 0.0039 -0.3391 -0.9407
vn 0.0663 -0.3656 -0.9284
vn -0.0080 0.0256 -0.9996
vn -0.0007 0.0294 -0.9996
vn 0.0108 -0.9118 -0.4105
vn 0.0151 -0.9021 -0.4313
vn 0.0630 -0.7012 -0.7102
vn 0.0072 -0.6804 -0.7328
vn -0.2421 0.8925 -0.3806
vn -0.0211 0.9054 -0.4240
vn -0.8647 0.3479 -0.3623
vn -0.9059 0.1884 -0.3792
vn -0.4515 0.8164 -0.3600
vn -0.5405 0.4778 -0.6925
vn -0.7062 0.1449 -0.6930
vn -0.3095 0.2732 -0.9108
vn -0.3959 0.0792 -0.9149
vn -0.0365 0.0323 -0.9988
vn -0.0174 0.0056 -0.9998
vn 0.2343 -0.2076 -0.9497
vn 0.3778 -0.0470 -0.9247
vn 0.6723 -0.0872 -0.7351
vn 0.7122 -0.0472 -0.7004
vn 0.1393 -0.6557 -0.7420
vn 0.9059 -0.0278 -0.4226
vn 0.9059 -0.1884 -0.3792
vn 0.7062 -0.1449 -0.6931
vn 0.3959 -0.0792 -0.9149
vn 0.0174 -0.0056 -0.9998
vn -0.3778 0.0470 -0.9247
vn -0.7122 0.0472 -0.7004
vn -0.9059 0.0278 -0.4226
vn 0.8647 -0.3479 -0.3623
vn 0.2318 -0.8971 -0.3763
vn 0.4515 -0.8164 -0.3600
vn 0.5405 -0.4778 -0.6925
vn 0.1795 -0.7019 -0.6892
vn 0.3095 -0.2732 -0.9108
vn 0.0997 -0.3986 -0.9117
vn 0.0365 -0.0323 -0.9988
vn 0.0077 -0.0269 -0.9996
vn -0.2343 0.2076 -0.9497
vn -0.0643 0.3673 -0.9279
vn -0.6723 0.0872 -0.7351
vn -0.0593 0.7016 -0.7101
vn -0.1393 0.6557 -0.7420
vn -0.0052 0.8995 -0.4370
vn -0.2318 -0.8971 -0.3763
vn -0.0997 -0.3986 -0.9117
vn -0.0077 -0.0269 -0.9996
vn 0.0593 0.7016 -0.7101
vn 0.0052 0.8995 -0.4370
vn -0.1795 -0.7019 -0.6892
vn 0.0643 0.3673 -0.9279
vn 0.9059 0.1884 -0.3792
vn 0.8647 0.3479 -0.3623
vn 0.4515 0.8164 -0.3600
vn 0.2521 0.8905 -0.3788
vn 0.0428 0.9226 -0.3833
vn 0.7062 0.1449 -0.6930
vn 0.5405 0.4778 -0.6925
vn 0.1949 0.6948 -0.6923
vn 0.0314 0.7130 -0.7005
vn 0.3959 0.0792 -0.9149
vn 0.3095 0.2732 -0.9108
vn 0.1078 0.3926 -0.9134
vn 0.0159 0.3902 -0.9206
vn 0.0174 0.0056 -0.9998
vn 0.0365 0.0323 -0.9988
vn 0.0084 0.0244 -0.9997
vn 0.0008 0.0042 -1.0000
vn -0.3778 -0.0470 -0.9247
vn -0.2343 -0.2076 -0.9497
vn -0.0690 -0.3657 -0.9282
vn -0.0100 -0.3837 -0.9234
vn -0.7122 -0.0472 -0.7004
vn -0.6723 -0.0872 -0.7351
vn -0.1393 -0.6557 -0.7420
vn -0.0676 -0.7006 -0.7104
vn -0.0170 -0.7049 -0.7091
vn -0.9059 -0.0278 -0.4226
vn -0.0273 -0.9005 -0.4341
vn -0.0245 -0.9159 -0.4006
vn -0.9059 -0.1884 -0.3792
vn -0.7062 -0.1449 -0.6931
vn -0.3959 -0.0792 -0.9149
vn -0.0174 -0.0056 -0.9998
vn 0.3778 0.0470 -0.9247
vn 0.7122 0.0472 -0.7004
vn 0.9059 0.0278 -0.4226
vn -0.8647 -0.3479 -0.3623
vn -0.4515 -0.8164 -0.3600
vn -0.5405 -0.4778 -0.6925
vn -0.3095 -0.2732 -0.9108
vn -0.0365 -0.0323 -0.9988
vn 0.2343 0.2076 -0.9497
vn 0.6723 0.0872 -0.7351
vn 0.1393 0.6557 -0.7420
vn 0.4041 0.0005 -0.9147
vn 0.3827 -0.0000 -0.9239
vn 0.7339 -0.0067 -0.6792
vn 0.7071 -0.0000 -0.7071
vn 0.9363 -0.0132 -0.3508
vn 0.9239 -0.0000 -0.3827
vn 0.4224 0.0076 -0.9064
vn 0.4149 -0.0099 -0.9098
vn 0.7330 -0.0275 -0.6797
vn 0.9232 -0.0195 -0.3837
vn 0.1853 0.8749 -0.4474
vn 0.1067 0.9603 -0.2576
vn 0.3424 0.8749 -0.3424
vn 0.1972 0.9603 -0.1972
vn 0.4474 0.8749 -0.1853
vn 0.2576 0.9603 -0.1067
vn 0.9206 -0.0395 -0.3885
vn 0.7464 -0.0550 -0.6632
vn 0.9430 -0.0266 -0.3318
vn 0.7407 -0.0112 -0.6718
vn 0.6722 -0.0032 -0.7404
vn 0.6290 0.0149 -0.7772
vn 0.6004 0.0086 -0.7997
vn 0.0066 0.3604 -0.9328
vn 0.0141 0.6757 -0.7370
vn 0.1869 0.6960 -0.6933
vn 0.1034 0.3938 -0.9133
vn -0.0039 -0.3391 -0.9407
vn 0.0007 0.0294 -0.9996
vn 0.0080 0.0256 -0.9996
vn -0.0663 -0.3656 -0.9284
vn -0.0108 -0.9118 -0.4105
vn -0.0072 -0.6804 -0.7328
vn -0.0630 -0.7012 -0.7102
vn -0.0151 -0.9021 -0.4313
vn 0.0211 0.9054 -0.4240
vn 0.2422 0.8925 -0.3806
vn -0.2521 0.8905 -0.3788
vn -0.0428 0.9226 -0.3833
vn -0.1949 0.6948 -0.6923
vn -0.0314 0.7130 -0.7005
vn -0.1078 0.3926 -0.9134
vn -0.0159 0.3902 -0.9206
vn -0.0084 0.0244 -0.9997
vn -0.0008 0.0042 -1.0000
vn 0.0690 -0.3656 -0.9282
vn 0.0100 -0.3837 -0.9234
vn 0.0676 -0.7006 -0.7104
vn 0.0170 -0.7049 -0.7091
vn 0.0273 -0.9005 -0.4341
vn 0.0245 -0.9159 -0.4006
vn -0.0000 -1.0000 -0.0000
vn 0.3827 -0.9239 -0.0000
vn 0.7071 -0.7071 -0.0000
vn 0.9239 -0.3827 -0.0000
vn 0.9239 0.3827 -0.0000
vn 0.7071 0.7071 -0.0000
vn 0.3827 0.9239 -0.0000
vn -0.3827 0.9239 -0.0000
vn -0.7071 0.7071 -0.0000
vn -0.9239 0.3827 -0.0000
vn -0.9239 -0.3827 -0.0000
vn -0.7071 -0.7071 -0.0000
vn -0.3827 -0.9239 -0.0000
vn -0.0000 -0.9239 -0.3827
vn -0.0000 -0.7071 -0.7071
vn -0.0000 -0.3827 -0.9239
vn -0.0000 0.3827 -0.9239
vn -0.0000 0.7071 -0.7071
vn -0.0000 0.9239 -0.3827
vn -0.0000 0.9239 0.3827
vn -0.0000 0.7071 0.7071
vn -0.0000 0.3827 0.9239
vn -0.0000 -0.3827 0.9239
vn -0.0000 -0.7071 0.7071
vn -0.0000 -0.9239 0.3827
vn -0.0000 0.9725 -0.2331
vn -0.0000 0.9725 0.2331
vn -0.2331 0.9725 -0.0000
vn 0.2331 0.9725 -0.0000
vt 0.316131 0.995848
vt 0.316131 0.059324
vt 0.321522 0.059324
vt 0.321522 0.995848
vt 0.325875 0.059325
vt 0.325875 0.995849
vt 0.362898 0.940656
vt 0.362898 0.004151
vt 0.367878 0.004168
vt 0.367878 0.940673
vt 0.373487 0.004171
vt 0.373487 0.940676
vt 0.321522 0.033308
vt 0.316131 0.033307
vt 0.316131 0.011578
vt 0.321522 0.011578
vt 0.316131 0.004151
vt 0.321522 0.004151
vt 0.325875 0.011579
vt 0.325875 0.004152
vt 0.660765 0.778072
vt 0.660779 0.773092
vt 0.668206 0.773088
vt 0.668192 0.778067
vt 0.660765 0.783681
vt 0.668192 0.783676
vt 0.618338 0.526583
vt 0.613148 0.528733
vt 0.612890 0.527057
vt 0.617470 0.525159
vt 0.622311 0.522605
vt 0.620976 0.521647
vt 0.624460 0.517403
vt 0.622874 0.517056
vt 0.624460 0.511770
vt 0.622874 0.512084
vt 0.617156 0.513218
vt 0.617942 0.519874
vt 0.611834 0.521732
vt 0.610410 0.514556
vt 0.607326 0.917980
vt 0.608079 0.921633
vt 0.596263 0.923589
vt 0.596267 0.917980
vt 0.596246 0.928569
vt 0.610229 0.925010
vt 0.596234 0.890230
vt 0.596219 0.884621
vt 0.613753 0.886619
vt 0.613009 0.890173
vt 0.596219 0.879641
vt 0.615904 0.883297
vt 0.617947 0.932161
vt 0.596219 0.932161
vt 0.613450 0.927313
vt 0.617259 0.928084
vt 0.664896 0.619351
vt 0.666510 0.623161
vt 0.660765 0.646081
vt 0.660765 0.620065
vt 0.596234 0.876049
vt 0.619135 0.880975
vt 0.504727 0.699736
vt 0.507957 0.701040
vt 0.507223 0.735672
vt 0.504099 0.735070
vt 0.497108 0.701252
vt 0.500918 0.699638
vt 0.500414 0.734185
vt 0.496728 0.733150
vt 0.663994 0.351720
vt 0.660765 0.352713
vt 0.660765 0.323084
vt 0.663994 0.324008
vt 0.639551 0.532950
vt 0.636321 0.531182
vt 0.636321 0.497603
vt 0.639551 0.498309
vt 0.493878 0.702638
vt 0.493603 0.732123
vt 0.667554 0.351614
vt 0.667554 0.324754
vt 0.632762 0.530028
vt 0.632762 0.497355
vt 0.640041 0.727677
vt 0.636422 0.727757
vt 0.636160 0.718134
vt 0.639765 0.717685
vt 0.632762 0.488215
vt 0.636321 0.488821
vt 0.632988 0.728078
vt 0.632762 0.719501
vt 0.639551 0.490549
vt 0.494240 0.747111
vt 0.493673 0.744159
vt 0.500662 0.741554
vt 0.502791 0.743759
vt 0.493004 0.740501
vt 0.498151 0.738778
vt 0.492335 0.736694
vt 0.495640 0.735853
vt 0.491767 0.733318
vt 0.493510 0.733224
vt 0.639551 0.877842
vt 0.636321 0.878214
vt 0.639551 0.876098
vt 0.660765 0.321979
vt 0.632762 0.879025
vt 0.636321 0.897375
vt 0.632762 0.897506
vt 0.639551 0.897002
vt 0.473176 0.737218
vt 0.472608 0.733841
vt 0.473845 0.741024
vt 0.474514 0.744682
vt 0.475081 0.747634
vt 0.636211 0.746918
vt 0.632776 0.747238
vt 0.639839 0.746158
vt 0.636321 0.906981
vt 0.632762 0.907479
vt 0.603008 0.782994
vt 0.599448 0.782424
vt 0.599448 0.773222
vt 0.603008 0.773414
vt 0.639551 0.905564
vt 0.596219 0.780801
vt 0.596219 0.772675
vt 0.466186 0.739822
vt 0.464057 0.737193
vt 0.462750 0.746306
vt 0.459625 0.745280
vt 0.468698 0.742748
vt 0.466435 0.747341
vt 0.471209 0.745524
vt 0.470121 0.748227
vt 0.473338 0.747728
vt 0.473245 0.748829
vt 0.632762 0.748982
vt 0.639551 0.285074
vt 0.636321 0.282887
vt 0.639551 0.283979
vt 0.599448 0.716314
vt 0.603008 0.716122
vt 0.466435 0.799336
vt 0.462750 0.800222
vt 0.636321 0.236192
vt 0.639551 0.235442
vt 0.596219 0.716860
vt 0.470121 0.798301
vt 0.632762 0.282080
vt 0.632762 0.236873
vt 0.459625 0.800824
vt 0.473245 0.797274
vt 0.660765 0.093441
vt 0.660765 0.083493
vt 0.664324 0.083994
vt 0.664324 0.093577
vt 0.660765 0.505490
vt 0.660765 0.495528
vt 0.664324 0.495393
vt 0.664324 0.504961
vt 0.660765 0.478122
vt 0.664324 0.478181
vt 0.667554 0.085422
vt 0.667554 0.093962
vt 0.667554 0.495009
vt 0.667554 0.503453
vt 0.667554 0.478347
vt 0.494240 0.798991
vt 0.502791 0.802343
vt 0.500662 0.804972
vt 0.493673 0.802368
vt 0.507223 0.810429
vt 0.504099 0.811456
vt 0.507957 0.827003
vt 0.504727 0.827216
vt 0.498151 0.807897
vt 0.493004 0.806174
vt 0.500414 0.812491
vt 0.500918 0.827290
vt 0.495640 0.810674
vt 0.492335 0.809832
vt 0.496728 0.813377
vt 0.497108 0.827216
vt 0.493510 0.812878
vt 0.491767 0.812784
vt 0.493603 0.813979
vt 0.493878 0.827004
vt 0.632776 0.759026
vt 0.632762 0.757284
vt 0.636211 0.759369
vt 0.660765 0.697299
vt 0.660765 0.696193
vt 0.663994 0.695269
vt 0.660765 0.683104
vt 0.663994 0.683104
vt 0.667554 0.683104
vt 0.667554 0.694523
vt 0.639839 0.760134
vt 0.640041 0.778609
vt 0.636423 0.778523
vt 0.632988 0.778180
vt 0.472608 0.812262
vt 0.473176 0.809310
vt 0.473845 0.805652
vt 0.474514 0.801845
vt 0.475081 0.798469
vt 0.667554 0.113120
vt 0.664324 0.112734
vt 0.660765 0.111919
vt 0.639766 0.788548
vt 0.636160 0.788097
vt 0.603008 0.706542
vt 0.599448 0.707112
vt 0.632762 0.786713
vt 0.596219 0.708735
vt 0.464057 0.808910
vt 0.466186 0.806705
vt 0.468698 0.803929
vt 0.471209 0.801004
vt 0.473338 0.798374
vt 0.667554 0.114863
vt 0.639551 0.234332
vt 0.310524 0.995848
vt 0.310524 0.059324
vt 0.305554 0.995849
vt 0.305554 0.059324
vt 0.354597 0.940684
vt 0.349912 0.940674
vt 0.349912 0.004154
vt 0.354597 0.004164
vt 0.344387 0.940671
vt 0.344387 0.004151
vt 0.310524 0.033307
vt 0.310524 0.011578
vt 0.310524 0.004151
vt 0.305554 0.011579
vt 0.305554 0.004151
vt 0.660774 0.670118
vt 0.668201 0.670118
vt 0.668192 0.674803
vt 0.660765 0.674803
vt 0.660778 0.664593
vt 0.668205 0.664593
vt 0.607531 0.528727
vt 0.607931 0.527051
vt 0.602341 0.526565
vt 0.603350 0.525143
vt 0.598368 0.522577
vt 0.599844 0.521623
vt 0.596218 0.517370
vt 0.597947 0.517028
vt 0.603665 0.515894
vt 0.605479 0.522346
vt 0.635686 0.659576
vt 0.646746 0.659576
vt 0.646743 0.665101
vt 0.634925 0.663135
vt 0.646733 0.669785
vt 0.632762 0.666365
vt 0.652450 0.469703
vt 0.635674 0.469703
vt 0.634917 0.466144
vt 0.652453 0.464177
vt 0.632762 0.462914
vt 0.652463 0.459493
vt 0.604640 0.962192
vt 0.599793 0.961478
vt 0.599546 0.957669
vt 0.604640 0.940462
vt 0.604640 0.988208
vt 0.598029 0.965288
vt 0.599670 0.988209
vt 0.596218 0.968518
vt 0.597817 0.954439
vt 0.599670 0.940463
vt 0.504727 0.691090
vt 0.504099 0.655755
vt 0.507223 0.654728
vt 0.507957 0.689361
vt 0.497108 0.689573
vt 0.496728 0.657676
vt 0.500414 0.656790
vt 0.500918 0.691337
vt 0.663994 0.362007
vt 0.663994 0.389719
vt 0.660765 0.390643
vt 0.660765 0.361014
vt 0.639551 0.352419
vt 0.639551 0.387173
vt 0.636321 0.387557
vt 0.636321 0.353854
vt 0.493878 0.687763
vt 0.493603 0.658278
vt 0.667554 0.362114
vt 0.667554 0.388973
vt 0.632762 0.387692
vt 0.632762 0.354891
vt 0.660765 0.014099
vt 0.660765 0.004151
vt 0.664324 0.004652
vt 0.664324 0.014234
vt 0.632762 0.397654
vt 0.636321 0.397125
vt 0.667554 0.006080
vt 0.667554 0.014620
vt 0.639551 0.395617
vt 0.494240 0.643290
vt 0.502791 0.646642
vt 0.500662 0.649271
vt 0.493673 0.646667
vt 0.498151 0.652197
vt 0.493004 0.650474
vt 0.495640 0.654973
vt 0.492335 0.654131
vt 0.493510 0.657178
vt 0.491767 0.657083
vt 0.632776 0.798592
vt 0.632762 0.796850
vt 0.636211 0.798935
vt 0.660765 0.391749
vt 0.639839 0.799700
vt 0.640041 0.818175
vt 0.636423 0.818089
vt 0.632988 0.817746
vt 0.472608 0.656561
vt 0.473176 0.653609
vt 0.473845 0.649952
vt 0.474514 0.646145
vt 0.475081 0.642768
vt 0.667554 0.033777
vt 0.664324 0.033392
vt 0.660765 0.032576
vt 0.639766 0.828114
vt 0.636160 0.827664
vt 0.603008 0.537035
vt 0.603008 0.546615
vt 0.599448 0.546807
vt 0.599448 0.537605
vt 0.632762 0.826280
vt 0.596219 0.547353
vt 0.596219 0.539227
vt 0.464057 0.653209
vt 0.466186 0.651005
vt 0.459625 0.645123
vt 0.462750 0.644521
vt 0.468698 0.648229
vt 0.466436 0.643635
vt 0.471209 0.645303
vt 0.470121 0.642600
vt 0.473338 0.642674
vt 0.473245 0.641573
vt 0.667554 0.035520
vt 0.639551 0.116246
vt 0.639551 0.117356
vt 0.636321 0.118106
vt 0.603008 0.603907
vt 0.599448 0.603715
vt 0.462750 0.590606
vt 0.466436 0.591641
vt 0.639551 0.165892
vt 0.636321 0.164800
vt 0.596219 0.603168
vt 0.470121 0.592526
vt 0.632762 0.163994
vt 0.632762 0.118787
vt 0.459625 0.589579
vt 0.473245 0.593128
vt 0.640041 0.688078
vt 0.636422 0.688159
vt 0.636160 0.678536
vt 0.639765 0.678087
vt 0.660765 0.549462
vt 0.664324 0.550069
vt 0.664324 0.558850
vt 0.660765 0.558602
vt 0.664324 0.575939
vt 0.660765 0.575880
vt 0.632988 0.688479
vt 0.632762 0.679903
vt 0.667554 0.551796
vt 0.667554 0.559556
vt 0.667554 0.576105
vt 0.494240 0.591410
vt 0.493673 0.588458
vt 0.500662 0.585854
vt 0.502791 0.588058
vt 0.504099 0.579370
vt 0.507223 0.579971
vt 0.504727 0.563610
vt 0.507957 0.563397
vt 0.493004 0.584801
vt 0.498151 0.583077
vt 0.500414 0.578484
vt 0.500918 0.563684
vt 0.492335 0.580994
vt 0.495640 0.580152
vt 0.496728 0.577449
vt 0.497108 0.563610
vt 0.491767 0.577617
vt 0.493510 0.577523
vt 0.493603 0.576422
vt 0.493878 0.563398
vt 0.639551 0.838160
vt 0.636322 0.838532
vt 0.639551 0.836416
vt 0.660765 0.728096
vt 0.663994 0.730126
vt 0.660765 0.729202
vt 0.663994 0.742290
vt 0.660765 0.742290
vt 0.667554 0.730872
vt 0.667554 0.742290
vt 0.632762 0.839343
vt 0.636322 0.857693
vt 0.632762 0.857823
vt 0.639551 0.857320
vt 0.473176 0.581517
vt 0.472608 0.578140
vt 0.473845 0.585324
vt 0.474514 0.588981
vt 0.475081 0.591933
vt 0.636211 0.707320
vt 0.632776 0.707640
vt 0.639839 0.706559
vt 0.636322 0.867299
vt 0.632762 0.867797
vt 0.603008 0.613487
vt 0.599448 0.612917
vt 0.639551 0.865882
vt 0.596219 0.611294
vt 0.466187 0.584122
vt 0.464057 0.581492
vt 0.468698 0.587047
vt 0.471209 0.589823
vt 0.473338 0.592028
vt 0.632762 0.709384
vt 0.639551 0.166987
vt 0.287043 0.995848
vt 0.281517 0.995848
vt 0.281517 0.059324
vt 0.287043 0.059324
vt 0.276833 0.995848
vt 0.276833 0.059324
vt 0.391513 0.940656
vt 0.387173 0.940679
vt 0.387173 0.004174
vt 0.391513 0.004151
vt 0.381788 0.940689
vt 0.381788 0.004185
vt 0.281517 0.033307
vt 0.281517 0.011578
vt 0.287043 0.011578
vt 0.287043 0.033307
vt 0.281517 0.004151
vt 0.287043 0.004151
vt 0.276833 0.011578
vt 0.276833 0.004151
vt 0.668206 0.796337
vt 0.660779 0.796322
vt 0.660765 0.791982
vt 0.668192 0.791997
vt 0.668206 0.801722
vt 0.660779 0.801707
vt 0.613148 0.500413
vt 0.612890 0.502061
vt 0.607931 0.502055
vt 0.607531 0.500407
vt 0.618338 0.502575
vt 0.617470 0.503969
vt 0.622311 0.506563
vt 0.620976 0.507489
vt 0.608987 0.507380
vt 0.615342 0.506766
vt 0.596256 0.912596
vt 0.608074 0.914552
vt 0.596233 0.908256
vt 0.610220 0.911503
vt 0.613782 0.893700
vt 0.596263 0.895614
vt 0.615959 0.896804
vt 0.596301 0.899954
vt 0.640576 0.025880
vt 0.636065 0.025166
vt 0.635892 0.021356
vt 0.640576 0.004151
vt 0.640576 0.051897
vt 0.634368 0.028976
vt 0.635892 0.051897
vt 0.632762 0.032205
vt 0.634368 0.018126
vt 0.635892 0.004151
vt 0.462855 0.290418
vt 0.463483 0.325924
vt 0.460359 0.326743
vt 0.459625 0.291941
vt 0.470474 0.291941
vt 0.470854 0.323994
vt 0.467168 0.324959
vt 0.466664 0.290244
vt 0.664324 0.429792
vt 0.664324 0.402080
vt 0.667554 0.401156
vt 0.667554 0.430785
vt 0.632762 0.585987
vt 0.632762 0.551346
vt 0.635992 0.550640
vt 0.635992 0.584219
vt 0.473704 0.293548
vt 0.473978 0.323176
vt 0.660765 0.429685
vt 0.660765 0.402826
vt 0.639551 0.550392
vt 0.639551 0.583065
vt 0.661014 0.212620
vt 0.660765 0.202628
vt 0.664239 0.203179
vt 0.664476 0.212803
vt 0.639551 0.541252
vt 0.635992 0.541858
vt 0.667262 0.204639
vt 0.667466 0.213215
vt 0.632762 0.543586
vt 0.473341 0.338237
vt 0.464790 0.334869
vt 0.466920 0.332440
vt 0.473909 0.335057
vt 0.469431 0.329575
vt 0.474578 0.331307
vt 0.471942 0.326710
vt 0.475247 0.327556
vt 0.474072 0.324282
vt 0.475815 0.324377
vt 0.632762 0.917524
vt 0.632762 0.915781
vt 0.635992 0.917897
vt 0.667554 0.400050
vt 0.639551 0.918707
vt 0.639551 0.937188
vt 0.635992 0.937057
vt 0.632762 0.936684
vt 0.494974 0.324902
vt 0.494406 0.328081
vt 0.493737 0.331832
vt 0.493068 0.335582
vt 0.492500 0.338762
vt 0.667205 0.232375
vt 0.664216 0.231963
vt 0.660765 0.231100
vt 0.639551 0.947161
vt 0.635992 0.946663
vt 0.596218 0.867747
vt 0.596218 0.858167
vt 0.599778 0.857975
vt 0.599778 0.867178
vt 0.632762 0.945246
vt 0.603008 0.857429
vt 0.603008 0.865555
vt 0.503525 0.328270
vt 0.501395 0.330699
vt 0.507957 0.336396
vt 0.504832 0.337214
vt 0.498884 0.333563
vt 0.501147 0.338179
vt 0.496373 0.336428
vt 0.497461 0.339144
vt 0.494244 0.338857
vt 0.494337 0.339963
vt 0.667186 0.234119
vt 0.632762 0.344117
vt 0.632762 0.343022
vt 0.635992 0.341930
vt 0.596218 0.800875
vt 0.599778 0.801067
vt 0.504832 0.391393
vt 0.501147 0.390428
vt 0.632762 0.294485
vt 0.635992 0.295235
vt 0.603008 0.801614
vt 0.497461 0.389462
vt 0.639551 0.295916
vt 0.639551 0.341123
vt 0.507957 0.392211
vt 0.494337 0.388644
vt 0.667554 0.133112
vt 0.663995 0.133248
vt 0.663995 0.123666
vt 0.667554 0.123164
vt 0.667554 0.541160
vt 0.663994 0.540631
vt 0.663994 0.531063
vt 0.667554 0.531198
vt 0.663994 0.513851
vt 0.667554 0.513792
vt 0.660765 0.133633
vt 0.660765 0.125093
vt 0.660765 0.539123
vt 0.660765 0.530679
vt 0.660765 0.514017
vt 0.473341 0.390370
vt 0.473909 0.393550
vt 0.466920 0.396167
vt 0.464790 0.393738
vt 0.463483 0.402682
vt 0.460359 0.401864
vt 0.462855 0.418519
vt 0.459625 0.418519
vt 0.474578 0.397300
vt 0.469431 0.399032
vt 0.467168 0.403648
vt 0.466664 0.418519
vt 0.475247 0.401051
vt 0.471942 0.401896
vt 0.470854 0.404613
vt 0.470474 0.418519
vt 0.475815 0.404230
vt 0.474072 0.404325
vt 0.473978 0.405431
vt 0.473704 0.418519
vt 0.667204 0.244163
vt 0.664215 0.244607
vt 0.667185 0.242421
vt 0.667554 0.719795
vt 0.664324 0.717765
vt 0.667554 0.718689
vt 0.664324 0.705600
vt 0.667554 0.705600
vt 0.660765 0.717019
vt 0.660765 0.705600
vt 0.660765 0.245484
vt 0.664476 0.263761
vt 0.661015 0.263958
vt 0.667465 0.263317
vt 0.494406 0.400525
vt 0.494974 0.403705
vt 0.493737 0.396775
vt 0.493068 0.393024
vt 0.492500 0.389845
vt 0.663995 0.152405
vt 0.660765 0.152791
vt 0.667554 0.151590
vt 0.664239 0.273336
vt 0.660765 0.273898
vt 0.596218 0.791295
vt 0.599778 0.791865
vt 0.667262 0.271851
vt 0.603008 0.793488
vt 0.501395 0.397908
vt 0.503525 0.400337
vt 0.498884 0.395043
vt 0.496373 0.392179
vt 0.494244 0.389750
vt 0.660765 0.154534
vt 0.632762 0.293376
vt 0.292568 0.059324
vt 0.292568 0.995848
vt 0.297253 0.059324
vt 0.297253 0.995848
vt 0.334177 0.940684
vt 0.334177 0.004164
vt 0.338861 0.004154
vt 0.338861 0.940674
vt 0.292568 0.033307
vt 0.292568 0.011578
vt 0.292568 0.004151
vt 0.297253 0.011578
vt 0.297253 0.004151
vt 0.660774 0.659067
vt 0.660765 0.654383
vt 0.668192 0.654383
vt 0.668201 0.659067
vt 0.602341 0.502557
vt 0.603350 0.503953
vt 0.598368 0.506535
vt 0.599844 0.507464
vt 0.596218 0.511737
vt 0.597947 0.512056
vt 0.602879 0.509238
vt 0.634925 0.656016
vt 0.646743 0.654050
vt 0.646733 0.649366
vt 0.632762 0.652786
vt 0.652453 0.475229
vt 0.634917 0.473262
vt 0.652463 0.479913
vt 0.632762 0.476492
vt 0.632762 0.081928
vt 0.632762 0.060198
vt 0.637446 0.077404
vt 0.637273 0.081213
vt 0.638970 0.085023
vt 0.632762 0.107944
vt 0.637446 0.107944
vt 0.640576 0.088253
vt 0.637446 0.060198
vt 0.638970 0.074174
vt 0.462855 0.554923
vt 0.459625 0.553399
vt 0.460359 0.518597
vt 0.463483 0.519416
vt 0.470474 0.553399
vt 0.466664 0.555096
vt 0.467168 0.520381
vt 0.470854 0.521346
vt 0.664324 0.440079
vt 0.667554 0.439086
vt 0.667554 0.468715
vt 0.664324 0.467791
vt 0.632762 0.405956
vt 0.635992 0.407391
vt 0.635992 0.441094
vt 0.632762 0.440710
vt 0.473704 0.551793
vt 0.473978 0.522164
vt 0.660765 0.440185
vt 0.660765 0.467045
vt 0.639551 0.408428
vt 0.639551 0.441229
vt 0.667554 0.053770
vt 0.663994 0.053906
vt 0.663994 0.044324
vt 0.667554 0.043822
vt 0.639551 0.451192
vt 0.635992 0.450662
vt 0.660765 0.054291
vt 0.660765 0.045751
vt 0.632762 0.449154
vt 0.473341 0.507103
vt 0.473909 0.510283
vt 0.466920 0.512900
vt 0.464790 0.510472
vt 0.474578 0.514033
vt 0.469431 0.515765
vt 0.475247 0.517784
vt 0.471942 0.518630
vt 0.475815 0.520963
vt 0.474072 0.521058
vt 0.667204 0.283942
vt 0.664215 0.284386
vt 0.667185 0.282200
vt 0.667554 0.469820
vt 0.660765 0.285263
vt 0.664476 0.303539
vt 0.661015 0.303737
vt 0.667465 0.303096
vt 0.494406 0.517259
vt 0.494974 0.520438
vt 0.493737 0.513508
vt 0.493068 0.509758
vt 0.492500 0.506578
vt 0.663994 0.073063
vt 0.660765 0.073449
vt 0.667554 0.072248
vt 0.664239 0.313114
vt 0.660765 0.313677
vt 0.596219 0.621788
vt 0.599778 0.622358
vt 0.599778 0.631560
vt 0.596219 0.631368
vt 0.667262 0.311629
vt 0.603008 0.623981
vt 0.603008 0.632107
vt 0.501395 0.514641
vt 0.503525 0.517070
vt 0.504832 0.508126
vt 0.507957 0.508944
vt 0.498884 0.511777
vt 0.501147 0.507161
vt 0.496373 0.508912
vt 0.497461 0.506196
vt 0.494244 0.506483
vt 0.494337 0.505378
vt 0.660765 0.075192
vt 0.632762 0.175289
vt 0.635992 0.177149
vt 0.632762 0.176399
vt 0.599778 0.688468
vt 0.596219 0.688660
vt 0.501147 0.454913
vt 0.504832 0.453947
vt 0.635992 0.223843
vt 0.632762 0.224935
vt 0.603008 0.687922
vt 0.497461 0.455878
vt 0.639551 0.177830
vt 0.639551 0.223037
vt 0.507957 0.453129
vt 0.494337 0.456696
vt 0.661014 0.172827
vt 0.660765 0.162835
vt 0.664239 0.163386
vt 0.664476 0.173010
vt 0.667554 0.584407
vt 0.667554 0.593547
vt 0.663994 0.593795
vt 0.663994 0.585013
vt 0.667554 0.610825
vt 0.663994 0.610883
vt 0.667262 0.164846
vt 0.667466 0.173423
vt 0.660765 0.594501
vt 0.660765 0.586741
vt 0.660765 0.611050
vt 0.473341 0.454970
vt 0.464790 0.451602
vt 0.466920 0.449173
vt 0.473909 0.451790
vt 0.460359 0.443476
vt 0.463483 0.442658
vt 0.459625 0.426821
vt 0.462855 0.426821
vt 0.469431 0.446308
vt 0.474578 0.448040
vt 0.467168 0.441693
vt 0.466664 0.426821
vt 0.471942 0.443444
vt 0.475247 0.444290
vt 0.470854 0.440728
vt 0.470474 0.426821
vt 0.474072 0.441015
vt 0.475815 0.441110
vt 0.473978 0.439909
vt 0.473704 0.426821
vt 0.632762 0.957206
vt 0.632762 0.955463
vt 0.635992 0.957579
vt 0.667554 0.750592
vt 0.667554 0.751698
vt 0.664324 0.752622
vt 0.667554 0.764786
vt 0.664324 0.764786
vt 0.660765 0.764786
vt 0.660765 0.753368
vt 0.639551 0.958389
vt 0.639551 0.976870
vt 0.635992 0.976739
vt 0.632762 0.976367
vt 0.494974 0.441635
vt 0.494406 0.444815
vt 0.493737 0.448565
vt 0.493068 0.452316
vt 0.492500 0.455495
vt 0.667205 0.192583
vt 0.664216 0.192170
vt 0.660765 0.191308
vt 0.639551 0.986843
vt 0.635992 0.986346
vt 0.596219 0.698240
vt 0.599778 0.697671
vt 0.632762 0.984928
vt 0.603008 0.696048
vt 0.503525 0.445003
vt 0.501395 0.447432
vt 0.498884 0.450297
vt 0.496373 0.453161
vt 0.494244 0.455590
vt 0.667186 0.194326
vt 0.632762 0.226031
vt 0.632780 0.633253
vt 0.632762 0.629373
vt 0.634977 0.631435
vt 0.634277 0.636836
vt 0.638759 0.633628
vt 0.637025 0.639579
vt 0.643231 0.635546
vt 0.640607 0.641064
vt 0.647429 0.636772
vt 0.644476 0.641064
vt 0.650354 0.637114
vt 0.647856 0.639746
vt 0.634226 0.625789
vt 0.637133 0.626099
vt 0.641331 0.627319
vt 0.645806 0.629241
vt 0.649591 0.631445
vt 0.651818 0.633530
vt 0.636743 0.623185
vt 0.640104 0.621840
vt 0.643973 0.621840
vt 0.647555 0.623324
vt 0.650303 0.626067
vt 0.651800 0.629651
vt 0.651874 0.601832
vt 0.651874 0.605716
vt 0.650387 0.609305
vt 0.649660 0.603896
vt 0.647641 0.612052
vt 0.645873 0.606092
vt 0.644052 0.613538
vt 0.641392 0.608013
vt 0.640168 0.613538
vt 0.637183 0.609241
vt 0.636769 0.612219
vt 0.634249 0.609583
vt 0.650387 0.598243
vt 0.647471 0.598553
vt 0.643262 0.599775
vt 0.638778 0.601699
vt 0.634989 0.603906
vt 0.632762 0.605994
vt 0.647849 0.595636
vt 0.644468 0.594288
vt 0.640584 0.594288
vt 0.636995 0.595775
vt 0.634249 0.598521
vt 0.632762 0.602110
vt 0.587637 0.164727
vt 0.587637 0.176659
vt 0.583091 0.187690
vt 0.579303 0.175544
vt 0.464192 0.848597
vt 0.472630 0.840159
vt 0.483656 0.835592
vt 0.477752 0.846878
vt 0.554568 0.951196
vt 0.554568 0.962900
vt 0.527922 0.962900
vt 0.527922 0.951196
vt 0.583091 0.153712
vt 0.571478 0.161528
vt 0.459625 0.859623
vt 0.473388 0.862360
vt 0.554568 0.972823
vt 0.527922 0.972823
vt 0.574692 0.145290
vt 0.561568 0.148915
vt 0.459625 0.871556
vt 0.471495 0.878334
vt 0.596219 0.098961
vt 0.596219 0.089017
vt 0.622865 0.089017
vt 0.622865 0.098961
vt 0.563718 0.140745
vt 0.551840 0.140766
vt 0.464192 0.882582
vt 0.472630 0.891020
vt 0.596219 0.077306
vt 0.622865 0.077306
vt 0.574692 0.196143
vt 0.567488 0.185325
vt 0.495589 0.835592
vt 0.493048 0.848370
vt 0.596219 0.065609
vt 0.622865 0.065609
vt 0.557779 0.170748
vt 0.489623 0.865590
vt 0.596219 0.055707
vt 0.622865 0.055707
vt 0.548071 0.156170
vt 0.486197 0.882809
vt 0.596219 0.201943
vt 0.596219 0.191539
vt 0.622865 0.191539
vt 0.622865 0.201943
vt 0.540866 0.145353
vt 0.483656 0.895587
vt 0.596219 0.179689
vt 0.622865 0.179689
vt 0.563718 0.200729
vt 0.553991 0.192580
vt 0.506615 0.840159
vt 0.507750 0.852845
vt 0.596219 0.168199
vt 0.622865 0.168199
vt 0.544081 0.179967
vt 0.505857 0.868819
vt 0.596219 0.158818
vt 0.622865 0.158818
vt 0.536256 0.165951
vt 0.501493 0.884301
vt 0.554429 0.413976
vt 0.555106 0.423941
vt 0.528599 0.423958
vt 0.527922 0.413994
vt 0.532467 0.153805
vt 0.495589 0.895587
vt 0.555344 0.435660
vt 0.528837 0.435677
vt 0.551840 0.200751
vt 0.540866 0.196205
vt 0.515053 0.848597
vt 0.519620 0.859623
vt 0.555106 0.447349
vt 0.528599 0.447367
vt 0.532467 0.187784
vt 0.519620 0.871557
vt 0.554429 0.457230
vt 0.527922 0.457247
vt 0.527922 0.176769
vt 0.515053 0.882582
vt 0.554568 0.929569
vt 0.554568 0.939491
vt 0.527922 0.939491
vt 0.527922 0.929569
vt 0.527922 0.164837
vt 0.506615 0.891020
vt 0.587637 0.233035
vt 0.587637 0.244967
vt 0.583091 0.255998
vt 0.579303 0.243852
vt 0.464192 0.916894
vt 0.472630 0.908456
vt 0.483656 0.903889
vt 0.477752 0.915175
vt 0.622865 0.025778
vt 0.622865 0.037482
vt 0.596218 0.037482
vt 0.596218 0.025778
vt 0.583091 0.222020
vt 0.571478 0.229836
vt 0.459625 0.927920
vt 0.473388 0.930657
vt 0.622865 0.047405
vt 0.596218 0.047405
vt 0.574692 0.213598
vt 0.561568 0.217223
vt 0.459625 0.939853
vt 0.471495 0.946631
vt 0.596219 0.150516
vt 0.596219 0.140573
vt 0.622865 0.140573
vt 0.622865 0.150516
vt 0.563718 0.209053
vt 0.551840 0.209074
vt 0.464192 0.950879
vt 0.472630 0.959317
vt 0.596219 0.128861
vt 0.622865 0.128861
vt 0.574692 0.264451
vt 0.567488 0.253633
vt 0.495590 0.903889
vt 0.493048 0.916667
vt 0.596219 0.117164
vt 0.622865 0.117164
vt 0.557779 0.239056
vt 0.489623 0.933886
vt 0.596219 0.107262
vt 0.622865 0.107262
vt 0.548071 0.224478
vt 0.486198 0.951106
vt 0.596219 0.253370
vt 0.596219 0.242966
vt 0.622865 0.242966
vt 0.622865 0.253370
vt 0.540866 0.213661
vt 0.483656 0.963884
vt 0.596219 0.231116
vt 0.622865 0.231116
vt 0.563718 0.269037
vt 0.553991 0.260888
vt 0.506615 0.908456
vt 0.507750 0.921142
vt 0.596219 0.219626
vt 0.622865 0.219626
vt 0.544081 0.248275
vt 0.505857 0.937116
vt 0.596219 0.210245
vt 0.622865 0.210245
vt 0.536256 0.234259
vt 0.501493 0.952598
vt 0.554429 0.465549
vt 0.555106 0.475513
vt 0.528599 0.475531
vt 0.527922 0.465566
vt 0.532467 0.222113
vt 0.495590 0.963884
vt 0.555344 0.487232
vt 0.528837 0.487250
vt 0.551840 0.269059
vt 0.540866 0.264513
vt 0.515053 0.916894
vt 0.519620 0.927920
vt 0.555106 0.498922
vt 0.528599 0.498939
vt 0.532467 0.256092
vt 0.519620 0.939853
vt 0.554429 0.508802
vt 0.527922 0.508819
vt 0.527922 0.245077
vt 0.515053 0.950879
vt 0.622865 0.004151
vt 0.622865 0.014073
vt 0.596218 0.014073
vt 0.596218 0.004151
vt 0.527922 0.233145
vt 0.506615 0.959317
vt 0.574912 0.127876
vt 0.563886 0.132443
vt 0.551952 0.132443
vt 0.561726 0.124275
vt 0.532465 0.324319
vt 0.527922 0.313289
vt 0.527922 0.301356
vt 0.536048 0.311139
vt 0.554568 0.848084
vt 0.554568 0.859789
vt 0.527922 0.859789
vt 0.527922 0.848084
vt 0.583350 0.119438
vt 0.571682 0.111642
vt 0.540860 0.332769
vt 0.548616 0.321113
vt 0.554568 0.869711
vt 0.527922 0.869711
vt 0.587917 0.108412
vt 0.579544 0.097608
vt 0.551829 0.337350
vt 0.562577 0.328993
vt 0.527922 0.921267
vt 0.527922 0.911344
vt 0.554568 0.911344
vt 0.554568 0.921267
vt 0.587917 0.096478
vt 0.583350 0.085453
vt 0.563701 0.337367
vt 0.574669 0.332816
vt 0.527922 0.899640
vt 0.554568 0.899640
vt 0.540927 0.127876
vt 0.548165 0.117043
vt 0.532465 0.290338
vt 0.543242 0.297590
vt 0.527922 0.887935
vt 0.554568 0.887935
vt 0.557919 0.102445
vt 0.557765 0.307364
vt 0.527922 0.878013
vt 0.554568 0.878013
vt 0.567673 0.087847
vt 0.572287 0.317137
vt 0.528613 0.663488
vt 0.528101 0.653565
vt 0.554668 0.653565
vt 0.555180 0.663488
vt 0.574912 0.077015
vt 0.583064 0.324390
vt 0.527922 0.641861
vt 0.554489 0.641861
vt 0.532489 0.119438
vt 0.536295 0.107282
vt 0.540860 0.281912
vt 0.552953 0.285735
vt 0.528101 0.630156
vt 0.554668 0.630156
vt 0.544156 0.093249
vt 0.566913 0.293615
vt 0.528613 0.620234
vt 0.555180 0.620234
vt 0.554113 0.080616
vt 0.579482 0.303588
vt 0.554439 0.517121
vt 0.555091 0.527043
vt 0.528574 0.527042
vt 0.527922 0.517121
vt 0.563886 0.072448
vt 0.587608 0.313372
vt 0.555320 0.538746
vt 0.528803 0.538746
vt 0.527922 0.108412
vt 0.527922 0.096478
vt 0.551829 0.277361
vt 0.563701 0.277377
vt 0.555091 0.550452
vt 0.528574 0.550451
vt 0.532489 0.085453
vt 0.574669 0.281959
vt 0.554439 0.560376
vt 0.527922 0.560375
vt 0.540927 0.077015
vt 0.583064 0.290408
vt 0.554568 0.826457
vt 0.554568 0.836380
vt 0.527922 0.836380
vt 0.527922 0.826457
vt 0.551952 0.072448
vt 0.587608 0.301439
vt 0.532465 0.392627
vt 0.527922 0.381596
vt 0.527922 0.369664
vt 0.536048 0.379447
vt 0.574912 0.059579
vt 0.563886 0.064146
vt 0.551952 0.064146
vt 0.561726 0.055978
vt 0.554568 0.744972
vt 0.554568 0.756677
vt 0.527922 0.756677
vt 0.527922 0.744972
vt 0.540860 0.401076
vt 0.548616 0.389421
vt 0.583350 0.051141
vt 0.571682 0.043345
vt 0.554568 0.766600
vt 0.527922 0.766600
vt 0.551829 0.405658
vt 0.562577 0.397301
vt 0.587917 0.040115
vt 0.579544 0.029311
vt 0.527922 0.818155
vt 0.527922 0.808233
vt 0.554568 0.808233
vt 0.554568 0.818155
vt 0.563701 0.405675
vt 0.574669 0.401123
vt 0.587917 0.028182
vt 0.583350 0.017156
vt 0.527922 0.796528
vt 0.554568 0.796528
vt 0.532465 0.358646
vt 0.543242 0.365898
vt 0.540927 0.059579
vt 0.548165 0.048746
vt 0.527922 0.784824
vt 0.554568 0.784824
vt 0.557765 0.375672
vt 0.557919 0.034148
vt 0.527922 0.774901
vt 0.554568 0.774901
vt 0.572287 0.385445
vt 0.567673 0.019551
vt 0.528613 0.715044
vt 0.528101 0.705121
vt 0.554668 0.705121
vt 0.555180 0.715044
vt 0.583064 0.392697
vt 0.574912 0.008718
vt 0.527922 0.693417
vt 0.554489 0.693417
vt 0.540860 0.350220
vt 0.552953 0.354042
vt 0.532489 0.051141
vt 0.536295 0.038986
vt 0.528101 0.681712
vt 0.554668 0.681712
vt 0.566913 0.361922
vt 0.544156 0.024952
vt 0.528613 0.671790
vt 0.555180 0.671790
vt 0.579482 0.371896
vt 0.554113 0.012319
vt 0.554439 0.568678
vt 0.555091 0.578599
vt 0.528574 0.578598
vt 0.527922 0.568677
vt 0.587608 0.381679
vt 0.563886 0.004151
vt 0.555320 0.590303
vt 0.528803 0.590302
vt 0.551829 0.345668
vt 0.563701 0.345685
vt 0.527922 0.040115
vt 0.527922 0.028182
vt 0.555091 0.602008
vt 0.528574 0.602007
vt 0.574669 0.350267
vt 0.532489 0.017156
vt 0.554439 0.611932
vt 0.527922 0.611932
vt 0.583064 0.358716
vt 0.540927 0.008718
vt 0.554568 0.723345
vt 0.554568 0.733268
vt 0.527922 0.733268
vt 0.527922 0.723345
vt 0.587608 0.369747
vt 0.551952 0.004151
vt 0.136341 0.172763
vt 0.172763 0.136341
vt 0.268531 0.232109
vt 0.232109 0.268531
vt 0.098002 0.407452
vt 0.134370 0.443712
vt 0.040519 0.541390
vt 0.004151 0.505131
vt 0.451323 0.856964
vt 0.399815 0.856964
vt 0.399818 0.722185
vt 0.418861 0.722185
vt 0.170738 0.407235
vt 0.134370 0.370976
vt 0.231769 0.276833
vt 0.268137 0.313092
vt 0.099919 0.136341
vt 0.136341 0.099919
vt 0.615261 0.492105
vt 0.596218 0.492093
vt 0.596218 0.440853
vt 0.615261 0.440866
vt 0.451323 0.283325
vt 0.399815 0.283325
vt 0.399815 0.147889
vt 0.418858 0.147889
vt 0.399815 0.579104
vt 0.451323 0.579103
vt 0.418858 0.713883
vt 0.399815 0.713883
vt 0.004151 0.313880
vt 0.040519 0.277404
vt 0.615262 0.372991
vt 0.596219 0.372991
vt 0.596219 0.321482
vt 0.615262 0.321482
vt 0.004151 0.040573
vt 0.040573 0.004151
vt 0.268137 0.504343
vt 0.231769 0.540820
vt 0.399815 0.004151
vt 0.451323 0.004151
vt 0.418858 0.139587
vt 0.399815 0.139587
vt 0.596218 0.381293
vt 0.615262 0.381292
vt 0.615262 0.432551
vt 0.596218 0.432552
vt 0.399815 0.435365
vt 0.451323 0.435365
vt 0.418858 0.570801
vt 0.399815 0.570801
vt 0.459625 0.004151
vt 0.511133 0.004185
vt 0.511133 0.138913
vt 0.492090 0.138900
vt 0.232109 0.004151
vt 0.268531 0.040573
vt 0.615262 0.313180
vt 0.596218 0.313180
vt 0.596218 0.261672
vt 0.615262 0.261672
vt 0.459625 0.147215
vt 0.511133 0.147215
vt 0.478757 0.281943
vt 0.459714 0.281943
vt 0.451323 0.427063
vt 0.399815 0.427063
vt 0.399815 0.291627
vt 0.418858 0.291627
vt 0.040573 0.268531
vt 0.004151 0.232109
vt 0.124223 0.397019
vt 0.121098 0.401706
vt 0.120001 0.407226
vt 0.121098 0.412740
vt 0.124223 0.417408
vt 0.144613 0.417347
vt 0.128901 0.420520
vt 0.134418 0.421601
vt 0.139935 0.420487
vt 0.128901 0.393880
vt 0.147738 0.412661
vt 0.134418 0.392766
vt 0.148836 0.407140
vt 0.139935 0.393847
vt 0.147738 0.401626
vt 0.144613 0.396958
s 1
g Cylinder.005_3D_Medical-Device2_v2_Material.1001
usemtl 3D_Medical-Device2_v2_Material.1001
f 1/1/1 2/2/1 4/3/2 3/4/3
f 3/4/3 4/3/2 6/5/4 5/6/5
f 5/7/5 6/8/4 8/9/6 7/10/7
f 7/10/7 8/9/6 10/11/8 9/12/9
f 39/13/10 40/14/1 11/15/1 12/16/11
f 12/16/11 11/15/1 16/17/1 17/18/3
f 13/19/12 12/16/11 17/18/3 18/20/5
f 14/21/13 13/22/12 18/23/5 19/24/7
f 15/25/14 14/21/13 19/24/7 20/26/9
f 17/27/15 16/28/16 21/29/17 22/30/18
f 18/31/19 17/27/15 22/30/18 23/32/20
f 19/33/21 18/31/19 23/32/20 24/34/22
f 20/35/23 19/33/21 24/34/22 25/36/24
f 27/37/25 29/38/25 28/39/25 26/40/25
f 29/38/25 22/30/18 21/29/17 28/39/25
f 25/36/24 24/34/22 29/38/25 27/37/25
f 24/34/22 23/32/20 22/30/18 29/38/25
f 38/41/26 37/42/27 14/43/13 15/44/14
f 13/45/12 14/43/13 37/42/27 36/46/28
f 10/47/8 8/48/6 31/49/29 30/50/30
f 8/48/6 6/51/4 32/52/31 31/49/29
f 4/3/2 2/2/1 40/14/1 39/13/10
f 39/53/10 12/54/11 35/55/32 34/56/33
f 34/57/33 33/58/34 4/59/2 39/60/10
f 6/51/4 4/61/2 33/62/34 32/52/31
f 12/54/11 13/45/12 36/46/28 35/55/32
f 35/63/35 36/64/36 47/65/37 50/66/38
f 33/67/39 34/68/40 53/69/41 56/70/42
f 31/71/43 32/72/44 59/73/45 62/74/46
f 36/75/36 37/76/47 44/77/48 47/78/37
f 34/68/40 35/63/35 50/66/38 53/69/41
f 32/79/44 33/67/39 56/70/42 59/80/45
f 30/81/49 31/71/43 62/74/46 63/82/49
f 37/76/47 38/83/50 43/84/51 44/77/48
f 41/85/52 46/86/53 45/87/54 42/88/55
f 42/89/56 45/90/57 44/77/48 43/84/51
f 46/86/53 49/91/58 48/92/59 45/87/54
f 45/90/57 48/93/59 47/78/37 44/77/48
f 49/94/58 52/95/60 51/96/61 48/97/59
f 48/97/59 51/96/61 50/66/38 47/65/37
f 52/95/60 55/98/62 54/99/63 51/96/61
f 51/96/61 54/99/63 53/69/41 50/66/38
f 55/98/62 58/100/64 57/101/65 54/99/63
f 54/99/63 57/101/65 56/70/42 53/69/41
f 58/100/64 61/102/66 60/103/67 57/101/65
f 57/101/65 60/103/68 59/80/45 56/70/42
f 61/104/66 62/105/69 60/106/67
f 60/107/68 62/74/46 59/73/45
f 63/108/70 62/105/69 69/109/71 64/110/72
f 62/105/69 61/104/66 72/111/73 69/109/71
f 61/102/66 58/100/64 75/112/74 72/113/73
f 58/100/64 55/98/62 78/114/75 75/112/74
f 55/98/62 52/95/60 81/115/76 78/114/75
f 52/95/60 49/94/58 84/116/77 81/115/76
f 49/91/58 46/86/53 85/117/78 84/118/77
f 46/86/53 41/85/52 86/119/79 85/117/78
f 64/110/72 69/109/71 68/120/80 65/121/81
f 65/122/82 68/123/83 67/124/84 66/125/85
f 69/109/71 72/111/73 71/126/86 68/120/80
f 68/123/83 71/127/86 70/128/87 67/124/84
f 72/113/73 75/112/74 74/129/88 71/130/86
f 71/130/86 74/129/88 73/131/89 70/132/87
f 75/112/74 78/114/75 77/133/90 74/129/88
f 74/129/88 77/133/90 76/134/91 73/131/89
f 78/114/75 81/115/76 80/135/92 77/133/90
f 77/133/90 80/135/92 79/136/93 76/134/91
f 81/115/76 84/116/77 83/137/94 80/135/92
f 80/135/92 83/137/95 82/138/96 79/136/93
f 84/118/77 85/117/78 83/139/94
f 83/140/95 85/141/97 82/142/96
f 66/125/85 67/124/84 122/143/98 121/144/99
f 73/131/89 76/134/91 131/145/100 128/146/101
f 82/142/96 85/141/97 140/147/102 137/148/103
f 67/124/84 70/128/87 125/149/104 122/143/98
f 76/134/91 79/136/93 134/150/105 131/145/100
f 85/141/97 86/151/25 141/152/25 140/147/102
f 70/132/87 73/131/89 128/146/101 125/153/104
f 79/136/93 82/138/96 137/154/103 134/150/105
f 96/155/106 97/156/107 100/157/108 101/158/109
f 97/159/110 98/160/111 99/161/112 100/162/113
f 98/160/111 95/163/114 94/164/115 99/161/112
f 101/158/109 100/157/108 103/165/116 104/166/117
f 100/162/113 99/161/112 102/167/118 103/168/116
f 99/161/112 94/164/115 93/169/119 102/167/118
f 104/170/117 103/171/116 106/172/120 107/173/121
f 103/171/116 102/174/118 105/175/122 106/172/120
f 102/174/118 93/176/119 92/177/123 105/175/122
f 107/173/121 106/172/120 109/178/124 110/179/125
f 106/172/120 105/175/122 108/180/126 109/178/124
f 105/175/122 92/177/123 91/181/127 108/180/126
f 110/179/125 109/178/124 112/182/128 113/183/129
f 109/178/124 108/180/126 111/184/130 112/182/128
f 108/180/126 91/181/127 90/185/131 111/184/130
f 113/183/129 112/182/128 115/186/132 116/187/133
f 112/182/128 111/184/130 114/188/134 115/186/135
f 111/184/130 90/185/131 89/189/136 114/188/134
f 116/190/133 115/191/132 117/192/137
f 115/193/135 114/194/134 117/195/138
f 114/194/134 89/196/136 88/197/139 117/195/138
f 117/195/138 88/197/139 87/198/140 118/199/140
f 118/200/141 119/201/142 124/202/143 117/192/137
f 117/192/137 124/202/143 127/203/144 116/190/133
f 116/187/133 127/204/144 130/205/145 113/183/129
f 113/183/129 130/205/145 133/206/146 110/179/125
f 110/179/125 133/206/146 136/207/147 107/173/121
f 107/173/121 136/207/147 139/208/148 104/170/117
f 104/166/117 139/209/148 140/210/149 101/158/109
f 101/158/109 140/210/149 141/211/150 96/155/106
f 119/201/142 120/212/151 123/213/152 124/202/143
f 120/214/153 121/144/99 122/143/98 123/215/154
f 124/202/143 123/213/152 126/216/155 127/203/144
f 123/215/154 122/143/98 125/149/104 126/217/155
f 127/204/144 126/218/155 129/219/156 130/205/145
f 126/218/155 125/153/104 128/146/101 129/219/156
f 130/205/145 129/219/156 132/220/157 133/206/146
f 129/219/156 128/146/101 131/145/100 132/220/157
f 133/206/146 132/220/157 135/221/158 136/207/147
f 132/220/157 131/145/100 134/150/105 135/221/158
f 136/207/147 135/221/158 138/222/159 139/208/148
f 135/221/158 134/150/105 137/154/103 138/222/160
f 139/209/148 138/223/159 140/210/149
f 138/224/160 137/148/103 140/147/102
f 1/1/1 142/225/161 143/226/162 2/2/1
f 142/225/161 144/227/163 145/228/164 143/226/162
f 144/229/163 146/230/165 147/231/166 145/232/164
f 146/230/165 148/233/167 149/234/168 147/231/166
f 173/235/169 150/236/170 11/15/1 40/14/1
f 150/236/170 154/237/161 16/17/1 11/15/1
f 151/238/171 155/239/163 154/237/161 150/236/170
f 152/240/172 156/241/165 155/242/163 151/243/171
f 153/244/173 157/245/167 156/241/165 152/240/172
f 154/246/174 158/247/175 21/29/17 16/28/16
f 155/248/176 159/249/177 158/247/175 154/246/174
f 156/250/178 160/251/179 159/249/177 155/248/176
f 157/252/180 161/253/181 160/251/179 156/250/178
f 162/254/25 26/40/25 28/39/25 163/255/25
f 163/255/25 28/39/25 21/29/17 158/247/175
f 161/253/181 162/254/25 163/255/25 160/251/179
f 160/251/179 163/255/25 158/247/175 159/249/177
f 172/256/182 153/257/173 152/258/172 171/259/183
f 151/260/171 170/261/184 171/259/183 152/258/172
f 149/262/168 164/263/185 165/264/186 147/265/166
f 147/265/166 165/264/186 166/266/187 145/267/164
f 143/226/162 173/235/169 40/14/1 2/2/1
f 173/268/169 168/269/188 169/270/189 150/271/170
f 168/269/188 173/268/169 143/272/162 167/273/190
f 145/274/164 166/275/187 167/273/190 143/272/162
f 150/271/170 169/270/189 170/276/184 151/277/171
f 169/278/191 183/279/192 180/280/193 170/281/194
f 167/282/195 189/283/196 186/284/197 168/285/198
f 165/286/199 195/287/200 192/288/201 166/289/202
f 170/290/194 180/291/193 177/292/203 171/293/204
f 168/285/198 186/284/197 183/279/192 169/278/191
f 166/294/202 192/295/201 189/283/196 167/282/195
f 164/296/205 196/297/205 195/287/200 165/286/199
f 171/293/204 177/292/203 176/298/206 172/299/207
f 174/300/106 175/301/107 178/302/108 179/303/109
f 175/304/110 176/298/206 177/292/203 178/305/113
f 179/303/109 178/302/108 181/306/116 182/307/117
f 178/305/113 177/292/203 180/291/193 181/308/116
f 182/309/117 181/310/116 184/311/120 185/312/121
f 181/310/116 180/280/193 183/279/192 184/311/120
f 185/312/121 184/311/120 187/313/124 188/314/125
f 184/311/120 183/279/192 186/284/197 187/313/124
f 188/314/125 187/313/124 190/315/128 191/316/129
f 187/313/124 186/284/197 189/283/196 190/315/128
f 191/316/129 190/315/128 193/317/132 194/318/133
f 190/315/128 189/283/196 192/295/201 193/317/135
f 194/319/133 193/320/132 195/321/137
f 193/322/135 192/288/201 195/287/200
f 196/323/141 197/324/142 202/325/143 195/321/137
f 195/321/137 202/325/143 205/326/144 194/319/133
f 194/318/133 205/327/144 208/328/145 191/316/129
f 191/316/129 208/328/145 211/329/146 188/314/125
f 188/314/125 211/329/146 214/330/147 185/312/121
f 185/312/121 214/330/147 217/331/148 182/309/117
f 182/307/117 217/332/148 218/333/149 179/303/109
f 179/303/109 218/333/149 219/334/150 174/300/106
f 197/324/142 198/335/151 201/336/152 202/325/143
f 198/337/153 199/338/99 200/339/98 201/340/154
f 202/325/143 201/336/152 204/341/155 205/326/144
f 201/340/154 200/339/98 203/342/104 204/343/155
f 205/327/144 204/344/155 207/345/156 208/328/145
f 204/344/155 203/346/104 206/347/101 207/345/156
f 208/328/145 207/345/156 210/348/157 211/329/146
f 207/345/156 206/347/101 209/349/100 210/348/157
f 211/329/146 210/348/157 213/350/158 214/330/147
f 210/348/157 209/349/100 212/351/105 213/350/158
f 214/330/147 213/350/158 216/352/159 217/331/148
f 213/350/158 212/351/105 215/353/103 216/352/160
f 217/332/148 216/354/159 218/333/149
f 216/355/160 215/356/103 218/357/102
f 199/338/99 254/358/85 255/359/84 200/339/98
f 206/347/101 261/360/89 264/361/91 209/349/100
f 215/356/103 270/362/96 273/363/97 218/357/102
f 200/339/98 255/359/84 258/364/87 203/342/104
f 209/349/100 264/361/91 267/365/93 212/351/105
f 218/357/102 273/363/97 274/366/25 219/367/25
f 203/346/104 258/368/87 261/360/89 206/347/101
f 212/351/105 267/365/93 270/369/96 215/353/103
f 229/370/52 234/371/53 233/372/54 230/373/55
f 230/374/56 233/375/57 232/376/208 231/377/209
f 231/377/209 232/376/208 227/378/210 228/379/211
f 234/371/53 237/380/58 236/381/59 233/372/54
f 233/375/57 236/382/59 235/383/212 232/376/208
f 232/376/208 235/383/212 226/384/213 227/378/210
f 237/385/58 240/386/60 239/387/61 236/388/59
f 236/388/59 239/387/61 238/389/214 235/390/212
f 235/390/212 238/389/214 225/391/215 226/392/213
f 240/386/60 243/393/62 242/394/63 239/387/61
f 239/387/61 242/394/63 241/395/216 238/389/214
f 238/389/214 241/395/216 224/396/217 225/391/215
f 243/393/62 246/397/64 245/398/65 242/394/63
f 242/394/63 245/398/65 244/399/218 241/395/216
f 241/395/216 244/399/218 223/400/219 224/396/217
f 246/397/64 249/401/66 248/402/67 245/398/65
f 245/398/65 248/402/68 247/403/220 244/399/218
f 244/399/218 247/403/220 222/404/221 223/400/219
f 249/405/66 250/406/69 248/407/67
f 248/408/68 250/409/222 247/410/220
f 247/410/220 250/409/222 221/411/223 222/412/221
f 250/409/222 251/413/224 220/414/224 221/411/223
f 251/415/70 250/406/69 257/416/71 252/417/72
f 250/406/69 249/405/66 260/418/73 257/416/71
f 249/401/66 246/397/64 263/419/74 260/420/73
f 246/397/64 243/393/62 266/421/75 263/419/74
f 243/393/62 240/386/60 269/422/76 266/421/75
f 240/386/60 237/385/58 272/423/77 269/422/76
f 237/380/58 234/371/53 273/424/78 272/425/77
f 234/371/53 229/370/52 274/426/79 273/424/78
f 252/417/72 257/416/71 256/427/80 253/428/81
f 253/429/82 256/430/83 255/359/84 254/358/85
f 257/416/71 260/418/73 259/431/86 256/427/80
f 256/430/83 259/432/86 258/364/87 255/359/84
f 260/420/73 263/419/74 262/433/88 259/434/86
f 259/434/86 262/433/88 261/360/89 258/368/87
f 263/419/74 266/421/75 265/435/90 262/433/88
f 262/433/88 265/435/90 264/361/91 261/360/89
f 266/421/75 269/422/76 268/436/92 265/435/90
f 265/435/90 268/436/92 267/365/93 264/361/91
f 269/422/76 272/423/77 271/437/94 268/436/92
f 268/436/92 271/437/95 270/369/96 267/365/93
f 272/425/77 273/424/78 271/438/94
f 271/439/95 273/363/97 270/362/96
f 275/440/225 277/441/226 278/442/227 276/443/225
f 277/441/226 279/444/228 280/445/229 278/442/227
f 279/446/228 281/447/230 282/448/231 280/449/229
f 281/447/230 9/450/9 10/451/8 282/448/231
f 304/452/232 284/453/233 283/454/225 305/455/225
f 284/453/233 288/456/226 287/457/225 283/454/225
f 285/458/234 289/459/228 288/456/226 284/453/233
f 286/460/235 290/461/230 289/462/228 285/463/234
f 15/464/14 20/465/9 290/461/230 286/460/235
f 288/466/236 292/467/237 291/468/238 287/469/239
f 289/470/240 293/471/241 292/467/237 288/466/236
f 290/472/242 294/473/243 293/471/241 289/470/240
f 20/35/23 25/36/24 294/473/243 290/472/242
f 27/37/25 26/40/25 295/474/25 296/475/25
f 296/475/25 295/474/25 291/468/238 292/467/237
f 25/36/24 27/37/25 296/475/25 294/473/243
f 294/473/243 296/475/25 292/467/237 293/471/241
f 38/41/26 15/44/14 286/476/235 303/477/244
f 285/478/234 302/479/245 303/477/244 286/476/235
f 10/47/8 30/50/30 297/480/246 282/481/231
f 282/481/231 297/480/246 298/482/247 280/483/229
f 278/442/227 304/452/232 305/455/225 276/443/225
f 304/484/232 300/485/248 301/486/249 284/487/233
f 300/485/248 304/484/232 278/488/227 299/489/250
f 280/490/229 298/491/247 299/489/250 278/488/227
f 284/487/233 301/486/249 302/492/245 285/493/234
f 301/494/251 312/495/252 309/496/253 302/497/254
f 299/498/255 318/499/256 315/500/257 300/501/258
f 297/502/259 324/503/260 321/504/261 298/505/262
f 302/506/254 309/507/253 306/508/263 303/509/264
f 300/501/258 315/500/257 312/495/252 301/494/251
f 298/510/262 321/511/261 318/499/256 299/498/255
f 30/512/49 63/513/49 324/503/260 297/502/259
f 303/509/264 306/508/263 43/514/51 38/515/50
f 41/516/52 42/517/55 307/518/265 308/519/266
f 42/520/56 43/514/51 306/508/263 307/521/267
f 308/519/266 307/518/265 310/522/268 311/523/269
f 307/521/267 306/508/263 309/507/253 310/524/268
f 311/525/269 310/526/268 313/527/270 314/528/271
f 310/526/268 309/496/253 312/495/252 313/527/270
f 314/528/271 313/527/270 316/529/272 317/530/273
f 313/527/270 312/495/252 315/500/257 316/529/272
f 317/530/273 316/529/272 319/531/274 320/532/275
f 316/529/272 315/500/257 318/499/256 319/531/274
f 320/532/275 319/531/274 322/533/276 323/534/277
f 319/531/274 318/499/256 321/511/261 322/533/278
f 323/535/277 322/536/276 324/537/279
f 322/538/278 321/504/261 324/503/260
f 63/539/70 64/540/72 327/541/280 324/537/279
f 324/537/279 327/541/280 330/542/281 323/535/277
f 323/534/277 330/543/281 333/544/282 320/532/275
f 320/532/275 333/544/282 336/545/283 317/530/273
f 317/530/273 336/545/283 339/546/284 314/528/271
f 314/528/271 339/546/284 342/547/285 311/525/269
f 311/523/269 342/548/285 343/549/286 308/519/266
f 308/519/266 343/549/286 86/550/79 41/516/52
f 64/540/72 65/551/81 326/552/287 327/541/280
f 65/553/82 66/554/85 325/555/288 326/556/289
f 327/541/280 326/552/287 329/557/290 330/542/281
f 326/556/289 325/555/288 328/558/291 329/559/290
f 330/543/281 329/560/290 332/561/292 333/544/282
f 329/560/290 328/562/291 331/563/293 332/561/292
f 333/544/282 332/561/292 335/564/294 336/545/283
f 332/561/292 331/563/293 334/565/295 335/564/294
f 336/545/283 335/564/294 338/566/296 339/546/284
f 335/564/294 334/565/295 337/567/297 338/566/296
f 339/546/284 338/566/296 341/568/298 342/547/285
f 338/566/296 337/567/297 340/569/299 341/568/300
f 342/548/285 341/570/298 343/549/286
f 341/571/300 340/572/299 343/573/301
f 66/554/85 121/574/99 370/575/302 325/555/288
f 331/563/293 376/576/303 379/577/304 334/565/295
f 340/572/299 385/578/305 388/579/306 343/573/301
f 325/555/288 370/575/302 373/580/307 328/558/291
f 334/565/295 379/577/304 382/581/308 337/567/297
f 343/573/301 388/579/306 141/582/25 86/583/25
f 328/562/291 373/584/307 376/576/303 331/563/293
f 337/567/297 382/581/308 385/585/305 340/569/299
f 96/586/106 353/587/309 352/588/310 97/589/107
f 97/590/110 352/591/311 351/592/312 98/593/111
f 98/593/111 351/592/312 350/594/313 95/595/114
f 353/587/309 356/596/314 355/597/315 352/588/310
f 352/591/311 355/598/315 354/599/316 351/592/312
f 351/592/312 354/599/316 349/600/317 350/594/313
f 356/601/314 359/602/318 358/603/319 355/604/315
f 355/604/315 358/603/319 357/605/320 354/606/316
f 354/606/316 357/605/320 348/607/321 349/608/317
f 359/602/318 362/609/322 361/610/323 358/603/319
f 358/603/319 361/610/323 360/611/324 357/605/320
f 357/605/320 360/611/324 347/612/325 348/607/321
f 362/609/322 365/613/326 364/614/327 361/610/323
f 361/610/323 364/614/327 363/615/328 360/611/324
f 360/611/324 363/615/328 346/616/329 347/612/325
f 365/613/326 368/617/330 367/618/331 364/614/327
f 364/614/327 367/618/332 366/619/333 363/615/328
f 363/615/328 366/619/333 345/620/334 346/616/329
f 368/621/330 369/622/335 367/623/331
f 367/624/332 369/625/336 366/626/333
f 366/626/333 369/625/336 344/627/337 345/628/334
f 369/625/336 118/629/140 87/630/140 344/627/337
f 118/631/141 369/622/335 372/632/338 119/633/142
f 369/622/335 368/621/330 375/634/339 372/632/338
f 368/617/330 365/613/326 378/635/340 375/636/339
f 365/613/326 362/609/322 381/637/341 378/635/340
f 362/609/322 359/602/318 384/638/342 381/637/341
f 359/602/318 356/601/314 387/639/343 384/638/342
f 356/596/314 353/587/309 388/640/344 387/641/343
f 353/587/309 96/586/106 141/642/150 388/640/344
f 119/633/142 372/632/338 371/643/345 120/644/151
f 120/645/153 371/646/346 370/575/302 121/574/99
f 372/632/338 375/634/339 374/647/347 371/643/345
f 371/646/346 374/648/347 373/580/307 370/575/302
f 375/636/339 378/635/340 377/649/348 374/650/347
f 374/650/347 377/649/348 376/576/303 373/584/307
f 378/635/340 381/637/341 380/651/349 377/649/348
f 377/649/348 380/651/349 379/577/304 376/576/303
f 381/637/341 384/638/342 383/652/350 380/651/349
f 380/651/349 383/652/350 382/581/308 379/577/304
f 384/638/342 387/639/343 386/653/351 383/652/350
f 383/652/350 386/653/352 385/585/305 382/581/308
f 387/641/343 388/640/344 386/654/351
f 386/655/352 388/579/306 385/578/305
f 275/440/225 276/443/225 390/656/353 389/657/354
f 389/657/354 390/656/353 392/658/355 391/659/356
f 391/660/356 392/661/355 394/662/357 393/663/358
f 393/663/358 394/662/357 149/234/168 148/233/167
f 412/664/359 305/455/225 283/454/225 395/665/360
f 395/665/360 283/454/225 287/457/225 398/666/354
f 396/667/361 395/665/360 398/666/354 399/668/356
f 397/669/362 396/670/361 399/671/356 400/672/358
f 153/244/173 397/669/362 400/672/358 157/245/167
f 398/673/363 287/469/239 291/468/238 401/674/364
f 399/675/365 398/673/363 401/674/364 402/676/366
f 400/677/367 399/675/365 402/676/366 403/678/368
f 157/252/180 400/677/367 403/678/368 161/253/181
f 162/254/25 404/679/25 295/474/25 26/40/25
f 404/679/25 401/674/364 291/468/238 295/474/25
f 161/253/181 403/678/368 404/679/25 162/254/25
f 403/678/368 402/676/366 401/674/364 404/679/25
f 172/256/182 411/680/369 397/681/362 153/257/173
f 396/682/361 397/681/362 411/680/369 410/683/370
f 149/262/168 394/684/357 405/685/371 164/263/185
f 394/684/357 392/686/355 406/687/372 405/685/371
f 390/656/353 276/443/225 305/455/225 412/664/359
f 412/688/359 395/689/360 409/690/373 408/691/374
f 408/691/374 407/692/375 390/693/353 412/688/359
f 392/694/355 390/693/353 407/692/375 406/695/372
f 395/689/360 396/696/361 410/697/370 409/690/373
f 409/698/376 410/699/377 416/700/378 419/701/379
f 407/702/380 408/703/381 422/704/382 425/705/383
f 405/706/384 406/707/385 428/708/386 431/709/387
f 410/710/377 411/711/388 413/712/389 416/713/378
f 408/703/381 409/698/376 419/701/379 422/704/382
f 406/714/385 407/702/380 425/705/383 428/715/386
f 164/716/205 405/706/384 431/709/387 196/717/205
f 411/711/388 172/718/207 176/719/206 413/712/389
f 174/720/106 415/721/309 414/722/310 175/723/107
f 175/724/110 414/725/311 413/712/389 176/719/206
f 415/721/309 418/726/314 417/727/315 414/722/310
f 414/725/311 417/728/315 416/713/378 413/712/389
f 418/729/314 421/730/318 420/731/319 417/732/315
f 417/732/315 420/731/319 419/701/379 416/700/378
f 421/730/318 424/733/322 423/734/323 420/731/319
f 420/731/319 423/734/323 422/704/382 419/701/379
f 424/733/322 427/735/326 426/736/327 423/734/323
f 423/734/323 426/736/327 425/705/383 422/704/382
f 427/735/326 430/737/330 429/738/331 426/736/327
f 426/736/327 429/738/332 428/715/386 425/705/383
f 430/739/330 431/740/335 429/741/331
f 429/742/332 431/709/387 428/708/386
f 196/743/141 431/740/335 434/744/338 197/745/142
f 431/740/335 430/739/330 437/746/339 434/744/338
f 430/737/330 427/735/326 440/747/340 437/748/339
f 427/735/326 424/733/322 443/749/341 440/747/340
f 424/733/322 421/730/318 446/750/342 443/749/341
f 421/730/318 418/729/314 449/751/343 446/750/342
f 418/726/314 415/721/309 450/752/344 449/753/343
f 415/721/309 174/720/106 219/754/150 450/752/344
f 197/745/142 434/744/338 433/755/345 198/756/151
f 198/757/153 433/758/346 432/759/302 199/760/99
f 434/744/338 437/746/339 436/761/347 433/755/345
f 433/758/346 436/762/347 435/763/307 432/759/302
f 437/748/339 440/747/340 439/764/348 436/765/347
f 436/765/347 439/764/348 438/766/303 435/767/307
f 440/747/340 443/749/341 442/768/349 439/764/348
f 439/764/348 442/768/349 441/769/304 438/766/303
f 443/749/341 446/750/342 445/770/350 442/768/349
f 442/768/349 445/770/350 444/771/308 441/769/304
f 446/750/342 449/751/343 448/772/351 445/770/350
f 445/770/350 448/772/352 447/773/305 444/771/308
f 449/753/343 450/752/344 448/774/351
f 448/775/352 450/776/306 447/777/305
f 199/760/99 432/759/302 477/778/288 254/779/85
f 438/766/303 441/769/304 486/780/295 483/781/293
f 447/777/305 450/776/306 495/782/301 492/783/299
f 432/759/302 435/763/307 480/784/291 477/778/288
f 441/769/304 444/771/308 489/785/297 486/780/295
f 450/776/306 219/786/25 274/787/25 495/782/301
f 435/767/307 438/766/303 483/781/293 480/788/291
f 444/771/308 447/773/305 492/789/299 489/785/297
f 229/790/52 230/791/55 459/792/265 460/793/266
f 230/794/56 231/795/209 458/796/390 459/797/267
f 231/795/209 228/798/211 457/799/391 458/796/390
f 460/793/266 459/792/265 462/800/268 463/801/269
f 459/797/267 458/796/390 461/802/392 462/803/268
f 458/796/390 457/799/391 456/804/393 461/802/392
f 463/805/269 462/806/268 465/807/270 466/808/271
f 462/806/268 461/809/392 464/810/394 465/807/270
f 461/809/392 456/811/393 455/812/395 464/810/394
f 466/808/271 465/807/270 468/813/272 469/814/273
f 465/807/270 464/810/394 467/815/396 468/813/272
f 464/810/394 455/812/395 454/816/397 467/815/396
f 469/814/273 468/813/272 471/817/274 472/818/275
f 468/813/272 467/815/396 470/819/398 471/817/274
f 467/815/396 454/816/397 453/820/399 470/819/398
f 472/818/275 471/817/274 474/821/276 475/822/277
f 471/817/274 470/819/398 473/823/400 474/821/278
f 470/819/398 453/820/399 452/824/401 473/823/400
f 475/825/277 474/826/276 476/827/279
f 474/828/278 473/829/400 476/830/402
f 473/829/400 452/831/401 451/832/403 476/830/402
f 476/830/402 451/832/403 220/833/224 251/834/224
f 251/835/70 252/836/72 479/837/280 476/827/279
f 476/827/279 479/837/280 482/838/281 475/825/277
f 475/822/277 482/839/281 485/840/282 472/818/275
f 472/818/275 485/840/282 488/841/283 469/814/273
f 469/814/273 488/841/283 491/842/284 466/808/271
f 466/808/271 491/842/284 494/843/285 463/805/269
f 463/801/269 494/844/285 495/845/286 460/793/266
f 460/793/266 495/845/286 274/846/79 229/790/52
f 252/836/72 253/847/81 478/848/287 479/837/280
f 253/849/82 254/779/85 477/778/288 478/850/289
f 479/837/280 478/848/287 481/851/290 482/838/281
f 478/850/289 477/778/288 480/784/291 481/852/290
f 482/839/281 481/853/290 484/854/292 485/840/282
f 481/853/290 480/788/291 483/781/293 484/854/292
f 485/840/282 484/854/292 487/855/294 488/841/283
f 484/854/292 483/781/293 486/780/295 487/855/294
f 488/841/283 487/855/294 490/856/296 491/842/284
f 487/855/294 486/780/295 489/785/297 490/856/296
f 491/842/284 490/856/296 493/857/298 494/843/285
f 490/856/296 489/785/297 492/789/299 493/857/300
f 494/844/285 493/858/298 495/845/286
f 493/859/300 492/783/299 495/782/301
f 92/860/9 93/861/9 496/862/9 91/863/9
f 91/863/9 496/862/9 498/864/9 90/865/9
f 90/865/9 498/864/9 500/866/9 89/867/9
f 89/867/9 500/866/9 502/868/9 88/869/9
f 88/869/9 502/868/9 344/870/9 87/871/9
f 93/861/9 94/872/9 497/873/9 496/862/9
f 496/862/9 497/873/9 499/874/9 498/864/9
f 498/864/9 499/874/9 501/875/9 500/866/9
f 500/866/9 501/875/9 503/876/9 502/868/9
f 502/868/9 503/876/9 345/877/9 344/870/9
f 94/872/9 95/878/9 350/879/9 497/873/9
f 497/873/9 350/879/9 349/880/9 499/874/9
f 499/874/9 349/880/9 348/881/9 501/875/9
f 501/875/9 348/881/9 347/882/9 503/876/9
f 503/876/9 347/882/9 346/883/9 345/877/9
f 226/884/167 225/885/167 224/886/167 504/887/167
f 504/887/167 224/886/167 223/888/167 506/889/167
f 506/889/167 223/888/167 222/890/167 508/891/167
f 508/891/167 222/890/167 221/892/167 510/893/167
f 510/893/167 221/892/167 220/894/167 451/895/167
f 227/896/167 226/884/167 504/887/167 505/897/167
f 505/897/167 504/887/167 506/889/167 507/898/167
f 507/898/167 506/889/167 508/891/167 509/899/167
f 509/899/167 508/891/167 510/893/167 511/900/167
f 511/900/167 510/893/167 451/895/167 452/901/167
f 228/902/167 227/896/167 505/897/167 457/903/167
f 457/903/167 505/897/167 507/898/167 456/904/167
f 456/904/167 507/898/167 509/899/167 455/905/167
f 455/905/167 509/899/167 511/900/167 454/906/167
f 454/906/167 511/900/167 452/901/167 453/907/167
f 650/1268/404 648/1269/404 657/1270/404 656/1271/404
f 651/1272/429 655/1273/429 671/1274/429 668/1275/429
f 653/1276/1 652/1277/1 662/1278/1 663/1279/1
f 653/1280/430 649/1281/430 665/1282/430 666/1283/430
f 650/1268/404 654/1284/404 652/1285/404 648/1269/404
f 657/1286/9 658/1287/9 659/1288/9 656/1289/9
f 651/1290/225 650/1291/225 656/1292/225 659/1293/225
f 648/1294/1 649/1295/1 658/1296/1 657/1297/1
f 649/1281/431 651/1272/431 659/1298/431 658/1299/431
f 661/1300/167 660/1301/167 663/1302/167 662/1303/167
f 652/1285/404 654/1284/404 661/1304/404 662/1305/404
f 655/1273/432 653/1280/432 663/1306/432 660/1307/432
f 654/1308/225 655/1309/225 660/1310/225 661/1311/225
f 667/1312/1 666/1313/1 665/1314/1 664/1315/1
f 652/1316/167 653/1317/167 666/1318/167 667/1319/167
f 649/1320/9 648/1321/9 664/1322/9 665/1323/9
f 648/1269/404 652/1285/404 667/1324/404 664/1325/404
f 669/1326/225 668/1327/225 671/1328/225 670/1329/225
f 650/1330/9 651/1331/9 668/1332/9 669/1333/9
f 655/1334/167 654/1335/167 670/1336/167 671/1337/167
f 654/1284/404 650/1268/404 669/1338/404 670/1339/404
f 649/1281/25 9/1340/25 651/1272/25
f 281/1341/25 279/1342/25 651/1272/25
f 279/1342/25 277/1343/25 651/1272/25
f 277/1343/25 275/1344/25 651/1272/25
f 148/1345/25 653/1280/25 655/1273/25
f 275/1344/25 389/1346/25 655/1273/25
f 389/1346/25 391/1347/25 655/1273/25
f 391/1347/25 393/1348/25 655/1273/25
f 393/1348/25 148/1345/25 655/1273/25
f 9/1340/25 281/1341/25 651/1272/25
f 649/1281/25 7/1349/25 9/1340/25
f 146/1350/25 653/1280/25 148/1345/25
f 649/1281/25 5/1351/25 7/1349/25
f 144/1352/25 653/1280/25 146/1350/25
f 649/1281/25 3/1353/25 5/1351/25
f 142/1354/25 653/1280/25 144/1352/25
f 649/1281/25 1/1355/25 3/1353/25
f 1/1355/25 653/1280/25 142/1354/25
f 649/1281/25 653/1280/25 1/1355/25
f 275/1344/25 655/1273/25 651/1272/25
g Cylinder.005_3D_Medical-Device2_v2_Material.002.1001
usemtl 3D_Medical-Device2_v2_Material.002.1001
f 537/908/1 539/909/1 541/910/1 699/911/1
f 540/912/225 538/913/225 536/914/225 690/915/225
f 514/916/404 516/917/405 517/918/405 515/919/404
f 535/920/1 537/908/1 699/911/1 696/921/1
f 542/922/225 540/912/225 690/915/225 687/923/225
f 516/917/405 518/924/406 519/925/406 517/918/405
f 533/926/1 535/920/1 696/921/1 693/927/1
f 544/928/225 542/922/225 687/923/225 684/929/225
f 518/930/406 520/931/407 521/932/407 519/933/406
f 531/934/1 533/926/1 693/927/1 529/935/1
f 514/936/225 544/928/225 684/929/225 516/937/225
f 520/931/407 522/938/167 523/939/167 521/932/407
f 699/911/1 541/910/1 543/940/1 698/941/1
f 690/915/225 536/914/225 534/942/225 689/943/225
f 522/938/167 524/944/408 525/945/408 523/939/167
f 696/921/1 699/911/1 698/941/1 695/946/1
f 687/923/225 690/915/225 689/943/225 686/947/225
f 524/944/408 526/948/409 527/949/409 525/945/408
f 693/927/1 696/921/1 695/946/1 692/950/1
f 684/929/225 687/923/225 686/947/225 683/951/225
f 526/952/409 528/953/410 529/954/410 527/955/409
f 529/935/1 693/927/1 692/950/1 527/956/1
f 516/937/225 684/929/225 683/951/225 518/957/225
f 528/953/410 530/958/25 531/959/25 529/954/410
f 698/941/1 543/940/1 545/960/1 697/961/1
f 689/943/225 534/942/225 532/962/225 688/963/225
f 530/958/25 532/964/411 533/965/411 531/959/25
f 695/946/1 698/941/1 697/961/1 694/966/1
f 686/947/225 689/943/225 688/963/225 685/967/225
f 532/964/411 534/968/412 535/969/412 533/965/411
f 692/950/1 695/946/1 694/966/1 691/970/1
f 683/951/225 686/947/225 685/967/225 682/971/225
f 534/972/412 536/973/413 537/974/413 535/975/412
f 527/956/1 692/950/1 691/970/1 525/976/1
f 518/957/225 683/951/225 682/971/225 520/977/225
f 536/973/413 538/978/9 539/979/9 537/974/413
f 697/961/1 545/960/1 515/980/1 517/981/1
f 688/963/225 532/962/225 530/982/225 528/983/225
f 538/978/9 540/984/414 541/985/414 539/979/9
f 694/966/1 697/961/1 517/981/1 519/986/1
f 685/967/225 688/963/225 528/983/225 526/987/225
f 540/984/414 542/988/415 543/989/415 541/985/414
f 691/970/1 694/966/1 519/986/1 521/990/1
f 682/971/225 685/967/225 526/987/225 524/991/225
f 542/992/415 544/993/416 545/994/416 543/995/415
f 525/976/1 691/970/1 521/990/1 523/996/1
f 520/977/225 682/971/225 524/991/225 522/997/225
f 544/993/416 514/916/404 515/919/404 545/994/416
f 571/998/1 573/999/1 575/1000/1 726/1001/1
f 574/1002/225 572/1003/225 570/1004/225 735/1005/225
f 548/1006/404 550/1007/405 551/1008/405 549/1009/404
f 569/1010/1 571/998/1 726/1001/1 723/1011/1
f 576/1012/225 574/1002/225 735/1005/225 732/1013/225
f 550/1007/405 552/1014/406 553/1015/406 551/1008/405
f 567/1016/1 569/1010/1 723/1011/1 720/1017/1
f 578/1018/225 576/1012/225 732/1013/225 729/1019/225
f 552/1020/406 554/1021/407 555/1022/407 553/1023/406
f 565/1024/1 567/1016/1 720/1017/1 563/1025/1
f 548/1026/225 578/1018/225 729/1019/225 550/1027/225
f 554/1021/407 556/1028/167 557/1029/167 555/1022/407
f 726/1001/1 575/1000/1 577/1030/1 725/1031/1
f 735/1005/225 570/1004/225 568/1032/225 734/1033/225
f 556/1028/167 558/1034/408 559/1035/408 557/1029/167
f 723/1011/1 726/1001/1 725/1031/1 722/1036/1
f 732/1013/225 735/1005/225 734/1033/225 731/1037/225
f 558/1034/408 560/1038/409 561/1039/409 559/1035/408
f 720/1017/1 723/1011/1 722/1036/1 719/1040/1
f 729/1019/225 732/1013/225 731/1037/225 728/1041/225
f 560/1042/409 562/1043/410 563/1044/410 561/1045/409
f 563/1025/1 720/1017/1 719/1040/1 561/1046/1
f 550/1027/225 729/1019/225 728/1041/225 552/1047/225
f 562/1043/410 564/1048/25 565/1049/25 563/1044/410
f 725/1031/1 577/1030/1 579/1050/1 724/1051/1
f 734/1033/225 568/1032/225 566/1052/225 733/1053/225
f 564/1048/25 566/1054/411 567/1055/411 565/1049/25
f 722/1036/1 725/1031/1 724/1051/1 721/1056/1
f 731/1037/225 734/1033/225 733/1053/225 730/1057/225
f 566/1054/411 568/1058/412 569/1059/412 567/1055/411
f 719/1040/1 722/1036/1 721/1056/1 718/1060/1
f 728/1041/225 731/1037/225 730/1057/225 727/1061/225
f 568/1062/412 570/1063/413 571/1064/413 569/1065/412
f 561/1046/1 719/1040/1 718/1060/1 559/1066/1
f 552/1047/225 728/1041/225 727/1061/225 554/1067/225
f 570/1063/413 572/1068/9 573/1069/9 571/1064/413
f 724/1051/1 579/1050/1 549/1070/1 551/1071/1
f 733/1053/225 566/1052/225 564/1072/225 562/1073/225
f 572/1068/9 574/1074/414 575/1075/414 573/1069/9
f 721/1056/1 724/1051/1 551/1071/1 553/1076/1
f 730/1057/225 733/1053/225 562/1073/225 560/1077/225
f 574/1074/414 576/1078/415 577/1079/415 575/1075/414
f 718/1060/1 721/1056/1 553/1076/1 555/1080/1
f 727/1061/225 730/1057/225 560/1077/225 558/1081/225
f 576/1082/415 578/1083/416 579/1084/416 577/1085/415
f 559/1066/1 718/1060/1 555/1080/1 557/1086/1
f 554/1067/225 727/1061/225 558/1081/225 556/1087/225
f 578/1083/416 548/1006/404 549/1009/404 579/1084/416
f 605/1088/167 607/1089/167 609/1090/167 681/1091/167
f 608/1092/9 606/1093/9 604/1094/9 672/1095/9
f 582/1096/404 584/1097/417 585/1098/417 583/1099/404
f 603/1100/167 605/1088/167 681/1091/167 678/1101/167
f 610/1102/9 608/1092/9 672/1095/9 614/1103/9
f 584/1097/417 586/1104/418 587/1105/418 585/1098/417
f 601/1106/167 603/1100/167 678/1101/167 675/1107/167
f 612/1108/9 610/1102/9 614/1103/9 513/1109/9
f 586/1110/418 588/1111/419 589/1112/419 587/1113/418
f 599/1114/167 601/1106/167 675/1107/167 597/1115/167
f 582/1116/9 612/1108/9 513/1109/9 584/1117/9
f 588/1111/419 590/1118/225 591/1119/225 589/1112/419
f 681/1091/167 609/1090/167 611/1120/167 680/1121/167
f 672/1095/9 604/1094/9 602/1122/9 547/1123/9
f 590/1118/225 592/1124/420 593/1125/420 591/1119/225
f 678/1101/167 681/1091/167 680/1121/167 677/1126/167
f 614/1103/9 672/1095/9 547/1123/9 615/1127/9
f 592/1124/420 594/1128/421 595/1129/421 593/1125/420
f 675/1107/167 678/1101/167 677/1126/167 674/1130/167
f 513/1109/9 614/1103/9 615/1127/9 580/1131/9
f 594/1132/421 596/1133/422 597/1134/422 595/1135/421
f 597/1115/167 675/1107/167 674/1130/167 595/1136/167
f 584/1117/9 513/1109/9 580/1131/9 586/1137/9
f 596/1133/422 598/1138/25 599/1139/25 597/1134/422
f 680/1121/167 611/1120/167 613/1140/167 679/1141/167
f 547/1123/9 602/1122/9 600/1142/9 546/1143/9
f 598/1138/25 600/1144/423 601/1145/423 599/1139/25
f 677/1126/167 680/1121/167 679/1141/167 676/1146/167
f 615/1127/9 547/1123/9 546/1143/9 512/1147/9
f 600/1144/423 602/1148/424 603/1149/424 601/1145/423
f 674/1130/167 677/1126/167 676/1146/167 673/1150/167
f 580/1131/9 615/1127/9 512/1147/9 581/1151/9
f 602/1152/424 604/1153/425 605/1154/425 603/1155/424
f 595/1136/167 674/1130/167 673/1150/167 593/1156/167
f 586/1137/9 580/1131/9 581/1151/9 588/1157/9
f 604/1153/425 606/1158/1 607/1159/1 605/1154/425
f 679/1141/167 613/1140/167 583/1160/167 585/1161/167
f 546/1143/9 600/1142/9 598/1162/9 596/1163/9
f 606/1158/1 608/1164/426 609/1165/426 607/1159/1
f 676/1146/167 679/1141/167 585/1161/167 587/1166/167
f 512/1147/9 546/1143/9 596/1163/9 594/1167/9
f 608/1164/426 610/1168/427 611/1169/427 609/1165/426
f 673/1150/167 676/1146/167 587/1166/167 589/1170/167
f 581/1151/9 512/1147/9 594/1167/9 592/1171/9
f 610/1172/427 612/1173/428 613/1174/428 611/1175/427
f 593/1156/167 673/1150/167 589/1170/167 591/1176/167
f 588/1157/9 581/1151/9 592/1171/9 590/1177/9
f 612/1173/428 582/1096/404 583/1099/404 613/1174/428
f 642/1178/9 640/1179/9 638/1180/9 717/1181/9
f 639/1182/167 641/1183/167 643/1184/167 708/1185/167
f 616/1186/404 618/1187/417 619/1188/417 617/1189/404
f 644/1190/9 642/1178/9 717/1181/9 714/1191/9
f 637/1192/167 639/1182/167 708/1185/167 705/1193/167
f 618/1187/417 620/1194/418 621/1195/418 619/1188/417
f 646/1196/9 644/1190/9 714/1191/9 711/1197/9
f 635/1198/167 637/1192/167 705/1193/167 702/1199/167
f 620/1200/418 622/1201/419 623/1202/419 621/1203/418
f 616/1204/9 646/1196/9 711/1197/9 618/1205/9
f 633/1206/167 635/1198/167 702/1199/167 631/1207/167
f 622/1201/419 624/1208/225 625/1209/225 623/1202/419
f 717/1181/9 638/1180/9 636/1210/9 716/1211/9
f 708/1185/167 643/1184/167 645/1212/167 707/1213/167
f 624/1208/225 626/1214/420 627/1215/420 625/1209/225
f 714/1191/9 717/1181/9 716/1211/9 713/1216/9
f 705/1193/167 708/1185/167 707/1213/167 704/1217/167
f 626/1214/420 628/1218/421 629/1219/421 627/1215/420
f 711/1197/9 714/1191/9 713/1216/9 710/1220/9
f 702/1199/167 705/1193/167 704/1217/167 701/1221/167
f 628/1222/421 630/1223/422 631/1224/422 629/1225/421
f 618/1205/9 711/1197/9 710/1220/9 620/1226/9
f 631/1207/167 702/1199/167 701/1221/167 629/1227/167
f 630/1223/422 632/1228/25 633/1229/25 631/1224/422
f 716/1211/9 636/1210/9 634/1230/9 715/1231/9
f 707/1213/167 645/1212/167 647/1232/167 706/1233/167
f 632/1228/25 634/1234/423 635/1235/423 633/1229/25
f 713/1216/9 716/1211/9 715/1231/9 712/1236/9
f 704/1217/167 707/1213/167 706/1233/167 703/1237/167
f 634/1234/423 636/1238/424 637/1239/424 635/1235/423
f 710/1220/9 713/1216/9 712/1236/9 709/1240/9
f 701/1221/167 704/1217/167 703/1237/167 700/1241/167
f 636/1242/424 638/1243/425 639/1244/425 637/1245/424
f 620/1226/9 710/1220/9 709/1240/9 622/1246/9
f 629/1227/167 701/1221/167 700/1241/167 627/1247/167
f 638/1243/425 640/1248/1 641/1249/1 639/1244/425
f 715/1231/9 634/1230/9 632/1250/9 630/1251/9
f 706/1233/167 647/1232/167 617/1252/167 619/1253/167
f 640/1248/1 642/1254/426 643/1255/426 641/1249/1
f 712/1236/9 715/1231/9 630/1251/9 628/1256/9
f 703/1237/167 706/1233/167 619/1253/167 621/1257/167
f 642/1254/426 644/1258/427 645/1259/427 643/1255/426
f 709/1240/9 712/1236/9 628/1256/9 626/1260/9
f 700/1241/167 703/1237/167 621/1257/167 623/1261/167
f 644/1262/427 646/1263/428 647/1264/428 645/1265/427
f 622/1246/9 709/1240/9 626/1260/9 624/1266/9
f 627/1247/167 700/1241/167 623/1261/167 625/1267/167
f 646/1263/428 616/1186/404 617/1189/404 647/1264/428
l 30 38
l 164 172
