# Blender 5.0.1
# www.blender.org
mtllib 3D_Medical-Device1_v2.mtl
o Cube
v -0.234977 -0.234977 0.115452
v -0.234977 0.234977 0.115452
v -0.288609 -0.288911 -0.115452
v -0.288588 0.287699 -0.115452
v 0.234977 -0.234977 0.115452
v 0.234977 0.234977 0.115452
v 0.288609 -0.281984 -0.115452
v 0.288588 0.297517 -0.115452
v -0.288609 -0.288911 0.115452
v -0.288588 0.287699 0.115452
v 0.288588 0.297517 0.115452
v 0.288609 -0.281984 0.115452
v -0.234977 -0.234977 0.109431
v -0.234977 0.234977 0.109431
v 0.234977 0.234977 0.109431
v 0.234977 -0.234977 0.109431
v 0.222201 -0.070377 0.122817
v 0.222201 0.070377 0.122817
v 0.222201 -0.070377 0.056593
v 0.222201 0.070377 0.056593
v 0.295435 -0.065525 0.122817
v 0.295435 0.065525 0.122817
v 0.295435 -0.065525 0.056593
v 0.295435 0.065525 0.056593
v 0.053196 -0.284809 -0.115452
v -0.053196 -0.286086 -0.115452
v -0.053193 0.291703 -0.115452
v 0.053193 0.293512 -0.115452
v -0.053196 -0.286086 0.115452
v 0.053196 -0.284809 0.115452
v 0.053193 0.293512 0.115452
v -0.053193 0.291703 0.115452
v -0.043311 -0.234977 0.115452
v 0.043311 -0.234977 0.115452
v 0.043311 0.234977 0.115452
v -0.043311 0.234977 0.115452
v -0.043311 -0.234977 0.109431
v 0.043311 -0.234977 0.109431
v 0.043311 0.234977 0.109431
v -0.043311 0.234977 0.109431
v -0.288630 -0.053200 0.115452
v -0.288630 0.053200 0.115452
v -0.288630 0.053200 -0.115452
v -0.288630 -0.053200 -0.115452
v 0.288630 0.053200 -0.115452
v 0.288630 -0.053200 -0.115452
v 0.288630 0.053200 0.115452
v 0.288630 -0.053200 0.115452
v -0.234977 -0.043311 0.115452
v -0.234977 0.043311 0.115452
v 0.234977 0.043311 0.115452
v 0.234977 -0.043311 0.115452
v -0.234977 -0.043311 0.109431
v -0.234977 0.043311 0.109431
v 0.234977 0.043311 0.109431
v 0.234977 -0.043311 0.109431
v 0.043311 0.043311 0.109431
v 0.043311 -0.043311 0.109431
v -0.043311 0.043311 0.109431
v -0.043311 -0.043311 0.109431
v -0.053200 0.053200 -0.115452
v -0.053200 -0.053200 -0.115452
v 0.053200 0.053200 -0.115452
v 0.053200 -0.053200 -0.115452
v -0.170903 -0.287498 -0.115452
v -0.170890 0.289701 0.115452
v -0.139144 0.234977 0.115452
v -0.139144 0.234977 0.109431
v -0.170890 0.289701 -0.115452
v -0.170903 -0.287498 0.115452
v -0.139144 -0.234977 0.115452
v -0.139144 -0.234977 0.109431
v -0.170915 -0.053200 -0.115452
v -0.170915 0.053200 -0.115452
v -0.139144 -0.043311 0.109431
v -0.139144 0.043311 0.109431
v 0.170890 0.295514 -0.115452
v 0.170903 -0.283396 0.115452
v 0.139144 -0.234977 0.115452
v 0.139144 -0.234977 0.109431
v 0.170903 -0.283396 -0.115452
v 0.170890 0.295514 0.115452
v 0.139144 0.234977 0.115452
v 0.139144 0.234977 0.109431
v 0.139144 -0.043311 0.109431
v 0.139144 0.043311 0.109431
v 0.170915 -0.053200 -0.115452
v 0.170915 0.053200 -0.115452
v -0.288630 0.170915 0.115452
v -0.234977 0.139144 0.115452
v -0.234977 0.139144 0.109431
v -0.288630 0.170915 -0.115452
v 0.288630 0.170915 -0.115452
v 0.288630 0.170915 0.115452
v 0.234977 0.139144 0.115452
v 0.234977 0.139144 0.109431
v 0.043311 0.139144 0.109431
v -0.043311 0.139144 0.109431
v -0.053200 0.170915 -0.115452
v 0.053200 0.170915 -0.115452
v -0.170915 0.170915 -0.115452
v -0.139144 0.139144 0.109431
v 0.139144 0.139144 0.109431
v 0.170915 0.170915 -0.115452
v -0.288630 -0.170915 -0.115452
v 0.288630 -0.170915 -0.115452
v 0.288630 -0.170915 0.115452
v 0.234977 -0.139144 0.115452
v 0.234977 -0.139144 0.109431
v 0.043311 -0.139144 0.109431
v -0.043311 -0.139144 0.109431
v -0.053200 -0.170915 -0.115452
v 0.053200 -0.170915 -0.115452
v -0.288630 -0.170915 0.115452
v -0.234977 -0.139144 0.115452
v -0.234977 -0.139144 0.109431
v -0.139144 -0.139144 0.109431
v -0.170915 -0.170915 -0.115452
v 0.170915 -0.170915 -0.115452
v 0.139144 -0.139144 0.109431
vn -1.0000 0.0004 -0.0000
vn -0.0000 -0.0000 -1.0000
vn 1.0000 0.0003 -0.0000
vn -0.0000 1.0000 -0.0000
vn 0.0120 -0.9999 -0.0000
vn -0.0170 0.9999 -0.0000
vn -0.0000 -0.0000 1.0000
vn 1.0000 -0.0000 -0.0000
vn -0.0000 -1.0000 -0.0000
vn -1.0000 -0.0000 -0.0000
vn 0.0661 -0.9978 -0.0000
vn 0.0661 0.9978 -0.0000
vn -1.0000 -0.0002 -0.0000
vn 1.0000 -0.0002 -0.0000
vt 0.303444 0.111846
vt 0.253465 0.111846
vt 0.253465 0.013028
vt 0.303444 0.013028
vt 0.634391 0.451519
vt 0.634409 0.539810
vt 0.551008 0.541229
vt 0.550979 0.451519
vt 0.941101 0.013028
vt 0.995282 0.013028
vt 0.995282 0.111846
vt 0.941101 0.111846
vt 0.359016 0.172507
vt 0.436826 0.174250
vt 0.434274 0.176773
vt 0.358815 0.177035
vt 0.696900 0.013028
vt 0.747277 0.013028
vt 0.747277 0.111846
vt 0.696900 0.111846
vt 0.203088 0.013028
vt 0.203088 0.111846
vt 0.057456 0.473172
vt 0.060098 0.550990
vt 0.016685 0.594305
vt 0.015060 0.499747
vt 0.438752 0.251955
vt 0.480430 0.135824
vt 0.481350 0.225779
vt 0.138129 0.172321
vt 0.060090 0.173846
vt 0.016401 0.129342
vt 0.112103 0.130461
vt 0.358958 0.552691
vt 0.436790 0.551011
vt 0.480669 0.602087
vt 0.385109 0.600959
vt 0.634173 0.884611
vt 0.633925 0.974228
vt 0.549269 0.975417
vt 0.549508 0.884360
vt 0.057637 0.251881
vt 0.062721 0.176492
vt 0.062167 0.252102
vt 0.137972 0.552573
vt 0.062708 0.548390
vt 0.138181 0.548070
vt 0.438558 0.473129
vt 0.434191 0.548398
vt 0.434040 0.472933
vt 0.488391 0.726416
vt 0.488391 0.842371
vt 0.372436 0.842371
vt 0.372437 0.726416
vt 0.256482 0.842371
vt 0.256482 0.726416
vt 0.140528 0.842371
vt 0.140528 0.726416
vt 0.024573 0.842371
vt 0.024573 0.726416
vt 0.256482 0.610462
vt 0.140528 0.610462
vt 0.256482 0.958325
vt 0.140528 0.958325
vt 0.282800 0.553221
vt 0.282802 0.548387
vt 0.358749 0.548184
vt 0.214091 0.553158
vt 0.214103 0.548317
vt 0.880029 0.885339
vt 0.879759 0.970774
vt 0.795102 0.971963
vt 0.795365 0.885088
vt 0.718582 0.973038
vt 0.718838 0.884862
vt 0.206043 0.598336
vt 0.111905 0.596076
vt 0.290769 0.599874
vt 0.282936 0.171940
vt 0.290960 0.132281
vt 0.385107 0.134120
vt 0.214266 0.171883
vt 0.206341 0.131186
vt 0.056797 0.013028
vt 0.107175 0.013028
vt 0.107175 0.111846
vt 0.056797 0.111846
vt 0.152710 0.013028
vt 0.152710 0.111846
vt 0.550610 0.013028
vt 0.600987 0.013028
vt 0.600987 0.111846
vt 0.550610 0.111846
vt 0.646523 0.013028
vt 0.646523 0.111846
vt 0.214260 0.176719
vt 0.138317 0.176848
vt 0.282920 0.176780
vt 0.876612 0.451519
vt 0.876595 0.535691
vt 0.793194 0.537109
vt 0.793200 0.451519
vt 0.717810 0.538392
vt 0.717804 0.451519
vt 0.793200 0.209298
vt 0.793200 0.292711
vt 0.717804 0.292711
vt 0.717804 0.209298
vt 0.793200 0.368106
vt 0.717804 0.368106
vt 0.876612 0.209298
vt 0.876613 0.292711
vt 0.876612 0.368106
vt 0.796093 0.639232
vt 0.795842 0.723897
vt 0.719315 0.723670
vt 0.719566 0.639005
vt 0.795615 0.800423
vt 0.719088 0.800197
vt 0.880757 0.639482
vt 0.880507 0.724147
vt 0.880280 0.800674
vt 0.439130 0.328184
vt 0.434238 0.328221
vt 0.434303 0.252136
vt 0.439145 0.396942
vt 0.434304 0.396924
vt 0.056416 0.396960
vt 0.061219 0.396921
vt 0.061910 0.472970
vt 0.056525 0.328154
vt 0.061369 0.328168
vt 0.634901 0.638755
vt 0.634650 0.723419
vt 0.549986 0.723169
vt 0.550236 0.638504
vt 0.634424 0.799946
vt 0.549759 0.799696
vt 0.481916 0.404984
vt 0.481224 0.499294
vt 0.481947 0.320188
vt 0.013682 0.319932
vt 0.015082 0.225322
vt 0.013589 0.405121
vt 0.794811 0.013028
vt 0.845188 0.013028
vt 0.845188 0.111846
vt 0.794811 0.111846
vt 0.890724 0.013028
vt 0.890724 0.111846
vt 0.634391 0.209298
vt 0.634391 0.292711
vt 0.550979 0.292711
vt 0.550979 0.209298
vt 0.634391 0.368106
vt 0.550979 0.368106
vt 0.449734 0.111846
vt 0.399357 0.111846
vt 0.399357 0.013028
vt 0.449734 0.013028
vt 0.353822 0.111846
vt 0.353822 0.013028
vt 0.960025 0.292711
vt 0.960025 0.368106
vt 0.960025 0.209298
vt 0.960025 0.451519
vt 0.959996 0.534272
vt 0.500232 0.013028
vt 0.500232 0.111846
vt 0.965171 0.724398
vt 0.964945 0.800925
vt 0.965422 0.639733
vt 0.006420 0.013028
vt 0.006420 0.111846
vt 0.964694 0.885589
vt 0.964415 0.969584
vt 0.965658 0.554866
vt 0.880997 0.555632
vt 0.717807 0.128592
vt 0.634400 0.129593
vt 0.960011 0.125686
vt 0.876604 0.126687
vt 0.719811 0.557089
vt 0.635149 0.557854
vt 0.550993 0.130594
vt 0.550488 0.558619
vt 0.796335 0.556397
vt 0.793197 0.127688
s 0
g Cube_3D_Medical-Device1_v2_Material.001.1001
usemtl 3D_Medical-Device1_v2_Material.001.1001
f 89/1/1 10/2/1 4/3/1 92/4/1
f 104/5/2 77/6/2 8/7/2 93/8/2
f 93/9/3 8/10/3 11/11/3 94/12/3
f 79/13/4 5/14/4 16/15/4 80/16/4
f 81/17/5 7/18/5 12/19/5 78/20/5
f 69/21/6 4/3/6 10/2/6 66/22/6
f 90/23/7 2/24/7 10/25/7 89/26/7
f 108/27/7 5/14/7 12/28/7 107/29/7
f 71/30/7 1/31/7 9/32/7 70/33/7
f 83/34/7 6/35/7 11/36/7 82/37/7
f 115/42/8 1/31/8 13/43/8 116/44/8
f 67/45/9 2/24/9 14/46/9 68/47/9
f 95/48/10 6/35/10 15/49/10 96/50/10
f 83/34/9 35/65/9 39/66/9 84/67/9
f 35/65/9 36/68/9 40/69/9 39/66/9
f 67/45/7 36/68/7 32/76/7 66/77/7
f 36/68/7 35/65/7 31/78/7 32/76/7
f 79/13/7 34/79/7 30/80/7 78/81/7
f 34/79/7 33/82/7 29/83/7 30/80/7
f 77/84/6 28/85/6 31/86/6 82/87/6
f 28/85/6 27/88/6 32/89/6 31/86/6
f 65/90/5 26/91/5 29/92/5 70/93/5
f 26/91/5 25/94/5 30/95/5 29/92/5
f 71/30/4 33/82/4 37/96/4 72/97/4
f 33/82/4 34/79/4 38/98/4 37/96/4
f 101/99/2 69/100/2 27/101/2 99/102/2
f 99/102/2 27/101/2 28/103/2 100/104/2
f 112/105/2 62/106/2 64/107/2 113/108/2
f 62/106/2 61/109/2 63/110/2 64/107/2
f 118/111/2 73/112/2 62/106/2 112/105/2
f 73/112/2 74/113/2 61/109/2 62/106/2
f 108/27/10 52/123/10 56/124/10 109/125/10
f 52/123/10 51/126/10 55/127/10 56/124/10
f 90/23/8 50/128/8 54/129/8 91/130/8
f 50/128/8 49/131/8 53/132/8 54/129/8
f 95/48/7 51/126/7 47/139/7 94/140/7
f 51/126/7 52/123/7 48/141/7 47/139/7
f 115/42/7 49/131/7 41/142/7 114/143/7
f 49/131/7 50/128/7 42/144/7 41/142/7
f 106/145/8 46/146/8 48/147/8 107/148/8
f 46/146/8 45/149/8 47/150/8 48/147/8
f 119/151/2 87/152/2 46/153/2 106/154/2
f 87/152/2 88/155/2 45/156/2 46/153/2
f 114/157/10 41/158/10 44/159/10 105/160/10
f 41/158/10 42/161/10 43/162/10 44/159/10
f 44/163/2 43/164/2 74/113/2 73/112/2
f 105/165/2 44/163/2 73/112/2 118/111/2
f 92/166/2 4/167/2 69/100/2 101/99/2
f 1/31/4 71/30/4 72/97/4 13/43/4
f 3/168/5 65/90/5 70/93/5 9/169/5
f 2/24/7 67/45/7 66/77/7 10/25/7
f 36/68/9 67/45/9 68/47/9 40/69/9
f 33/82/7 71/30/7 70/33/7 29/83/7
f 27/88/6 69/21/6 66/22/6 32/89/6
f 64/107/2 63/110/2 88/155/2 87/152/2
f 113/108/2 64/107/2 87/152/2 119/151/2
f 8/173/6 77/84/6 82/87/6 11/174/6
f 5/14/7 79/13/7 78/81/7 12/28/7
f 6/35/9 83/34/9 84/67/9 15/49/9
f 35/65/7 83/34/7 82/37/7 31/78/7
f 25/94/5 81/17/5 78/20/5 30/95/5
f 34/79/4 79/13/4 80/16/4 38/98/4
f 100/104/2 28/103/2 77/6/2 104/5/2
f 63/110/2 100/104/2 104/5/2 88/155/2
f 43/164/2 92/166/2 101/99/2 74/113/2
f 6/35/7 95/48/7 94/140/7 11/36/7
f 2/24/8 90/23/8 91/130/8 14/46/8
f 61/109/2 99/102/2 100/104/2 63/110/2
f 74/113/2 101/99/2 99/102/2 61/109/2
f 51/126/10 95/48/10 96/50/10 55/127/10
f 50/128/7 90/23/7 89/26/7 42/144/7
f 45/149/8 93/9/8 94/12/8 47/150/8
f 88/155/2 104/5/2 93/8/2 45/156/2
f 42/161/10 89/1/10 92/4/10 43/162/10
f 25/179/2 113/108/2 119/151/2 81/180/2
f 3/181/2 105/165/2 118/111/2 65/182/2
f 9/169/13 114/157/13 105/160/13 3/168/13
f 81/180/2 119/151/2 106/154/2 7/185/2
f 7/18/14 106/145/14 107/148/14 12/19/14
f 1/31/7 115/42/7 114/143/7 9/32/7
f 5/14/10 108/27/10 109/125/10 16/15/10
f 65/182/2 118/111/2 112/105/2 26/188/2
f 26/188/2 112/105/2 113/108/2 25/179/2
f 49/131/8 115/42/8 116/44/8 53/132/8
f 52/123/7 108/27/7 107/29/7 48/141/7
g Cube_3D_Medical-Device1_v2_Material.002.1001
usemtl 3D_Medical-Device1_v2_Material.002.1001
f 102/38/7 68/39/7 14/40/7 91/41/7
f 103/70/7 84/71/7 39/72/7 97/73/7
f 97/73/7 39/72/7 40/74/7 98/75/7
f 110/114/7 58/115/7 60/116/7 111/117/7
f 58/115/7 57/118/7 59/119/7 60/116/7
f 120/120/7 85/121/7 58/115/7 110/114/7
f 85/121/7 86/122/7 57/118/7 58/115/7
f 117/133/7 75/134/7 53/135/7 116/136/7
f 75/134/7 76/137/7 54/138/7 53/135/7
f 60/116/7 59/119/7 76/137/7 75/134/7
f 111/117/7 60/116/7 75/134/7 117/133/7
f 98/75/7 40/74/7 68/39/7 102/38/7
f 56/170/7 55/171/7 86/122/7 85/121/7
f 109/172/7 56/170/7 85/121/7 120/120/7
f 96/175/7 15/176/7 84/71/7 103/70/7
f 55/171/7 96/175/7 103/70/7 86/122/7
f 59/119/7 98/75/7 102/38/7 76/137/7
f 57/118/7 97/73/7 98/75/7 59/119/7
f 86/122/7 103/70/7 97/73/7 57/118/7
f 76/137/7 102/38/7 91/41/7 54/138/7
f 16/177/7 109/172/7 120/120/7 80/178/7
f 37/183/7 111/117/7 117/133/7 72/184/7
f 72/184/7 117/133/7 116/136/7 13/186/7
f 80/178/7 120/120/7 110/114/7 38/187/7
f 38/187/7 110/114/7 111/117/7 37/183/7
g Cube_3D_Medical-Device1_v2_Material.003.1001
usemtl 3D_Medical-Device1_v2_Material.003.1001
f 17/51/10 18/52/10 20/53/10 19/54/10
f 19/54/2 20/53/2 24/55/2 23/56/2
f 23/56/8 24/55/8 22/57/8 21/58/8
f 21/58/7 22/57/7 18/59/7 17/60/7
f 19/61/11 23/56/11 21/58/11 17/62/11
f 24/55/12 20/63/12 18/64/12 22/57/12
