# Blender 5.0.1
# www.blender.org
mtllib 3D_Plants_v2.mtl
o Circle.001
v -0.041929 0.366290 -0.057809
v -0.048383 0.366290 -0.057174
v -0.054589 0.366290 -0.055291
v -0.060309 0.366290 -0.052234
v -0.065323 0.366290 -0.048119
v -0.069437 0.366290 -0.043106
v -0.072494 0.366290 -0.037386
v -0.074377 0.366290 -0.031180
v -0.075013 0.366290 -0.024725
v -0.074377 0.366290 -0.018271
v -0.072494 0.366290 -0.012064
v -0.069437 0.366290 -0.006345
v -0.065323 0.366290 -0.001331
v -0.060309 0.366290 0.002783
v -0.054589 0.366290 0.005841
v -0.048383 0.366290 0.007723
v -0.041929 0.366290 0.008359
v -0.035474 0.366290 0.007723
v -0.029268 0.366290 0.005841
v -0.023548 0.366290 0.002783
v -0.018535 0.366290 -0.001331
v -0.014420 0.366290 -0.006345
v -0.011363 0.366290 -0.012064
v -0.009480 0.366290 -0.018271
v -0.008844 0.366290 -0.024725
v -0.009480 0.366290 -0.031180
v -0.011363 0.366290 -0.037386
v -0.014420 0.366290 -0.043106
v -0.018535 0.366290 -0.048119
v -0.023548 0.366290 -0.052234
v -0.029268 0.366290 -0.055291
v -0.035474 0.366290 -0.057174
v -0.032524 0.454587 -0.057809
v -0.038979 0.454587 -0.057174
v -0.045185 0.454587 -0.055291
v -0.050905 0.454587 -0.052234
v -0.055918 0.454587 -0.048119
v -0.060033 0.454587 -0.043106
v -0.063090 0.454587 -0.037386
v -0.064973 0.454587 -0.031180
v -0.065608 0.454587 -0.024725
v -0.064973 0.454587 -0.018271
v -0.063090 0.454587 -0.012064
v -0.060033 0.454587 -0.006345
v -0.055918 0.454587 -0.001331
v -0.050905 0.454587 0.002783
v -0.045185 0.454587 0.005841
v -0.038979 0.454587 0.007723
v -0.032524 0.454587 0.008359
v -0.026070 0.454587 0.007723
v -0.019863 0.454587 0.005841
v -0.014144 0.454587 0.002783
v -0.009130 0.454587 -0.001331
v -0.005016 0.454587 -0.006345
v -0.001958 0.454587 -0.012064
v -0.000076 0.454587 -0.018271
v 0.000560 0.454587 -0.024725
v -0.000076 0.454587 -0.031180
v -0.001958 0.454587 -0.037386
v -0.005016 0.454587 -0.043106
v -0.009130 0.454587 -0.048119
v -0.014144 0.454587 -0.052234
v -0.019863 0.454587 -0.055291
v -0.026070 0.454587 -0.057174
v 0.018395 0.624679 -0.057809
v 0.011943 0.624497 -0.057174
v 0.005740 0.624322 -0.055291
v 0.000022 0.624160 -0.052234
v -0.004989 0.624019 -0.048119
v -0.009102 0.623903 -0.043106
v -0.012158 0.623817 -0.037386
v -0.014040 0.623764 -0.031180
v -0.014676 0.623746 -0.024725
v -0.014040 0.623764 -0.018271
v -0.012158 0.623817 -0.012064
v -0.009102 0.623903 -0.006345
v -0.004989 0.624019 -0.001331
v 0.000022 0.624160 0.002783
v 0.005740 0.624322 0.005841
v 0.011943 0.624497 0.007723
v 0.018395 0.624679 0.008359
v 0.024847 0.624861 0.007723
v 0.031051 0.625036 0.005841
v 0.036769 0.625197 0.002783
v 0.041780 0.625338 -0.001331
v 0.045893 0.625454 -0.006345
v 0.048949 0.625541 -0.012064
v 0.050831 0.625594 -0.018271
v 0.051466 0.625612 -0.024725
v 0.050831 0.625594 -0.031180
v 0.048949 0.625541 -0.037386
v 0.045893 0.625454 -0.043106
v 0.041780 0.625338 -0.048119
v 0.036769 0.625197 -0.052234
v 0.031051 0.625036 -0.055291
v 0.024847 0.624861 -0.057174
v 0.051980 0.824022 -0.057809
v 0.045528 0.823840 -0.057174
v 0.039325 0.823665 -0.055291
v 0.033607 0.823504 -0.052234
v 0.028596 0.823363 -0.048119
v 0.024483 0.823246 -0.043106
v 0.021427 0.823160 -0.037386
v 0.019545 0.823107 -0.031180
v 0.018909 0.823089 -0.024725
v 0.019545 0.823107 -0.018271
v 0.021427 0.823160 -0.012064
v 0.024483 0.823246 -0.006345
v 0.028596 0.823363 -0.001331
v 0.033607 0.823504 0.002783
v 0.039325 0.823665 0.005841
v 0.045528 0.823840 0.007723
v 0.051980 0.824022 0.008359
v 0.058432 0.824204 0.007723
v 0.064636 0.824379 0.005841
v 0.070354 0.824541 0.002783
v 0.075365 0.824682 -0.001331
v 0.079478 0.824798 -0.006345
v 0.082534 0.824884 -0.012064
v 0.084416 0.824937 -0.018271
v 0.085051 0.824955 -0.024725
v 0.084416 0.824937 -0.031180
v 0.082534 0.824884 -0.037386
v 0.079478 0.824798 -0.043106
v 0.075365 0.824682 -0.048119
v 0.070354 0.824541 -0.052234
v 0.064636 0.824379 -0.055291
v 0.058432 0.824204 -0.057174
v 0.048730 1.014699 -0.051669
v 0.043811 1.012846 -0.051151
v 0.039081 1.011065 -0.049618
v 0.034721 1.009423 -0.047128
v 0.030900 1.007984 -0.043777
v 0.027765 1.006803 -0.039694
v 0.025435 1.005925 -0.035036
v 0.024000 1.005385 -0.029982
v 0.023515 1.005202 -0.024725
v 0.024000 1.005385 -0.019469
v 0.025435 1.005925 -0.014414
v 0.027765 1.006803 -0.009756
v 0.030900 1.007984 -0.005673
v 0.034721 1.009423 -0.002322
v 0.039081 1.011065 0.000168
v 0.043811 1.012846 0.001701
v 0.048730 1.014699 0.002219
v 0.053649 1.016551 0.001701
v 0.058379 1.018333 0.000168
v 0.062739 1.019975 -0.002322
v 0.066560 1.021414 -0.005673
v 0.069696 1.022595 -0.009756
v 0.072026 1.023473 -0.014414
v 0.073461 1.024013 -0.019469
v 0.073945 1.024196 -0.024725
v 0.073461 1.024013 -0.029982
v 0.072026 1.023473 -0.035036
v 0.069696 1.022595 -0.039694
v 0.066560 1.021414 -0.043777
v 0.062739 1.019975 -0.047128
v 0.058379 1.018333 -0.049618
v 0.053649 1.016551 -0.051151
v -0.034691 1.237877 -0.043306
v -0.036861 1.234974 -0.042949
v -0.038948 1.232182 -0.041892
v -0.040872 1.229609 -0.040175
v -0.042558 1.227353 -0.037864
v -0.043941 1.225503 -0.035048
v -0.044969 1.224127 -0.031836
v -0.045603 1.223280 -0.028350
v -0.045816 1.222995 -0.024725
v -0.045603 1.223280 -0.021100
v -0.044969 1.224127 -0.017614
v -0.043941 1.225503 -0.014402
v -0.042558 1.227353 -0.011586
v -0.040872 1.229609 -0.009275
v -0.038948 1.232182 -0.007558
v -0.036861 1.234974 -0.006501
v -0.034691 1.237877 -0.006144
v -0.032520 1.240780 -0.006501
v -0.030433 1.243572 -0.007558
v -0.028510 1.246145 -0.009275
v -0.026824 1.248400 -0.011586
v -0.025440 1.250251 -0.014402
v -0.024412 1.251627 -0.017614
v -0.023779 1.252474 -0.021100
v -0.023565 1.252759 -0.024725
v -0.023779 1.252474 -0.028350
v -0.024412 1.251627 -0.031836
v -0.025440 1.250251 -0.035048
v -0.026824 1.248400 -0.037864
v -0.028510 1.246145 -0.040175
v -0.030433 1.243572 -0.041892
v -0.032520 1.240780 -0.042949
v -0.122445 1.354883 -0.024725
v -0.041929 -0.003319 -0.184323
v -0.041929 0.363227 -0.207998
v -0.010793 -0.003319 -0.181257
v -0.006174 0.363227 -0.204477
v 0.019147 -0.003319 -0.172174
v 0.028207 0.363227 -0.194047
v 0.046739 -0.003319 -0.157426
v 0.059892 0.363227 -0.177111
v 0.070924 -0.003319 -0.137578
v 0.087665 0.363227 -0.154319
v 0.090772 -0.003319 -0.113393
v 0.110457 0.363227 -0.126546
v 0.105521 -0.003319 -0.085801
v 0.127394 0.363227 -0.094861
v 0.114603 -0.003319 -0.055861
v 0.137823 0.363227 -0.060480
v 0.117669 -0.003319 -0.024725
v 0.141344 0.363227 -0.024725
v 0.114603 -0.003319 0.006411
v 0.137823 0.363227 0.011030
v 0.105521 -0.003319 0.036350
v 0.127394 0.363227 0.045410
v 0.090772 -0.003319 0.063943
v 0.110457 0.363227 0.077096
v 0.070924 -0.003319 0.088128
v 0.087665 0.363227 0.104868
v 0.046739 -0.003319 0.107976
v 0.059892 0.363227 0.127661
v 0.019147 -0.003319 0.122724
v 0.028207 0.363227 0.144597
v -0.010793 -0.003319 0.131806
v -0.006174 0.363227 0.155026
v -0.041929 -0.003319 0.134873
v -0.041929 0.363227 0.158548
v -0.073065 -0.003319 0.131806
v -0.077683 0.363227 0.155026
v -0.103004 -0.003319 0.122724
v -0.112064 0.363227 0.144597
v -0.130596 -0.003319 0.107976
v -0.143750 0.363227 0.127661
v -0.154781 -0.003319 0.088128
v -0.171522 0.363227 0.104868
v -0.174629 -0.003319 0.063943
v -0.194314 0.363227 0.077096
v -0.189378 -0.003319 0.036350
v -0.211251 0.363227 0.045410
v -0.198460 -0.003319 0.006411
v -0.221680 0.363227 0.011030
v -0.201526 -0.003319 -0.024725
v -0.225202 0.363227 -0.024725
v -0.198460 -0.003319 -0.055861
v -0.221680 0.363227 -0.060480
v -0.189378 -0.003319 -0.085801
v -0.211251 0.363227 -0.094861
v -0.174629 -0.003319 -0.113393
v -0.194314 0.363227 -0.126546
v -0.154781 -0.003319 -0.137578
v -0.171522 0.363227 -0.154319
v -0.130596 -0.003319 -0.157426
v -0.143750 0.363227 -0.177111
v -0.103004 -0.003319 -0.172174
v -0.112064 0.363227 -0.194047
v -0.073065 -0.003319 -0.181257
v -0.077683 0.363227 -0.204477
v -0.164901 -0.003319 -0.108517
v -0.135616 -0.003319 -0.127603
v -0.102650 -0.003319 -0.142327
v -0.067269 -0.003319 -0.152122
v -0.030833 -0.003319 -0.156612
v 0.005258 -0.003319 -0.155625
v 0.039617 -0.003319 -0.149198
v -0.169998 -0.003319 -0.074743
v -0.136519 -0.003319 -0.091226
v -0.099310 -0.003319 -0.104677
v -0.059801 -0.003319 -0.114578
v -0.019511 -0.003319 -0.120550
v 0.020013 -0.003319 -0.122362
v 0.057251 -0.003319 -0.119946
v -0.169968 -0.003319 -0.038020
v -0.133430 -0.003319 -0.050502
v -0.093315 -0.003319 -0.061693
v -0.051165 -0.003319 -0.071161
v -0.008601 -0.003319 -0.078543
v 0.032743 -0.003319 -0.083556
v 0.071277 -0.003319 -0.086007
v -0.164914 -0.003319 -0.000262
v -0.126643 -0.003319 -0.007875
v -0.085115 -0.003319 -0.016135
v -0.041929 -0.003319 -0.024725
v 0.001258 -0.003319 -0.033316
v 0.042786 -0.003319 -0.041576
v 0.081057 -0.003319 -0.049189
v -0.155134 -0.003319 0.036556
v -0.116600 -0.003319 0.034106
v -0.075256 -0.003319 0.029093
v -0.032692 -0.003319 0.021710
v 0.009458 -0.003319 0.012242
v 0.049573 -0.003319 0.001052
v 0.086111 -0.003319 -0.011431
v -0.141108 -0.003319 0.070495
v -0.103870 -0.003319 0.072912
v -0.064346 -0.003319 0.071099
v -0.024056 -0.003319 0.065128
v 0.015453 -0.003319 0.055226
v 0.052662 -0.003319 0.041776
v 0.086140 -0.003319 0.025293
v -0.123474 -0.003319 0.099747
v -0.089115 -0.003319 0.106174
v -0.053024 -0.003319 0.107162
v -0.016588 -0.003319 0.102672
v 0.018793 -0.003319 0.092876
v 0.051759 -0.003319 0.078153
v 0.081044 -0.003319 0.059066
v -0.041929 0.363227 -0.226326
v -0.002598 0.363227 -0.222452
v 0.035221 0.363227 -0.210980
v 0.070075 0.363227 -0.192350
v 0.100624 0.363227 -0.167278
v 0.125696 0.363227 -0.136728
v 0.144326 0.363227 -0.101874
v 0.155798 0.363227 -0.064056
v 0.159672 0.363227 -0.024725
v 0.155798 0.363227 0.014605
v 0.144326 0.363227 0.052424
v 0.125696 0.363227 0.087278
v 0.100624 0.363227 0.117828
v 0.070075 0.363227 0.142899
v 0.035221 0.363227 0.161529
v -0.002598 0.363227 0.173001
v -0.041929 0.363227 0.176875
v -0.081259 0.363227 0.173001
v -0.119078 0.363227 0.161529
v -0.153932 0.363227 0.142899
v -0.184482 0.363227 0.117828
v -0.209553 0.363227 0.087278
v -0.228183 0.363227 0.052424
v -0.239655 0.363227 0.014605
v -0.243529 0.363227 -0.024725
v -0.239655 0.363227 -0.064056
v -0.228183 0.363227 -0.101874
v -0.209553 0.363227 -0.136728
v -0.184482 0.363227 -0.167278
v -0.153932 0.363227 -0.192350
v -0.119078 0.363227 -0.210980
v -0.081259 0.363227 -0.222452
v -0.041929 0.400276 -0.230736
v -0.001738 0.400276 -0.226778
v 0.036908 0.400276 -0.215055
v 0.072525 0.400276 -0.196017
v 0.103743 0.400276 -0.170397
v 0.129363 0.400276 -0.139179
v 0.148401 0.400276 -0.103562
v 0.160124 0.400276 -0.064916
v 0.164082 0.400276 -0.024725
v 0.160124 0.400276 0.015466
v 0.148401 0.400276 0.054112
v 0.129363 0.400276 0.089728
v 0.103743 0.400276 0.120947
v 0.072525 0.400276 0.146567
v 0.036908 0.400276 0.165604
v -0.001738 0.400276 0.177327
v -0.041929 0.400276 0.181286
v -0.082119 0.400276 0.177327
v -0.120766 0.400276 0.165604
v -0.156382 0.400276 0.146567
v -0.187600 0.400276 0.120947
v -0.213220 0.400276 0.089728
v -0.232258 0.400276 0.054112
v -0.243981 0.400276 0.015466
v -0.247940 0.400276 -0.024725
v -0.243981 0.400276 -0.064916
v -0.232258 0.400276 -0.103562
v -0.213220 0.400276 -0.139179
v -0.187600 0.400276 -0.170397
v -0.156382 0.400276 -0.196017
v -0.120766 0.400276 -0.215055
v -0.082119 0.400276 -0.226778
v -0.041929 0.400276 -0.189534
v -0.009776 0.400276 -0.186367
v 0.021141 0.400276 -0.176989
v 0.049634 0.400276 -0.161759
v 0.074609 0.400276 -0.141263
v 0.095105 0.400276 -0.116288
v 0.110335 0.400276 -0.087795
v 0.119713 0.400276 -0.056878
v 0.122880 0.400276 -0.024725
v 0.119713 0.400276 0.007427
v 0.110335 0.400276 0.038344
v 0.095105 0.400276 0.066838
v 0.074609 0.400276 0.091812
v 0.049634 0.400276 0.112308
v 0.021141 0.400276 0.127538
v -0.009776 0.400276 0.136917
v -0.041929 0.400276 0.140084
v -0.074081 0.400276 0.136917
v -0.104998 0.400276 0.127538
v -0.133491 0.400276 0.112308
v -0.158466 0.400276 0.091812
v -0.178962 0.400276 0.066838
v -0.194192 0.400276 0.038344
v -0.203571 0.400276 0.007427
v -0.206737 0.400276 -0.024725
v -0.203571 0.400276 -0.056878
v -0.194192 0.400276 -0.087795
v -0.178962 0.400276 -0.116288
v -0.158466 0.400276 -0.141263
v -0.133491 0.400276 -0.161759
v -0.104998 0.400276 -0.176989
v -0.074081 0.400276 -0.186367
v -0.041929 0.378488 -0.189534
v -0.009776 0.378488 -0.186367
v 0.021141 0.378488 -0.176989
v 0.049634 0.378488 -0.161759
v 0.074609 0.378488 -0.141263
v 0.095105 0.378488 -0.116288
v 0.110335 0.378488 -0.087795
v 0.119713 0.378488 -0.056878
v 0.122880 0.378488 -0.024725
v 0.119713 0.378488 0.007427
v 0.110335 0.378488 0.038344
v 0.095105 0.378488 0.066838
v 0.074609 0.378488 0.091812
v 0.049634 0.378488 0.112308
v 0.021141 0.378488 0.127538
v -0.009776 0.378488 0.136917
v -0.041929 0.378488 0.140084
v -0.074081 0.378488 0.136917
v -0.104998 0.378488 0.127538
v -0.133491 0.378488 0.112308
v -0.158466 0.378488 0.091812
v -0.178962 0.378488 0.066838
v -0.194192 0.378488 0.038344
v -0.203571 0.378488 0.007427
v -0.206737 0.378488 -0.024725
v -0.203571 0.378488 -0.056878
v -0.194192 0.378488 -0.087795
v -0.178962 0.378488 -0.116288
v -0.158466 0.378488 -0.141263
v -0.133491 0.378488 -0.161759
v -0.104998 0.378488 -0.176989
v -0.074081 0.378488 -0.186367
v 0.111729 0.378488 -0.026120
v 0.097535 0.378488 -0.059308
v 0.077677 0.378488 -0.090863
v 0.052918 0.378488 -0.119572
v 0.024210 0.378488 -0.144331
v -0.007345 0.378488 -0.164189
v -0.040534 0.378488 -0.178383
v 0.096729 0.378488 0.005803
v 0.077440 0.378488 -0.027557
v 0.053209 0.378488 -0.060453
v 0.024967 0.378488 -0.091621
v -0.006201 0.378488 -0.119863
v -0.039097 0.378488 -0.144094
v -0.072457 0.378488 -0.163383
v 0.075636 0.378488 0.037317
v 0.051424 0.378488 0.005637
v 0.023401 0.378488 -0.026985
v -0.007357 0.378488 -0.059297
v -0.039669 0.378488 -0.090055
v -0.072291 0.378488 -0.118078
v -0.103971 0.378488 -0.142290
v 0.049634 0.378488 0.066838
v 0.021141 0.378488 0.038344
v -0.009776 0.378488 0.007427
v -0.041929 0.378488 -0.024725
v -0.074081 0.378488 -0.056878
v -0.104998 0.378488 -0.087795
v -0.133491 0.378488 -0.116288
v 0.020114 0.378488 0.092839
v -0.011566 0.378488 0.068628
v -0.044189 0.378488 0.040604
v -0.076500 0.378488 0.009846
v -0.107258 0.378488 -0.022465
v -0.135282 0.378488 -0.055088
v -0.159493 0.378488 -0.086768
v -0.011400 0.378488 0.113933
v -0.044760 0.378488 0.094644
v -0.077656 0.378488 0.070412
v -0.108824 0.378488 0.042170
v -0.137066 0.378488 0.011002
v -0.161298 0.378488 -0.021894
v -0.180587 0.378488 -0.055253
v -0.043323 0.378488 0.128933
v -0.076512 0.378488 0.114739
v -0.108067 0.378488 0.094881
v -0.136775 0.378488 0.070122
v -0.161535 0.378488 0.041413
v -0.181393 0.378488 0.009858
v -0.195586 0.378488 -0.023331
v -0.026445 0.542088 -0.023728
v -0.026445 0.558058 -0.045388
v -0.021641 0.557694 -0.002277
v -0.031248 0.510513 -0.023518
v -0.152738 0.551694 -0.018182
v 0.022641 0.772788 -0.023728
v 0.022641 0.788757 -0.045388
v 0.027444 0.788393 -0.002278
v 0.017838 0.741213 -0.023518
v -0.064588 0.782394 -0.018182
v 0.061053 1.020887 -0.023728
v 0.059260 1.036756 -0.045388
v 0.054529 1.035855 -0.002277
v 0.069371 0.990051 -0.023518
v 0.122484 1.037495 -0.018182
v 0.007800 0.542088 -0.023728
v 0.007800 0.558057 -0.045388
v 0.002997 0.557694 -0.002277
v 0.012603 0.510513 -0.023518
v 0.134094 0.551694 -0.018182
v 0.026609 1.022013 -0.023728
v 0.020400 1.036727 -0.045388
v 0.024967 1.038259 -0.002278
v 0.034459 0.991055 -0.023518
v -0.035084 1.006407 -0.018182
v 0.063908 0.767221 -0.023728
v 0.066860 0.782915 -0.045388
v 0.062072 0.783445 -0.002277
v 0.062792 0.735302 -0.023518
v 0.151829 0.765034 -0.018182
v -0.023194 1.236858 -0.022756
v -0.026644 1.246638 -0.036823
v -0.029507 1.245377 -0.008825
v -0.013429 1.218558 -0.022619
v 0.013257 1.256334 -0.019154
v -0.039880 1.224079 -0.022756
v -0.045172 1.232998 -0.036823
v -0.042369 1.234386 -0.008825
v -0.032099 1.204852 -0.022619
v -0.078198 1.208597 -0.019154
v -0.001477 0.559569 -0.033398
v 0.020184 0.575539 -0.033398
v -0.022927 0.575175 -0.028595
v -0.001687 0.527994 -0.038201
v -0.007023 0.569175 -0.159691
v 0.040411 0.790269 -0.043604
v 0.062071 0.806238 -0.043604
v 0.018960 0.805875 -0.038801
v 0.040201 0.758694 -0.048407
v 0.034865 0.799875 -0.130833
v 0.025486 1.064301 -0.009271
v 0.042420 1.076756 -0.008407
v 0.008716 1.076732 -0.012173
v 0.025322 1.039415 -0.007234
v 0.021150 1.068388 0.040311
v -0.001477 0.559569 0.000847
v 0.020184 0.575539 0.000847
v -0.022927 0.575175 -0.003956
v -0.001687 0.527994 0.005650
v -0.007023 0.569175 0.127140
v 0.025486 1.070035 -0.035597
v 0.042420 1.082226 -0.038291
v 0.008716 1.082759 -0.034563
v 0.025322 1.045122 -0.033936
v 0.021150 1.066756 -0.085240
v 0.040411 0.809499 -0.002337
v 0.062071 0.825194 0.000615
v 0.018960 0.825724 -0.004173
v 0.040201 0.777581 -0.003453
v 0.034865 0.807313 0.085584
vn 0.5500 -0.0586 0.8331
vn 0.7018 -0.0747 0.7084
vn 0.6979 -0.1407 0.7022
vn 0.5490 -0.1105 0.8285
vn -0.9204 0.0980 -0.3785
vn -0.9757 0.1039 -0.1928
vn -0.9625 0.1934 -0.1901
vn -0.9093 0.1830 -0.3738
vn 0.8262 -0.0880 0.5565
vn 0.8188 -0.1651 0.5498
vn -0.9944 0.1059 -0.0000
vn -0.9804 0.1968 -0.0000
vn 0.9185 -0.0978 0.3832
vn 0.9077 -0.1830 0.3775
vn -0.9757 0.1039 0.1928
vn -0.9625 0.1934 0.1901
vn 0.9752 -0.1039 0.1953
vn 0.9620 -0.1939 0.1921
vn -0.9204 0.0980 0.3785
vn -0.9093 0.1830 0.3738
vn 0.9944 -0.1059 -0.0000
vn 0.9803 -0.1975 -0.0000
vn -0.8302 0.0884 0.5504
vn -0.8221 0.1659 0.5447
vn 0.9752 -0.1039 -0.1953
vn 0.9620 -0.1939 -0.1921
vn -0.7084 0.0754 0.7018
vn -0.7033 0.1425 0.6965
vn 0.9185 -0.0978 -0.3832
vn 0.9077 -0.1830 -0.3775
vn -0.5591 0.0596 0.8269
vn -0.5565 0.1134 0.8230
vn 0.8262 -0.0880 -0.5565
vn 0.8188 -0.1651 -0.5498
vn -0.3880 0.0413 0.9207
vn -0.3869 0.0794 0.9187
vn -0.0066 0.0007 -1.0000
vn -0.2014 0.0215 -0.9793
vn -0.2008 0.0419 -0.9787
vn -0.0058 0.0024 -1.0000
vn 0.7018 -0.0747 -0.7084
vn 0.6979 -0.1407 -0.7022
vn -0.2014 0.0215 0.9793
vn -0.2008 0.0419 0.9787
vn -0.3880 0.0413 -0.9207
vn -0.3869 0.0794 -0.9187
vn 0.5500 -0.0586 -0.8331
vn 0.5490 -0.1105 -0.8285
vn -0.0066 0.0007 1.0000
vn -0.0058 0.0024 1.0000
vn -0.5591 0.0596 -0.8269
vn -0.5565 0.1134 -0.8230
vn 0.3767 -0.0401 -0.9255
vn 0.3773 -0.0756 -0.9230
vn 0.1887 -0.0201 0.9818
vn 0.1897 -0.0374 0.9811
vn -0.7084 0.0754 -0.7018
vn -0.7033 0.1425 -0.6965
vn 0.1887 -0.0201 -0.9818
vn 0.1897 -0.0374 -0.9811
vn 0.3767 -0.0401 0.9255
vn 0.3773 -0.0756 0.9230
vn -0.8302 0.0884 -0.5504
vn -0.8221 0.1659 -0.5447
vn 0.9743 -0.2252 -0.0000
vn 0.9568 -0.2212 0.1888
vn -0.8161 0.1913 0.5454
vn -0.9029 0.2119 0.3739
vn 0.9568 -0.2212 -0.1888
vn -0.6973 0.1632 0.6980
vn 0.9044 -0.2094 -0.3716
vn -0.5500 0.1283 0.8253
vn 0.8185 -0.1899 -0.5423
vn -0.3793 0.0880 0.9211
vn -0.1920 0.0440 -0.9804
vn 0.0039 -0.0020 -1.0000
vn 0.7009 -0.1631 -0.6944
vn -0.1920 0.0440 0.9804
vn -0.3793 0.0880 -0.9211
vn 0.5550 -0.1297 -0.8217
vn 0.0039 -0.0020 1.0000
vn -0.5500 0.1283 -0.8253
vn 0.3857 -0.0907 -0.9182
vn 0.1994 -0.0475 0.9788
vn -0.6973 0.1632 -0.6980
vn 0.1994 -0.0475 -0.9788
vn 0.3857 -0.0907 0.9182
vn -0.8161 0.1913 -0.5454
vn 0.5550 -0.1297 0.8217
vn -0.9029 0.2119 -0.3739
vn 0.7009 -0.1631 0.6944
vn -0.9558 0.2244 -0.1900
vn 0.8185 -0.1899 0.5423
vn -0.9735 0.2286 -0.0000
vn 0.9044 -0.2094 0.3716
vn -0.9558 0.2244 0.1900
vn 0.3902 -0.0134 0.9206
vn 0.2009 0.0003 0.9796
vn -0.8319 0.0822 -0.5488
vn -0.7096 0.0718 -0.7010
vn 0.0029 0.0150 -0.9999
vn 0.2009 0.0003 -0.9796
vn 0.5633 -0.0256 0.8259
vn -0.9219 0.0900 -0.3768
vn 0.7135 -0.0360 0.6998
vn -0.9769 0.0948 -0.1917
vn 0.8354 -0.0442 0.5479
vn -0.9953 0.0964 -0.0000
vn 0.9252 -0.0502 0.3763
vn -0.9769 0.0948 0.1917
vn 0.9800 -0.0538 0.1914
vn -0.9219 0.0900 0.3768
vn 0.9985 -0.0550 -0.0000
vn -0.8319 0.0822 0.5488
vn 0.9800 -0.0538 -0.1914
vn -0.7096 0.0718 0.7010
vn 0.9252 -0.0502 -0.3763
vn -0.5588 0.0592 0.8272
vn 0.8354 -0.0442 -0.5479
vn -0.3851 0.0452 0.9218
vn -0.1952 0.0302 -0.9803
vn 0.7135 -0.0360 -0.6998
vn -0.1952 0.0302 0.9803
vn -0.3851 0.0452 -0.9218
vn 0.5633 -0.0256 -0.8259
vn 0.0029 0.0150 0.9999
vn -0.5588 0.0592 -0.8272
vn 0.3902 -0.0134 -0.9206
vn -0.7111 -0.0954 -0.6966
vn -0.5621 -0.0705 -0.8241
vn 0.1952 0.0696 -0.9783
vn 0.3827 0.1069 -0.9176
vn 0.3827 0.1069 0.9176
vn 0.1952 0.0696 0.9783
vn -0.8313 -0.1146 -0.5439
vn -0.0020 0.0313 -0.9995
vn 0.5529 0.1415 0.8211
vn -0.9191 -0.1282 -0.3727
vn 0.6993 0.1716 0.6939
vn -0.9724 -0.1363 -0.1893
vn 0.8172 0.1961 0.5419
vn -0.9903 -0.1390 -0.0000
vn 0.9034 0.2141 0.3714
vn -0.9724 -0.1363 0.1893
vn 0.9559 0.2251 0.1887
vn -0.9191 -0.1282 0.3727
vn 0.9735 0.2288 -0.0000
vn -0.8313 -0.1146 0.5439
vn 0.9559 0.2251 -0.1887
vn -0.7111 -0.0954 0.6966
vn 0.9034 0.2141 -0.3714
vn -0.5621 -0.0705 0.8241
vn 0.8172 0.1961 -0.5419
vn -0.3893 -0.0404 0.9202
vn -0.1998 -0.0060 -0.9798
vn 0.6993 0.1716 -0.6939
vn -0.1998 -0.0060 0.9798
vn -0.3893 -0.0404 -0.9202
vn 0.5529 0.1415 -0.8211
vn -0.0020 0.0313 0.9995
vn -0.9005 -0.3946 -0.1830
vn -0.8554 -0.3713 -0.3611
vn 0.6898 0.4741 0.5472
vn 0.5829 0.4123 0.7002
vn -0.9155 -0.4023 -0.0000
vn 0.7677 0.5194 0.3752
vn -0.9005 -0.3946 0.1830
vn 0.8151 0.5471 0.1907
vn -0.8554 -0.3713 0.3611
vn 0.8309 0.5564 -0.0000
vn -0.7809 -0.3326 0.5288
vn 0.8151 0.5471 -0.1907
vn -0.6778 -0.2790 0.6803
vn 0.7677 0.5194 -0.3752
vn -0.5485 -0.2111 0.8090
vn 0.6898 0.4741 -0.5472
vn -0.3970 -0.1308 0.9085
vn -0.2289 -0.0407 -0.9726
vn -0.0517 0.0556 -0.9971
vn 0.5829 0.4123 -0.7002
vn -0.2289 -0.0407 0.9726
vn -0.3970 -0.1308 -0.9085
vn 0.4501 0.3361 -0.8273
vn -0.0517 0.0556 0.9971
vn -0.5485 -0.2111 -0.8090
vn 0.2958 0.2486 -0.9224
vn 0.1260 0.1536 0.9801
vn -0.6778 -0.2790 -0.6803
vn 0.1260 0.1536 -0.9801
vn 0.2958 0.2486 0.9223
vn -0.7809 -0.3326 -0.5288
vn 0.4501 0.3361 0.8273
vn -0.6035 0.7974 0.0002
vn -0.0000 -0.0645 -0.9979
vn 0.1947 -0.0645 -0.9787
vn 0.3819 -0.0645 -0.9220
vn 0.5544 -0.0645 -0.8297
vn 0.7056 -0.0645 -0.7056
vn 0.8297 -0.0645 -0.5544
vn 0.9220 -0.0645 -0.3819
vn 0.9787 -0.0645 -0.1947
vn 0.9979 -0.0645 -0.0000
vn 0.9787 -0.0645 0.1947
vn 0.9220 -0.0645 0.3819
vn 0.8297 -0.0645 0.5544
vn 0.7056 -0.0645 0.7056
vn 0.5544 -0.0645 0.8297
vn 0.3819 -0.0645 0.9220
vn 0.1947 -0.0645 0.9787
vn -0.0000 -0.0645 0.9979
vn -0.1947 -0.0645 0.9787
vn -0.3819 -0.0645 0.9220
vn -0.5544 -0.0645 0.8297
vn -0.7056 -0.0645 0.7056
vn -0.8297 -0.0645 0.5544
vn -0.9220 -0.0645 0.3819
vn -0.9787 -0.0645 0.1947
vn -0.9979 -0.0645 -0.0000
vn -0.9787 -0.0645 -0.1947
vn -0.9220 -0.0645 -0.3819
vn -0.8297 -0.0645 -0.5544
vn -0.7056 -0.0645 -0.7056
vn -0.5544 -0.0645 -0.8297
vn -0.3819 -0.0645 -0.9220
vn -0.1947 -0.0645 -0.9787
vn -0.0000 -1.0000 -0.0000
vn -0.7021 -0.1182 0.7021
vn -0.5517 -0.1182 0.8256
vn 0.9739 -0.1182 -0.1937
vn 0.9174 -0.1182 -0.3800
vn -0.8256 -0.1182 0.5517
vn 0.9930 -0.1182 -0.0000
vn -0.9174 -0.1182 0.3800
vn 0.9739 -0.1182 0.1937
vn -0.9739 -0.1182 0.1937
vn 0.9174 -0.1182 0.3800
vn -0.9930 -0.1182 -0.0000
vn 0.8256 -0.1182 0.5517
vn -0.9739 -0.1182 -0.1937
vn 0.7021 -0.1182 0.7021
vn -0.9174 -0.1182 -0.3800
vn 0.5517 -0.1182 0.8256
vn -0.8256 -0.1182 -0.5517
vn 0.3800 -0.1182 0.9174
vn 0.1937 -0.1182 -0.9739
vn -0.0000 -0.1182 -0.9930
vn -0.7021 -0.1182 -0.7021
vn 0.1937 -0.1182 0.9739
vn 0.3800 -0.1182 -0.9174
vn -0.5517 -0.1182 -0.8256
vn -0.0000 -0.1182 0.9930
vn 0.5517 -0.1182 -0.8256
vn -0.3800 -0.1182 -0.9174
vn -0.1937 -0.1182 0.9739
vn 0.7021 -0.1182 -0.7021
vn -0.1937 -0.1182 -0.9739
vn -0.3800 -0.1182 0.9174
vn 0.8256 -0.1182 -0.5517
vn -0.0000 1.0000 -0.0000
vn 0.8315 -0.0000 -0.5556
vn 0.7071 -0.0000 -0.7071
vn -1.0000 -0.0000 -0.0000
vn -0.9808 -0.0000 0.1951
vn 0.9239 -0.0000 -0.3827
vn -0.9808 -0.0000 -0.1951
vn 0.9808 -0.0000 -0.1951
vn -0.9239 -0.0000 -0.3827
vn 1.0000 -0.0000 -0.0000
vn -0.8315 -0.0000 -0.5556
vn 0.9808 -0.0000 0.1951
vn -0.7071 -0.0000 -0.7071
vn 0.9239 -0.0000 0.3827
vn -0.5556 -0.0000 -0.8315
vn 0.8315 -0.0000 0.5556
vn -0.3827 -0.0000 -0.9239
vn -0.1951 -0.0000 0.9808
vn -0.0000 -0.0000 1.0000
vn 0.7071 -0.0000 0.7071
vn -0.1951 -0.0000 -0.9808
vn -0.3827 -0.0000 0.9239
vn 0.5556 -0.0000 0.8315
vn -0.0000 -0.0000 -1.0000
vn -0.5556 -0.0000 0.8315
vn 0.3827 -0.0000 0.9239
vn 0.1951 -0.0000 -0.9808
vn -0.7071 -0.0000 0.7071
vn 0.1951 -0.0000 0.9808
vn 0.3827 -0.0000 -0.9239
vn -0.8315 -0.0000 0.5556
vn 0.5556 -0.0000 -0.8315
vn -0.9239 -0.0000 0.3827
vn 0.9824 -0.1502 -0.1107
vn -0.0474 0.9988 0.0137
vn -0.0930 -0.3929 0.9149
vn -0.1741 -0.3969 -0.9012
vn -0.0678 0.9976 0.0160
vn -0.1328 -0.3843 0.9136
vn -0.2493 -0.3838 -0.8891
vn -0.9594 -0.2595 -0.1107
vn -0.0197 0.9996 0.0187
vn 0.2215 -0.3503 0.9101
vn 0.3771 -0.3246 -0.8674
vn -0.9824 -0.1502 -0.1107
vn 0.0474 0.9988 0.0137
vn 0.0930 -0.3929 0.9149
vn 0.1741 -0.3969 -0.9012
vn 0.9635 0.2436 -0.1107
vn -0.4724 0.8812 0.0187
vn -0.0215 -0.4138 0.9101
vn -0.1698 -0.4677 -0.8674
vn -0.9933 0.0340 -0.1107
vn 0.2027 0.9792 0.0105
vn 0.0793 -0.4014 0.9125
vn 0.1943 -0.4231 -0.8850
vn -0.8765 -0.4685 -0.1107
vn -0.2439 0.9696 0.0187
vn 0.2945 -0.2915 0.9101
vn 0.4404 -0.2315 -0.8674
vn 0.9215 0.3722 -0.1107
vn -0.5876 0.8089 0.0187
vn 0.0349 -0.4129 0.9101
vn -0.1047 -0.4864 -0.8674
vn 0.1107 -0.1502 0.9824
vn -0.0137 0.9988 -0.0474
vn -0.9149 -0.3929 -0.0930
vn 0.9012 -0.3970 -0.1741
vn -0.0160 0.9976 -0.0678
vn -0.9136 -0.3843 -0.1328
vn 0.8891 -0.3838 -0.2493
vn 0.1107 -0.0818 -0.9905
vn -0.0187 0.9867 0.1613
vn -0.9101 -0.3845 0.1545
vn 0.8674 -0.3874 0.3122
vn 0.1107 -0.1502 -0.9824
vn -0.0137 0.9988 0.0474
vn -0.9149 -0.3929 0.0930
vn 0.9012 -0.3970 0.1741
vn 0.1107 0.0654 0.9917
vn -0.0187 0.9521 -0.3053
vn -0.9101 -0.4031 -0.0960
vn 0.8674 -0.4293 -0.2515
vn 0.1107 0.0340 -0.9933
vn -0.0105 0.9792 0.2027
vn -0.9125 -0.4014 0.0793
vn 0.8850 -0.4231 0.1943
vt 0.460301 0.978958
vt 0.455705 0.978418
vt 0.456259 0.889249
vt 0.460855 0.889789
vt 0.386573 0.989265
vt 0.380188 0.989434
vt 0.379778 0.900366
vt 0.386163 0.900198
vt 0.450297 0.977964
vt 0.450851 0.888795
vt 0.373676 0.989531
vt 0.373266 0.900464
vt 0.444286 0.977614
vt 0.444839 0.888444
vt 0.367286 0.989554
vt 0.366876 0.900486
vt 0.437901 0.977380
vt 0.438455 0.888211
vt 0.361265 0.989501
vt 0.360855 0.900433
vt 0.431389 0.977272
vt 0.431943 0.888102
vt 0.355844 0.989374
vt 0.355434 0.900307
vt 0.424999 0.977294
vt 0.425553 0.888124
vt 0.348243 0.995514
vt 0.343624 0.995907
vt 0.329352 0.907901
vt 0.333972 0.907508
vt 0.418978 0.977445
vt 0.419532 0.888275
vt 0.338200 0.996315
vt 0.323929 0.908308
vt 0.413557 0.977719
vt 0.414110 0.888550
vt 0.332180 0.996722
vt 0.317909 0.908715
vt 0.023948 0.997620
vt 0.017542 0.997227
vt 0.031889 0.909287
vt 0.038294 0.909681
vt 0.408943 0.978106
vt 0.409497 0.888937
vt 0.325796 0.997111
vt 0.311525 0.909105
vt 0.011479 0.996813
vt 0.025825 0.908873
vt 0.048068 0.998712
vt 0.042746 0.998535
vt 0.057092 0.910595
vt 0.062415 0.910772
vt 0.319293 0.997470
vt 0.305022 0.909463
vt 0.005991 0.996394
vt 0.020337 0.908455
vt 0.036796 0.998287
vt 0.051143 0.910348
vt 0.312921 0.997782
vt 0.298650 0.909776
vt 0.001288 0.995987
vt 0.015635 0.908048
vt 0.030449 0.997978
vt 0.044795 0.910039
vt 0.306924 0.998038
vt 0.292653 0.910031
vt 0.397993 0.988744
vt 0.392585 0.989032
vt 0.392175 0.899965
vt 0.397583 0.899677
vt 0.301534 0.998226
vt 0.287263 0.910219
vt 0.429861 0.712046
vt 0.436372 0.712172
vt 0.357824 0.727580
vt 0.363247 0.727793
vt 0.423471 0.712086
vt 0.350820 0.900112
vt 0.353209 0.727269
vt 0.417449 0.712290
vt 0.263741 0.741001
vt 0.269170 0.740735
vt 0.412026 0.712650
vt 0.257714 0.741246
vt 0.092315 0.741976
vt 0.098728 0.742187
vt 0.407410 0.713153
vt 0.251323 0.741460
vt 0.086244 0.741738
vt 0.117547 0.742582
vt 0.122876 0.742617
vt 0.244813 0.741635
vt 0.080749 0.741482
vt 0.111591 0.742496
vt 0.238433 0.741766
vt 0.076041 0.741216
vt 0.105237 0.742363
vt 0.232429 0.741845
vt 0.394566 0.727238
vt 0.399972 0.726833
vt 0.227032 0.741872
vt 0.388555 0.727557
vt 0.454172 0.713465
vt 0.458765 0.714146
vt 0.382171 0.727779
vt 0.448766 0.712896
vt 0.375659 0.727894
vt 0.442756 0.712459
vt 0.369269 0.727899
vt 0.187889 0.543800
vt 0.193892 0.543720
vt 0.394833 0.525429
vt 0.400239 0.525025
vt 0.143468 0.544371
vt 0.149977 0.544546
vt 0.182492 0.543826
vt 0.388822 0.525748
vt 0.454230 0.510890
vt 0.458824 0.511571
vt 0.382438 0.525970
vt 0.448824 0.510320
vt 0.375926 0.526085
vt 0.442814 0.509883
vt 0.369536 0.526090
vt 0.436431 0.509597
vt 0.363514 0.525984
vt 0.429919 0.509471
vt 0.358091 0.525771
vt 0.423529 0.509510
vt 0.353476 0.525460
vt 0.417507 0.509714
vt 0.219200 0.542955
vt 0.224630 0.542689
vt 0.412084 0.510075
vt 0.213174 0.543200
vt 0.137055 0.544160
vt 0.407468 0.510578
vt 0.206783 0.543414
vt 0.130984 0.543921
vt 0.162287 0.544765
vt 0.167616 0.544800
vt 0.200272 0.543590
vt 0.125489 0.543665
vt 0.156331 0.544679
vt 0.120781 0.543399
vt 0.404833 0.524550
vt 0.393365 0.339853
vt 0.397062 0.338155
vt 0.156418 0.351338
vt 0.161363 0.349786
vt 0.183969 0.348882
vt 0.188628 0.350477
vt 0.388999 0.341260
vt 0.151357 0.352923
vt 0.179786 0.347374
vt 0.384131 0.342320
vt 0.453996 0.315228
vt 0.457690 0.317078
vt 0.378949 0.342993
vt 0.449633 0.313700
vt 0.373651 0.343253
vt 0.444767 0.312554
vt 0.368442 0.343091
vt 0.439585 0.311834
vt 0.363520 0.342511
vt 0.434288 0.311567
vt 0.359077 0.341538
vt 0.429078 0.311764
vt 0.355281 0.340208
vt 0.424156 0.312416
vt 0.208315 0.356494
vt 0.212551 0.357618
vt 0.419711 0.313500
vt 0.203620 0.355164
vt 0.146374 0.354479
vt 0.415913 0.314973
vt 0.198646 0.353679
vt 0.141660 0.355946
vt 0.166001 0.348325
vt 0.170154 0.347011
vt 0.193583 0.352096
vt 0.137397 0.357268
vt 0.367342 0.128666
vt 0.370874 0.127747
vt 0.457938 0.095967
vt 0.460855 0.097977
vt 0.363702 0.128998
vt 0.454651 0.094467
vt 0.360096 0.128733
vt 0.451120 0.093533
vt 0.356660 0.127879
vt 0.447481 0.093201
vt 0.353528 0.126470
vt 0.443874 0.093484
vt 0.350820 0.124559
vt 0.440437 0.094372
vt 0.272231 0.131636
vt 0.274275 0.133726
vt 0.437303 0.095829
vt 0.269993 0.129218
vt 0.078770 0.126948
vt 0.081076 0.124174
vt 0.173664 0.345896
vt 0.089941 0.113934
vt 0.091640 0.112081
vt 0.267648 0.126567
vt 0.076607 0.129595
vt 0.087955 0.116161
vt 0.265286 0.123782
vt 0.074669 0.132013
vt 0.085758 0.118675
vt 0.262997 0.120972
vt 0.377084 0.124315
vt 0.379523 0.121934
vt 0.083435 0.121381
vt 0.260869 0.118245
vt 0.374164 0.126278
vt 0.258985 0.115705
vt 0.176240 0.346011
vt 0.257417 0.113449
vt 0.354332 0.001288
vt 0.458713 0.001288
vt 0.276048 0.135408
vt 0.348243 0.001288
vt 0.092987 0.110673
vt 0.001288 0.001288
vt 0.073031 0.134110
vt 0.256224 0.111566
vt 0.365095 0.590348
vt 0.349862 0.285075
vt 0.371008 0.283741
vt 0.383509 0.589186
vt 0.395872 0.282693
vt 0.405161 0.588274
vt 0.423500 0.281972
vt 0.429220 0.587645
vt 0.452830 0.281604
vt 0.454761 0.587325
vt 0.482734 0.281604
vt 0.480802 0.587325
vt 0.512064 0.281972
vt 0.506343 0.587645
vt 0.539691 0.282693
vt 0.530402 0.588274
vt 0.564556 0.283741
vt 0.552055 0.589186
vt 0.585701 0.285075
vt 0.570469 0.590348
vt 0.015358 0.997143
vt 0.002857 0.691698
vt 0.027721 0.690650
vt 0.037010 0.996231
vt 0.055349 0.689928
vt 0.061069 0.995602
vt 0.084679 0.689561
vt 0.086610 0.995282
vt 0.114583 0.689561
vt 0.112651 0.995282
vt 0.143913 0.689928
vt 0.138192 0.995602
vt 0.171540 0.690650
vt 0.162251 0.996231
vt 0.196405 0.691698
vt 0.183904 0.997143
vt 0.363198 0.904254
vt 0.349862 0.598892
vt 0.371016 0.597690
vt 0.381619 0.903207
vt 0.395886 0.596797
vt 0.403277 0.902429
vt 0.423518 0.596247
vt 0.427339 0.901950
vt 0.452849 0.596061
vt 0.452882 0.901788
vt 0.482753 0.596247
vt 0.478923 0.901950
vt 0.512080 0.596797
vt 0.504461 0.902429
vt 0.539703 0.597690
vt 0.528515 0.903207
vt 0.564560 0.598892
vt 0.550162 0.904254
vt 0.604751 0.859911
vt 0.591415 0.554550
vt 0.612568 0.553347
vt 0.623172 0.858864
vt 0.637439 0.552454
vt 0.644830 0.858086
vt 0.665070 0.551904
vt 0.668892 0.857607
vt 0.694402 0.551718
vt 0.694434 0.857446
vt 0.724305 0.551904
vt 0.720475 0.857607
vt 0.753632 0.552454
vt 0.746013 0.858086
vt 0.781255 0.553347
vt 0.770068 0.858864
vt 0.806113 0.554550
vt 0.791714 0.859911
vt 0.639342 0.516491
vt 0.664240 0.522502
vt 0.685054 0.540924
vt 0.660995 0.530959
vt 0.692632 0.523969
vt 0.710595 0.546005
vt 0.723049 0.520949
vt 0.736636 0.546005
vt 0.753913 0.513682
vt 0.762177 0.540924
vt 0.783612 0.502577
vt 0.786236 0.530959
vt 0.810581 0.488189
vt 0.807888 0.516491
vt 0.833373 0.471197
vt 0.826302 0.498077
vt 0.850735 0.452366
vt 0.840770 0.476425
vt 0.620928 0.498077
vt 0.646041 0.499802
vt 0.676247 0.497582
vt 0.709728 0.491701
vt 0.744485 0.482601
vt 0.778439 0.470858
vt 0.809545 0.457147
vt 0.835894 0.442211
vt 0.855816 0.426825
vt 0.606461 0.476425
vt 0.631155 0.473697
vt 0.662070 0.467858
vt 0.697186 0.459385
vt 0.734254 0.448877
vt 0.770914 0.437020
vt 0.804819 0.424556
vt 0.833767 0.412235
vt 0.855816 0.400784
vt 0.596495 0.452366
vt 0.620155 0.445188
vt 0.650645 0.435939
vt 0.685905 0.425244
vt 0.723615 0.413804
vt 0.761326 0.402365
vt 0.796585 0.391669
vt 0.827075 0.382420
vt 0.850735 0.375243
vt 0.591415 0.426825
vt 0.613463 0.415373
vt 0.642411 0.403053
vt 0.676317 0.390588
vt 0.712976 0.378732
vt 0.750044 0.368223
vt 0.785160 0.359750
vt 0.816075 0.353912
vt 0.840770 0.351184
vt 0.591415 0.400784
vt 0.611337 0.385397
vt 0.637686 0.370462
vt 0.668792 0.356751
vt 0.702746 0.345007
vt 0.737502 0.335908
vt 0.770983 0.330026
vt 0.801189 0.327806
vt 0.826302 0.329531
vt 0.596495 0.375243
vt 0.613857 0.356412
vt 0.636649 0.339419
vt 0.663618 0.325032
vt 0.693318 0.313927
vt 0.724182 0.306660
vt 0.754598 0.303640
vt 0.782990 0.305106
vt 0.807888 0.311117
vt 0.606461 0.351184
vt 0.620928 0.329531
vt 0.639342 0.311117
vt 0.660995 0.296650
vt 0.685054 0.286684
vt 0.710595 0.281604
vt 0.736636 0.281604
vt 0.762177 0.286684
vt 0.786236 0.296650
vt 0.154897 0.365043
vt 0.125567 0.370877
vt 0.121139 0.356280
vt 0.153402 0.349862
vt 0.321661 0.531807
vt 0.321661 0.501903
vt 0.336842 0.500407
vt 0.336842 0.533302
vt 0.125567 0.662832
vt 0.154897 0.668666
vt 0.153402 0.683847
vt 0.121139 0.677430
vt 0.051930 0.420081
vt 0.035316 0.444945
vt 0.021862 0.437754
vt 0.040138 0.410403
vt 0.287769 0.420081
vt 0.266623 0.398935
vt 0.276301 0.387143
vt 0.299561 0.410403
vt 0.241759 0.651388
vt 0.266623 0.634774
vt 0.276301 0.646566
vt 0.248950 0.664842
vt 0.023872 0.561137
vt 0.035316 0.588764
vt 0.021862 0.595955
vt 0.009274 0.565565
vt 0.018038 0.531807
vt 0.002857 0.533302
vt 0.184801 0.365043
vt 0.186296 0.349862
vt 0.315827 0.561136
vt 0.330424 0.565565
vt 0.097940 0.651388
vt 0.090749 0.664842
vt 0.073075 0.398935
vt 0.063398 0.387143
vt 0.304383 0.444945
vt 0.317836 0.437754
vt 0.214131 0.662832
vt 0.218559 0.677430
vt 0.018038 0.501903
vt 0.002857 0.500407
vt 0.214131 0.370877
vt 0.218559 0.356280
vt 0.304383 0.588764
vt 0.317836 0.595955
vt 0.073075 0.634774
vt 0.063398 0.646566
vt 0.097939 0.382321
vt 0.090748 0.368868
vt 0.315827 0.472573
vt 0.330424 0.468145
vt 0.184801 0.668666
vt 0.186297 0.683847
vt 0.023872 0.472573
vt 0.009274 0.468145
vt 0.241759 0.382321
vt 0.248950 0.368868
vt 0.287769 0.613629
vt 0.299561 0.623306
vt 0.051930 0.613629
vt 0.040138 0.623306
vt 0.659617 0.128260
vt 0.659822 0.160524
vt 0.628818 0.161397
vt 0.628609 0.128427
vt 0.701245 0.032721
vt 0.700263 0.063106
vt 0.669272 0.061848
vt 0.670276 0.030798
vt 0.659822 0.095366
vt 0.628818 0.094813
vt 0.702568 0.005378
vt 0.671628 0.002857
vt 0.660427 0.063106
vt 0.629436 0.061848
vt 0.741081 0.218277
vt 0.742404 0.241546
vt 0.711464 0.244191
vt 0.710112 0.220414
vt 0.661409 0.032721
vt 0.630440 0.030798
vt 0.740099 0.190919
vt 0.709108 0.192457
vt 0.662732 0.005378
vt 0.631792 0.002857
vt 0.739494 0.160524
vt 0.708490 0.161397
vt 0.780917 0.218277
vt 0.782240 0.241546
vt 0.751300 0.244191
vt 0.749948 0.220414
vt 0.739289 0.128260
vt 0.708281 0.128427
vt 0.779935 0.190919
vt 0.748944 0.192457
vt 0.739494 0.095366
vt 0.708490 0.094813
vt 0.779330 0.160524
vt 0.748326 0.161397
vt 0.740099 0.063106
vt 0.709108 0.061848
vt 0.701245 0.218277
vt 0.702568 0.241546
vt 0.671628 0.244191
vt 0.670276 0.220414
vt 0.779125 0.128260
vt 0.748117 0.128427
vt 0.741081 0.032721
vt 0.710113 0.030798
vt 0.700263 0.190919
vt 0.669272 0.192457
vt 0.779330 0.095366
vt 0.748326 0.094813
vt 0.742404 0.005378
vt 0.711464 0.002857
vt 0.699658 0.160524
vt 0.668654 0.161397
vt 0.779935 0.063106
vt 0.748944 0.061848
vt 0.661410 0.218277
vt 0.662732 0.241546
vt 0.631792 0.244191
vt 0.630441 0.220414
vt 0.699453 0.128260
vt 0.668445 0.128427
vt 0.780917 0.032721
vt 0.749948 0.030798
vt 0.660427 0.190919
vt 0.629436 0.192457
vt 0.699658 0.095366
vt 0.668654 0.094813
vt 0.782240 0.005378
vt 0.751300 0.002857
vt 0.254334 0.022278
vt 0.282283 0.040953
vt 0.260527 0.067463
vt 0.238168 0.052523
vt 0.040953 0.282283
vt 0.022278 0.254334
vt 0.052523 0.238168
vt 0.067463 0.260527
vt 0.223278 0.009414
vt 0.213323 0.042232
vt 0.064722 0.306052
vt 0.086478 0.279542
vt 0.190310 0.002857
vt 0.186948 0.036986
vt 0.092672 0.324727
vt 0.108838 0.294482
vt 0.156696 0.002857
vt 0.160057 0.036986
vt 0.123727 0.337591
vt 0.133682 0.304773
vt 0.123727 0.009414
vt 0.133682 0.042232
vt 0.156696 0.344149
vt 0.160057 0.310020
vt 0.092671 0.022278
vt 0.108838 0.052523
vt 0.190310 0.344149
vt 0.186949 0.310020
vt 0.064722 0.040953
vt 0.086478 0.067463
vt 0.223278 0.337591
vt 0.213323 0.304773
vt 0.040953 0.064722
vt 0.067463 0.086478
vt 0.344149 0.190310
vt 0.337591 0.223278
vt 0.304773 0.213323
vt 0.310020 0.186948
vt 0.254334 0.324727
vt 0.238168 0.294482
vt 0.022278 0.092672
vt 0.052523 0.108838
vt 0.344149 0.156696
vt 0.310020 0.160057
vt 0.282283 0.306052
vt 0.260527 0.279542
vt 0.009414 0.123727
vt 0.042232 0.133682
vt 0.337591 0.123727
vt 0.304773 0.133682
vt 0.306052 0.282283
vt 0.279542 0.260527
vt 0.002857 0.156696
vt 0.036986 0.160057
vt 0.324727 0.092671
vt 0.294482 0.108838
vt 0.324727 0.254334
vt 0.294482 0.238168
vt 0.002857 0.190310
vt 0.036986 0.186949
vt 0.306052 0.064722
vt 0.279542 0.086478
vt 0.009414 0.223278
vt 0.042232 0.213323
vt 0.840563 0.671220
vt 0.840730 0.644329
vt 0.858829 0.644442
vt 0.858662 0.671333
vt 0.814311 0.195924
vt 0.815392 0.173571
vt 0.833491 0.173684
vt 0.832410 0.196037
vt 0.840068 0.697593
vt 0.858167 0.697705
vt 0.789034 0.021879
vt 0.787953 0.002857
vt 0.806052 0.002969
vt 0.807133 0.021991
vt 0.839265 0.722433
vt 0.857364 0.722545
vt 0.789837 0.044244
vt 0.807936 0.044356
vt 0.838184 0.744786
vt 0.856282 0.744898
vt 0.790332 0.069092
vt 0.808431 0.069204
vt 0.812907 0.570740
vt 0.811826 0.551718
vt 0.829925 0.551830
vt 0.831006 0.570853
vt 0.790499 0.095468
vt 0.808598 0.095581
vt 0.813710 0.593105
vt 0.831809 0.593217
vt 0.790332 0.122359
vt 0.808431 0.122471
vt 0.814205 0.617953
vt 0.832304 0.618066
vt 0.789837 0.148731
vt 0.807936 0.148844
vt 0.815392 0.021879
vt 0.814311 0.002857
vt 0.832410 0.002969
vt 0.833491 0.021991
vt 0.814372 0.644329
vt 0.832471 0.644442
vt 0.789034 0.173571
vt 0.807133 0.173684
vt 0.816196 0.044244
vt 0.834294 0.044356
vt 0.814205 0.671220
vt 0.832304 0.671333
vt 0.787953 0.195924
vt 0.806052 0.196037
vt 0.816690 0.069092
vt 0.834789 0.069204
vt 0.813710 0.697593
vt 0.831809 0.697705
vt 0.839265 0.570740
vt 0.838184 0.551718
vt 0.856282 0.551830
vt 0.857364 0.570853
vt 0.816857 0.095468
vt 0.834956 0.095580
vt 0.812907 0.722433
vt 0.831006 0.722545
vt 0.840068 0.593105
vt 0.858167 0.593217
vt 0.816690 0.122359
vt 0.834789 0.122471
vt 0.811826 0.744786
vt 0.829925 0.744898
vt 0.840563 0.617953
vt 0.858662 0.618066
vt 0.816196 0.148731
vt 0.834294 0.148844
vt 0.499825 0.275890
vt 0.522395 0.262099
vt 0.551044 0.260353
vt 0.526199 0.270644
vt 0.544197 0.242439
vt 0.573403 0.245413
vt 0.564202 0.218023
vt 0.592419 0.226398
vt 0.581432 0.190181
vt 0.607359 0.204039
vt 0.595010 0.160385
vt 0.617650 0.179194
vt 0.604197 0.130187
vt 0.622896 0.152819
vt 0.608431 0.101137
vt 0.622896 0.125928
vt 0.607359 0.074709
vt 0.617650 0.099553
vt 0.472933 0.275890
vt 0.492530 0.258813
vt 0.512965 0.235135
vt 0.533118 0.206393
vt 0.551853 0.174370
vt 0.568071 0.141002
vt 0.580773 0.108277
vt 0.589107 0.078131
vt 0.592419 0.052349
vt 0.446558 0.270644
vt 0.462599 0.250620
vt 0.480909 0.223783
vt 0.500364 0.191955
vt 0.519757 0.157215
vt 0.537868 0.121789
vt 0.553524 0.087930
vt 0.565665 0.057796
vt 0.573404 0.033334
vt 0.421714 0.260353
vt 0.433750 0.237836
vt 0.449260 0.208819
vt 0.467196 0.175263
vt 0.486379 0.139374
vt 0.505562 0.103484
vt 0.523498 0.069928
vt 0.539008 0.040911
vt 0.551044 0.018394
vt 0.399354 0.245413
vt 0.407093 0.220951
vt 0.419234 0.190817
vt 0.434890 0.156958
vt 0.453001 0.121532
vt 0.472394 0.086792
vt 0.491849 0.054964
vt 0.510159 0.028127
vt 0.526200 0.008103
vt 0.380339 0.226398
vt 0.383651 0.200616
vt 0.391985 0.170470
vt 0.404687 0.137745
vt 0.420905 0.104377
vt 0.439640 0.072354
vt 0.459793 0.043612
vt 0.480228 0.019934
vt 0.499825 0.002857
vt 0.365399 0.204038
vt 0.364327 0.177610
vt 0.368561 0.148560
vt 0.377748 0.118362
vt 0.391326 0.088567
vt 0.408556 0.060724
vt 0.428561 0.036308
vt 0.450363 0.016648
vt 0.472933 0.002857
vt 0.355108 0.179194
vt 0.349862 0.152819
vt 0.349862 0.125928
vt 0.355108 0.099553
vt 0.365399 0.074708
vt 0.380339 0.052349
vt 0.399355 0.033334
vt 0.421714 0.018394
vt 0.446559 0.008103
vt 0.750000 0.250000
vt 0.750000 0.490000
vt 0.957846 0.130000
vt 0.250000 0.490000
vt 0.250000 0.250000
vt 0.457846 0.130000
vt 0.542154 0.130000
vt 0.042154 0.130000
s 1
g Circle.001_Material.001
usemtl Material.001
f 20/1/1 21/2/2 53/3/3 52/4/4
f 7/5/5 8/6/6 40/7/7 39/8/8
f 21/2/2 22/9/9 54/10/10 53/3/3
f 8/6/6 9/11/11 41/12/12 40/7/7
f 22/9/9 23/13/13 55/14/14 54/10/10
f 9/11/11 10/15/15 42/16/16 41/12/12
f 23/13/13 24/17/17 56/18/18 55/14/14
f 10/15/15 11/19/19 43/20/20 42/16/16
f 24/17/17 25/21/21 57/22/22 56/18/18
f 11/19/19 12/23/23 44/24/24 43/20/20
f 25/21/21 26/25/25 58/26/26 57/22/22
f 12/27/23 13/28/27 45/29/28 44/30/24
f 26/25/25 27/31/29 59/32/30 58/26/26
f 13/28/27 14/33/31 46/34/32 45/29/28
f 27/31/29 28/35/33 60/36/34 59/32/30
f 14/33/31 15/37/35 47/38/36 46/34/32
f 1/39/37 2/40/38 34/41/39 33/42/40
f 28/35/33 29/43/41 61/44/42 60/36/34
f 15/37/35 16/45/43 48/46/44 47/38/36
f 2/40/38 3/47/45 35/48/46 34/41/39
f 29/49/41 30/50/47 62/51/48 61/52/42
f 16/45/43 17/53/49 49/54/50 48/46/44
f 3/47/45 4/55/51 36/56/52 35/48/46
f 30/50/47 31/57/53 63/58/54 62/51/48
f 17/53/49 18/59/55 50/60/56 49/54/50
f 4/55/51 5/61/57 37/62/58 36/56/52
f 31/57/53 32/63/59 64/64/60 63/58/54
f 18/59/55 19/65/61 51/66/62 50/60/56
f 5/67/57 6/68/63 38/69/64 37/70/58
f 32/63/59 1/39/37 33/42/40 64/64/60
f 19/65/61 20/71/1 52/72/4 51/66/62
f 6/68/63 7/5/5 39/8/8 38/69/64
f 56/18/18 57/22/22 89/73/65 88/74/66
f 43/20/20 44/24/24 76/75/67 75/76/68
f 57/22/22 58/26/26 90/77/69 89/73/65
f 44/24/24 45/78/28 77/79/70 76/75/67
f 58/26/26 59/32/30 91/80/71 90/77/69
f 45/29/28 46/34/32 78/81/72 77/82/70
f 59/32/30 60/36/34 92/83/73 91/80/71
f 46/34/32 47/38/36 79/84/74 78/81/72
f 33/42/40 34/41/39 66/85/75 65/86/76
f 60/36/34 61/44/42 93/87/77 92/83/73
f 47/38/36 48/46/44 80/88/78 79/84/74
f 34/41/39 35/48/46 67/89/79 66/85/75
f 61/52/42 62/51/48 94/90/80 93/91/77
f 48/46/44 49/54/50 81/92/81 80/88/78
f 35/48/46 36/56/52 68/93/82 67/89/79
f 62/51/48 63/58/54 95/94/83 94/90/80
f 49/54/50 50/60/56 82/95/84 81/92/81
f 36/56/52 37/62/58 69/96/85 68/93/82
f 63/58/54 64/64/60 96/97/86 95/94/83
f 50/60/56 51/66/62 83/98/87 82/95/84
f 37/70/58 38/69/64 70/99/88 69/100/85
f 64/64/60 33/42/40 65/86/76 96/97/86
f 51/66/62 52/72/4 84/101/89 83/98/87
f 38/69/64 39/8/8 71/102/90 70/99/88
f 52/4/4 53/3/3 85/103/91 84/104/89
f 39/8/8 40/7/7 72/105/92 71/102/90
f 53/3/3 54/10/10 86/106/93 85/103/91
f 40/7/7 41/12/12 73/107/94 72/105/92
f 54/10/10 55/14/14 87/108/95 86/106/93
f 41/12/12 42/16/16 74/109/96 73/107/94
f 55/14/14 56/18/18 88/74/66 87/108/95
f 42/16/16 43/20/20 75/76/68 74/109/96
f 82/95/84 83/98/87 115/110/97 114/111/98
f 69/100/85 70/99/88 102/112/99 101/113/100
f 96/97/86 65/86/76 97/114/101 128/115/102
f 83/98/87 84/101/89 116/116/103 115/110/97
f 70/99/88 71/102/90 103/117/104 102/112/99
f 84/104/89 85/103/91 117/118/105 116/119/103
f 71/102/90 72/105/92 104/120/106 103/117/104
f 85/103/91 86/106/93 118/121/107 117/118/105
f 72/105/92 73/107/94 105/122/108 104/120/106
f 86/106/93 87/108/95 119/123/109 118/121/107
f 73/107/94 74/109/96 106/124/110 105/122/108
f 87/108/95 88/74/66 120/125/111 119/123/109
f 74/109/96 75/76/68 107/126/112 106/124/110
f 88/74/66 89/73/65 121/127/113 120/125/111
f 75/76/68 76/75/67 108/128/114 107/126/112
f 89/73/65 90/77/69 122/129/115 121/127/113
f 76/75/67 77/79/70 109/130/116 108/128/114
f 90/77/69 91/80/71 123/131/117 122/129/115
f 77/82/70 78/81/72 110/132/118 109/133/116
f 91/80/71 92/83/73 124/134/119 123/131/117
f 78/81/72 79/84/74 111/135/120 110/132/118
f 65/86/76 66/85/75 98/136/121 97/114/101
f 92/83/73 93/87/77 125/137/122 124/134/119
f 79/84/74 80/88/78 112/138/123 111/135/120
f 66/85/75 67/89/79 99/139/124 98/136/121
f 93/91/77 94/90/80 126/140/125 125/141/122
f 80/88/78 81/92/81 113/142/126 112/138/123
f 67/89/79 68/93/82 100/143/127 99/139/124
f 94/90/80 95/94/83 127/144/128 126/140/125
f 81/92/81 82/95/84 114/111/98 113/142/126
f 68/93/82 69/96/85 101/145/100 100/143/127
f 95/94/83 96/97/86 128/115/102 127/144/128
f 100/146/127 101/113/100 133/147/129 132/148/130
f 127/144/128 128/115/102 160/149/131 159/150/132
f 114/111/98 115/110/97 147/151/133 146/152/134
f 101/113/100 102/112/99 134/153/135 133/147/129
f 128/115/102 97/114/101 129/154/136 160/149/131
f 115/110/97 116/116/103 148/155/137 147/151/133
f 102/112/99 103/117/104 135/156/138 134/153/135
f 116/119/103 117/118/105 149/157/139 148/158/137
f 103/117/104 104/120/106 136/159/140 135/156/138
f 117/118/105 118/121/107 150/160/141 149/157/139
f 104/120/106 105/122/108 137/161/142 136/159/140
f 118/121/107 119/123/109 151/162/143 150/160/141
f 105/122/108 106/124/110 138/163/144 137/161/142
f 119/123/109 120/125/111 152/164/145 151/162/143
f 106/124/110 107/126/112 139/165/146 138/163/144
f 120/125/111 121/127/113 153/166/147 152/164/145
f 107/126/112 108/128/114 140/167/148 139/165/146
f 121/127/113 122/129/115 154/168/149 153/166/147
f 108/128/114 109/130/116 141/169/150 140/167/148
f 122/129/115 123/131/117 155/170/151 154/168/149
f 109/133/116 110/132/118 142/171/152 141/172/150
f 123/131/117 124/134/119 156/173/153 155/170/151
f 110/132/118 111/135/120 143/174/154 142/171/152
f 97/114/101 98/136/121 130/175/155 129/154/136
f 124/134/119 125/137/122 157/176/156 156/173/153
f 111/135/120 112/138/123 144/177/157 143/174/154
f 98/136/121 99/139/124 131/178/158 130/175/155
f 125/141/122 126/140/125 158/179/159 157/180/156
f 112/138/123 113/142/126 145/181/160 144/177/157
f 99/139/124 100/143/127 132/182/130 131/178/158
f 126/140/125 127/144/128 159/150/132 158/179/159
f 113/142/126 114/111/98 146/152/134 145/181/160
f 135/156/138 136/159/140 168/183/161 167/184/162
f 149/157/139 150/160/141 182/185/163 181/186/164
f 136/159/140 137/161/142 169/187/165 168/183/161
f 150/160/141 151/162/143 183/188/166 182/185/163
f 137/161/142 138/163/144 170/189/167 169/187/165
f 151/162/143 152/164/145 184/190/168 183/188/166
f 138/163/144 139/165/146 171/191/169 170/189/167
f 152/164/145 153/166/147 185/192/170 184/190/168
f 139/165/146 140/167/148 172/193/171 171/191/169
f 153/166/147 154/168/149 186/194/172 185/192/170
f 140/167/148 141/169/150 173/195/173 172/193/171
f 154/168/149 155/170/151 187/196/174 186/194/172
f 141/172/150 142/171/152 174/197/175 173/198/173
f 155/170/151 156/173/153 188/199/176 187/196/174
f 142/171/152 143/174/154 175/200/177 174/197/175
f 129/154/136 130/175/155 162/201/178 161/202/179
f 156/203/153 157/180/156 189/204/180 188/205/176
f 143/174/154 144/177/157 176/206/181 175/200/177
f 130/175/155 131/178/158 163/207/182 162/201/178
f 157/180/156 158/179/159 190/208/183 189/204/180
f 144/177/157 145/181/160 177/209/184 176/206/181
f 131/178/158 132/182/130 164/210/185 163/207/182
f 158/179/159 159/150/132 191/211/186 190/208/183
f 145/181/160 146/152/134 178/212/187 177/209/184
f 132/148/130 133/147/129 165/213/188 164/214/185
f 159/150/132 160/149/131 192/215/189 191/211/186
f 146/152/134 147/151/133 179/216/190 178/212/187
f 133/147/129 134/153/135 166/217/191 165/213/188
f 160/149/131 129/154/136 161/202/179 192/215/189
f 147/151/133 148/155/137 180/218/192 179/216/190
f 134/153/135 135/156/138 167/184/162 166/217/191
f 148/155/137 149/219/139 181/220/164 180/218/192
f 170/189/167 171/191/169 193/221/193
f 184/190/168 185/192/170 193/222/193
f 171/191/169 172/193/171 193/221/193
f 185/192/170 186/194/172 193/222/193
f 172/223/171 173/198/173 193/224/193
f 186/194/172 187/196/174 193/222/193
f 173/198/173 174/197/175 193/224/193
f 187/225/174 188/205/176 193/226/193
f 174/197/175 175/200/177 193/224/193
f 161/202/179 162/201/178 193/226/193
f 188/205/176 189/204/180 193/226/193
f 175/200/177 176/206/181 193/224/193
f 162/201/178 163/207/182 193/226/193
f 189/204/180 190/208/183 193/226/193
f 176/206/181 177/209/184 193/224/193
f 163/207/182 164/210/185 193/226/193
f 190/208/183 191/211/186 193/226/193
f 177/209/184 178/212/187 193/224/193
f 164/210/185 165/227/188 193/226/193
f 191/211/186 192/215/189 193/226/193
f 178/212/187 179/216/190 193/224/193
f 165/213/188 166/217/191 193/221/193
f 192/215/189 161/202/179 193/226/193
f 179/216/190 180/218/192 193/224/193
f 166/217/191 167/184/162 193/221/193
f 180/218/192 181/220/164 193/224/193
f 167/184/162 168/183/161 193/221/193
f 181/220/164 182/228/163 193/224/193
f 168/183/161 169/187/165 193/221/193
f 182/185/163 183/188/166 193/222/193
f 169/187/165 170/189/167 193/221/193
f 183/188/166 184/190/168 193/222/193
f 484/735/292 485/736/292 486/737/292
f 485/738/293 488/739/293 486/740/293
f 484/735/292 486/737/292 487/741/292
f 486/740/294 488/739/294 487/742/294
f 484/735/292 487/741/292 485/736/292
f 487/742/295 488/739/295 485/738/295
f 489/735/292 490/736/292 491/737/292
f 490/738/296 493/739/296 491/740/296
f 489/735/292 491/737/292 492/741/292
f 491/740/297 493/739/297 492/742/297
f 489/735/292 492/741/292 490/736/292
f 492/742/298 493/739/298 490/738/298
f 494/735/299 496/737/299 495/736/299
f 495/738/300 496/740/300 498/739/300
f 494/735/299 497/741/299 496/737/299
f 496/740/301 497/742/301 498/739/301
f 494/735/299 495/736/299 497/741/299
f 497/742/302 495/738/302 498/739/302
f 499/735/303 501/737/303 500/736/303
f 500/738/304 501/740/304 503/739/304
f 499/735/303 502/741/303 501/737/303
f 501/740/305 502/742/305 503/739/305
f 499/735/303 500/736/303 502/741/303
f 502/742/306 500/738/306 503/739/306
f 504/735/307 505/736/307 506/737/307
f 505/738/308 508/739/308 506/740/308
f 504/735/307 506/737/307 507/741/307
f 506/740/309 508/739/309 507/742/309
f 504/735/307 507/741/307 505/736/307
f 507/742/310 508/739/310 505/738/310
f 509/735/311 511/737/311 510/736/311
f 510/738/312 511/740/312 513/739/312
f 509/735/311 512/741/311 511/737/311
f 511/740/313 512/742/313 513/739/313
f 509/735/311 510/736/311 512/741/311
f 512/742/314 510/738/314 513/739/314
f 514/735/315 516/737/315 515/736/315
f 515/738/316 516/740/316 518/739/316
f 514/735/315 517/741/315 516/737/315
f 516/740/317 517/742/317 518/739/317
f 514/735/315 515/736/315 517/741/315
f 517/742/318 515/738/318 518/739/318
f 519/735/319 520/736/319 521/737/319
f 520/738/320 523/739/320 521/740/320
f 519/735/319 521/737/319 522/741/319
f 521/740/321 523/739/321 522/742/321
f 519/735/319 522/741/319 520/736/319
f 522/742/322 523/739/322 520/738/322
f 524/735/323 525/736/323 526/737/323
f 525/738/324 528/739/324 526/740/324
f 524/735/323 526/737/323 527/741/323
f 526/740/325 528/739/325 527/742/325
f 524/735/323 527/741/323 525/736/323
f 527/742/326 528/739/326 525/738/326
f 529/735/323 530/736/323 531/737/323
f 530/738/327 533/739/327 531/740/327
f 529/735/323 531/737/323 532/741/323
f 531/740/328 533/739/328 532/742/328
f 529/735/323 532/741/323 530/736/323
f 532/742/329 533/739/329 530/738/329
f 534/735/330 536/737/330 535/736/330
f 535/738/331 536/740/331 538/739/331
f 534/735/330 537/741/330 536/737/330
f 536/740/332 537/742/332 538/739/332
f 534/735/330 535/736/330 537/741/330
f 537/742/333 535/738/333 538/739/333
f 539/735/334 541/737/334 540/736/334
f 540/738/335 541/740/335 543/739/335
f 539/735/334 542/741/334 541/737/334
f 541/740/336 542/742/336 543/739/336
f 539/735/334 540/736/334 542/741/334
f 542/742/337 540/738/337 543/739/337
f 544/735/338 545/736/338 546/737/338
f 545/738/339 548/739/339 546/740/339
f 544/735/338 546/737/338 547/741/338
f 546/740/340 548/739/340 547/742/340
f 544/735/338 547/741/338 545/736/338
f 547/742/341 548/739/341 545/738/341
f 549/735/342 551/737/342 550/736/342
f 550/738/343 551/740/343 553/739/343
f 549/735/342 552/741/342 551/737/342
f 551/740/344 552/742/344 553/739/344
f 549/735/342 550/736/342 552/741/342
f 552/742/345 550/738/345 553/739/345
g Circle.001_Material
usemtl Material
f 194/229/194 195/230/194 197/231/195 196/232/195
f 196/232/195 197/231/195 199/233/196 198/234/196
f 198/234/196 199/233/196 201/235/197 200/236/197
f 200/236/197 201/235/197 203/237/198 202/238/198
f 202/238/198 203/237/198 205/239/199 204/240/199
f 204/240/199 205/239/199 207/241/200 206/242/200
f 206/242/200 207/241/200 209/243/201 208/244/201
f 208/244/201 209/243/201 211/245/202 210/246/202
f 210/246/202 211/245/202 213/247/203 212/248/203
f 212/249/203 213/250/203 215/251/204 214/252/204
f 214/252/204 215/251/204 217/253/205 216/254/205
f 216/254/205 217/253/205 219/255/206 218/256/206
f 218/256/206 219/255/206 221/257/207 220/258/207
f 220/258/207 221/257/207 223/259/208 222/260/208
f 222/260/208 223/259/208 225/261/209 224/262/209
f 224/262/209 225/261/209 227/263/210 226/264/210
f 226/265/210 227/266/210 229/267/211 228/268/211
f 228/268/211 229/267/211 231/269/212 230/270/212
f 230/270/212 231/269/212 233/271/213 232/272/213
f 232/272/213 233/271/213 235/273/214 234/274/214
f 234/274/214 235/273/214 237/275/215 236/276/215
f 236/276/215 237/275/215 239/277/216 238/278/216
f 238/278/216 239/277/216 241/279/217 240/280/217
f 240/280/217 241/279/217 243/281/218 242/282/218
f 242/283/218 243/284/218 245/285/219 244/286/219
f 244/286/219 245/285/219 247/287/220 246/288/220
f 246/288/220 247/287/220 249/289/221 248/290/221
f 248/290/221 249/289/221 251/291/222 250/292/222
f 250/292/222 251/291/222 253/293/223 252/294/223
f 252/294/223 253/293/223 255/295/224 254/296/224
f 254/296/224 255/295/224 257/297/225 256/298/225
f 256/298/225 257/297/225 195/299/194 194/300/194
f 250/301/226 258/302/226 246/303/226 248/304/226
f 258/302/226 265/305/226 244/306/226 246/303/226
f 265/305/226 272/307/226 242/308/226 244/306/226
f 272/307/226 279/309/226 240/310/226 242/308/226
f 279/309/226 286/311/226 238/312/226 240/310/226
f 286/311/226 293/313/226 236/314/226 238/312/226
f 293/313/226 300/315/226 234/316/226 236/314/226
f 300/315/226 230/317/226 232/318/226 234/316/226
f 252/319/226 259/320/226 258/302/226 250/301/226
f 259/320/226 266/321/226 265/305/226 258/302/226
f 266/321/226 273/322/226 272/307/226 265/305/226
f 273/322/226 280/323/226 279/309/226 272/307/226
f 280/323/226 287/324/226 286/311/226 279/309/226
f 287/324/226 294/325/226 293/313/226 286/311/226
f 294/325/226 301/326/226 300/315/226 293/313/226
f 301/326/226 228/327/226 230/317/226 300/315/226
f 254/328/226 260/329/226 259/320/226 252/319/226
f 260/329/226 267/330/226 266/321/226 259/320/226
f 267/330/226 274/331/226 273/322/226 266/321/226
f 274/331/226 281/332/226 280/323/226 273/322/226
f 281/332/226 288/333/226 287/324/226 280/323/226
f 288/333/226 295/334/226 294/325/226 287/324/226
f 295/334/226 302/335/226 301/326/226 294/325/226
f 302/335/226 226/336/226 228/327/226 301/326/226
f 256/337/226 261/338/226 260/329/226 254/328/226
f 261/338/226 268/339/226 267/330/226 260/329/226
f 268/339/226 275/340/226 274/331/226 267/330/226
f 275/340/226 282/341/226 281/332/226 274/331/226
f 282/341/226 289/342/226 288/333/226 281/332/226
f 289/342/226 296/343/226 295/334/226 288/333/226
f 296/343/226 303/344/226 302/335/226 295/334/226
f 303/344/226 224/345/226 226/336/226 302/335/226
f 194/346/226 262/347/226 261/338/226 256/337/226
f 262/347/226 269/348/226 268/339/226 261/338/226
f 269/348/226 276/349/226 275/340/226 268/339/226
f 276/349/226 283/350/226 282/341/226 275/340/226
f 283/350/226 290/351/226 289/342/226 282/341/226
f 290/351/226 297/352/226 296/343/226 289/342/226
f 297/352/226 304/353/226 303/344/226 296/343/226
f 304/353/226 222/354/226 224/345/226 303/344/226
f 196/355/226 263/356/226 262/347/226 194/346/226
f 263/356/226 270/357/226 269/348/226 262/347/226
f 270/357/226 277/358/226 276/349/226 269/348/226
f 277/358/226 284/359/226 283/350/226 276/349/226
f 284/359/226 291/360/226 290/351/226 283/350/226
f 291/360/226 298/361/226 297/352/226 290/351/226
f 298/361/226 305/362/226 304/353/226 297/352/226
f 305/362/226 220/363/226 222/354/226 304/353/226
f 198/364/226 264/365/226 263/356/226 196/355/226
f 264/365/226 271/366/226 270/357/226 263/356/226
f 271/366/226 278/367/226 277/358/226 270/357/226
f 278/367/226 285/368/226 284/359/226 277/358/226
f 285/368/226 292/369/226 291/360/226 284/359/226
f 292/369/226 299/370/226 298/361/226 291/360/226
f 299/370/226 306/371/226 305/362/226 298/361/226
f 306/371/226 218/372/226 220/363/226 305/362/226
f 200/373/226 202/374/226 264/365/226 198/364/226
f 202/374/226 204/375/226 271/366/226 264/365/226
f 204/375/226 206/376/226 278/367/226 271/366/226
f 206/376/226 208/377/226 285/368/226 278/367/226
f 208/377/226 210/378/226 292/369/226 285/368/226
f 210/378/226 212/379/226 299/370/226 292/369/226
f 212/379/226 214/380/226 306/371/226 299/370/226
f 214/380/226 216/381/226 218/372/226 306/371/226
f 213/382/226 211/383/226 315/384/226 316/385/226
f 231/386/226 229/387/226 324/388/226 325/389/226
f 249/390/226 247/391/226 333/392/226 334/393/226
f 205/394/226 203/395/226 311/396/226 312/397/226
f 223/398/226 221/399/226 320/400/226 321/401/226
f 241/402/226 239/403/226 329/404/226 330/405/226
f 195/406/226 257/407/226 338/408/226 307/409/226
f 197/410/226 195/406/226 307/409/226 308/411/226
f 215/412/226 213/382/226 316/385/226 317/413/226
f 233/414/226 231/386/226 325/389/226 326/415/226
f 251/416/226 249/390/226 334/393/226 335/417/226
f 207/418/226 205/394/226 312/397/226 313/419/226
f 225/420/226 223/398/226 321/401/226 322/421/226
f 243/422/226 241/402/226 330/405/226 331/423/226
f 199/424/226 197/410/226 308/411/226 309/425/226
f 217/426/226 215/412/226 317/413/226 318/427/226
f 235/428/226 233/414/226 326/415/226 327/429/226
f 253/430/226 251/416/226 335/417/226 336/431/226
f 209/432/226 207/418/226 313/419/226 314/433/226
f 227/434/226 225/420/226 322/421/226 323/435/226
f 245/436/226 243/422/226 331/423/226 332/437/226
f 201/438/226 199/424/226 309/425/226 310/439/226
f 219/440/226 217/426/226 318/427/226 319/441/226
f 237/442/226 235/428/226 327/429/226 328/443/226
f 255/444/226 253/430/226 336/431/226 337/445/226
f 211/383/226 209/432/226 314/433/226 315/384/226
f 229/387/226 227/434/226 323/435/226 324/388/226
f 247/391/226 245/436/226 332/437/226 333/392/226
f 203/395/226 201/438/226 310/439/226 311/396/226
f 221/399/226 219/440/226 319/441/226 320/400/226
f 239/403/226 237/442/226 328/443/226 329/404/226
f 257/407/226 255/444/226 337/445/226 338/408/226
f 327/446/227 326/447/228 358/448/228 359/449/227
f 314/450/229 313/451/230 345/452/230 346/453/229
f 328/454/231 327/446/227 359/449/227 360/455/231
f 315/456/232 314/450/229 346/453/229 347/457/232
f 329/458/233 328/454/231 360/455/231 361/459/233
f 316/460/234 315/461/232 347/462/232 348/463/234
f 330/464/235 329/458/233 361/459/233 362/465/235
f 317/466/236 316/460/234 348/463/234 349/467/236
f 331/468/237 330/464/235 362/465/235 363/469/237
f 318/470/238 317/466/236 349/467/236 350/471/238
f 332/472/239 331/473/237 363/474/237 364/475/239
f 319/476/240 318/470/238 350/471/238 351/477/240
f 333/478/241 332/472/239 364/475/239 365/479/241
f 320/480/242 319/476/240 351/477/240 352/481/242
f 334/482/243 333/478/241 365/479/241 366/483/243
f 321/484/244 320/480/242 352/481/242 353/485/244
f 308/486/245 307/487/246 339/488/246 340/489/245
f 335/490/247 334/482/243 366/483/243 367/491/247
f 322/492/248 321/484/244 353/485/244 354/493/248
f 309/494/249 308/486/245 340/489/245 341/495/249
f 336/496/250 335/490/247 367/491/247 368/497/250
f 323/498/251 322/492/248 354/493/248 355/499/251
f 310/500/252 309/494/249 341/495/249 342/501/252
f 337/502/253 336/496/250 368/497/250 369/503/253
f 324/504/254 323/505/251 355/506/251 356/507/254
f 311/508/255 310/500/252 342/501/252 343/509/255
f 338/510/256 337/502/253 369/503/253 370/511/256
f 325/512/257 324/504/254 356/507/254 357/513/257
f 312/514/258 311/508/255 343/509/255 344/515/258
f 307/516/246 338/510/256 370/511/256 339/517/246
f 326/447/228 325/512/257 357/513/257 358/448/228
f 313/451/230 312/514/258 344/515/258 345/452/230
f 346/518/259 345/519/259 377/520/259 378/521/259
f 360/522/259 359/523/259 391/524/259 392/525/259
f 347/526/259 346/518/259 378/521/259 379/527/259
f 361/528/259 360/522/259 392/525/259 393/529/259
f 348/530/259 347/526/259 379/527/259 380/531/259
f 362/532/259 361/528/259 393/529/259 394/533/259
f 349/534/259 348/530/259 380/531/259 381/535/259
f 363/536/259 362/532/259 394/533/259 395/537/259
f 350/538/259 349/534/259 381/535/259 382/539/259
f 364/540/259 363/536/259 395/537/259 396/541/259
f 351/542/259 350/538/259 382/539/259 383/543/259
f 365/544/259 364/540/259 396/541/259 397/545/259
f 352/546/259 351/542/259 383/543/259 384/547/259
f 366/548/259 365/544/259 397/545/259 398/549/259
f 353/550/259 352/546/259 384/547/259 385/551/259
f 340/552/259 339/553/259 371/554/259 372/555/259
f 367/556/259 366/548/259 398/549/259 399/557/259
f 354/558/259 353/550/259 385/551/259 386/559/259
f 341/560/259 340/552/259 372/555/259 373/561/259
f 368/562/259 367/556/259 399/557/259 400/563/259
f 355/564/259 354/558/259 386/559/259 387/565/259
f 342/566/259 341/560/259 373/561/259 374/567/259
f 369/568/259 368/562/259 400/563/259 401/569/259
f 356/570/259 355/564/259 387/565/259 388/571/259
f 343/572/259 342/566/259 374/567/259 375/573/259
f 370/574/259 369/568/259 401/569/259 402/575/259
f 357/576/259 356/570/259 388/571/259 389/577/259
f 344/578/259 343/572/259 375/573/259 376/579/259
f 339/553/259 370/574/259 402/575/259 371/554/259
f 358/580/259 357/576/259 389/577/259 390/581/259
f 345/519/259 344/578/259 376/579/259 377/520/259
f 359/523/259 358/580/259 390/581/259 391/524/259
f 392/582/260 391/583/261 423/584/261 424/585/260
f 379/586/262 378/587/263 410/588/263 411/589/262
f 393/590/264 392/582/260 424/585/260 425/591/264
f 380/592/265 379/593/262 411/594/262 412/595/265
f 394/596/266 393/590/264 425/591/264 426/597/266
f 381/598/267 380/592/265 412/595/265 413/599/267
f 395/600/268 394/596/266 426/597/266 427/601/268
f 382/602/269 381/598/267 413/599/267 414/603/269
f 396/604/270 395/605/268 427/606/268 428/607/270
f 383/608/271 382/602/269 414/603/269 415/609/271
f 397/610/272 396/604/270 428/607/270 429/611/272
f 384/612/273 383/608/271 415/609/271 416/613/273
f 398/614/274 397/610/272 429/611/272 430/615/274
f 385/616/275 384/612/273 416/613/273 417/617/275
f 372/618/276 371/619/277 403/620/277 404/621/276
f 399/622/278 398/614/274 430/615/274 431/623/278
f 386/624/279 385/616/275 417/617/275 418/625/279
f 373/626/280 372/618/276 404/621/276 405/627/280
f 400/628/281 399/622/278 431/623/278 432/629/281
f 387/630/282 386/624/279 418/625/279 419/631/282
f 374/632/283 373/626/280 405/627/280 406/633/283
f 401/634/284 400/628/281 432/629/281 433/635/284
f 388/636/285 387/637/282 419/638/282 420/639/285
f 375/640/286 374/632/283 406/633/283 407/641/286
f 402/642/287 401/634/284 433/635/284 434/643/287
f 389/644/288 388/636/285 420/639/285 421/645/288
f 376/646/289 375/640/286 407/641/286 408/647/289
f 371/648/277 402/642/287 434/643/287 403/649/277
f 390/650/290 389/644/288 421/645/288 422/651/290
f 377/652/291 376/646/289 408/647/289 409/653/291
f 391/583/261 390/650/290 422/651/290 423/584/261
f 378/587/263 377/652/291 409/653/291 410/588/263
g Circle.001_Material.003
usemtl Material.003
f 410/654/259 435/655/259 412/656/259 411/657/259
f 435/655/259 442/658/259 413/659/259 412/656/259
f 442/658/259 449/660/259 414/661/259 413/659/259
f 449/660/259 456/662/259 415/663/259 414/661/259
f 456/662/259 463/664/259 416/665/259 415/663/259
f 463/664/259 470/666/259 417/667/259 416/665/259
f 470/666/259 477/668/259 418/669/259 417/667/259
f 477/668/259 420/670/259 419/671/259 418/669/259
f 409/672/259 436/673/259 435/655/259 410/654/259
f 436/673/259 443/674/259 442/658/259 435/655/259
f 443/674/259 450/675/259 449/660/259 442/658/259
f 450/675/259 457/676/259 456/662/259 449/660/259
f 457/676/259 464/677/259 463/664/259 456/662/259
f 464/677/259 471/678/259 470/666/259 463/664/259
f 471/678/259 478/679/259 477/668/259 470/666/259
f 478/679/259 421/680/259 420/670/259 477/668/259
f 408/681/259 437/682/259 436/673/259 409/672/259
f 437/682/259 444/683/259 443/674/259 436/673/259
f 444/683/259 451/684/259 450/675/259 443/674/259
f 451/684/259 458/685/259 457/676/259 450/675/259
f 458/685/259 465/686/259 464/677/259 457/676/259
f 465/686/259 472/687/259 471/678/259 464/677/259
f 472/687/259 479/688/259 478/679/259 471/678/259
f 479/688/259 422/689/259 421/680/259 478/679/259
f 407/690/259 438/691/259 437/682/259 408/681/259
f 438/691/259 445/692/259 444/683/259 437/682/259
f 445/692/259 452/693/259 451/684/259 444/683/259
f 452/693/259 459/694/259 458/685/259 451/684/259
f 459/694/259 466/695/259 465/686/259 458/685/259
f 466/695/259 473/696/259 472/687/259 465/686/259
f 473/696/259 480/697/259 479/688/259 472/687/259
f 480/697/259 423/698/259 422/689/259 479/688/259
f 406/699/259 439/700/259 438/691/259 407/690/259
f 439/700/259 446/701/259 445/692/259 438/691/259
f 446/701/259 453/702/259 452/693/259 445/692/259
f 453/702/259 460/703/259 459/694/259 452/693/259
f 460/703/259 467/704/259 466/695/259 459/694/259
f 467/704/259 474/705/259 473/696/259 466/695/259
f 474/705/259 481/706/259 480/697/259 473/696/259
f 481/706/259 424/707/259 423/698/259 480/697/259
f 405/708/259 440/709/259 439/700/259 406/699/259
f 440/709/259 447/710/259 446/701/259 439/700/259
f 447/710/259 454/711/259 453/702/259 446/701/259
f 454/711/259 461/712/259 460/703/259 453/702/259
f 461/712/259 468/713/259 467/704/259 460/703/259
f 468/713/259 475/714/259 474/705/259 467/704/259
f 475/714/259 482/715/259 481/706/259 474/705/259
f 482/715/259 425/716/259 424/707/259 481/706/259
f 404/717/259 441/718/259 440/709/259 405/708/259
f 441/718/259 448/719/259 447/710/259 440/709/259
f 448/719/259 455/720/259 454/711/259 447/710/259
f 455/720/259 462/721/259 461/712/259 454/711/259
f 462/721/259 469/722/259 468/713/259 461/712/259
f 469/722/259 476/723/259 475/714/259 468/713/259
f 476/723/259 483/724/259 482/715/259 475/714/259
f 483/724/259 426/725/259 425/716/259 482/715/259
f 403/726/259 434/727/259 441/718/259 404/717/259
f 434/727/259 433/728/259 448/719/259 441/718/259
f 433/728/259 432/729/259 455/720/259 448/719/259
f 432/729/259 431/730/259 462/721/259 455/720/259
f 431/730/259 430/731/259 469/722/259 462/721/259
f 430/731/259 429/732/259 476/723/259 469/722/259
f 429/732/259 428/733/259 483/724/259 476/723/259
f 428/733/259 427/734/259 426/725/259 483/724/259
