# Blender 5.0.1
# www.blender.org
mtllib 3D_Paint_v2.mtl
o Cube
v -0.526558 -0.737180 0.000000
v -0.526558 0.737180 0.000000
v 0.526558 -0.737180 0.000000
v 0.526558 0.737180 0.000000
v -0.526558 -0.737180 0.105311
v -0.526558 0.737180 0.105311
v 0.526558 0.737180 0.105311
v 0.526558 -0.737180 0.105311
v -0.421929 -0.632552 0.064442
v -0.421929 0.632552 0.064442
v 0.421929 0.632552 0.064442
v 0.421929 -0.632552 0.064442
v -0.453510 -0.664133 0.105311
v -0.421929 -0.632552 0.073731
v -0.431179 -0.641802 0.096062
v -0.421929 0.632552 0.073731
v -0.453510 0.664133 0.105311
v -0.431179 0.641802 0.096062
v 0.421929 -0.632552 0.073731
v 0.453510 -0.664133 0.105311
v 0.431179 -0.641802 0.096062
v 0.453510 0.664133 0.105311
v 0.421929 0.632552 0.073731
v 0.431179 0.641802 0.096062
vn -1.0000 -0.0000 -0.0000
vn 1.0000 -0.0000 -0.0000
vn -0.0000 -1.0000 -0.0000
vn -0.0000 1.0000 -0.0000
vn -0.0000 -0.0000 1.0000
vn 0.9239 -0.0000 0.3827
vn 0.3827 -0.0000 0.9239
vn -0.9239 -0.0000 0.3827
vn -0.3827 -0.0000 0.9239
vn -0.0000 0.3827 0.9239
vn -0.0000 0.9239 0.3827
vn -0.0000 -0.3827 0.9239
vn -0.0000 -0.9239 0.3827
vt 0.820949 0.632536
vt 0.820949 0.001912
vt 0.865613 0.001912
vt 0.865613 0.632536
vt 0.869438 0.632536
vt 0.869438 0.001912
vt 0.914102 0.001912
vt 0.914102 0.632536
vt 0.962590 0.001912
vt 0.962590 0.452358
vt 0.917927 0.452358
vt 0.917927 0.001912
vt 0.917927 0.906629
vt 0.917927 0.456183
vt 0.962590 0.456183
vt 0.962590 0.906629
vt 0.456183 0.543032
vt 0.456183 0.001912
vt 0.817124 0.001912
vt 0.817124 0.543032
vt 0.970355 0.546988
vt 0.970355 0.005869
vt 0.980339 0.001912
vt 0.980339 0.550945
vt 0.411562 0.591740
vt 0.411562 0.042708
vt 0.421114 0.033157
vt 0.421114 0.601292
vt 0.994148 0.005869
vt 0.994148 0.546988
vt 0.984164 0.550945
vt 0.984164 0.001912
vt 0.042708 0.042708
vt 0.042708 0.591740
vt 0.033157 0.601292
vt 0.033157 0.033157
vt 0.470107 0.546857
vt 0.470107 0.915711
vt 0.460123 0.911754
vt 0.460123 0.550813
vt 0.473932 0.915711
vt 0.473932 0.546857
vt 0.483916 0.550813
vt 0.483916 0.911754
vt 0.966415 0.546988
vt 0.966415 0.005869
vt 0.452358 0.001912
vt 0.452358 0.632536
vt 0.456183 0.911754
vt 0.456183 0.550813
vt 0.001912 0.632536
vt 0.001912 0.001912
vt 0.487855 0.550813
vt 0.487855 0.911754
vt 0.998088 0.005869
vt 0.998088 0.546988
s 0
g Cube_3D_Paint_v2_Material.1001
usemtl 3D_Paint_v2_Material.1001
f 5/1/1 6/2/1 2/3/1 1/4/1
f 3/5/2 4/6/2 7/7/2 8/8/2
f 1/9/3 3/10/3 8/11/3 5/12/3
f 4/13/4 2/14/4 6/15/4 7/16/4
f 14/21/6 16/22/6 18/23/6 15/24/6
f 15/25/7 18/26/7 17/27/7 13/28/7
f 23/29/8 19/30/8 21/31/8 24/32/8
f 24/33/9 21/34/9 20/35/9 22/36/9
f 13/28/10 20/35/10 21/34/10 15/25/10
f 15/37/11 21/38/11 19/39/11 14/40/11
f 22/36/12 17/27/12 18/26/12 24/33/12
f 24/41/13 18/42/13 16/43/13 23/44/13
f 16/22/2 14/21/2 9/45/2 10/46/2
f 13/28/5 17/27/5 6/47/5 5/48/5
f 14/40/4 19/39/4 12/49/4 9/50/4
f 20/35/5 13/28/5 5/48/5 8/51/5
f 17/27/5 22/36/5 7/52/5 6/47/5
f 23/44/3 16/43/3 10/53/3 11/54/3
f 22/36/5 20/35/5 8/51/5 7/52/5
f 19/30/1 23/29/1 11/55/1 12/56/1
g Cube_3D_Paint_v2_Material.001.1001
usemtl 3D_Paint_v2_Material.001.1001
f 12/17/5 11/18/5 10/19/5 9/20/5
