# Blender 5.0.1
# www.blender.org
mtllib 3D_Table_v2.mtl
o TableV2
v -0.510709 -0.003567 0.508199
v -0.510709 -0.003567 0.570645
v -0.520467 0.886684 0.580402
v -0.520467 0.886684 0.498442
v -0.448263 -0.003567 0.508199
v -0.438506 0.886684 0.498442
v -0.448263 -0.003567 0.570645
v -0.438506 0.886684 0.580402
v -0.510893 -0.003567 -0.570829
v -0.510893 -0.003567 -0.508016
v -0.520467 0.886684 -0.498442
v -0.520467 0.886684 -0.580402
v -0.448080 -0.003567 -0.570829
v -0.438506 0.886684 -0.580402
v -0.448080 -0.003567 -0.508016
v -0.438506 0.886684 -0.498442
v 0.462262 -0.003567 0.522198
v 0.462262 -0.003567 0.556646
v 0.438506 0.886684 0.580403
v 0.438506 0.886684 0.498442
v 0.496710 -0.003567 0.522198
v 0.520467 0.886684 0.498442
v 0.496710 -0.003567 0.556646
v 0.520467 0.886684 0.580403
v 0.447087 -0.003567 -0.571822
v 0.447087 -0.003567 -0.507023
v 0.438506 0.886684 -0.498442
v 0.438506 0.886684 -0.580402
v 0.511886 -0.003567 -0.571822
v 0.520467 0.886684 -0.580402
v 0.511886 -0.003567 -0.507023
v 0.520467 0.886684 -0.498442
v 0.000000 0.883160 -0.367029
v 0.000000 0.881390 -0.000000
v -0.272293 0.883160 -0.000000
v -0.272293 0.883160 -0.367029
v -0.272285 0.943222 -0.000000
v 0.000000 0.941452 -0.000000
v 0.000000 0.943222 -0.367018
v -0.272285 0.943222 -0.367018
v -0.675677 0.883160 -0.000000
v -0.680732 0.889280 -0.000000
v -0.680732 0.889280 -0.367028
v -0.675720 0.883160 -0.367029
v -0.667264 0.883160 -0.538831
v -0.671801 0.889280 -0.541020
v -0.646687 0.889280 -0.651634
v -0.642485 0.883160 -0.647908
v -0.555799 0.883160 -0.831254
v -0.559014 0.889280 -0.836636
v -0.476512 0.889280 -0.917572
v -0.474144 0.883160 -0.911187
v -0.381876 0.883160 -0.973194
v -0.383059 0.889280 -0.980043
v -0.272292 0.889280 -1.009329
v -0.272293 0.883160 -1.002016
v 0.000000 0.889280 -1.009329
v 0.000000 0.883160 -1.002062
v -0.680725 0.937102 -0.000000
v -0.675669 0.943222 -0.000000
v -0.675712 0.943222 -0.367018
v -0.680725 0.937102 -0.367019
v -0.671794 0.937102 -0.541011
v -0.667256 0.943222 -0.538820
v -0.642476 0.943222 -0.647897
v -0.646681 0.937102 -0.651626
v -0.559007 0.937102 -0.836627
v -0.555791 0.943222 -0.831243
v -0.474136 0.943222 -0.911176
v -0.476506 0.937102 -0.917563
v -0.383053 0.937102 -0.980035
v -0.381867 0.943222 -0.973183
v -0.272285 0.943222 -1.002005
v -0.272286 0.937102 -1.009320
v 0.000000 0.943222 -1.002051
v 0.000000 0.937102 -1.009320
v -0.442072 0.883160 -0.000000
v -0.442090 0.883160 -0.367029
v -0.615595 0.937102 -0.742214
v -0.615601 0.889280 -0.742223
v -0.272285 0.883160 -0.755386
v 0.000000 0.883160 -0.755062
v -0.445912 0.943222 -0.367018
v -0.445893 0.943222 -0.000000
v 0.000000 0.943222 -0.508776
v -0.272285 0.943222 -0.508766
v -0.611884 0.943222 -0.737657
v -0.611893 0.883160 -0.737668
v 0.000000 0.943222 -0.755414
v -0.272285 0.943222 -0.755386
v -0.469771 0.943222 -0.523793
v -0.318825 0.943222 -0.741998
v -0.372591 0.943222 -0.716868
v -0.419476 0.943222 -0.674287
v -0.450007 0.943222 -0.618149
v -0.465945 0.943222 -0.569058
v -0.469771 0.883160 -0.523793
v -0.465945 0.883160 -0.569058
v -0.318825 0.883160 -0.741998
v -0.450007 0.883160 -0.618149
v -0.372591 0.883160 -0.716868
v -0.419476 0.883160 -0.674287
v 0.272293 0.883160 -0.000000
v 0.272293 0.883160 -0.367029
v 0.272285 0.943222 -0.000000
v 0.272285 0.943222 -0.367018
v 0.680732 0.889280 -0.367028
v 0.680732 0.889280 -0.000000
v 0.675677 0.883160 -0.000000
v 0.675720 0.883160 -0.367029
v 0.646687 0.889280 -0.651634
v 0.671801 0.889280 -0.541020
v 0.667264 0.883160 -0.538831
v 0.642485 0.883160 -0.647908
v 0.476512 0.889280 -0.917572
v 0.559014 0.889280 -0.836636
v 0.555799 0.883160 -0.831254
v 0.474144 0.883160 -0.911187
v 0.272292 0.889280 -1.009329
v 0.383059 0.889280 -0.980043
v 0.381876 0.883160 -0.973194
v 0.272293 0.883160 -1.002016
v 0.675712 0.943222 -0.367018
v 0.675669 0.943222 -0.000000
v 0.680725 0.937102 -0.000000
v 0.680725 0.937102 -0.367019
v 0.642476 0.943222 -0.647897
v 0.667256 0.943222 -0.538820
v 0.671794 0.937102 -0.541011
v 0.646681 0.937102 -0.651626
v 0.474136 0.943222 -0.911176
v 0.555791 0.943222 -0.831243
v 0.559007 0.937102 -0.836627
v 0.476506 0.937102 -0.917563
v 0.272285 0.943222 -1.002005
v 0.381867 0.943222 -0.973183
v 0.383053 0.937102 -0.980035
v 0.272286 0.937102 -1.009320
v 0.442090 0.883160 -0.367029
v 0.442072 0.883160 -0.000000
v 0.615601 0.889280 -0.742223
v 0.615595 0.937102 -0.742214
v 0.272285 0.883160 -0.755386
v 0.445893 0.943222 -0.000000
v 0.445912 0.943222 -0.367018
v 0.272285 0.943222 -0.508766
v 0.611884 0.943222 -0.737657
v 0.611893 0.883160 -0.737668
v 0.272285 0.943222 -0.755386
v 0.469771 0.943222 -0.523793
v 0.318825 0.943222 -0.741998
v 0.372591 0.943222 -0.716868
v 0.419476 0.943222 -0.674287
v 0.450007 0.943222 -0.618149
v 0.465945 0.943222 -0.569058
v 0.469771 0.883160 -0.523793
v 0.318825 0.883160 -0.741998
v 0.465945 0.883160 -0.569058
v 0.372591 0.883160 -0.716868
v 0.450007 0.883160 -0.618149
v 0.419476 0.883160 -0.674287
v 0.000000 0.883160 0.367029
v -0.272293 0.883160 0.367029
v 0.000000 0.943222 0.367018
v -0.272285 0.943222 0.367018
v -0.680732 0.889280 0.367028
v -0.675720 0.883160 0.367029
v -0.646687 0.889280 0.651634
v -0.671801 0.889280 0.541020
v -0.667264 0.883160 0.538831
v -0.642485 0.883160 0.647908
v -0.476512 0.889280 0.917572
v -0.559014 0.889280 0.836636
v -0.555799 0.883160 0.831254
v -0.474144 0.883160 0.911187
v -0.272292 0.889280 1.009329
v -0.383059 0.889280 0.980043
v -0.381876 0.883160 0.973194
v -0.272293 0.883160 1.002016
v 0.000000 0.889280 1.009329
v 0.000000 0.883160 1.002062
v -0.675712 0.943222 0.367018
v -0.680725 0.937102 0.367019
v -0.642476 0.943222 0.647897
v -0.667256 0.943222 0.538820
v -0.671794 0.937102 0.541011
v -0.646681 0.937102 0.651626
v -0.474136 0.943222 0.911176
v -0.555791 0.943222 0.831243
v -0.559007 0.937102 0.836627
v -0.476506 0.937102 0.917563
v -0.272285 0.943222 1.002005
v -0.381867 0.943222 0.973183
v -0.383053 0.937102 0.980035
v -0.272286 0.937102 1.009320
v 0.000000 0.943222 1.002051
v 0.000000 0.937102 1.009320
v -0.442090 0.883160 0.367029
v -0.615601 0.889280 0.742223
v -0.615595 0.937102 0.742214
v 0.000000 0.883160 0.755062
v -0.272285 0.883160 0.755386
v -0.445912 0.943222 0.367018
v -0.272285 0.943222 0.508766
v 0.000000 0.943222 0.508776
v -0.611884 0.943222 0.737657
v -0.611893 0.883160 0.737668
v -0.272285 0.943222 0.755386
v 0.000000 0.943222 0.755414
v -0.469771 0.943222 0.523793
v -0.318825 0.943222 0.741998
v -0.372591 0.943222 0.716868
v -0.419476 0.943222 0.674287
v -0.450007 0.943222 0.618149
v -0.465945 0.943222 0.569058
v -0.469771 0.883160 0.523793
v -0.318825 0.883160 0.741998
v -0.465945 0.883160 0.569058
v -0.372591 0.883160 0.716868
v -0.450007 0.883160 0.618149
v -0.419476 0.883160 0.674287
v 0.272293 0.883160 0.367029
v 0.272285 0.943222 0.367018
v 0.680732 0.889280 0.367028
v 0.675720 0.883160 0.367029
v 0.667264 0.883160 0.538831
v 0.671801 0.889280 0.541020
v 0.646687 0.889280 0.651634
v 0.642485 0.883160 0.647908
v 0.555799 0.883160 0.831254
v 0.559014 0.889280 0.836636
v 0.476512 0.889280 0.917572
v 0.474144 0.883160 0.911187
v 0.381876 0.883160 0.973194
v 0.383059 0.889280 0.980043
v 0.272292 0.889280 1.009329
v 0.272293 0.883160 1.002016
v 0.675712 0.943222 0.367018
v 0.680725 0.937102 0.367019
v 0.671794 0.937102 0.541011
v 0.667256 0.943222 0.538820
v 0.642476 0.943222 0.647897
v 0.646681 0.937102 0.651626
v 0.559007 0.937102 0.836627
v 0.555791 0.943222 0.831243
v 0.474136 0.943222 0.911176
v 0.476506 0.937102 0.917563
v 0.383053 0.937102 0.980035
v 0.381867 0.943222 0.973183
v 0.272285 0.943222 1.002005
v 0.272286 0.937102 1.009320
v 0.442090 0.883160 0.367029
v 0.615595 0.937102 0.742214
v 0.615601 0.889280 0.742223
v 0.272285 0.883160 0.755386
v 0.445912 0.943222 0.367018
v 0.272285 0.943222 0.508766
v 0.611884 0.943222 0.737657
v 0.611893 0.883160 0.737668
v 0.272285 0.943222 0.755386
v 0.469771 0.943222 0.523793
v 0.318825 0.943222 0.741998
v 0.372591 0.943222 0.716868
v 0.419476 0.943222 0.674287
v 0.450007 0.943222 0.618149
v 0.465945 0.943222 0.569058
v 0.469771 0.883160 0.523793
v 0.465945 0.883160 0.569058
v 0.318825 0.883160 0.741998
v 0.450007 0.883160 0.618149
v 0.372591 0.883160 0.716868
v 0.419476 0.883160 0.674287
vn -0.9999 -0.0110 -0.0000
vn -0.0000 -0.0110 -0.9999
vn 0.9999 -0.0110 -0.0000
vn -0.0000 -0.0110 0.9999
vn -0.0000 -1.0000 -0.0000
vn -0.9999 -0.0108 -0.0000
vn -0.0000 -0.0108 -0.9999
vn 0.9999 -0.0108 -0.0000
vn -0.0000 -0.0108 0.9999
vn -0.9996 -0.0267 -0.0000
vn -0.0000 -0.0267 -0.9996
vn 0.9996 -0.0267 -0.0000
vn -0.0000 -0.0267 0.9996
vn -1.0000 -0.0096 -0.0000
vn -0.0000 -0.0096 -1.0000
vn 1.0000 -0.0096 -0.0000
vn -0.0000 -0.0096 1.0000
vn -0.0000 -1.0000 -0.0012
vn -0.0016 -1.0000 -0.0000
vn -0.0008 -1.0000 -0.0006
vn -0.0000 1.0000 -0.0000
vn -0.0000 1.0000 0.0012
vn 0.0008 1.0000 0.0006
vn 0.0016 1.0000 -0.0000
vn -0.7786 -0.6272 -0.0199
vn -0.7723 -0.6352 -0.0000
vn -0.7785 -0.6273 -0.0195
vn -0.7416 -0.6343 -0.2184
vn -0.7477 -0.6319 -0.2039
vn -0.7756 -0.6236 -0.0982
vn -0.7725 -0.6245 -0.1149
vn -0.4298 -0.7212 -0.5433
vn -0.4469 -0.7184 -0.5331
vn -0.5788 -0.6897 -0.4351
vn -0.5552 -0.6961 -0.4552
vn -0.0786 -0.7625 -0.6423
vn -0.0892 -0.7616 -0.6419
vn -0.2887 -0.7433 -0.6035
vn -0.2628 -0.7463 -0.6115
vn -0.0000 -0.7659 -0.6430
vn -0.7723 0.6353 -0.0000
vn -0.7786 0.6273 -0.0199
vn -0.7784 0.6274 -0.0195
vn -0.7476 0.6321 -0.2038
vn -0.7414 0.6345 -0.2183
vn -0.7724 0.6247 -0.1149
vn -0.7754 0.6237 -0.0982
vn -0.4468 0.7186 -0.5329
vn -0.4297 0.7214 -0.5432
vn -0.5551 0.6963 -0.4551
vn -0.5787 0.6898 -0.4350
vn -0.0892 0.7617 -0.6417
vn -0.0786 0.7626 -0.6421
vn -0.2627 0.7465 -0.6113
vn -0.2886 0.7435 -0.6033
vn -0.0000 0.7660 -0.6429
vn -1.0000 0.0001 -0.0000
vn -0.9997 0.0002 -0.0256
vn -0.9906 0.0002 -0.1368
vn -0.9068 0.0002 -0.4216
vn -0.9068 0.0002 -0.4217
vn -0.9619 0.0002 -0.2734
vn -0.4113 0.0002 -0.9115
vn -0.6308 0.0002 -0.7760
vn -0.0000 0.0002 -1.0000
vn -0.1289 0.0002 -0.9917
vn -0.7854 0.0002 -0.6190
vn -0.6750 0.6599 -0.3298
vn -0.6929 0.6539 -0.3038
vn -0.6931 -0.6536 -0.3039
vn -0.6752 -0.6597 -0.3299
vn 0.0008 -1.0000 -0.0006
vn 0.0016 -1.0000 -0.0000
vn -0.0016 1.0000 -0.0000
vn -0.0008 1.0000 0.0006
vn 0.7785 -0.6273 -0.0195
vn 0.7723 -0.6352 -0.0000
vn 0.7786 -0.6272 -0.0199
vn 0.7725 -0.6245 -0.1149
vn 0.7756 -0.6236 -0.0982
vn 0.7477 -0.6319 -0.2039
vn 0.7416 -0.6343 -0.2184
vn 0.5552 -0.6961 -0.4552
vn 0.5788 -0.6897 -0.4351
vn 0.4469 -0.7184 -0.5330
vn 0.4298 -0.7212 -0.5433
vn 0.2628 -0.7463 -0.6115
vn 0.2887 -0.7433 -0.6035
vn 0.0892 -0.7616 -0.6419
vn 0.0786 -0.7625 -0.6423
vn 0.7723 0.6353 -0.0000
vn 0.7784 0.6274 -0.0195
vn 0.7786 0.6273 -0.0199
vn 0.7754 0.6237 -0.0982
vn 0.7724 0.6247 -0.1149
vn 0.7414 0.6345 -0.2183
vn 0.7476 0.6321 -0.2038
vn 0.5787 0.6898 -0.4350
vn 0.5551 0.6963 -0.4551
vn 0.4297 0.7214 -0.5432
vn 0.4468 0.7186 -0.5329
vn 0.2886 0.7435 -0.6033
vn 0.2627 0.7465 -0.6113
vn 0.0786 0.7626 -0.6421
vn 0.0892 0.7617 -0.6417
vn 1.0000 0.0001 -0.0000
vn 0.9997 0.0002 -0.0256
vn 0.9906 0.0002 -0.1368
vn 0.9619 0.0002 -0.2734
vn 0.9068 0.0002 -0.4217
vn 0.9068 0.0002 -0.4216
vn 0.6308 0.0002 -0.7760
vn 0.4113 0.0002 -0.9115
vn 0.1289 0.0002 -0.9917
vn 0.7854 0.0002 -0.6190
vn 0.6929 0.6539 -0.3038
vn 0.6750 0.6599 -0.3298
vn 0.6752 -0.6597 -0.3299
vn 0.6931 -0.6536 -0.3039
vn -0.0000 -1.0000 0.0012
vn -0.0008 -1.0000 0.0006
vn -0.0000 1.0000 -0.0012
vn 0.0008 1.0000 -0.0006
vn -0.7786 -0.6272 0.0199
vn -0.7785 -0.6273 0.0195
vn -0.7477 -0.6319 0.2039
vn -0.7416 -0.6343 0.2184
vn -0.7725 -0.6245 0.1149
vn -0.7756 -0.6236 0.0982
vn -0.4469 -0.7184 0.5331
vn -0.4298 -0.7212 0.5433
vn -0.5552 -0.6961 0.4552
vn -0.5788 -0.6897 0.4351
vn -0.0892 -0.7616 0.6419
vn -0.0786 -0.7625 0.6423
vn -0.2628 -0.7463 0.6115
vn -0.2887 -0.7433 0.6035
vn -0.0000 -0.7659 0.6430
vn -0.7786 0.6273 0.0199
vn -0.7784 0.6274 0.0195
vn -0.7414 0.6345 0.2183
vn -0.7476 0.6321 0.2038
vn -0.7754 0.6237 0.0982
vn -0.7724 0.6247 0.1149
vn -0.4297 0.7214 0.5432
vn -0.4468 0.7186 0.5329
vn -0.5787 0.6898 0.4350
vn -0.5551 0.6963 0.4551
vn -0.0786 0.7626 0.6421
vn -0.0892 0.7617 0.6417
vn -0.2886 0.7435 0.6033
vn -0.2627 0.7465 0.6113
vn -0.0000 0.7660 0.6429
vn -0.9997 0.0002 0.0256
vn -0.9906 0.0002 0.1368
vn -0.9068 0.0002 0.4217
vn -0.9068 0.0002 0.4216
vn -0.9619 0.0002 0.2734
vn -0.4113 0.0002 0.9115
vn -0.6308 0.0002 0.7760
vn -0.0000 0.0002 1.0000
vn -0.1289 0.0002 0.9917
vn -0.7854 0.0002 0.6190
vn -0.6929 0.6539 0.3038
vn -0.6750 0.6599 0.3298
vn -0.6752 -0.6597 0.3299
vn -0.6931 -0.6536 0.3039
vn 0.0008 -1.0000 0.0006
vn -0.0008 1.0000 -0.0006
vn 0.7785 -0.6273 0.0195
vn 0.7786 -0.6272 0.0199
vn 0.7756 -0.6236 0.0982
vn 0.7725 -0.6245 0.1149
vn 0.7416 -0.6343 0.2184
vn 0.7477 -0.6319 0.2039
vn 0.5788 -0.6897 0.4351
vn 0.5552 -0.6961 0.4552
vn 0.4298 -0.7212 0.5433
vn 0.4469 -0.7184 0.5330
vn 0.2887 -0.7433 0.6035
vn 0.2628 -0.7463 0.6115
vn 0.0786 -0.7625 0.6423
vn 0.0892 -0.7616 0.6419
vn 0.7784 0.6274 0.0195
vn 0.7786 0.6273 0.0199
vn 0.7724 0.6247 0.1149
vn 0.7754 0.6237 0.0982
vn 0.7476 0.6321 0.2038
vn 0.7414 0.6345 0.2183
vn 0.5551 0.6963 0.4551
vn 0.5787 0.6898 0.4350
vn 0.4468 0.7186 0.5329
vn 0.4297 0.7214 0.5432
vn 0.2627 0.7465 0.6113
vn 0.2886 0.7435 0.6033
vn 0.0892 0.7617 0.6417
vn 0.0786 0.7626 0.6421
vn 0.9997 0.0002 0.0256
vn 0.9906 0.0002 0.1368
vn 0.9619 0.0002 0.2734
vn 0.9068 0.0002 0.4216
vn 0.9068 0.0002 0.4217
vn 0.6308 0.0002 0.7760
vn 0.4113 0.0002 0.9115
vn 0.1289 0.0002 0.9917
vn 0.7854 0.0002 0.6190
vn 0.6750 0.6599 0.3298
vn 0.6929 0.6539 0.3038
vn 0.6931 -0.6536 0.3039
vn 0.6752 -0.6597 0.3299
vt 0.438027 0.186588
vt 0.438425 0.150311
vt 0.955692 0.150311
vt 0.955170 0.197925
vt 0.953605 0.245515
vt 0.436835 0.222847
vt 0.953605 0.055107
vt 0.955170 0.102698
vt 0.438027 0.114035
vt 0.436835 0.077775
vt 0.035283 0.287840
vt 0.079765 0.287840
vt 0.079765 0.332321
vt 0.035283 0.332321
vt 0.707121 0.681258
vt 0.547091 0.681258
vt 0.547091 0.562534
vt 0.707121 0.562535
vt 0.547091 0.681259
vt 0.387067 0.680823
vt 0.387391 0.562103
vt 0.547415 0.562538
vt 0.001895 0.057665
vt 0.002095 0.000108
vt 0.003340 0.000112
vt 0.003136 0.057649
vt 0.002975 0.102727
vt 0.001727 0.102338
vt 0.001823 0.084702
vt 0.003041 0.084950
vt 0.002782 0.153174
vt 0.001375 0.152821
vt 0.001528 0.134645
vt 0.002858 0.135002
vt 0.002613 0.189098
vt 0.001098 0.188940
vt 0.001270 0.170630
vt 0.002708 0.170910
vt 0.002422 0.232848
vt 0.000881 0.232841
vt 0.012082 0.000143
vt 0.011873 0.057699
vt 0.010632 0.057675
vt 0.010837 0.000139
vt 0.011725 0.102372
vt 0.010474 0.102752
vt 0.010533 0.084975
vt 0.011753 0.084736
vt 0.011728 0.152856
vt 0.010319 0.153200
vt 0.010366 0.135027
vt 0.011699 0.134679
vt 0.011765 0.188976
vt 0.010249 0.189123
vt 0.010273 0.170935
vt 0.011713 0.170665
vt 0.011697 0.232876
vt 0.010156 0.232873
vt 0.547091 0.488508
vt 0.707121 0.488501
vt 0.010421 0.117766
vt 0.002923 0.117741
vt 0.876309 0.681258
vt 0.876450 0.562538
vt 0.387597 0.486399
vt 0.547621 0.486843
vt 0.325259 0.680654
vt 0.325587 0.561934
vt 0.011693 0.117367
vt 0.001654 0.117333
vt 0.217722 0.680361
vt 0.218058 0.561641
vt 0.387870 0.386203
vt 0.547895 0.386658
vt 0.547091 0.386653
vt 0.707121 0.386635
vt 0.984005 0.681258
vt 0.983985 0.562535
vt 0.319270 0.475810
vt 0.312952 0.389686
vt 0.110185 0.680068
vt 0.110528 0.561348
vt 0.123225 0.513603
vt 0.223950 0.541365
vt 0.234971 0.517953
vt 0.150371 0.473447
vt 0.253592 0.497560
vt 0.185320 0.437939
vt 0.278106 0.484315
vt 0.226191 0.413593
vt 0.299529 0.477424
vt 0.265364 0.400361
vt 0.775473 0.476432
vt 0.870613 0.542246
vt 0.795209 0.478100
vt 0.859656 0.518804
vt 0.816613 0.485049
vt 0.841090 0.498361
vt 0.971418 0.514755
vt 0.944382 0.474525
vt 0.909530 0.438922
vt 0.868725 0.414465
vt 0.829588 0.401126
vt 0.782029 0.390322
vt 0.707121 0.799982
vt 0.547091 0.799983
vt 0.546768 0.799979
vt 0.386743 0.799542
vt 0.001597 0.421341
vt 0.001547 0.487779
vt 0.000108 0.487778
vt 0.000171 0.421316
vt 0.001665 0.390106
vt 0.000278 0.390378
vt 0.000331 0.370434
vt 0.001736 0.370009
vt 0.001916 0.334322
vt 0.000464 0.334697
vt 0.000509 0.315081
vt 0.002016 0.314718
vt 0.002130 0.295953
vt 0.000622 0.296231
vt 0.000685 0.277262
vt 0.002237 0.277115
vt 0.010219 0.487780
vt 0.010212 0.421347
vt 0.011639 0.421323
vt 0.011659 0.487780
vt 0.011571 0.390389
vt 0.010185 0.390114
vt 0.010154 0.370020
vt 0.011558 0.370448
vt 0.011534 0.334719
vt 0.010084 0.334338
vt 0.010067 0.314737
vt 0.011573 0.315107
vt 0.011555 0.296261
vt 0.010049 0.295975
vt 0.010054 0.277139
vt 0.011606 0.277296
vt 0.707121 0.874016
vt 0.547091 0.874009
vt 0.001821 0.353269
vt 0.010114 0.353283
vt 0.876450 0.799978
vt 0.546561 0.875674
vt 0.386537 0.875246
vt 0.324940 0.799374
vt 0.011521 0.353727
vt 0.000412 0.353709
vt 0.217410 0.799081
vt 0.546288 0.975859
vt 0.386264 0.975442
vt 0.707121 0.975882
vt 0.547091 0.975864
vt 0.983985 0.799982
vt 0.318153 0.885462
vt 0.311366 0.971550
vt 0.109881 0.798787
vt 0.223192 0.819389
vt 0.122318 0.846601
vt 0.149244 0.886905
vt 0.234085 0.842861
vt 0.183998 0.922602
vt 0.252595 0.863354
vt 0.224736 0.947171
vt 0.277036 0.876733
vt 0.263837 0.960617
vt 0.298421 0.883741
vt 0.775473 0.886085
vt 0.795209 0.884417
vt 0.870613 0.820271
vt 0.816613 0.877468
vt 0.859656 0.843713
vt 0.841090 0.864156
vt 0.971418 0.847762
vt 0.944382 0.887992
vt 0.909530 0.923595
vt 0.868725 0.948052
vt 0.829588 0.961391
vt 0.782029 0.972195
vt 0.387062 0.681258
vt 0.387062 0.562535
vt 0.707116 0.681695
vt 0.707440 0.562975
vt 0.001750 0.999892
vt 0.001524 0.938218
vt 0.002854 0.938234
vt 0.003084 0.999887
vt 0.001336 0.890349
vt 0.002673 0.889932
vt 0.002747 0.908981
vt 0.001442 0.909246
vt 0.000949 0.836255
vt 0.002456 0.835876
vt 0.002542 0.855348
vt 0.001116 0.855731
vt 0.000645 0.797552
vt 0.002268 0.797383
vt 0.002374 0.816871
vt 0.000833 0.817171
vt 0.000425 0.750505
vt 0.002073 0.750499
vt 0.012216 0.938180
vt 0.012451 0.999852
vt 0.011117 0.999857
vt 0.010886 0.938206
vt 0.010708 0.889903
vt 0.012049 0.890310
vt 0.012082 0.909208
vt 0.010776 0.908952
vt 0.010533 0.835847
vt 0.012043 0.836215
vt 0.012015 0.855692
vt 0.010587 0.855320
vt 0.010451 0.797353
vt 0.012075 0.797511
vt 0.012023 0.817132
vt 0.010480 0.816842
vt 0.010343 0.750474
vt 0.011991 0.750470
vt 0.387061 0.488501
vt 0.002615 0.873843
vt 0.010648 0.873815
vt 0.217874 0.681258
vt 0.217733 0.562538
vt 0.707646 0.487272
vt 0.768924 0.681864
vt 0.769244 0.563144
vt 0.012012 0.874243
vt 0.001255 0.874281
vt 0.876461 0.682157
vt 0.876773 0.563437
vt 0.707919 0.387076
vt 0.387061 0.386635
vt 0.110178 0.681258
vt 0.110198 0.562535
vt 0.776030 0.477055
vt 0.782817 0.390967
vt 0.983998 0.682450
vt 0.984302 0.563730
vt 0.870991 0.543129
vt 0.971865 0.515917
vt 0.860098 0.519657
vt 0.944939 0.475613
vt 0.841588 0.499163
vt 0.910184 0.439915
vt 0.817147 0.485785
vt 0.869447 0.415346
vt 0.795762 0.478777
vt 0.830346 0.401901
vt 0.318710 0.476432
vt 0.223570 0.542246
vt 0.298974 0.478100
vt 0.234527 0.518804
vt 0.277570 0.485049
vt 0.253093 0.498361
vt 0.122765 0.514755
vt 0.149801 0.474525
vt 0.184653 0.438922
vt 0.225458 0.414465
vt 0.264594 0.401126
vt 0.312153 0.390322
vt 0.387062 0.799982
vt 0.706792 0.800415
vt 0.001544 0.554451
vt 0.000108 0.554475
vt 0.000165 0.585742
vt 0.001570 0.586021
vt 0.001604 0.606480
vt 0.000170 0.606043
vt 0.000206 0.642833
vt 0.001711 0.643226
vt 0.001774 0.663638
vt 0.000200 0.663255
vt 0.000262 0.683037
vt 0.001851 0.683333
vt 0.001920 0.703265
vt 0.000271 0.703106
vt 0.010221 0.554448
vt 0.011657 0.554471
vt 0.010213 0.586015
vt 0.011619 0.585735
vt 0.011639 0.606032
vt 0.010205 0.606472
vt 0.010184 0.643212
vt 0.011688 0.642815
vt 0.011764 0.663233
vt 0.010190 0.663622
vt 0.010195 0.683314
vt 0.011783 0.683011
vt 0.011874 0.703076
vt 0.010225 0.703244
vt 0.387062 0.874016
vt 0.010190 0.623637
vt 0.001653 0.623648
vt 0.217733 0.799979
vt 0.706586 0.876118
vt 0.768596 0.800583
vt 0.011638 0.623178
vt 0.000204 0.623192
vt 0.876125 0.800876
vt 0.706313 0.976314
vt 0.387061 0.975882
vt 0.110198 0.799982
vt 0.774913 0.886707
vt 0.781231 0.972831
vt 0.983655 0.801169
vt 0.970958 0.848915
vt 0.870233 0.821153
vt 0.943812 0.889071
vt 0.859212 0.844565
vt 0.908863 0.924579
vt 0.840591 0.864957
vt 0.867992 0.948925
vt 0.816077 0.878202
vt 0.828819 0.962157
vt 0.794654 0.885093
vt 0.318710 0.886085
vt 0.298974 0.884417
vt 0.223570 0.820271
vt 0.277570 0.877468
vt 0.234527 0.843713
vt 0.253093 0.864156
vt 0.122765 0.847762
vt 0.149801 0.887992
vt 0.184653 0.923595
vt 0.225458 0.948052
vt 0.264594 0.961391
vt 0.312153 0.972195
s 1
g TableV2_3D_Table_v2_Material.1001_1
usemtl 3D_Table_v2_Material.1001_1
f 1/1/1 2/2/1 3/3/1 4/4/1
f 6/5/2 5/6/2 1/1/2 4/4/2
f 6/7/3 8/8/3 7/9/3 5/10/3
f 7/9/4 8/8/4 3/3/4 2/2/4
f 5/11/5 7/12/5 2/13/5 1/14/5
f 9/2/6 10/9/6 11/8/6 12/3/6
f 14/4/7 13/1/7 9/2/7 12/3/7
f 14/4/8 16/5/8 15/6/8 13/1/8
f 15/10/9 16/7/9 11/8/9 10/9/9
f 13/11/5 15/12/5 10/13/5 9/14/5
f 17/6/10 18/1/10 19/4/10 20/5/10
f 22/8/11 21/9/11 17/10/11 20/7/11
f 22/8/12 24/3/12 23/2/12 21/9/12
f 23/2/13 24/3/13 19/4/13 18/1/13
f 21/11/5 23/12/5 18/13/5 17/14/5
f 25/4/14 26/5/14 27/6/14 28/1/14
f 30/2/15 29/3/15 25/4/15 28/1/15
f 30/2/16 32/9/16 31/8/16 29/3/16
f 31/8/17 32/9/17 27/10/17 26/7/17
f 29/11/5 31/12/5 26/13/5 25/14/5
f 33/15/18 34/16/5 35/17/19 36/18/20
f 38/19/21 39/20/22 40/21/23 37/22/24
f 44/23/25 41/24/26 42/25/26 43/26/27
f 47/27/28 48/28/29 45/29/30 46/30/31
f 51/31/32 52/32/33 49/33/34 50/34/35
f 55/35/36 56/36/37 53/37/38 54/38/39
f 57/39/40 58/40/40 56/36/37 55/35/36
f 60/41/41 61/42/42 62/43/43 59/44/41
f 65/45/44 66/46/45 63/47/46 64/48/47
f 69/49/48 70/50/49 67/51/50 68/52/51
f 73/53/52 74/54/53 71/55/54 72/56/55
f 75/57/56 76/58/56 74/54/53 73/53/52
f 59/44/57 62/43/58 43/26/58 42/25/57
f 36/18/20 35/17/19 77/59/5 78/60/5
f 63/47/59 46/30/59 43/26/58 62/43/58
f 79/61/60 80/62/61 47/27/62 66/46/62
f 71/55/63 54/38/63 51/31/64 70/50/64
f 82/63/5 33/15/18 36/18/20 81/64/5
f 76/58/65 57/39/65 55/35/66 74/54/66
f 37/22/24 40/21/23 83/65/21 84/66/21
f 39/20/22 85/67/21 86/68/21 40/21/23
f 74/54/66 55/35/66 54/38/63 71/55/63
f 72/56/55 71/55/54 70/50/49 69/49/48
f 54/38/39 53/37/38 52/32/33 51/31/32
f 70/50/64 51/31/64 50/34/67 67/51/67
f 68/52/51 67/51/50 79/61/68 87/69/69
f 50/34/35 49/33/34 88/70/70 80/62/71
f 66/46/62 47/27/62 46/30/59 63/47/59
f 64/48/47 63/47/46 62/43/43 61/42/42
f 46/30/31 45/29/30 44/23/25 43/26/27
f 85/67/21 89/71/21 90/72/21 86/68/21
f 84/66/21 83/65/21 61/73/21 60/74/21
f 78/60/5 77/59/5 41/75/5 44/76/5
f 58/77/5 82/63/5 81/64/5 56/78/5
f 40/21/23 86/68/21 91/79/21 83/65/21
f 83/65/21 91/79/21 64/80/21 61/73/21
f 89/71/21 75/81/21 73/82/21 90/72/21
f 80/62/71 88/70/70 48/28/29 47/27/28
f 87/69/69 79/61/68 66/46/45 65/45/44
f 67/51/67 50/34/67 80/62/61 79/61/60
f 90/72/21 73/82/21 72/83/21 92/84/21
f 93/85/21 92/84/21 72/83/21 69/86/21
f 94/87/21 93/85/21 69/86/21 68/88/21
f 95/89/21 94/87/21 68/88/21 87/90/21
f 96/91/21 95/89/21 87/90/21 65/92/21
f 91/79/21 96/91/21 65/92/21 64/80/21
f 86/68/21 90/72/21 92/84/21 91/79/21
f 92/84/21 93/85/21 96/91/21 91/79/21
f 93/85/21 94/87/21 95/89/21 96/91/21
f 81/64/5 36/18/20 78/60/5 97/93/5
f 99/94/5 81/64/5 97/93/5 98/95/5
f 101/96/5 99/94/5 98/95/5 100/97/5
f 102/98/5 101/96/5 100/97/5
f 56/78/5 81/64/5 99/94/5 53/99/5
f 99/94/5 101/96/5 52/100/5 53/99/5
f 101/96/5 102/98/5 49/101/5 52/100/5
f 102/98/5 100/97/5 88/102/5 49/101/5
f 100/97/5 98/95/5 48/103/5 88/102/5
f 98/95/5 97/93/5 45/104/5 48/103/5
f 97/93/5 78/60/5 44/76/5 45/104/5
f 104/105/72 103/106/73 34/16/5 33/15/18
f 105/107/74 106/108/75 39/20/22 38/19/21
f 107/109/76 108/110/77 109/111/77 110/112/78
f 112/113/79 113/114/80 114/115/81 111/116/82
f 116/117/83 117/118/84 118/119/85 115/120/86
f 120/121/87 121/122/88 122/123/89 119/124/90
f 119/124/90 122/123/89 58/40/40 57/39/40
f 125/125/91 126/126/92 123/127/93 124/128/91
f 128/129/94 129/130/95 130/131/96 127/132/97
f 132/133/98 133/134/99 134/135/100 131/136/101
f 136/137/102 137/138/103 138/139/104 135/140/105
f 135/140/105 138/139/104 76/58/56 75/57/56
f 108/110/106 107/109/107 126/126/107 125/125/106
f 139/141/5 140/142/5 103/106/73 104/105/72
f 126/126/107 107/109/107 112/113/108 129/130/108
f 130/131/109 111/116/109 141/143/110 142/144/111
f 134/135/112 115/120/112 120/121/113 137/138/113
f 143/145/5 104/105/72 33/15/18 82/63/5
f 138/139/114 119/124/114 57/39/65 76/58/65
f 144/146/21 145/147/21 106/108/75 105/107/74
f 106/108/75 146/148/21 85/67/21 39/20/22
f 137/138/113 120/121/113 119/124/114 138/139/114
f 131/136/101 134/135/100 137/138/103 136/137/102
f 115/120/86 118/119/85 121/122/88 120/121/87
f 133/134/115 116/117/115 115/120/112 134/135/112
f 147/149/116 142/144/117 133/134/99 132/133/98
f 141/143/118 148/150/119 117/118/84 116/117/83
f 129/130/108 112/113/108 111/116/109 130/131/109
f 123/127/93 126/126/92 129/130/95 128/129/94
f 107/109/76 110/112/78 113/114/80 112/113/79
f 146/148/21 149/151/21 89/71/21 85/67/21
f 124/152/21 123/153/21 145/147/21 144/146/21
f 110/154/5 109/155/5 140/142/5 139/141/5
f 122/156/5 143/145/5 82/63/5 58/77/5
f 145/147/21 150/157/21 146/148/21 106/108/75
f 123/153/21 128/158/21 150/157/21 145/147/21
f 149/151/21 135/159/21 75/81/21 89/71/21
f 111/116/82 114/115/81 148/150/119 141/143/118
f 127/132/97 130/131/96 142/144/117 147/149/116
f 142/144/111 141/143/110 116/117/115 133/134/115
f 151/160/21 136/161/21 135/159/21 149/151/21
f 131/162/21 136/161/21 151/160/21 152/163/21
f 132/164/21 131/162/21 152/163/21 153/165/21
f 147/166/21 132/164/21 153/165/21 154/167/21
f 127/168/21 147/166/21 154/167/21 155/169/21
f 128/158/21 127/168/21 155/169/21 150/157/21
f 150/157/21 151/160/21 149/151/21 146/148/21
f 150/157/21 155/169/21 152/163/21 151/160/21
f 155/169/21 154/167/21 153/165/21 152/163/21
f 156/170/5 139/141/5 104/105/72 143/145/5
f 158/171/5 156/170/5 143/145/5 157/172/5
f 160/173/5 158/171/5 157/172/5 159/174/5
f 161/175/5 160/173/5 159/174/5
f 121/176/5 157/172/5 143/145/5 122/156/5
f 121/176/5 118/177/5 159/174/5 157/172/5
f 118/177/5 117/178/5 161/175/5 159/174/5
f 117/178/5 148/179/5 160/173/5 161/175/5
f 148/179/5 114/180/5 158/171/5 160/173/5
f 114/180/5 113/181/5 156/170/5 158/171/5
f 113/181/5 110/154/5 139/141/5 156/170/5
f 34/16/5 162/182/120 163/183/121 35/17/19
f 164/184/122 38/19/21 37/22/24 165/185/123
f 41/186/26 167/187/124 166/188/125 42/189/26
f 171/190/126 168/191/127 169/192/128 170/193/129
f 175/194/130 172/195/131 173/196/132 174/197/133
f 179/198/134 176/199/135 177/200/136 178/201/137
f 181/202/138 180/203/138 176/199/135 179/198/134
f 182/204/139 60/205/41 59/206/41 183/207/140
f 187/208/141 184/209/142 185/210/143 186/211/144
f 191/212/145 188/213/146 189/214/147 190/215/148
f 195/216/149 192/217/150 193/218/151 194/219/152
f 197/220/153 196/221/153 192/217/150 195/216/149
f 183/207/154 59/206/57 42/189/57 166/188/154
f 35/17/19 163/183/121 198/222/5 77/59/5
f 169/192/155 186/211/155 183/207/154 166/188/154
f 199/223/156 200/224/157 187/208/158 168/191/158
f 177/200/159 194/219/159 191/212/160 172/195/160
f 162/182/120 201/225/5 202/226/5 163/183/121
f 180/203/161 197/220/161 195/216/162 176/199/162
f 165/185/123 37/22/24 84/66/21 203/227/21
f 205/228/21 164/184/122 165/185/123 204/229/21
f 176/199/162 195/216/162 194/219/159 177/200/159
f 194/219/152 193/218/151 188/213/146 191/212/145
f 178/201/137 177/200/136 172/195/131 175/194/130
f 172/195/160 191/212/160 190/215/163 173/196/163
f 190/215/148 189/214/147 206/230/164 200/224/165
f 174/197/133 173/196/132 199/223/166 207/231/167
f 168/191/158 187/208/158 186/211/155 169/192/155
f 186/211/144 185/210/143 182/204/139 183/207/140
f 170/193/129 169/192/128 166/188/125 167/187/124
f 209/232/21 205/228/21 204/229/21 208/233/21
f 203/227/21 84/66/21 60/74/21 182/234/21
f 77/59/5 198/222/5 167/235/5 41/75/5
f 201/225/5 181/236/5 179/237/5 202/226/5
f 204/229/21 165/185/123 203/227/21 210/238/21
f 210/238/21 203/227/21 182/234/21 185/239/21
f 196/240/21 209/232/21 208/233/21 192/241/21
f 207/231/167 199/223/166 168/191/127 171/190/126
f 200/224/165 206/230/164 184/209/142 187/208/141
f 173/196/163 190/215/163 200/224/157 199/223/156
f 192/241/21 208/233/21 211/242/21 193/243/21
f 211/242/21 212/244/21 188/245/21 193/243/21
f 212/244/21 213/246/21 189/247/21 188/245/21
f 213/246/21 214/248/21 206/249/21 189/247/21
f 214/248/21 215/250/21 184/251/21 206/249/21
f 215/250/21 210/238/21 185/239/21 184/251/21
f 208/233/21 204/229/21 210/238/21 211/242/21
f 212/244/21 211/242/21 210/238/21 215/250/21
f 213/246/21 212/244/21 215/250/21 214/248/21
f 163/183/121 202/226/5 216/252/5 198/222/5
f 202/226/5 217/253/5 218/254/5 216/252/5
f 217/253/5 219/255/5 220/256/5 218/254/5
f 221/257/5 220/256/5 219/255/5
f 202/226/5 179/237/5 178/258/5 217/253/5
f 219/255/5 217/253/5 178/258/5 175/259/5
f 221/257/5 219/255/5 175/259/5 174/260/5
f 220/256/5 221/257/5 174/260/5 207/261/5
f 218/254/5 220/256/5 207/261/5 171/262/5
f 216/252/5 218/254/5 171/262/5 170/263/5
f 198/222/5 216/252/5 170/263/5 167/235/5
f 103/106/73 222/264/168 162/182/120 34/16/5
f 223/265/169 105/107/74 38/19/21 164/184/122
f 108/110/77 224/266/170 225/267/171 109/111/77
f 226/268/172 227/269/173 228/270/174 229/271/175
f 230/272/176 231/273/177 232/274/178 233/275/179
f 234/276/180 235/277/181 236/278/182 237/279/183
f 237/279/183 236/278/182 180/203/138 181/202/138
f 239/280/184 125/125/91 124/128/91 238/281/185
f 240/282/186 241/283/187 242/284/188 243/285/189
f 244/286/190 245/287/191 246/288/192 247/289/193
f 248/290/194 249/291/195 250/292/196 251/293/197
f 251/293/197 250/292/196 196/221/153 197/220/153
f 224/266/198 108/110/106 125/125/106 239/280/198
f 140/142/5 252/294/5 222/264/168 103/106/73
f 224/266/198 239/280/198 240/282/199 227/269/199
f 228/270/200 243/285/200 253/295/201 254/296/202
f 232/274/203 247/289/203 248/290/204 235/277/204
f 222/264/168 255/297/5 201/225/5 162/182/120
f 236/278/205 251/293/205 197/220/161 180/203/161
f 256/298/21 144/146/21 105/107/74 223/265/169
f 257/299/21 223/265/169 164/184/122 205/228/21
f 235/277/204 248/290/204 251/293/205 236/278/205
f 247/289/193 246/288/192 249/291/195 248/290/194
f 233/275/179 232/274/178 235/277/181 234/276/180
f 231/273/206 244/286/206 247/289/203 232/274/203
f 253/295/207 258/300/208 245/287/191 244/286/190
f 259/301/209 254/296/210 231/273/177 230/272/176
f 227/269/199 240/282/199 243/285/200 228/270/200
f 239/280/184 238/281/185 241/283/187 240/282/186
f 225/267/171 224/266/170 227/269/173 226/268/172
f 260/302/21 257/299/21 205/228/21 209/232/21
f 238/303/21 124/152/21 144/146/21 256/298/21
f 109/155/5 225/304/5 252/294/5 140/142/5
f 255/297/5 237/305/5 181/236/5 201/225/5
f 261/306/21 256/298/21 223/265/169 257/299/21
f 241/307/21 238/303/21 256/298/21 261/306/21
f 250/308/21 260/302/21 209/232/21 196/240/21
f 229/271/175 228/270/174 254/296/210 259/301/209
f 243/285/189 242/284/188 258/300/208 253/295/207
f 254/296/202 253/295/201 244/286/206 231/273/206
f 249/309/21 262/310/21 260/302/21 250/308/21
f 249/309/21 246/311/21 263/312/21 262/310/21
f 246/311/21 245/313/21 264/314/21 263/312/21
f 245/313/21 258/315/21 265/316/21 264/314/21
f 258/315/21 242/317/21 266/318/21 265/316/21
f 242/317/21 241/307/21 261/306/21 266/318/21
f 262/310/21 261/306/21 257/299/21 260/302/21
f 266/318/21 261/306/21 262/310/21 263/312/21
f 265/316/21 266/318/21 263/312/21 264/314/21
f 252/294/5 267/319/5 255/297/5 222/264/168
f 267/319/5 268/320/5 269/321/5 255/297/5
f 268/320/5 270/322/5 271/323/5 269/321/5
f 272/324/5 271/323/5 270/322/5
f 269/321/5 234/325/5 237/305/5 255/297/5
f 233/326/5 234/325/5 269/321/5 271/323/5
f 230/327/5 233/326/5 271/323/5 272/324/5
f 259/328/5 230/327/5 272/324/5 270/322/5
f 229/329/5 259/328/5 270/322/5 268/320/5
f 226/330/5 229/329/5 268/320/5 267/319/5
f 225/304/5 226/330/5 267/319/5 252/294/5
